<svg width="77" height="69" viewBox="0 0 77 69" fill="none" xmlns="http://www.w3.org/2000/svg">
<path d="M73.3268 57.9492H3.21412C1.44187 57.9492 0 59.3903 0 61.1618V65.2625C0 67.0347 1.44187 68.4766 3.21412 68.4766H63.387C64.0063 68.4766 64.5082 67.9746 64.5082 67.3554C64.5082 66.7362 64.0063 66.2342 63.387 66.2342H48.1976V60.1916H73.3268C73.8626 60.1916 74.2985 60.627 74.2985 61.1618V65.2625C74.2985 65.7983 73.8626 66.2342 73.3268 66.2342H68.5744C67.955 66.2342 67.4532 66.7362 67.4532 67.3554C67.4532 67.9746 67.955 68.4766 68.5744 68.4766H73.3268C75.0991 68.4766 76.5409 67.0347 76.5409 65.2625V61.1618C76.5409 59.3903 75.0991 57.9492 73.3268 57.9492ZM18.2728 60.1916H24.112L20.9293 66.2342H15.0899L18.2728 60.1916ZM12.5556 66.2342H6.71632L9.89905 60.1916H15.7384L12.5556 66.2342ZM26.6466 60.1916H32.4859L29.3031 66.2342H23.4638L26.6466 60.1916ZM35.0205 60.1916H40.8597L37.6768 66.2342H31.8376L35.0205 60.1916ZM2.24241 65.2625V61.1618C2.24241 60.6268 2.67833 60.1916 3.21412 60.1916H7.36452L4.1818 66.2342H3.21412C2.67833 66.2342 2.24241 65.7983 2.24241 65.2625ZM45.9552 66.2342H40.2112L43.3941 60.1916H45.9552V66.2342Z" fill="url(#paint0_linear_6_5853)"/>
<path d="M27.6198 29.6285L31.8068 29.9635C32.2301 31.512 32.847 33.0001 33.6453 34.3977L30.9203 37.5967C30.1234 38.5321 30.18 39.9454 31.0487 40.8143L34.4029 44.1683C35.2718 45.0373 36.6854 45.0937 37.6204 44.2969L40.8194 41.5717C42.2168 42.3699 43.7052 42.987 45.2535 43.4104L45.5885 47.5974C45.6865 48.8222 46.7257 49.7817 47.9544 49.7817H52.6979C53.9266 49.7817 54.9658 48.8222 55.0639 47.5974L55.3988 43.4105C56.9471 42.9872 58.4353 42.3703 59.8329 41.5719L63.0318 44.2969C63.9669 45.0937 65.3802 45.0375 66.2495 44.1685L69.6037 40.8143C70.4726 39.9454 70.5288 38.5321 69.732 37.5968L67.007 34.3978C67.8051 33.0005 68.4223 31.5123 68.8456 29.9637L73.0325 29.6287C74.2573 29.5307 75.2168 28.4915 75.2168 27.2626V22.5192C75.2168 21.2903 74.2573 20.2512 73.0326 20.1531L68.8456 19.8181C68.4223 18.2695 67.8051 16.7813 67.007 15.384L69.7321 12.185C70.5288 11.2496 70.4723 9.83626 69.6036 8.96755L66.2498 5.6132C65.3811 4.74434 63.9675 4.68798 63.0324 5.48479L59.8334 8.20976C58.4358 7.41147 56.9475 6.7945 55.3992 6.37128L55.0642 2.18426C54.9663 0.959453 53.927 0 52.6983 0H47.9549C46.7262 0 45.6869 0.959453 45.5888 2.18426L45.254 6.37114C43.7055 6.79435 42.2173 7.41147 40.8198 8.20976L37.6205 5.48479C36.6851 4.68768 35.2718 4.74419 34.4029 5.6132L31.0489 8.96725C30.18 9.83611 30.1235 11.2494 30.9203 12.1848L33.6453 15.3838C32.8473 16.7812 32.2302 18.2691 31.8067 19.818L27.62 20.153C26.395 20.2509 25.4355 21.2902 25.4355 22.519V27.2625C25.4355 28.4913 26.395 29.5307 27.6198 29.6285ZM27.678 22.519C27.678 22.4512 27.7309 22.3938 27.7989 22.3882L32.3803 22.0215C33.1019 21.9638 33.7044 21.4545 33.8793 20.7547C34.2819 19.1488 34.9191 17.6122 35.7732 16.1874C36.1441 15.568 36.0785 14.782 35.6092 14.2312L32.6276 10.7308C32.5835 10.6791 32.5866 10.6009 32.6347 10.5529L35.9889 7.19874C36.0368 7.15075 36.115 7.14761 36.1665 7.19171L39.6672 10.1735C40.218 10.6426 41.004 10.7083 41.6237 10.3372C43.0483 9.48315 44.5848 8.84601 46.1905 8.44357C46.8905 8.26822 47.3997 7.6659 47.4577 6.94445L47.8241 2.36305C47.8296 2.29533 47.887 2.24226 47.9549 2.24226H52.6983C52.7662 2.24226 52.8236 2.29533 52.829 2.36305L53.1957 6.94489C53.2535 7.66605 53.7627 8.26836 54.4627 8.44372C56.0682 8.84616 57.6049 9.4833 59.0295 10.3374C59.649 10.7087 60.4351 10.6428 60.9861 10.1737L64.4868 7.19171C64.5386 7.14791 64.6166 7.1509 64.6644 7.19888L68.0186 10.5531C68.0666 10.6011 68.0697 10.6793 68.0258 10.7308L65.0438 14.2314C64.5747 14.7821 64.5091 15.5682 64.8801 16.1877C65.7341 17.6123 66.3713 19.1488 66.7739 20.7547C66.9494 21.4548 67.5517 21.9638 68.2728 22.0215L72.8543 22.3882C72.9219 22.3936 72.9751 22.451 72.9751 22.519V27.2625C72.9751 27.3305 72.9222 27.3879 72.8543 27.3933L68.2729 27.7598C67.5518 27.8175 66.9493 28.3267 66.7739 29.0268C66.3713 30.6328 65.7341 32.1693 64.88 33.5941C64.5091 34.2135 64.5747 34.9995 65.044 35.5503L68.0258 39.0508C68.0697 39.1026 68.0666 39.1807 68.0186 39.2287L64.6646 42.5828C64.6166 42.6309 64.5384 42.634 64.4867 42.5899L60.9861 39.6081C60.4355 39.1389 59.6491 39.073 59.0298 39.4443C57.6049 40.2984 56.0682 40.9355 54.4627 41.3379C53.7627 41.5133 53.2535 42.1156 53.1955 42.8371L52.8291 47.4185C52.8236 47.4862 52.7662 47.5392 52.6983 47.5392H47.9549C47.887 47.5392 47.8296 47.4862 47.8242 47.4185L47.4575 42.8366C47.3997 42.1155 46.8905 41.5131 46.1905 41.3378C44.585 40.9354 43.0483 40.2982 41.6235 39.444C41.3561 39.2837 41.0575 39.205 40.7603 39.205C40.3693 39.205 39.9803 39.3413 39.6672 39.6078L36.1665 42.5898C36.1151 42.6336 36.0369 42.6306 35.9889 42.5826L32.6346 39.2284C32.5866 39.1804 32.5835 39.1023 32.6274 39.0507L35.6094 35.5501C36.0786 34.9991 36.1443 34.2128 35.7731 33.5938C34.919 32.1692 34.2819 30.6325 33.8796 29.0268C33.7041 28.3267 33.1016 27.8175 32.3804 27.7598L27.7989 27.3933C27.7312 27.3879 27.6781 27.3305 27.6781 27.2625V22.519H27.678Z" fill="url(#paint1_linear_6_5853)"/>
<path d="M55.6446 24.8887C55.6446 21.9561 53.2588 19.5703 50.3262 19.5703C47.3936 19.5703 45.0078 21.9561 45.0078 24.8887C45.0078 27.8213 47.3936 30.2071 50.3262 30.2071C53.2588 30.2071 55.6446 27.8213 55.6446 24.8887ZM47.2501 24.8887C47.2501 23.1926 48.6299 21.8127 50.3261 21.8127C52.0222 21.8127 53.4021 23.1926 53.4021 24.8887C53.4021 26.5849 52.0222 27.9647 50.3261 27.9647C48.6299 27.9647 47.2501 26.5849 47.2501 24.8887Z" fill="url(#paint2_linear_6_5853)"/>
<path d="M50.326 38.206C57.6673 38.206 63.6401 32.2334 63.6401 24.8921C63.6401 17.5507 57.6675 11.5781 50.326 11.5781C48.376 11.5781 46.4967 11.9909 44.7404 12.8047C44.1785 13.0651 43.934 13.7316 44.1946 14.2934C44.455 14.8553 45.1218 15.0998 45.6833 14.8392C47.142 14.1633 48.704 13.8205 50.3261 13.8205C56.431 13.8205 61.3978 18.7872 61.3978 24.8921C61.3978 30.9968 56.431 35.9636 50.3261 35.9636C44.2221 35.9636 39.2561 30.997 39.2561 24.8921C39.2561 22.2362 40.2111 19.6677 41.945 17.6598C42.3497 17.1912 42.2978 16.4832 41.8293 16.0785C41.3608 15.674 40.6528 15.7254 40.2478 16.1942C38.1624 18.6091 37.0137 21.6981 37.0137 24.8921C37.0135 32.2333 42.9854 38.206 50.326 38.206Z" fill="url(#paint3_linear_6_5853)"/>
<path d="M1.64614 46.5509L3.61348 49.9583C4.22521 51.0175 5.53104 51.4458 6.65045 50.9545L9.20754 49.8332C9.78833 50.2474 10.4062 50.6044 11.0547 50.9007L11.3622 53.6747C11.4964 54.8904 12.5202 55.8071 13.7433 55.8071H17.678C18.901 55.8071 19.9246 54.8906 20.0593 53.675L20.3668 50.9009C21.0155 50.6047 21.6333 50.2476 22.2138 49.8333L24.7709 50.9545C25.8903 51.4458 27.1965 51.0176 27.8079 49.9585L29.7752 46.551C30.3868 45.4919 30.1047 44.147 29.1194 43.4227L26.8704 41.7693C26.9043 41.4137 26.9214 41.0567 26.9214 40.7024C26.9214 40.3481 26.9043 39.9911 26.8704 39.6354L29.1194 37.982C30.1047 37.2577 30.3868 35.9129 29.7752 34.8537L27.8079 31.4463C27.1962 30.3871 25.8903 29.9591 24.7711 30.4501L22.2138 31.5714C21.6332 31.1572 21.0153 30.8002 20.3668 30.5039L20.0593 27.7297C19.9248 26.5142 18.901 25.5977 17.678 25.5977H13.7433C12.5202 25.5977 11.4966 26.5144 11.3622 27.7297L11.0547 30.5039C10.406 30.8 9.78818 31.1572 9.20754 31.5714L6.65045 30.4501C5.53044 29.959 4.22476 30.3873 3.61348 31.4463L1.64614 34.8537C1.03471 35.9126 1.31665 37.2574 2.30197 37.982L4.55096 39.6354C4.51702 39.9911 4.49998 40.3481 4.49998 40.7024C4.49998 41.0567 4.51702 41.4135 4.55096 41.7693L2.30182 43.4227C1.31665 44.147 1.03471 45.4919 1.64614 46.5509ZM3.63007 45.2292L6.40932 43.1861C6.74687 42.9379 6.91789 42.5223 6.85286 42.1085C6.77961 41.6425 6.74239 41.1694 6.74239 40.7022C6.74239 40.2351 6.77961 39.7619 6.85286 39.2959C6.91804 38.882 6.74687 38.4665 6.40932 38.2184L3.63022 36.1753C3.56699 36.1288 3.5489 36.0427 3.58806 35.9749L5.55541 32.5675C5.59457 32.4995 5.67799 32.4721 5.75005 32.5037L8.91095 33.8898C9.29515 34.0583 9.74139 33.9983 10.0673 33.7339C10.8003 33.1395 11.6183 32.6668 12.4988 32.3288C12.8902 32.1785 13.1651 31.8223 13.2113 31.4055L13.5912 27.9764C13.5998 27.8987 13.6653 27.8401 13.7436 27.8401H17.6783C17.7567 27.8401 17.8223 27.8988 17.831 27.9767L18.2108 31.4055C18.257 31.8223 18.5318 32.1785 18.9233 32.3288C19.8038 32.6668 20.6217 33.1395 21.3545 33.7337C21.6806 33.9982 22.1268 34.0583 22.511 33.8898L25.6722 32.5037C25.7438 32.4723 25.8274 32.4998 25.8666 32.5675L27.8339 35.9749C27.8731 36.0428 27.855 36.1289 27.7919 36.1753L25.0126 38.2184C24.6751 38.4665 24.5041 38.8821 24.5691 39.2959C24.6424 39.7619 24.6796 40.2351 24.6796 40.7022C24.6796 41.1694 24.6424 41.6425 24.5691 42.1085C24.5039 42.5223 24.6751 42.9379 25.0126 43.1861L27.7919 45.2292C27.8551 45.2757 27.8731 45.3618 27.8339 45.4295L25.8666 48.837C25.8274 48.9048 25.744 48.9319 25.6721 48.9006L22.511 47.5145C22.1271 47.3462 21.6806 47.4061 21.3545 47.6706C20.6219 48.265 19.8038 48.7377 18.9233 49.0755C18.5319 49.2258 18.257 49.582 18.2108 49.9988L17.831 53.4276C17.8223 53.5055 17.7568 53.5642 17.6783 53.5642H13.7436C13.6655 53.5642 13.5998 53.5056 13.5912 53.4276L13.2113 49.9988C13.1651 49.582 12.8903 49.2258 12.4988 49.0755C11.6183 48.7375 10.8004 48.2648 10.0673 47.6705C9.86397 47.5054 9.61387 47.42 9.36093 47.42C9.20859 47.42 9.05521 47.4511 8.9108 47.5144L5.7499 48.9005C5.67799 48.9319 5.59442 48.9045 5.55526 48.8368L3.58792 45.4294C3.5489 45.3618 3.56714 45.2756 3.63007 45.2292Z" fill="url(#paint4_linear_6_5853)"/>
<path d="M11.4089 42.7826C12.014 42.6514 12.3982 42.0543 12.2668 41.4492C12.2142 41.207 12.1877 40.9555 12.1877 40.7017C12.1877 38.7587 13.7683 37.1781 15.7113 37.1781C17.6534 37.1781 19.2335 38.7589 19.2335 40.7017C19.2335 42.6438 17.6535 44.2238 15.7113 44.2238C15.4428 44.2238 15.1776 44.1937 14.923 44.1347C14.3191 43.9949 13.7173 44.3701 13.5773 44.9733C13.4372 45.5765 13.8127 46.179 14.4158 46.3189C14.8365 46.4165 15.2722 46.466 15.7113 46.466C18.89 46.466 21.4759 43.8801 21.4759 40.7015C21.4759 37.5221 18.89 34.9355 15.7113 34.9355C12.5319 34.9355 9.94531 37.5222 9.94531 40.7015C9.94531 41.1149 9.98911 41.5263 10.0755 41.9244C10.2068 42.5298 10.8039 42.914 11.4089 42.7826Z" fill="url(#paint5_linear_6_5853)"/>
<defs>
<linearGradient id="paint0_linear_6_5853" x1="62.3854" y1="60.1047" x2="60.5609" y2="73.5156" gradientUnits="userSpaceOnUse">
<stop stop-color="#4338CA"/>
<stop offset="1" stop-color="#1F1A63"/>
</linearGradient>
<linearGradient id="paint1_linear_6_5853" x1="66.0102" y1="10.193" x2="33.7166" y2="42.8408" gradientUnits="userSpaceOnUse">
<stop stop-color="#4338CA"/>
<stop offset="1" stop-color="#1F1A63"/>
</linearGradient>
<linearGradient id="paint2_linear_6_5853" x1="53.6774" y1="21.7482" x2="46.7773" y2="28.7241" gradientUnits="userSpaceOnUse">
<stop stop-color="#4338CA"/>
<stop offset="1" stop-color="#1F1A63"/>
</linearGradient>
<linearGradient id="paint3_linear_6_5853" x1="58.7158" y1="17.0303" x2="41.4421" y2="34.4926" gradientUnits="userSpaceOnUse">
<stop stop-color="#4338CA"/>
<stop offset="1" stop-color="#1F1A63"/>
</linearGradient>
<linearGradient id="paint4_linear_6_5853" x1="24.7759" y1="31.7831" x2="5.19174" y2="50.6409" gradientUnits="userSpaceOnUse">
<stop stop-color="#4338CA"/>
<stop offset="1" stop-color="#1F1A63"/>
</linearGradient>
<linearGradient id="paint5_linear_6_5853" x1="19.3435" y1="37.2964" x2="11.8636" y2="44.8585" gradientUnits="userSpaceOnUse">
<stop stop-color="#4338CA"/>
<stop offset="1" stop-color="#1F1A63"/>
</linearGradient>
</defs>
</svg>
