<svg width="73" height="76" viewBox="0 0 73 76" fill="none" xmlns="http://www.w3.org/2000/svg">
<path d="M48.1478 17.1895C41.7166 17.1895 36.5273 22.3775 36.5273 28.8101C36.5273 35.2416 41.7155 40.4306 48.148 40.4307C54.5792 40.4307 59.7686 35.2428 59.7686 28.8101C59.7684 22.3787 54.5806 17.1895 48.1478 17.1895ZM48.148 38.224C42.9364 38.224 38.734 34.0228 38.734 28.8101C38.734 23.5987 42.9349 19.3961 48.148 19.3961C53.3598 19.3961 57.5616 23.5972 57.5619 28.8101C57.5621 34.0218 53.361 38.224 48.148 38.224Z" fill="url(#paint0_linear_6_5830)"/>
<path d="M71.5451 45.8364L69.2567 43.5479C68.8256 43.1169 68.1272 43.117 67.6963 43.5479C67.2654 43.9788 67.2654 44.6774 67.6964 45.1082L69.9849 47.3967C70.8828 48.2951 70.8828 49.7485 69.9849 50.646C69.0866 51.544 67.6339 51.5443 66.7355 50.646C64.817 48.7276 59.5722 43.4827 57.8558 41.7663C59.0804 40.8475 60.1811 39.7483 61.1067 38.5183L64.0555 41.4672C64.4866 41.8981 65.1851 41.8981 65.616 41.4672C66.0469 41.0363 66.0469 40.3377 65.616 39.9069L62.3341 36.625C63.6422 34.2589 64.3384 31.5878 64.3384 28.8093C64.3384 25.5435 63.3775 22.4258 61.5903 19.7778V9.91575C61.5903 8.00948 60.0394 6.45863 58.1331 6.45863H55.3469V3.45712C55.3469 1.55085 53.796 0 51.8897 0H21.1392C20.5298 0 20.0358 0.494 20.0358 1.10334C20.0358 1.71267 20.5298 2.20667 21.1392 2.20667H51.8896C52.5791 2.20667 53.14 2.76761 53.14 3.45712V6.45863H9.70053C7.79426 6.45863 6.24341 8.00948 6.24341 9.91575V66.6556H3.45712C2.76761 66.6556 2.20667 66.0947 2.20667 65.4052V3.45712C2.20667 2.76761 2.76761 2.20667 3.45712 2.20667H15.9903C16.5996 2.20667 17.0936 1.71267 17.0936 1.10334C17.0936 0.494 16.5996 0 15.9903 0H3.45712C1.55085 0 0 1.55085 0 3.45712V65.4053C0 67.3116 1.55085 68.8624 3.45712 68.8624H6.24341V71.8639C6.24341 73.7702 7.79426 75.321 9.70053 75.321H58.133C60.0393 75.321 61.5901 73.7702 61.5901 71.8639V48.6216L65.1751 52.2066C66.9354 53.9668 69.7838 53.9672 71.5453 52.2066C73.3053 50.4463 73.3058 47.5973 71.5451 45.8364ZM38.7511 39.1639C35.7415 36.4295 34.171 32.6598 34.171 28.8093C34.171 21.0775 40.4168 14.8322 48.148 14.8322C55.8706 14.8322 62.1316 21.0721 62.1316 28.8093C62.1316 40.7494 47.7777 47.3771 38.7511 39.1639ZM59.3834 71.8639C59.3834 72.5534 58.8225 73.1144 58.133 73.1144H9.70053C9.01102 73.1144 8.45008 72.5534 8.45008 71.8639V67.7591V9.91575C8.45008 9.22624 9.01102 8.6653 9.70053 8.6653H54.2434H58.133C58.8225 8.6653 59.3834 9.22624 59.3834 9.91575V17.152C56.4271 14.2995 52.4719 12.6191 48.148 12.6191C34.1768 12.6191 26.7515 29.2749 36.1264 39.6543C38.7483 42.557 42.3872 44.4727 46.4053 44.904C49.5786 45.2444 52.9628 44.6405 55.96 42.9912L59.3836 46.4148V71.8639H59.3834Z" fill="url(#paint1_linear_6_5830)"/>
<path d="M14.0154 17.7125H27.673C28.2823 17.7125 28.7763 17.2185 28.7763 16.6092C28.7763 15.9999 28.2823 15.5059 27.673 15.5059H14.0154C13.4061 15.5059 12.9121 15.9999 12.9121 16.6092C12.9121 17.2185 13.4061 17.7125 14.0154 17.7125Z" fill="url(#paint2_linear_6_5830)"/>
<path d="M14.0154 23.9684H27.673C28.2823 23.9684 28.7763 23.4744 28.7763 22.8651C28.7763 22.2557 28.2823 21.7617 27.673 21.7617H14.0154C13.4061 21.7617 12.9121 22.2557 12.9121 22.8651C12.9121 23.4744 13.4061 23.9684 14.0154 23.9684Z" fill="url(#paint3_linear_6_5830)"/>
<path d="M14.0154 30.2242H27.673C28.2823 30.2242 28.7763 29.7302 28.7763 29.1209C28.7763 28.5116 28.2823 28.0176 27.673 28.0176H14.0154C13.4061 28.0176 12.9121 28.5116 12.9121 29.1209C12.9121 29.7302 13.4061 30.2242 14.0154 30.2242Z" fill="url(#paint4_linear_6_5830)"/>
<path d="M14.0154 36.8961H27.673C28.2823 36.8961 28.7763 36.4021 28.7763 35.7928C28.7763 35.1835 28.2823 34.6895 27.673 34.6895H14.0154C13.4061 34.6895 12.9121 35.1835 12.9121 35.7928C12.9121 36.4021 13.4061 36.8961 14.0154 36.8961Z" fill="url(#paint5_linear_6_5830)"/>
<path d="M47.0215 67.7795H35.3823L34.0555 64.7824C36.5675 62.4747 38.1451 59.1653 38.1451 55.4934C38.1451 53.7083 37.7703 52.0099 37.0987 50.4694H47.7307C48.3402 50.4694 48.8341 49.9754 48.8341 49.366C48.8341 48.7567 48.3402 48.2627 47.7307 48.2627H35.8583C33.5741 45.0093 29.7968 42.877 25.5285 42.877C18.5718 42.877 12.9121 48.5366 12.9121 55.4934C12.9121 62.4501 18.5718 68.1099 25.5285 68.1099C27.9993 68.1099 30.3044 67.3932 32.2526 66.161L33.6553 69.3296C33.8319 69.7289 34.2275 69.9864 34.6642 69.9864H47.0215C47.631 69.9864 48.1248 69.4924 48.1248 68.883C48.1248 68.2737 47.631 67.7795 47.0215 67.7795ZM24.4255 55.4934V65.8452C19.2024 65.2922 15.1191 60.8606 15.1191 55.4934C15.1191 49.7534 19.7888 45.0836 25.5288 45.0836C28.4616 45.0836 31.1132 46.3047 33.0071 48.2627H31.2854C30.6761 48.2627 30.1821 48.7567 30.1821 49.366C30.1821 49.9754 30.6761 50.4694 31.2854 50.4694H34.6412C35.2976 51.6551 35.7314 52.9804 35.8806 54.39H25.5288C24.9193 54.39 24.4255 54.884 24.4255 55.4934ZM26.6322 65.8452V56.5967H35.8806C35.6348 58.9183 34.6213 61.0136 33.1012 62.6264L32.2942 60.8034C32.0475 60.2461 31.3956 59.9944 30.8387 60.2411C30.2814 60.4877 30.0297 61.1394 30.2764 61.6966L31.3483 64.1179C29.9732 65.0487 28.366 65.6616 26.6322 65.8452Z" fill="url(#paint6_linear_6_5830)"/>
<path d="M54.7708 54.3887H47.7322C47.1228 54.3887 46.6289 54.8827 46.6289 55.492C46.6289 56.1013 47.1228 56.5953 47.7322 56.5953H54.7708C55.3803 56.5953 55.8741 56.1013 55.8741 55.492C55.8741 54.8827 55.3803 54.3887 54.7708 54.3887Z" fill="url(#paint7_linear_6_5830)"/>
<path d="M54.7708 59.8105H47.7322C47.1228 59.8105 46.6289 60.3045 46.6289 60.9139C46.6289 61.5232 47.1228 62.0172 47.7322 62.0172H54.7708C55.3803 62.0172 55.8741 61.5232 55.8741 60.9139C55.8741 60.3045 55.3803 59.8105 54.7708 59.8105Z" fill="url(#paint8_linear_6_5830)"/>
<path d="M51.9609 24.568L45.8829 30.4172L44.5612 27.7462C44.291 27.2 43.6293 26.9764 43.083 27.2466C42.5368 27.5169 42.3132 28.1787 42.5834 28.7248L44.5733 32.7463C44.9025 33.4121 45.7883 33.5708 46.3271 33.052L53.4909 26.158C53.93 25.7354 53.9434 25.037 53.5209 24.5979C53.0982 24.1589 52.3999 24.1457 51.9609 24.568Z" fill="url(#paint9_linear_6_5830)"/>
<defs>
<linearGradient id="paint0_linear_6_5830" x1="55.4703" y1="21.9482" x2="40.3936" y2="37.1904" gradientUnits="userSpaceOnUse">
<stop stop-color="#4338CA"/>
<stop offset="1" stop-color="#1F1A63"/>
</linearGradient>
<linearGradient id="paint1_linear_6_5830" x1="59.3897" y1="15.4222" x2="10.5378" y2="63.2004" gradientUnits="userSpaceOnUse">
<stop stop-color="#4338CA"/>
<stop offset="1" stop-color="#1F1A63"/>
</linearGradient>
<linearGradient id="paint2_linear_6_5830" x1="25.8424" y1="15.9577" x2="25.4558" y2="18.7676" gradientUnits="userSpaceOnUse">
<stop stop-color="#4338CA"/>
<stop offset="1" stop-color="#1F1A63"/>
</linearGradient>
<linearGradient id="paint3_linear_6_5830" x1="25.8424" y1="22.2135" x2="25.4558" y2="25.0235" gradientUnits="userSpaceOnUse">
<stop stop-color="#4338CA"/>
<stop offset="1" stop-color="#1F1A63"/>
</linearGradient>
<linearGradient id="paint4_linear_6_5830" x1="25.8424" y1="28.4694" x2="25.4558" y2="31.2793" gradientUnits="userSpaceOnUse">
<stop stop-color="#4338CA"/>
<stop offset="1" stop-color="#1F1A63"/>
</linearGradient>
<linearGradient id="paint5_linear_6_5830" x1="25.8424" y1="35.1413" x2="25.4558" y2="37.9512" gradientUnits="userSpaceOnUse">
<stop stop-color="#4338CA"/>
<stop offset="1" stop-color="#1F1A63"/>
</linearGradient>
<linearGradient id="paint6_linear_6_5830" x1="42.1906" y1="48.4277" x2="25.3295" y2="71.0153" gradientUnits="userSpaceOnUse">
<stop stop-color="#4338CA"/>
<stop offset="1" stop-color="#1F1A63"/>
</linearGradient>
<linearGradient id="paint7_linear_6_5830" x1="54.1643" y1="54.8405" x2="53.524" y2="57.5525" gradientUnits="userSpaceOnUse">
<stop stop-color="#4338CA"/>
<stop offset="1" stop-color="#1F1A63"/>
</linearGradient>
<linearGradient id="paint8_linear_6_5830" x1="54.1643" y1="60.2624" x2="53.524" y2="62.9743" gradientUnits="userSpaceOnUse">
<stop stop-color="#4338CA"/>
<stop offset="1" stop-color="#1F1A63"/>
</linearGradient>
<linearGradient id="paint9_linear_6_5830" x1="51.7282" y1="26.1231" x2="45.9807" y2="33.3767" gradientUnits="userSpaceOnUse">
<stop stop-color="#4338CA"/>
<stop offset="1" stop-color="#1F1A63"/>
</linearGradient>
</defs>
</svg>
