<svg width="74" height="64" viewBox="0 0 74 64" fill="none" xmlns="http://www.w3.org/2000/svg">
<path d="M61.3303 57.5501L68.0285 50.852C68.6581 50.2222 68.6581 49.2033 68.0285 48.5735L66.0079 46.5529C65.3797 45.9249 64.3579 45.9252 63.7295 46.5531L60.1911 50.0916L58.6841 48.5846C58.056 47.9563 57.0337 47.9566 56.4055 48.5846L54.3851 50.6051C53.7571 51.2332 53.7571 52.2553 54.3851 52.8835L59.0517 57.55C59.6813 58.1799 60.7004 58.1797 61.3303 57.5501ZM57.5449 50.4642L59.0517 51.971C59.6813 52.601 60.7004 52.6009 61.3303 51.9711L64.8688 48.4326L66.1487 49.7126L60.1911 55.6703L56.2649 51.7441L57.5449 50.4642Z" fill="url(#paint0_linear_6_5793)" stroke="white" stroke-width="0.2"/>
<path d="M68.6743 42.5472V27.0484C68.6743 26.459 68.1966 25.9811 67.607 25.9811C67.0173 25.9811 66.5396 26.459 66.5396 27.0484V41.1454C65.5421 40.6358 64.4628 40.2645 63.327 40.0568V18.3112C63.327 17.5699 62.7239 16.9666 61.9825 16.9666H14.755C14.0137 16.9666 13.4106 17.5697 13.4106 18.311V23.3261H6.79153C6.05021 23.3261 5.44708 23.9292 5.44708 24.6707V49.5477C5.44708 50.289 6.05021 50.8923 6.79153 50.8923H38.2214C38.9627 50.8923 39.5659 50.2891 39.5659 49.5478V44.5328H51.8223C51.4091 45.0814 51.0398 45.6713 50.7205 46.2989C50.4532 46.8243 50.6624 47.4669 51.1878 47.7342C51.7127 48.0014 52.3557 47.7924 52.6231 47.2668C54.2643 44.0408 57.5401 42.0002 61.2069 42.0002C66.5138 42.0002 70.8312 46.3176 70.8312 51.6245C70.8312 56.9314 66.5138 61.2488 61.2069 61.2488C55.9 61.2488 51.5825 56.9314 51.5825 51.6245C51.5825 51.035 51.1047 50.5571 50.5151 50.5571C49.9255 50.5571 49.4478 51.035 49.4478 51.6245C49.4478 52.7389 49.6036 53.8175 49.8946 54.8399H2.51156C2.35871 54.8399 2.23433 54.7155 2.23433 54.5627V13.0188H6.5143C7.10391 13.0188 7.58166 12.5409 7.58166 11.9514C7.58166 11.362 7.10391 10.8841 6.5143 10.8841H2.23433V5.43982C2.23433 5.28683 2.35885 5.16231 2.51184 5.16231H4.47578V7.01994C4.47578 8.34731 5.55567 9.42733 6.88303 9.42733H8.57444C9.90181 9.42733 10.9817 8.34745 10.9817 7.01994V5.16245H13.3841V7.02008C13.3841 8.34745 14.4641 9.42748 15.7915 9.42748H17.349C18.6764 9.42748 19.7562 8.34759 19.7562 7.02008V5.16245H22.2924V7.02008C22.2924 8.34745 23.3723 9.42748 24.6997 9.42748H26.2573C27.5847 9.42748 28.6646 8.34759 28.6646 7.02008V5.16245H31.2006V7.02008C31.2006 8.34745 32.2806 9.42748 33.608 9.42748H35.1655C36.4929 9.42748 37.5728 8.34759 37.5728 7.02008V5.16245H40.1089V7.02008C40.1089 8.34745 41.1888 9.42748 42.5162 9.42748H44.0738C45.4012 9.42748 46.4811 8.34759 46.4811 7.02008V5.16245H49.0171V7.02008C49.0171 8.34745 50.0971 9.42748 51.4245 9.42748H52.982C54.3094 9.42748 55.3893 8.34759 55.3893 7.02008V5.16245H57.9254V7.02008C57.9254 8.34745 59.0053 9.42748 60.3327 9.42748H61.8903C63.2177 9.42748 64.2976 8.34759 64.2976 7.02008V5.16245H66.2615C66.4145 5.16245 66.5389 5.28698 66.5389 5.43996V10.8841H11.4953C10.9057 10.8841 10.4279 11.362 10.4279 11.9514C10.4279 12.5409 10.9057 13.0188 11.4953 13.0188H66.5395V22.0676C66.5395 22.657 67.0172 23.1349 67.6068 23.1349C68.1964 23.1349 68.6742 22.657 68.6742 22.0676C68.6742 9.52923 68.674 7.76282 68.674 5.43996C68.674 4.10989 67.5919 3.02773 66.2619 3.02773H64.298V2.50686C64.298 1.17949 63.2181 0.0996094 61.8908 0.0996094H60.3331C59.0058 0.0996094 57.9259 1.17949 57.9259 2.50686V3.02773H55.3897V2.50686C55.3897 1.17949 54.3098 0.0996094 52.9824 0.0996094H51.4249C50.0976 0.0996094 49.0175 1.17949 49.0175 2.50686V3.02773H46.4815V2.50686C46.4815 1.17949 45.4016 0.0996094 44.0742 0.0996094H42.5165C41.1891 0.0996094 40.1092 1.17949 40.1092 2.50686V3.02773H37.573V2.50686C37.573 1.17949 36.4931 0.0996094 35.1658 0.0996094H33.6083C32.2809 0.0996094 31.2009 1.17949 31.2009 2.50686V3.02773H28.6649V2.50686C28.6649 1.17949 27.585 0.0996094 26.2576 0.0996094H24.7C23.3726 0.0996094 22.2927 1.17949 22.2927 2.50686V3.02773H19.7565V2.50686C19.7565 1.17949 18.6766 0.0996094 17.3493 0.0996094H15.7918C14.4644 0.0996094 13.3844 1.17949 13.3844 2.50686V3.02773H10.9817V2.50686C10.9817 1.17949 9.90181 0.0996094 8.57444 0.0996094H6.88303C5.55567 0.0996094 4.47578 1.17949 4.47578 2.50686V3.02773H2.51184C1.18177 3.02773 0.0996094 4.10975 0.0996094 5.43982V54.5625C0.0996094 55.8925 1.18163 56.9745 2.51156 56.9745H50.737C52.6875 60.776 56.6484 63.3834 61.2071 63.3834C67.6911 63.3834 72.9661 58.1083 72.9661 51.6243C72.9661 47.9734 71.2935 44.7056 68.6743 42.5472ZM37.3014 42.4043H31.4724V38.1796H37.3014V42.4043ZM23.5088 42.4043V38.1796H29.3377V42.4043H23.5088ZM29.3377 44.539V48.7574H23.5088V44.539H29.3377ZM15.5452 25.4608H21.3741V29.6855H15.5452V25.4608ZM55.3632 31.8201H61.1921V36.0449H55.3632V31.8201ZM53.2285 36.0449H47.3997V31.8201H53.2285V36.0449ZM61.1921 29.6854H55.3632V25.4606H61.1921V29.6854ZM53.2285 29.6854H47.3997V25.4606H53.2285V29.6854ZM45.265 29.6854H39.4361V25.4606H45.265V29.6854ZM37.3014 29.6854H31.4724V25.4606H37.3014V29.6854ZM39.4361 23.3261V19.1013H45.265V23.3261H39.4361ZM37.3014 23.3261H31.4724V19.1013H37.3014V23.3261ZM29.3377 23.3261H23.5088V19.1013H29.3377V23.3261ZM29.3377 25.4608V29.6855H23.5088V25.4608H29.3377ZM29.3377 31.8201V36.0449H23.5088V31.8201H29.3377ZM21.3741 31.8201V36.0449H15.5452V31.8201H21.3741ZM13.4104 36.0449H7.58166V31.8201H13.4104V36.0449ZM7.58166 38.1796H13.4104V42.4043H7.58166V38.1796ZM15.5452 38.1796H21.3741V42.4043H15.5452V38.1796ZM31.4724 36.0449V31.8201H37.3014V36.0449H31.4724ZM39.4361 31.8201H45.265V36.0449H39.4361V31.8201ZM47.3997 38.1796H53.2285V42.3979H47.3997V38.1796ZM55.3632 38.1796H61.1921V39.8654C59.0988 39.868 57.1014 40.4162 55.3632 41.4098V38.1796ZM61.1921 23.3261H55.3632V19.1013H61.1921V23.3261ZM53.2285 23.3261H47.3997V19.1013H53.2285V23.3261ZM21.3741 19.1013V23.3261H15.5452V19.1013H21.3741ZM13.4104 25.4608V29.6855H7.58166V25.4608H13.4104ZM7.58166 44.539H13.4104V48.7574H7.58166V44.539ZM15.5452 44.539H21.3741V48.7574H15.5452V44.539ZM31.4724 48.7574V44.539H37.4311V48.7574H31.4724ZM39.4361 42.3979V38.1796H45.265V42.3979H39.4361ZM60.0606 2.50686C60.0606 2.35658 60.1828 2.23433 60.3331 2.23433H61.8908C62.041 2.23433 62.1633 2.35658 62.1633 2.50686V7.01994C62.1633 7.17022 62.041 7.29262 61.8908 7.29262H60.3331C60.1828 7.29262 60.0606 7.17037 60.0606 7.01994V2.50686ZM51.1521 2.50686C51.1521 2.35658 51.2744 2.23433 51.4248 2.23433H52.9823C53.1326 2.23433 53.2548 2.35658 53.2548 2.50686V7.01994C53.2548 7.17022 53.1326 7.29262 52.9823 7.29262H51.4248C51.2744 7.29262 51.1521 7.17037 51.1521 7.01994V2.50686ZM42.2439 2.50686C42.2439 2.35658 42.3662 2.23433 42.5165 2.23433H44.0741C44.2244 2.23433 44.3466 2.35658 44.3466 2.50686V7.01994C44.3466 7.17022 44.2244 7.29262 44.0741 7.29262H42.5165C42.3662 7.29262 42.2439 7.17037 42.2439 7.01994V2.50686ZM33.3355 2.50686C33.3355 2.35658 33.4577 2.23433 33.6081 2.23433H35.1656C35.3159 2.23433 35.4382 2.35658 35.4382 2.50686V7.01994C35.4382 7.17022 35.3159 7.29262 35.1656 7.29262H33.6081C33.4577 7.29262 33.3355 7.17037 33.3355 7.01994V2.50686ZM24.4271 2.50686C24.4271 2.35658 24.5494 2.23433 24.6997 2.23433H26.2573C26.4076 2.23433 26.5298 2.35658 26.5298 2.50686V7.01994C26.5298 7.17022 26.4076 7.29262 26.2573 7.29262H24.6997C24.5494 7.29262 24.4271 7.17037 24.4271 7.01994V2.50686ZM15.5188 2.50686C15.5188 2.35658 15.6411 2.23433 15.7915 2.23433H17.349C17.4993 2.23433 17.6215 2.35658 17.6215 2.50686V7.01994C17.6215 7.17022 17.4993 7.29262 17.349 7.29262H15.7915C15.6411 7.29262 15.5188 7.17037 15.5188 7.01994V2.50686ZM6.6105 2.50686C6.6105 2.35658 6.73275 2.23433 6.88303 2.23433H8.57444C8.72473 2.23433 8.84698 2.35658 8.84698 2.50686V7.01994C8.84698 7.17022 8.72473 7.29262 8.57444 7.29262H6.88303C6.73275 7.29262 6.6105 7.17037 6.6105 7.01994V2.50686Z" fill="url(#paint1_linear_6_5793)" stroke="white" stroke-width="0.2"/>
<defs>
<linearGradient id="paint0_linear_6_5793" x1="65.803" y1="48.5269" x2="58.2263" y2="57.8844" gradientUnits="userSpaceOnUse">
<stop stop-color="#4338CA"/>
<stop offset="1" stop-color="#1F1A63"/>
</linearGradient>
<linearGradient id="paint1_linear_6_5793" x1="59.4901" y1="13.0572" x2="18.9045" y2="60.3015" gradientUnits="userSpaceOnUse">
<stop stop-color="#4338CA"/>
<stop offset="1" stop-color="#1F1A63"/>
</linearGradient>
</defs>
</svg>
