<svg width="73" height="73" viewBox="0 0 73 73" fill="none" xmlns="http://www.w3.org/2000/svg">
<path d="M17.1183 19.5232H37.8488C39.2148 19.5232 39.2148 17.4102 37.8488 17.4102H17.1183C15.7522 17.4102 15.7522 19.5232 17.1183 19.5232Z" fill="url(#paint0_linear_6_5891)"/>
<path d="M17.1183 27.2752H33.0592C34.4252 27.2752 34.4252 25.1621 33.0592 25.1621H17.1183C15.7522 25.1621 15.7522 27.2752 17.1183 27.2752Z" fill="url(#paint1_linear_6_5891)"/>
<path d="M17.1183 35.0252H30.8053C32.1713 35.0252 32.1713 32.9121 30.8053 32.9121H17.1183C15.7522 32.9121 15.7522 35.0252 17.1183 35.0252Z" fill="url(#paint2_linear_6_5891)"/>
<path d="M36.5842 60.911H35.8842V50.5854C35.8842 50.0019 35.4113 49.5289 34.8277 49.5289H30.5878V45.8046C30.5878 45.2211 30.1149 44.748 29.5312 44.748H24.2476C23.664 44.748 23.1911 45.2211 23.1911 45.8046V52.2334H18.9595C18.3759 52.2334 17.903 52.7065 17.903 53.29V60.911H17.203C16.6194 60.911 16.1465 61.3841 16.1465 61.9676C16.1465 62.551 16.6194 63.0241 17.203 63.0241H36.584C37.1676 63.0241 37.6405 62.551 37.6405 61.9676C37.6405 61.3841 37.1676 60.911 36.5842 60.911ZM20.0162 60.911V54.3465H23.1869V60.911H20.0162ZM25.3043 60.911V46.8611H28.4749V60.911H25.3043ZM30.6004 60.911V51.6419H33.7711V60.911H30.6004Z" fill="url(#paint3_linear_6_5891)"/>
<path d="M72.1163 32.9076C71.9787 28.4601 70.1673 24.2748 67.0153 21.1229C65.5029 19.6105 63.7792 18.4355 61.9388 17.5962C61.9079 17.5784 61.876 17.562 61.8428 17.547C61.809 17.5318 61.7748 17.5186 61.7404 17.5073C59.3602 16.4577 56.7917 15.9652 54.2348 16.0311V10.2101C54.2348 8.85691 53.1341 7.75601 51.7811 7.75601H50.2573V6.43691C50.2573 5.08371 49.1567 3.98281 47.8036 3.98281H46.2756V2.45409C46.2757 1.1009 45.175 0 43.8221 0H2.45367C1.10062 0 0 1.1009 0 2.45409V61.9154C0 63.2686 1.10062 64.3695 2.45367 64.3695H3.98169V65.8982C3.98169 67.2514 5.0823 68.3523 6.43099 68.3523L7.95929 68.3585V69.6714C7.95929 71.0246 9.0599 72.1255 10.413 72.1255H43.4158C43.6921 72.1255 43.9653 72.0128 44.1611 71.8178L53.9239 62.1013C54.123 61.903 54.235 61.6335 54.235 61.3525V50.8782C54.3775 50.8818 54.5199 50.8852 54.6623 50.8852C57.6403 50.8852 60.6056 50.124 63.1991 48.6708C64.391 48.0031 63.358 46.1601 62.1663 46.8274C56.5254 49.9884 49.4657 49.2095 44.6302 45.0024L55.0054 34.6272L69.1896 38.3859C68.5645 40.2343 67.5764 41.9882 66.22 43.5355C65.3195 44.5628 66.9082 45.9557 67.8088 44.9286C70.7234 41.6039 72.2531 37.3349 72.1163 32.9076ZM59.9946 19.0801L53.8038 32.84L43.1341 43.5099C37.893 37.4986 38.1326 28.3392 43.8549 22.6169C48.2112 18.2607 54.5596 17.0823 59.9946 19.0801ZM6.43508 66.2391C6.2473 66.2391 6.09459 66.0861 6.09459 65.8981V6.43691C6.09459 6.24885 6.2473 6.09586 6.43508 6.09586H13.8051C15.1711 6.09586 15.1711 3.98281 13.8051 3.98281H6.43508C5.08216 3.98281 3.98155 5.08371 3.98155 6.43691V62.2563H2.45367C2.26589 62.2563 2.11305 62.1033 2.11305 61.9153V2.45409C2.11305 2.26603 2.26589 2.11305 2.45367 2.11305H43.8221C44.0099 2.11305 44.1627 2.26603 44.1627 2.45409V3.98295H19.7218C18.3558 3.98295 18.3558 6.096 19.7218 6.096H47.8038C47.9915 6.096 48.1444 6.24899 48.1444 6.43705V7.75615H10.4128C9.0599 7.75615 7.95915 8.85705 7.95915 10.2102V66.2455L6.43508 66.2391ZM10.0722 69.6713V10.2101C10.0722 10.022 10.225 9.86906 10.4128 9.86906H51.7812C51.969 9.86906 52.1218 10.022 52.1218 10.2101V16.2138C48.5473 16.7415 45.1062 18.3775 42.3607 21.123C35.5634 27.9203 35.5634 38.9802 42.3607 45.7776C45.0343 48.4511 48.4046 50.1452 52.1218 50.6948V60.2052H44.8128C43.4599 60.2052 42.3591 61.3061 42.3591 62.6593V70.0123H10.4128C10.225 70.0123 10.0722 69.8593 10.0722 69.6713ZM44.4722 68.5099V62.6593C44.4722 62.4713 44.625 62.3183 44.8128 62.3183H50.6358L44.4722 68.5099ZM56.1624 32.7479L61.9226 19.9451C63.2163 20.6372 64.4312 21.5273 65.521 22.6171C69.224 26.3203 70.6457 31.5065 69.7262 36.3423L56.1624 32.7479Z" fill="url(#paint4_linear_6_5891)"/>
<defs>
<linearGradient id="paint0_linear_6_5891" x1="34.6605" y1="17.8428" x2="34.411" y2="20.5616" gradientUnits="userSpaceOnUse">
<stop stop-color="#4338CA"/>
<stop offset="1" stop-color="#1F1A63"/>
</linearGradient>
<linearGradient id="paint1_linear_6_5891" x1="30.7567" y1="25.5948" x2="30.4424" y2="28.2999" gradientUnits="userSpaceOnUse">
<stop stop-color="#4338CA"/>
<stop offset="1" stop-color="#1F1A63"/>
</linearGradient>
<linearGradient id="paint2_linear_6_5891" x1="28.9196" y1="33.3448" x2="28.5617" y2="36.0389" gradientUnits="userSpaceOnUse">
<stop stop-color="#4338CA"/>
<stop offset="1" stop-color="#1F1A63"/>
</linearGradient>
<linearGradient id="paint3_linear_6_5891" x1="33.6654" y1="48.4901" x2="21.9844" y2="62.3787" gradientUnits="userSpaceOnUse">
<stop stop-color="#4338CA"/>
<stop offset="1" stop-color="#1F1A63"/>
</linearGradient>
<linearGradient id="paint4_linear_6_5891" x1="58.786" y1="14.7679" x2="11.9979" y2="62.0693" gradientUnits="userSpaceOnUse">
<stop stop-color="#4338CA"/>
<stop offset="1" stop-color="#1F1A63"/>
</linearGradient>
</defs>
</svg>
