<svg width="73" height="73" viewBox="0 0 73 73" fill="none" xmlns="http://www.w3.org/2000/svg">
<path d="M29.4871 19.6163H42.6377C44.946 19.6163 46.3929 17.1198 45.2397 15.1166L38.6645 3.69262C37.5101 1.68664 34.616 1.68495 33.4608 3.69262L30.7752 8.35866C30.4842 8.86438 30.6582 9.51027 31.1639 9.8013C31.6695 10.0923 32.3155 9.91837 32.6065 9.41264L35.2921 4.74661C35.6345 4.15172 36.4913 4.15256 36.8332 4.74661L43.4084 16.1706C43.7499 16.7644 43.3217 17.5032 42.6377 17.5032H29.4871C28.8023 17.5032 28.3757 16.7631 28.7166 16.1706L30.0902 13.784C30.3812 13.2783 30.2072 12.6322 29.7015 12.3413C29.1959 12.0504 28.5499 12.2241 28.2589 12.73L26.8853 15.1166C25.7336 17.1172 27.176 19.6163 29.4871 19.6163Z" fill="url(#paint0_linear_6_5897)"/>
<path d="M1.67203 9.6913L4.96979 12.8985L4.23304 17.6145C4.01286 19.0239 5.49932 20.0799 6.75673 19.4119L10.9034 17.2095L15.0499 19.4117C16.3097 20.0812 17.7939 19.0236 17.5737 17.6145L16.8369 12.8985L20.1347 9.6913C21.1464 8.70746 20.618 6.98871 19.2278 6.74373L14.5705 5.92303L12.4405 1.82174C11.7944 0.57786 10.0122 0.577438 9.3662 1.82174L7.23639 5.92303L2.57895 6.74373C1.18927 6.98857 0.660021 8.70704 1.67203 9.6913ZM7.78818 7.97141C8.31559 7.87858 8.77779 7.53937 9.02487 7.06379L10.9032 3.44653L12.7817 7.06407C13.0287 7.53937 13.4909 7.87858 14.0181 7.97127L18.1276 8.69549L15.2224 11.5209C14.8204 11.9117 14.6319 12.476 14.7185 13.0303L15.3682 17.1884L11.7156 15.2485C11.2069 14.978 10.5992 14.9781 10.0908 15.2483L6.43808 17.1882L7.08777 13.0302C7.17441 12.4759 6.98592 11.9117 6.58402 11.5209L3.67886 8.69534L7.78818 7.97141Z" fill="url(#paint1_linear_6_5897)"/>
<path d="M61.2241 19.6161C66.6324 19.6161 71.0321 15.2163 71.0321 9.80806C71.0321 4.39979 66.6324 0 61.2241 0C55.8158 0 51.416 4.39979 51.416 9.80806C51.416 15.2163 55.8159 19.6161 61.2241 19.6161ZM61.2241 2.11305C65.4671 2.11305 68.9191 5.56506 68.9191 9.80806C68.9191 14.0511 65.4671 17.5031 61.2241 17.5031C56.9811 17.5031 53.5291 14.0511 53.5291 9.80806C53.5291 5.56506 56.9811 2.11305 61.2241 2.11305Z" fill="url(#paint2_linear_6_5897)"/>
<path d="M18.6344 21.9531H3.16957C1.42194 21.9531 0 23.3751 0 25.1227V33.949C0 35.6967 1.42194 37.1186 3.16957 37.1186H18.6344C20.382 37.1186 21.804 35.6967 21.804 33.949V25.1227C21.804 23.3751 20.3822 21.9531 18.6344 21.9531ZM19.6909 33.949C19.6909 34.5317 19.217 35.0056 18.6344 35.0056H3.16957C2.58693 35.0056 2.11305 34.5317 2.11305 33.949V25.1227C2.11305 24.5401 2.58693 24.0662 3.16957 24.0662H18.6344C19.217 24.0662 19.6909 24.5401 19.6909 25.1227V33.949Z" fill="url(#paint3_linear_6_5897)"/>
<path d="M68.9567 21.9531H53.4918C51.7442 21.9531 50.3223 23.3751 50.3223 25.1227V33.949C50.3223 35.6967 51.7442 37.1186 53.4918 37.1186H55.6556C56.2392 37.1186 56.7121 36.6457 56.7121 36.0621C56.7121 35.4785 56.2392 35.0056 55.6556 35.0056H53.4918C52.9092 35.0056 52.4353 34.5317 52.4353 33.949V25.1227C52.4353 24.5401 52.9092 24.0662 53.4918 24.0662H68.9567C69.5393 24.0662 70.0132 24.5401 70.0132 25.1227V33.949C70.0132 34.5317 69.5393 35.0056 68.9567 35.0056H60.586C60.0024 35.0056 59.5295 35.4785 59.5295 36.0621C59.5295 36.6457 60.0024 37.1186 60.586 37.1186H68.9567C70.7043 37.1186 72.1262 35.6967 72.1262 33.949V25.1227C72.1262 23.3751 70.7043 21.9531 68.9567 21.9531Z" fill="url(#paint4_linear_6_5897)"/>
<path d="M43.7947 21.9531H28.3297C26.5821 21.9531 25.1602 23.3751 25.1602 25.1227V33.949C25.1602 35.6967 26.5821 37.1186 28.3297 37.1186H43.7946C45.5422 37.1186 46.9641 35.6967 46.9641 33.949V25.1227C46.9643 23.3751 45.5423 21.9531 43.7947 21.9531ZM44.8512 33.949C44.8512 34.5317 44.3773 35.0056 43.7947 35.0056H28.3297C27.7471 35.0056 27.2732 34.5317 27.2732 33.949V25.1227C27.2732 24.5401 27.7471 24.0662 28.3297 24.0662H43.7946C44.3772 24.0662 44.8511 24.5401 44.8511 25.1227L44.8512 33.949Z" fill="url(#paint5_linear_6_5897)"/>
<path d="M12.4761 27.241L10.1291 29.5882L9.32905 28.788C8.9163 28.3756 8.24745 28.3756 7.83485 28.788C7.42224 29.2008 7.42224 29.8696 7.83485 30.2822L9.38188 31.8293C9.79477 32.2419 10.4635 32.2417 10.8761 31.8293L13.9703 28.7351C14.3829 28.3223 14.3829 27.6535 13.9703 27.2409C13.5575 26.8285 12.8887 26.8285 12.4761 27.241Z" fill="url(#paint6_linear_6_5897)"/>
<path d="M61.1964 31.8294L64.2906 28.7352C64.7032 28.3224 64.7032 27.6536 64.2906 27.241C63.8779 26.8285 63.209 26.8285 62.7964 27.241L60.4494 29.5882L59.6494 28.788C59.2366 28.3756 58.5678 28.3756 58.1552 28.788C57.7426 29.2008 57.7426 29.8696 58.1552 30.2822L59.7022 31.8293C60.1149 32.242 60.7836 32.2419 61.1964 31.8294Z" fill="url(#paint7_linear_6_5897)"/>
<path d="M38.2506 28.5176H33.8749C33.2913 28.5176 32.8184 28.9905 32.8184 29.5741C32.8184 30.1577 33.2913 30.6306 33.8749 30.6306H38.2506C38.8342 30.6306 39.3071 30.1577 39.3071 29.5741C39.3071 28.9905 38.8342 28.5176 38.2506 28.5176Z" fill="url(#paint8_linear_6_5897)"/>
<path d="M68.9567 39.3828H53.4918C51.7442 39.3828 50.3223 40.8048 50.3223 42.5524V51.3787C50.3223 53.1264 51.7442 54.5483 53.4918 54.5483H68.9567C70.7043 54.5483 72.1262 53.1264 72.1262 51.3787V42.5524C72.1262 40.8048 70.7043 39.3828 68.9567 39.3828ZM70.0132 51.3789C70.0132 51.9615 69.5393 52.4354 68.9567 52.4354H53.4918C52.9092 52.4354 52.4353 51.9615 52.4353 51.3789V42.5525C52.4353 41.9699 52.9092 41.496 53.4918 41.496H68.9567C69.5393 41.496 70.0132 41.9699 70.0132 42.5525V51.3789Z" fill="url(#paint9_linear_6_5897)"/>
<path d="M63.4107 45.9453H59.035C58.4514 45.9453 57.9785 46.4182 57.9785 47.0018C57.9785 47.5855 58.4514 48.0584 59.035 48.0584H63.4107C63.9944 48.0584 64.4673 47.5855 64.4673 47.0018C64.4673 46.4182 63.9942 45.9453 63.4107 45.9453Z" fill="url(#paint10_linear_6_5897)"/>
<path d="M18.6344 56.959H3.16957C1.42194 56.959 0 58.3809 0 60.1286V68.9549C0 70.7025 1.42194 72.1245 3.16957 72.1245H18.6344C20.382 72.1245 21.804 70.7025 21.804 68.9549V60.1286C21.804 58.3809 20.3822 56.959 18.6344 56.959ZM19.6909 68.9549C19.6909 69.5375 19.217 70.0114 18.6344 70.0114H3.16957C2.58693 70.0114 2.11305 69.5375 2.11305 68.9549V60.1286C2.11305 59.5459 2.58693 59.072 3.16957 59.072H18.6344C19.217 59.072 19.6909 59.5459 19.6909 60.1286V68.9549Z" fill="url(#paint11_linear_6_5897)"/>
<path d="M13.0906 63.5234H8.71473C8.1311 63.5234 7.6582 63.9963 7.6582 64.58C7.6582 65.1636 8.1311 65.6365 8.71473 65.6365H13.0904C13.674 65.6365 14.1469 65.1636 14.1469 64.58C14.1469 63.9963 13.674 63.5234 13.0906 63.5234Z" fill="url(#paint12_linear_6_5897)"/>
<path d="M18.6344 39.457H3.16957C1.42194 39.457 0 40.879 0 42.6266V51.4529C0 53.2006 1.42194 54.6225 3.16957 54.6225H18.6344C20.382 54.6225 21.804 53.2006 21.804 51.4529V42.6266C21.804 40.879 20.3822 39.457 18.6344 39.457ZM19.6909 51.4529C19.6909 52.0356 19.217 52.5095 18.6344 52.5095H3.16957C2.58693 52.5095 2.11305 52.0356 2.11305 51.4529V42.6266C2.11305 42.044 2.58693 41.5701 3.16957 41.5701H18.6344C19.217 41.5701 19.6909 42.044 19.6909 42.6266V51.4529Z" fill="url(#paint13_linear_6_5897)"/>
<path d="M12.4761 44.7449L10.1291 47.0921L9.32905 46.2919C8.9163 45.8795 8.24745 45.8795 7.83485 46.2919C7.42224 46.7047 7.42224 47.3735 7.83485 47.7862L9.38188 49.3332C9.79477 49.7458 10.4635 49.7457 10.8761 49.3332L13.9703 46.239C14.3829 45.8262 14.3829 45.1574 13.9703 44.7448C13.5575 44.3324 12.8887 44.3324 12.4761 44.7449Z" fill="url(#paint14_linear_6_5897)"/>
<path d="M43.7947 39.457H28.3297C26.5821 39.457 25.1602 40.879 25.1602 42.6266V44.6239C25.1602 45.2075 25.6331 45.6804 26.2167 45.6804C26.8003 45.6804 27.2732 45.2075 27.2732 44.6239V42.6266C27.2732 42.044 27.7471 41.5701 28.3297 41.5701H43.7946C44.3772 41.5701 44.8511 42.044 44.8511 42.6266V51.4529C44.8511 52.0356 44.3772 52.5095 43.7946 52.5095H28.3297C27.7471 52.5095 27.2732 52.0356 27.2732 51.4529V49.5542C27.2732 48.9705 26.8003 48.4976 26.2167 48.4976C25.6331 48.4976 25.1602 48.9705 25.1602 49.5542V51.4529C25.1602 53.2006 26.5821 54.6225 28.3297 54.6225H43.7946C45.5422 54.6225 46.9641 53.2006 46.9641 51.4529V42.6266C46.9643 40.879 45.5423 39.457 43.7947 39.457Z" fill="url(#paint15_linear_6_5897)"/>
<path d="M36.0362 49.3333L39.1304 46.2391C39.5431 45.8264 39.5431 45.1575 39.1304 44.7449C38.7177 44.3324 38.0489 44.3324 37.6362 44.7449L35.2892 47.0921L34.4892 46.2919C34.0765 45.8795 33.4076 45.8795 32.995 46.2919C32.5824 46.7047 32.5824 47.3735 32.995 47.7861L34.542 49.3332C34.9549 49.7459 35.6236 49.7458 36.0362 49.3333Z" fill="url(#paint16_linear_6_5897)"/>
<path d="M68.9567 56.959H53.4918C51.7442 56.959 50.3223 58.3809 50.3223 60.1286V68.9549C50.3223 70.7025 51.7442 72.1245 53.4918 72.1245H68.9567C70.7043 72.1245 72.1262 70.7025 72.1262 68.9549V60.1286C72.1262 58.3809 70.7043 56.959 68.9567 56.959ZM70.0132 68.9549C70.0132 69.5375 69.5393 70.0114 68.9567 70.0114H53.4918C52.9092 70.0114 52.4353 69.5375 52.4353 68.9549V60.1286C52.4353 59.5459 52.9092 59.072 53.4918 59.072H68.9567C69.5393 59.072 70.0132 59.5459 70.0132 60.1286V68.9549Z" fill="url(#paint17_linear_6_5897)"/>
<path d="M43.7947 56.959H28.3297C26.5821 56.959 25.1602 58.3809 25.1602 60.1286V68.9549C25.1602 70.7025 26.5821 72.1245 28.3297 72.1245H43.7946C45.5422 72.1245 46.9641 70.7025 46.9641 68.9549V60.1286C46.9643 58.3809 45.5423 56.959 43.7947 56.959ZM44.8512 68.9549C44.8512 69.5375 44.3773 70.0114 43.7947 70.0114H28.3297C27.7471 70.0114 27.2732 69.5375 27.2732 68.9549V60.1286C27.2732 59.5459 27.7471 59.072 28.3297 59.072H43.7946C44.3772 59.072 44.8511 59.5459 44.8511 60.1286L44.8512 68.9549Z" fill="url(#paint18_linear_6_5897)"/>
<path d="M62.7964 62.2488L60.4494 64.596L59.6494 63.7959C59.2366 63.3834 58.5678 63.3834 58.1552 63.7959C57.7426 64.2086 57.7426 64.8775 58.1552 65.2901L59.7022 66.8371C60.1151 67.2497 60.7838 67.2496 61.1964 66.8371L64.2906 63.7429C64.7032 63.3301 64.7032 62.6613 64.2906 62.2487C63.878 61.8364 63.2091 61.8364 62.7964 62.2488Z" fill="url(#paint19_linear_6_5897)"/>
<path d="M38.2506 63.5234H33.8749C33.2913 63.5234 32.8184 63.9963 32.8184 64.58C32.8184 65.1636 33.2913 65.6365 33.8749 65.6365H38.2506C38.8342 65.6365 39.3071 65.1636 39.3071 64.58C39.3071 63.9963 38.8342 63.5234 38.2506 63.5234Z" fill="url(#paint20_linear_6_5897)"/>
<defs>
<linearGradient id="paint0_linear_6_5897" x1="42.1005" y1="5.7561" x2="30.8568" y2="18.2552" gradientUnits="userSpaceOnUse">
<stop stop-color="#4338CA"/>
<stop offset="1" stop-color="#1F1A63"/>
</linearGradient>
<linearGradient id="paint1_linear_6_5897" x1="17.0514" y1="4.72351" x2="4.91742" y2="17.5047" gradientUnits="userSpaceOnUse">
<stop stop-color="#4338CA"/>
<stop offset="1" stop-color="#1F1A63"/>
</linearGradient>
<linearGradient id="paint2_linear_6_5897" x1="67.4043" y1="4.01646" x2="54.6793" y2="16.8812" gradientUnits="userSpaceOnUse">
<stop stop-color="#4338CA"/>
<stop offset="1" stop-color="#1F1A63"/>
</linearGradient>
<linearGradient id="paint3_linear_6_5897" x1="17.7715" y1="25.0583" x2="8.58315" y2="38.4138" gradientUnits="userSpaceOnUse">
<stop stop-color="#4338CA"/>
<stop offset="1" stop-color="#1F1A63"/>
</linearGradient>
<linearGradient id="paint4_linear_6_5897" x1="68.0938" y1="25.0583" x2="58.9054" y2="38.4138" gradientUnits="userSpaceOnUse">
<stop stop-color="#4338CA"/>
<stop offset="1" stop-color="#1F1A63"/>
</linearGradient>
<linearGradient id="paint5_linear_6_5897" x1="42.9317" y1="25.0583" x2="33.7433" y2="38.4138" gradientUnits="userSpaceOnUse">
<stop stop-color="#4338CA"/>
<stop offset="1" stop-color="#1F1A63"/>
</linearGradient>
<linearGradient id="paint6_linear_6_5897" x1="13.0306" y1="27.9978" x2="9.773" y2="32.2698" gradientUnits="userSpaceOnUse">
<stop stop-color="#4338CA"/>
<stop offset="1" stop-color="#1F1A63"/>
</linearGradient>
<linearGradient id="paint7_linear_6_5897" x1="63.3509" y1="27.9978" x2="60.0932" y2="32.2698" gradientUnits="userSpaceOnUse">
<stop stop-color="#4338CA"/>
<stop offset="1" stop-color="#1F1A63"/>
</linearGradient>
<linearGradient id="paint8_linear_6_5897" x1="38.1071" y1="28.9502" x2="37.307" y2="31.4342" gradientUnits="userSpaceOnUse">
<stop stop-color="#4338CA"/>
<stop offset="1" stop-color="#1F1A63"/>
</linearGradient>
<linearGradient id="paint9_linear_6_5897" x1="68.0938" y1="42.488" x2="58.9054" y2="55.8435" gradientUnits="userSpaceOnUse">
<stop stop-color="#4338CA"/>
<stop offset="1" stop-color="#1F1A63"/>
</linearGradient>
<linearGradient id="paint10_linear_6_5897" x1="63.2672" y1="46.378" x2="62.4671" y2="48.8619" gradientUnits="userSpaceOnUse">
<stop stop-color="#4338CA"/>
<stop offset="1" stop-color="#1F1A63"/>
</linearGradient>
<linearGradient id="paint11_linear_6_5897" x1="17.7715" y1="60.0642" x2="8.58315" y2="73.4197" gradientUnits="userSpaceOnUse">
<stop stop-color="#4338CA"/>
<stop offset="1" stop-color="#1F1A63"/>
</linearGradient>
<linearGradient id="paint12_linear_6_5897" x1="12.9469" y1="63.9561" x2="12.1468" y2="66.44" gradientUnits="userSpaceOnUse">
<stop stop-color="#4338CA"/>
<stop offset="1" stop-color="#1F1A63"/>
</linearGradient>
<linearGradient id="paint13_linear_6_5897" x1="17.7715" y1="42.5622" x2="8.58315" y2="55.9177" gradientUnits="userSpaceOnUse">
<stop stop-color="#4338CA"/>
<stop offset="1" stop-color="#1F1A63"/>
</linearGradient>
<linearGradient id="paint14_linear_6_5897" x1="13.0306" y1="45.5017" x2="9.773" y2="49.7737" gradientUnits="userSpaceOnUse">
<stop stop-color="#4338CA"/>
<stop offset="1" stop-color="#1F1A63"/>
</linearGradient>
<linearGradient id="paint15_linear_6_5897" x1="42.9317" y1="42.5622" x2="33.7433" y2="55.9177" gradientUnits="userSpaceOnUse">
<stop stop-color="#4338CA"/>
<stop offset="1" stop-color="#1F1A63"/>
</linearGradient>
<linearGradient id="paint16_linear_6_5897" x1="38.1907" y1="45.5017" x2="34.9331" y2="49.7738" gradientUnits="userSpaceOnUse">
<stop stop-color="#4338CA"/>
<stop offset="1" stop-color="#1F1A63"/>
</linearGradient>
<linearGradient id="paint17_linear_6_5897" x1="68.0938" y1="60.0642" x2="58.9054" y2="73.4197" gradientUnits="userSpaceOnUse">
<stop stop-color="#4338CA"/>
<stop offset="1" stop-color="#1F1A63"/>
</linearGradient>
<linearGradient id="paint18_linear_6_5897" x1="42.9317" y1="60.0642" x2="33.7433" y2="73.4197" gradientUnits="userSpaceOnUse">
<stop stop-color="#4338CA"/>
<stop offset="1" stop-color="#1F1A63"/>
</linearGradient>
<linearGradient id="paint19_linear_6_5897" x1="63.3509" y1="63.0056" x2="60.0933" y2="67.2776" gradientUnits="userSpaceOnUse">
<stop stop-color="#4338CA"/>
<stop offset="1" stop-color="#1F1A63"/>
</linearGradient>
<linearGradient id="paint20_linear_6_5897" x1="38.1071" y1="63.9561" x2="37.307" y2="66.44" gradientUnits="userSpaceOnUse">
<stop stop-color="#4338CA"/>
<stop offset="1" stop-color="#1F1A63"/>
</linearGradient>
</defs>
</svg>
