<svg width="61" height="73" viewBox="0 0 61 73" fill="none" xmlns="http://www.w3.org/2000/svg">
<path d="M18.7682 60.7277H26.7034C27.1738 60.7277 27.616 60.5446 27.9486 60.212L33.5595 54.6012C33.8921 54.2686 34.0753 53.8264 34.0753 53.356V45.4208C34.0753 44.9503 33.892 44.508 33.5595 44.1757L27.9484 38.5644C27.6158 38.232 27.1736 38.0488 26.7035 38.0488H18.7683C18.2981 38.0488 17.8559 38.232 17.5232 38.5645L11.9125 44.1754C11.5798 44.508 11.3965 44.9502 11.3965 45.4207V53.3559C11.3965 53.8262 11.5796 54.2684 11.9124 54.601L17.5232 60.2119C17.8556 60.5446 18.2978 60.7277 18.7682 60.7277ZM13.5094 45.5666L18.914 40.1619H26.5576L31.9622 45.5665V53.2101L26.5576 58.6146H18.9141L13.5095 53.2099V45.5666H13.5094Z" fill="url(#paint0_linear_6_5841)"/>
<path d="M20.6029 56.2983H24.8686C25.339 56.2983 25.7812 56.1151 26.1138 55.7825L29.1301 52.7664C29.4627 52.4338 29.6458 51.9916 29.6458 51.5212V47.2556C29.6458 46.7852 29.4627 46.343 29.1301 46.0105L26.114 42.9945C25.7816 42.6618 25.3393 42.4785 24.8687 42.4785H20.6031C20.1327 42.4785 19.6905 42.6616 19.3581 42.9942L16.3418 46.0105C16.0093 46.3431 15.8262 46.7853 15.8262 47.2554V51.5212C15.8262 51.9916 16.0093 52.4338 16.3419 52.7664L19.3581 55.7825C19.6905 56.1151 20.1326 56.2983 20.6029 56.2983ZM17.9391 47.4014L20.7489 44.5917H24.7228L27.5327 47.4015V51.3754L24.7228 54.1852H20.7489L17.9391 51.3754V47.4014Z" fill="url(#paint1_linear_6_5841)"/>
<path d="M59.5344 24.614L54.7902 19.8698C54.4576 19.5372 54.0154 19.3541 53.545 19.3541H37.6737C36.7027 19.3541 35.9128 20.144 35.9128 21.115V30.5186C35.2296 30.1104 34.3918 30.0608 33.6711 30.3713V10.0812H35.1039C35.6777 10.0812 36.1886 9.75989 36.4371 9.24261C36.6856 8.72548 36.6173 8.1258 36.2588 7.67797L30.5595 0.555027C30.2773 0.202289 29.8564 0 29.4046 0C28.9528 0 28.5321 0.202289 28.2498 0.555027L22.5504 7.67783C22.1919 8.1258 22.1236 8.72548 22.3721 9.24261C22.6206 9.75989 23.1315 10.0812 23.7053 10.0812H25.1381V15.9183C25.1381 16.5018 25.6111 16.9748 26.1946 16.9748C26.7781 16.9748 27.2511 16.5018 27.2511 15.9183V9.4473C27.2511 8.63166 26.5876 7.96816 25.772 7.96816H25.0243L29.4045 2.49382L33.7848 7.96816H33.0372C32.2216 7.96816 31.5581 8.63166 31.5581 9.4473V32.2367L30.9225 32.8723C30.8181 32.9766 30.6586 33.0044 30.5258 32.9417C29.9865 32.6865 29.4257 32.4547 28.8589 32.2529C28.7205 32.2036 28.6276 32.0711 28.6276 31.9234V29.117C28.6276 28.1488 28.0651 27.3114 27.251 26.9085V20.8487C27.251 20.2653 26.7779 19.7922 26.1945 19.7922C25.611 19.7922 25.1379 20.2653 25.1379 20.8487V26.6516H20.3358V18.1719H21.7686C22.3424 18.1719 22.8533 17.8506 23.1018 17.3333C23.3503 16.8162 23.282 16.2165 22.9235 15.7687L17.2242 8.64561C16.9419 8.29287 16.5209 8.09058 16.0693 8.09058C15.6175 8.09058 15.1966 8.29287 14.9143 8.64561L9.215 15.7684C8.85649 16.2164 8.78817 16.8161 9.03666 17.3332C9.28515 17.8505 9.79609 18.1718 10.3699 18.1718H11.8026V30.3693C11.4978 30.2374 11.167 30.1669 10.8249 30.1669C10.1664 30.1669 9.54731 30.4234 9.08174 30.889L4.23737 35.7332C3.27621 36.6943 3.27621 38.2583 4.23737 39.2196L6.22067 41.2029C6.32506 41.3073 6.35295 41.4667 6.28998 41.5997C6.03458 42.1397 5.80285 42.7005 5.60127 43.2668C5.55196 43.405 5.41954 43.4979 5.27177 43.4979H2.46522C1.10597 43.4979 0 44.6039 0 45.9632V52.8139C0 54.1732 1.10597 55.2792 2.46522 55.2792H5.27163C5.41954 55.2792 5.55196 55.3721 5.60113 55.5105C5.80271 56.0768 6.03444 56.6376 6.28984 57.1775C6.35281 57.3104 6.32491 57.4698 6.22053 57.5742L4.23722 59.5575C3.27607 60.5187 3.27607 62.0826 4.23722 63.0439L4.92608 63.7328C5.13231 63.939 5.40278 64.0423 5.67311 64.0423C5.94344 64.0423 6.21391 63.9391 6.42014 63.7328C6.83275 63.3202 6.83275 62.6512 6.42014 62.2387L5.73129 61.5498C5.59394 61.4125 5.59394 61.1891 5.73129 61.0517L7.7146 59.0684C8.44839 58.3346 8.64349 57.2115 8.19989 56.274C7.97436 55.7974 7.76982 55.302 7.59162 54.8018C7.24325 53.8236 6.31097 53.1663 5.27149 53.1663H2.46522C2.2711 53.1663 2.11305 53.0082 2.11305 52.8141V45.963C2.11305 45.7689 2.2711 45.6108 2.46522 45.6108H5.27163C6.31111 45.6108 7.24353 44.9535 7.59176 43.9755C7.76996 43.4751 7.9745 42.9798 8.20003 42.5033C8.64363 41.5656 8.44853 40.4426 7.71474 39.7087L5.73143 37.7254C5.59408 37.588 5.59408 37.3646 5.73143 37.2273L10.5758 32.383C10.7132 32.2457 10.9367 32.2458 11.0739 32.383L13.0572 34.3663C13.791 35.1003 14.914 35.2951 15.8517 34.8516C16.3277 34.6264 16.8231 34.4217 17.3239 34.2434C18.3021 33.895 18.9592 32.9626 18.9592 31.9232V29.1168C18.9592 28.9227 19.1173 28.7646 19.3114 28.7646H26.1623C26.3565 28.7646 26.5145 28.9227 26.5145 29.1168V31.9232C26.5145 32.9626 27.1718 33.895 28.1499 34.2434C28.6508 34.4217 29.1461 34.6264 29.6221 34.8516C30.5596 35.2951 31.6828 35.1001 32.4165 34.3663L34.3998 32.383C34.5372 32.2457 34.7608 32.2458 34.898 32.383L35.9128 33.3977V48.4202C35.9128 49.3912 36.7027 50.1811 37.6737 50.1811H43.3607V52.8138C43.3607 53.0079 43.2027 53.166 43.0085 53.166H40.2021C39.1628 53.166 38.2304 53.8231 37.8819 54.8015C37.7038 55.3016 37.4993 55.7969 37.2737 56.2736C36.8301 57.2112 37.0252 58.3342 37.759 59.0681L39.7423 61.0514C39.8797 61.1888 39.8797 61.4122 39.7423 61.5496L34.898 66.3938C34.7606 66.5311 34.5371 66.5311 34.3998 66.3938L32.4165 64.4105C31.6828 63.6766 30.5597 63.4816 29.622 63.9252C29.146 64.1504 28.6507 64.355 28.1497 64.5333C27.1715 64.8817 26.5144 65.8141 26.5144 66.8535V69.6601C26.5144 69.8543 26.3563 70.0123 26.1622 70.0123H19.3113C19.1172 70.0123 18.9591 69.8543 18.9591 69.6601V66.8537C18.9591 65.8144 18.3018 64.882 17.3237 64.5336C16.823 64.3553 16.3275 64.1506 15.8515 63.9253C14.9139 63.4817 13.7909 63.6767 13.0571 64.4106L11.0738 66.3939C10.9366 66.5313 10.713 66.5313 10.5757 66.3939L9.90653 65.7248C9.49392 65.3122 8.82493 65.3122 8.41247 65.7248C7.99986 66.1374 7.99986 66.8064 8.41247 67.2189L9.0816 67.888C10.0428 68.8492 11.6067 68.8493 12.568 67.888L14.5513 65.9047C14.6557 65.8003 14.8153 65.7726 14.948 65.8354C15.4874 66.0905 16.0483 66.3222 16.615 66.5241C16.7534 66.5734 16.8463 66.7058 16.8463 66.8536V69.6601C16.8463 71.0194 17.9523 72.1254 19.3116 72.1254H26.1625C27.5217 72.1254 28.6277 71.0194 28.6277 69.6601V66.8537C28.6277 66.7058 28.7207 66.5734 28.859 66.5242C29.4259 66.3224 29.9868 66.0906 30.5259 65.8355C30.6589 65.7726 30.8184 65.8006 30.9228 65.9048L32.9061 67.8881C33.3716 68.3537 33.9908 68.6102 34.6493 68.6102C35.3078 68.6102 35.9269 68.3537 36.3925 67.8881L41.2368 63.0439C42.198 62.0828 42.198 60.5188 41.2368 59.5575L39.2535 57.5742C39.1491 57.4698 39.1212 57.3104 39.1842 57.1774C39.4396 56.6373 39.6713 56.0763 39.8729 55.5105C39.9222 55.3721 40.0546 55.2792 40.2024 55.2792H43.0088C44.3681 55.2792 45.4741 54.1732 45.4741 52.8139V50.1812H47.493C48.0765 50.1812 48.5495 49.7082 48.5495 49.1247C48.5495 48.5412 48.0765 48.0682 47.493 48.0682H38.0258V21.4672H53.3994L57.9372 26.005V48.068H52.4234C51.84 48.068 51.3669 48.5411 51.3669 49.1246C51.3669 49.708 51.84 50.1811 52.4234 50.1811H58.2894C59.2604 50.1811 60.0503 49.3912 60.0503 48.4202V25.8592C60.0503 25.3888 59.867 24.9466 59.5344 24.614ZM16.8462 29.1168V31.9232C16.8462 32.0711 16.7532 32.2036 16.6149 32.2527C16.0482 32.4546 15.4872 32.6863 14.9478 32.9414C14.815 33.0043 14.6555 32.9764 14.5512 32.8721L13.9155 32.2365V17.538C13.9155 16.7224 13.252 16.0589 12.4364 16.0589H11.6888L16.069 10.5845L20.4494 16.0589H19.7018C18.8861 16.0589 18.2226 16.7224 18.2226 17.538V26.9084C17.4087 27.3113 16.8462 28.1486 16.8462 29.1168Z" fill="url(#paint2_linear_6_5841)"/>
<path d="M42.6054 27.8005H53.357C53.9404 27.8005 54.4135 27.3275 54.4135 26.744C54.4135 26.1605 53.9404 25.6875 53.357 25.6875H42.6054C42.0219 25.6875 41.5488 26.1605 41.5488 26.744C41.5488 27.3275 42.0219 27.8005 42.6054 27.8005Z" fill="url(#paint3_linear_6_5841)"/>
<path d="M42.6054 31.781H53.357C53.9404 31.781 54.4135 31.308 54.4135 30.7245C54.4135 30.141 53.9404 29.668 53.357 29.668H42.6054C42.0219 29.668 41.5488 30.141 41.5488 30.7245C41.5488 31.308 42.0219 31.781 42.6054 31.781Z" fill="url(#paint4_linear_6_5841)"/>
<path d="M42.6054 35.7615H53.357C53.9404 35.7615 54.4135 35.2884 54.4135 34.705C54.4135 34.1215 53.9404 33.6484 53.357 33.6484H42.6054C42.0219 33.6484 41.5488 34.1215 41.5488 34.705C41.5488 35.2884 42.0219 35.7615 42.6054 35.7615Z" fill="url(#paint5_linear_6_5841)"/>
<path d="M42.6054 39.742H53.357C53.9404 39.742 54.4135 39.2689 54.4135 38.6854C54.4135 38.1019 53.9404 37.6289 53.357 37.6289H42.6054C42.0219 37.6289 41.5488 38.1019 41.5488 38.6854C41.5488 39.2689 42.0219 39.742 42.6054 39.742Z" fill="url(#paint6_linear_6_5841)"/>
<path d="M42.6054 43.7205H47.7496C48.3331 43.7205 48.8062 43.2474 48.8062 42.6639C48.8062 42.0805 48.3331 41.6074 47.7496 41.6074H42.6054C42.0219 41.6074 41.5488 42.0805 41.5488 42.6639C41.5488 43.2474 42.0219 43.7205 42.6054 43.7205Z" fill="url(#paint7_linear_6_5841)"/>
<path d="M58.2883 52.9863H52.3995C51.4285 52.9863 50.6387 53.7762 50.6387 54.7472V60.636C50.6387 61.607 51.4285 62.3969 52.3995 62.3969H58.2883C59.2593 62.3969 60.0492 61.607 60.0492 60.636V54.7472C60.0492 53.7762 59.2592 52.9863 58.2883 52.9863ZM57.9361 60.2838H52.7517V55.0994H57.9361V60.2838Z" fill="url(#paint8_linear_6_5841)"/>
<path d="M49.0554 64.3008H44.7531C43.782 64.3008 42.9922 65.0906 42.9922 66.0617V70.3641C42.9922 71.3351 43.782 72.125 44.7531 72.125H49.0554C50.0264 72.125 50.8162 71.3351 50.8162 70.3641V66.0617C50.8162 65.0908 50.0262 64.3008 49.0554 64.3008ZM48.7032 70.0119H45.1052V66.4138H48.7032V70.0119Z" fill="url(#paint9_linear_6_5841)"/>
<defs>
<linearGradient id="paint0_linear_6_5841" x1="29.881" y1="42.6924" x2="15.1691" y2="57.5658" gradientUnits="userSpaceOnUse">
<stop stop-color="#4338CA"/>
<stop offset="1" stop-color="#1F1A63"/>
</linearGradient>
<linearGradient id="paint1_linear_6_5841" x1="27.09" y1="45.3082" x2="18.125" y2="54.3714" gradientUnits="userSpaceOnUse">
<stop stop-color="#4338CA"/>
<stop offset="1" stop-color="#1F1A63"/>
</linearGradient>
<linearGradient id="paint2_linear_6_5841" x1="48.9445" y1="14.7679" x2="2.83983" y2="53.5753" gradientUnits="userSpaceOnUse">
<stop stop-color="#4338CA"/>
<stop offset="1" stop-color="#1F1A63"/>
</linearGradient>
<linearGradient id="paint3_linear_6_5841" x1="52.0343" y1="26.1202" x2="51.6003" y2="28.7913" gradientUnits="userSpaceOnUse">
<stop stop-color="#4338CA"/>
<stop offset="1" stop-color="#1F1A63"/>
</linearGradient>
<linearGradient id="paint4_linear_6_5841" x1="52.0343" y1="30.1006" x2="51.6003" y2="32.7718" gradientUnits="userSpaceOnUse">
<stop stop-color="#4338CA"/>
<stop offset="1" stop-color="#1F1A63"/>
</linearGradient>
<linearGradient id="paint5_linear_6_5841" x1="52.0343" y1="34.0811" x2="51.6003" y2="36.7522" gradientUnits="userSpaceOnUse">
<stop stop-color="#4338CA"/>
<stop offset="1" stop-color="#1F1A63"/>
</linearGradient>
<linearGradient id="paint6_linear_6_5841" x1="52.0343" y1="38.0616" x2="51.6003" y2="40.7327" gradientUnits="userSpaceOnUse">
<stop stop-color="#4338CA"/>
<stop offset="1" stop-color="#1F1A63"/>
</linearGradient>
<linearGradient id="paint7_linear_6_5841" x1="47.464" y1="42.0401" x2="46.7349" y2="44.5717" gradientUnits="userSpaceOnUse">
<stop stop-color="#4338CA"/>
<stop offset="1" stop-color="#1F1A63"/>
</linearGradient>
<linearGradient id="paint8_linear_6_5841" x1="58.3088" y1="54.9132" x2="52.2042" y2="61.0848" gradientUnits="userSpaceOnUse">
<stop stop-color="#4338CA"/>
<stop offset="1" stop-color="#1F1A63"/>
</linearGradient>
<linearGradient id="paint9_linear_6_5841" x1="49.3693" y1="65.9028" x2="44.2937" y2="71.034" gradientUnits="userSpaceOnUse">
<stop stop-color="#4338CA"/>
<stop offset="1" stop-color="#1F1A63"/>
</linearGradient>
</defs>
</svg>
