<svg width="58" height="64" viewBox="0 0 58 64" fill="none" xmlns="http://www.w3.org/2000/svg">
<path d="M53.3374 0.199219H16.2489C14.1264 0.199219 12.3996 1.92606 12.3996 4.04852V12.6626C5.36386 14.6761 0.199219 21.166 0.199219 28.8397C0.199219 36.5133 5.36373 43.0033 12.3996 45.0168V59.8374C12.3996 61.9599 14.1264 63.6867 16.2489 63.6867H46.5574C46.917 63.6867 47.2617 63.5439 47.5161 63.2897L56.7896 54.0161C57.0438 53.7619 57.1866 53.417 57.1866 53.0574V4.04852C57.1866 1.92606 55.4599 0.199219 53.3374 0.199219ZM16.2489 2.91072H53.3374C53.9647 2.91072 54.4751 3.42113 54.4751 4.04852V8.14018H15.1111V4.04852C15.1111 3.42113 15.6215 2.91072 16.2489 2.91072ZM2.91072 28.8395C2.91072 21.0584 9.24105 14.7281 17.0222 14.7281C24.8033 14.7281 31.1336 21.0584 31.1336 28.8395C31.1336 36.6206 24.8033 42.9511 17.0222 42.9511C9.24105 42.9511 2.91072 36.6206 2.91072 28.8395ZM15.1111 59.8373V45.5534C15.7386 45.6246 16.376 45.6626 17.0223 45.6626C22.0754 45.6626 26.6148 43.4228 29.7011 39.8843H38.0082C38.7569 39.8843 39.3639 39.2773 39.3639 38.5285C39.3639 37.7797 38.7569 37.1728 38.0082 37.1728H31.6321C32.8114 35.1133 33.5668 32.7821 33.7812 30.2982H38.008C38.7568 30.2982 39.3638 29.6912 39.3638 28.9424C39.3638 28.1937 38.7568 27.5867 38.008 27.5867H33.7984C33.615 25.1084 32.8919 22.778 31.7472 20.7123H38.0079C38.7567 20.7123 39.3637 20.1053 39.3637 19.3565C39.3637 18.6077 38.7567 18.0008 38.0079 18.0008H29.8768C26.7885 14.3437 22.1722 12.0165 17.0219 12.0165C16.3757 12.0165 15.7382 12.0544 15.1107 12.1257V10.8517H54.4747V51.7014H49.0506C46.928 51.7014 45.2014 53.4282 45.2014 55.5506V60.975H16.2489C15.6215 60.975 15.1111 60.4647 15.1111 59.8373ZM47.9133 59.0576V55.5507C47.9133 54.9233 48.4237 54.413 49.0509 54.413H52.5578L47.9133 59.0576Z" fill="url(#paint0_linear_6_5860)" stroke="#EDF6FF" stroke-width="0.4"/>
<path d="M43.3343 20.7115H47.8367C48.5854 20.7115 49.1924 20.1045 49.1924 19.3558C49.1924 18.607 48.5854 18 47.8367 18H43.3343C42.5855 18 41.9785 18.607 41.9785 19.3558C41.9785 20.1045 42.5855 20.7115 43.3343 20.7115Z" fill="url(#paint1_linear_6_5860)" stroke="#EDF6FF" stroke-width="0.4"/>
<path d="M43.3343 30.2974H47.8367C48.5854 30.2974 49.1924 29.6905 49.1924 28.9417C49.1924 28.1929 48.5854 27.5859 47.8367 27.5859H43.3343C42.5855 27.5859 41.9785 28.1929 41.9785 28.9417C41.9785 29.6905 42.5855 30.2974 43.3343 30.2974Z" fill="url(#paint2_linear_6_5860)" stroke="#EDF6FF" stroke-width="0.4"/>
<path d="M43.3343 39.8853H47.8367C48.5854 39.8853 49.1924 39.2783 49.1924 38.5296C49.1924 37.7808 48.5854 37.1738 47.8367 37.1738H43.3343C42.5855 37.1738 41.9785 37.7808 41.9785 38.5296C41.9785 39.2783 42.5855 39.8853 43.3343 39.8853Z" fill="url(#paint3_linear_6_5860)" stroke="#EDF6FF" stroke-width="0.4"/>
<path d="M47.8373 49.4693C48.5861 49.4693 49.1931 48.8623 49.1931 48.1136C49.1931 47.3648 48.5861 46.7578 47.8373 46.7578H35.1546C34.4058 46.7578 33.7988 47.3648 33.7988 48.1136C33.7988 48.8623 34.4058 49.4693 35.1546 49.4693H47.8373Z" fill="url(#paint4_linear_6_5860)" stroke="#EDF6FF" stroke-width="0.4"/>
<path d="M27.5482 22.0009L25.8942 20.3469C25.4488 19.9016 24.8566 19.6562 24.2266 19.6562C23.5967 19.6562 23.0045 19.9016 22.5591 20.3469L13.8835 29.0224L11.4854 26.6243C11.0401 26.1791 10.4478 25.9338 9.81797 25.9338C9.18813 25.9338 8.59586 26.1791 8.15052 26.6244L6.49612 28.2787C5.57679 29.1982 5.57679 30.6943 6.49625 31.6137L12.2158 37.3332C12.6613 37.7788 13.2536 38.0241 13.8835 38.0241H13.8837C14.5135 38.0241 15.1058 37.7788 15.551 37.3334L27.5484 25.3361C28.4677 24.4166 28.4677 22.9204 27.5482 22.0009ZM13.8834 35.1662L8.66326 29.9461L9.81784 28.7916L12.9247 31.8984C13.4542 32.4279 14.3126 32.4279 14.8421 31.8984L24.2266 22.5139L25.3812 23.6685L13.8834 35.1662Z" fill="url(#paint5_linear_6_5860)" stroke="#EDF6FF" stroke-width="0.4"/>
<defs>
<linearGradient id="paint0_linear_6_5860" x1="46.6473" y1="13.1985" x2="5.65365" y2="50.3991" gradientUnits="userSpaceOnUse">
<stop stop-color="#4338CA"/>
<stop offset="1" stop-color="#1F1A63"/>
</linearGradient>
<linearGradient id="paint1_linear_6_5860" x1="47.8583" y1="18.5552" x2="46.7091" y2="21.6461" gradientUnits="userSpaceOnUse">
<stop stop-color="#4338CA"/>
<stop offset="1" stop-color="#1F1A63"/>
</linearGradient>
<linearGradient id="paint2_linear_6_5860" x1="47.8583" y1="28.1411" x2="46.7091" y2="31.232" gradientUnits="userSpaceOnUse">
<stop stop-color="#4338CA"/>
<stop offset="1" stop-color="#1F1A63"/>
</linearGradient>
<linearGradient id="paint3_linear_6_5860" x1="47.8583" y1="37.729" x2="46.7091" y2="40.8199" gradientUnits="userSpaceOnUse">
<stop stop-color="#4338CA"/>
<stop offset="1" stop-color="#1F1A63"/>
</linearGradient>
<linearGradient id="paint4_linear_6_5860" x1="46.346" y1="47.313" x2="45.7512" y2="50.7275" gradientUnits="userSpaceOnUse">
<stop stop-color="#4338CA"/>
<stop offset="1" stop-color="#1F1A63"/>
</linearGradient>
<linearGradient id="paint5_linear_6_5860" x1="24.0894" y1="23.4171" x2="12.4333" y2="37.8081" gradientUnits="userSpaceOnUse">
<stop stop-color="#4338CA"/>
<stop offset="1" stop-color="#1F1A63"/>
</linearGradient>
</defs>
</svg>
