<svg width="55" height="62" viewBox="0 0 55 62" fill="none" xmlns="http://www.w3.org/2000/svg">
<path d="M51.8023 25.305C52.7751 25.305 53.5637 24.5164 53.5637 23.5437V9.36845C53.5637 4.49559 49.6043 0.500117 44.6907 0.500117C43.4444 0.500117 10.5441 0.5 9.30481 0.5C4.44979 0.5 0.5 4.44991 0.5 9.30493V58.8281C0.5 60.4054 2.43797 61.1903 3.53353 60.0462L5.7869 57.693L8.1672 60.0735C8.85507 60.7612 9.97013 60.7612 10.658 60.0737L12.9136 57.8188L15.1923 60.0786C15.8789 60.7593 16.9861 60.7596 17.6728 60.0789L19.9875 57.7839L22.3031 60.079C22.9892 60.7593 24.0952 60.7594 24.7819 60.08L27.7484 57.1446C30.4622 59.3187 33.9028 60.6211 37.6425 60.6211C46.3835 60.6211 53.4948 53.5098 53.4948 44.7689C53.4948 36.6046 47.2907 29.8629 39.3495 29.0088V25.305H51.8023ZM50.041 9.36845V21.7823H39.3495V9.36845C39.3495 6.42076 41.7476 4.02272 44.6952 4.02272C47.6428 4.02272 50.041 6.42076 50.041 9.36845ZM23.544 56.3491L21.2272 54.0529C20.5405 53.3722 19.4338 53.3725 18.7472 54.053L16.433 56.3476L14.1491 54.0826C13.4604 53.3997 12.3494 53.4018 11.6636 54.0875L9.41319 56.3373L7.00518 53.9294C6.28548 53.2097 5.15199 53.2627 4.48749 53.9566L4.02272 54.4419V9.30493C4.02272 6.39234 6.39222 4.02272 9.30481 4.02272H37.6247C36.4972 5.51025 35.8268 7.36226 35.8268 9.36845V29.0213C23.4646 30.4375 17.5203 44.9768 25.2585 54.6527L23.544 56.3491ZM49.972 44.7689C49.972 51.5674 44.441 57.0984 37.6425 57.0984C30.844 57.0984 25.313 51.5674 25.313 44.7689C25.313 37.9704 30.844 32.4393 37.6425 32.4393C44.441 32.4393 49.972 37.9704 49.972 44.7689Z" fill="url(#paint0_linear_6_5934)" stroke="#EDF6FF"/>
<path d="M36.4672 39.8785V43.4762H32.902C31.9292 43.4762 31.1406 44.2648 31.1406 45.2375C31.1406 46.2103 31.9292 46.9989 32.902 46.9989H38.2286C39.2013 46.9989 39.9899 46.2103 39.9899 45.2375V39.8785C39.9899 38.9058 39.2013 38.1172 38.2286 38.1172C37.2558 38.1172 36.4672 38.9058 36.4672 39.8785Z" fill="url(#paint1_linear_6_5934)" stroke="#EDF6FF"/>
<path d="M23.1225 16.5338C21.4373 15.2206 19.2385 15.0167 18.7475 14.1302C18.5742 13.8172 18.7589 13.3019 19.135 13.0489C19.6702 12.689 20.8152 12.8309 21.2175 13.2019C21.9326 13.8616 23.047 13.8164 23.7064 13.1014C24.366 12.3863 24.3209 11.2719 23.6059 10.6125C23.0587 10.1078 22.3646 9.74766 21.6143 9.53747V9.39222C21.6143 8.41948 20.8256 7.63086 19.8529 7.63086C18.8802 7.63086 18.0915 8.41948 18.0915 9.39222V9.65537C15.5313 10.6147 14.4317 13.6086 15.6659 15.837C16.5307 17.3983 18.0481 17.9975 19.2672 18.4791C20.2325 18.8602 21.6543 19.3832 21.5368 20.4378C21.4806 20.9406 21.1004 21.4396 20.5904 21.6795C19.8631 22.0216 18.4007 21.8102 17.5226 21.2357C16.7086 20.7033 15.6168 20.9315 15.0844 21.7455C14.5519 22.5596 14.7802 23.6511 15.5942 24.1837C16.2785 24.6314 17.1536 24.9925 18.0915 25.1935V25.4176C18.0915 26.3903 18.8802 27.1789 19.8529 27.1789C20.8256 27.1789 21.6143 26.3903 21.6143 25.4176V25.0581C25.1693 23.8266 26.4742 19.1457 23.1225 16.5338Z" fill="url(#paint2_linear_6_5934)" stroke="#EDF6FF"/>
<path d="M18.2244 30.5684H9.41761C8.44487 30.5684 7.65625 31.357 7.65625 32.3297C7.65625 33.3025 8.44487 34.0911 9.41761 34.0911H18.2244C19.1972 34.0911 19.9858 33.3025 19.9858 32.3297C19.9858 31.357 19.1972 30.5684 18.2244 30.5684Z" fill="url(#paint3_linear_6_5934)" stroke="#EDF6FF"/>
<path d="M18.2244 37.627H9.41175C8.43901 37.627 7.65039 38.4156 7.65039 39.3883C7.65039 40.3611 8.43901 41.1497 9.41175 41.1497H18.2244C19.1972 41.1497 19.9858 40.3611 19.9858 39.3883C19.9858 38.4156 19.1972 37.627 18.2244 37.627Z" fill="url(#paint4_linear_6_5934)" stroke="#EDF6FF"/>
<path d="M18.2264 44.6602H9.40785C8.4351 44.6602 7.64648 45.4488 7.64648 46.4215C7.64648 47.3943 8.4351 48.1829 9.40785 48.1829H18.2264C19.1991 48.1829 19.9878 47.3943 19.9878 46.4215C19.9878 45.4488 19.1991 44.6602 18.2264 44.6602Z" fill="url(#paint5_linear_6_5934)" stroke="#EDF6FF"/>
<defs>
<linearGradient id="paint0_linear_6_5934" x1="43.7501" y1="12.81" x2="4.99878" y2="47.3879" gradientUnits="userSpaceOnUse">
<stop stop-color="#4338CA"/>
<stop offset="1" stop-color="#1F1A63"/>
</linearGradient>
<linearGradient id="paint1_linear_6_5934" x1="38.3533" y1="39.9357" x2="32.5915" y2="45.7396" gradientUnits="userSpaceOnUse">
<stop stop-color="#4338CA"/>
<stop offset="1" stop-color="#1F1A63"/>
</linearGradient>
<linearGradient id="paint2_linear_6_5934" x1="23.1647" y1="11.6334" x2="12.6594" y2="17.2113" gradientUnits="userSpaceOnUse">
<stop stop-color="#4338CA"/>
<stop offset="1" stop-color="#1F1A63"/>
</linearGradient>
<linearGradient id="paint3_linear_6_5934" x1="17.7055" y1="31.2896" x2="16.5094" y2="35.5223" gradientUnits="userSpaceOnUse">
<stop stop-color="#4338CA"/>
<stop offset="1" stop-color="#1F1A63"/>
</linearGradient>
<linearGradient id="paint4_linear_6_5934" x1="17.7045" y1="38.3482" x2="16.5088" y2="42.5812" gradientUnits="userSpaceOnUse">
<stop stop-color="#4338CA"/>
<stop offset="1" stop-color="#1F1A63"/>
</linearGradient>
<linearGradient id="paint5_linear_6_5934" x1="17.7054" y1="45.3814" x2="16.5101" y2="49.6147" gradientUnits="userSpaceOnUse">
<stop stop-color="#4338CA"/>
<stop offset="1" stop-color="#1F1A63"/>
</linearGradient>
</defs>
</svg>
