<svg width="67" height="67" viewBox="0 0 67 67" fill="none" xmlns="http://www.w3.org/2000/svg">
<path d="M49.1065 17.0154C49.6431 17.0154 50.0782 16.5803 50.0782 16.0437V8.87281C50.0336 7.58615 48.1789 7.58719 48.1348 8.87281V16.0437C48.1348 16.5803 48.5698 17.0154 49.1065 17.0154Z" fill="url(#paint0_linear_6_5867)" stroke="url(#paint1_linear_6_5867)" stroke-width="0.3"/>
<path d="M49.1066 18.7969C47.8561 18.7969 47.854 20.7403 49.1066 20.7403C50.357 20.7403 50.3591 18.7969 49.1066 18.7969Z" fill="url(#paint2_linear_6_5867)" stroke="url(#paint3_linear_6_5867)" stroke-width="0.3"/>
<path d="M25.9405 21.9251C26.4771 21.9251 26.9122 21.4901 26.9122 20.9534V19.5271C26.8676 18.2404 25.0129 18.2415 24.9688 19.5271V20.9534C24.9688 21.4901 25.4038 21.9251 25.9405 21.9251Z" fill="url(#paint4_linear_6_5867)" stroke="url(#paint5_linear_6_5867)" stroke-width="0.3"/>
<path d="M17.4391 23.4938C17.6949 23.9367 18.3239 24.105 18.7665 23.8494C19.2312 23.5811 19.3904 22.9868 19.1221 22.5221L18.409 21.2869C18.1407 20.822 17.5464 20.6628 17.0817 20.9312C16.617 21.1995 16.4577 21.7938 16.726 22.2586L17.4391 23.4938Z" fill="url(#paint6_linear_6_5867)" stroke="url(#paint7_linear_6_5867)" stroke-width="0.3"/>
<path d="M13.1597 27.7714L11.9245 27.0582C11.4596 26.7897 10.8653 26.9489 10.5971 27.4138C10.3288 27.8785 10.488 28.4728 10.9528 28.7411L12.188 29.4544C12.6306 29.71 13.2596 29.5417 13.5154 29.0987C13.7838 28.6341 13.6246 28.0398 13.1597 27.7714Z" fill="url(#paint8_linear_6_5867)" stroke="url(#paint9_linear_6_5867)" stroke-width="0.3"/>
<path d="M12.188 43.0894L10.9528 43.8025C10.488 44.0708 10.3288 44.6651 10.5971 45.1298C10.8529 45.5728 11.4819 45.7411 11.9245 45.4855L13.1597 44.7724C13.6244 44.5041 13.7837 43.9098 13.5154 43.445C13.2472 42.9803 12.6527 42.8209 12.188 43.0894Z" fill="url(#paint10_linear_6_5867)" stroke="url(#paint11_linear_6_5867)" stroke-width="0.3"/>
<path d="M18.7665 48.6968C18.3018 48.4284 17.7075 48.5876 17.4391 49.0525L16.726 50.2877C16.4577 50.7524 16.617 51.3467 17.0817 51.615C17.5243 51.8707 18.1533 51.7024 18.409 51.2594L19.1221 50.0242C19.3904 49.5594 19.2312 48.9652 18.7665 48.6968Z" fill="url(#paint12_linear_6_5867)" stroke="url(#paint13_linear_6_5867)" stroke-width="0.3"/>
<path d="M40.2871 36.2725C40.2871 36.8091 40.7222 37.2442 41.2588 37.2442H42.6851C43.971 37.1999 43.9714 35.3451 42.6851 35.3008H41.2588C40.7222 35.3008 40.2871 35.7358 40.2871 36.2725Z" fill="url(#paint14_linear_6_5867)" stroke="url(#paint15_linear_6_5867)" stroke-width="0.3"/>
<path d="M39.6921 29.4542L40.9273 28.741C41.392 28.4727 41.5512 27.8784 41.2829 27.4137C41.0146 26.9489 40.4201 26.7898 39.9556 27.058L38.7204 27.7712C38.2556 28.0396 38.0964 28.6339 38.3647 29.0986C38.5447 29.4103 39.1324 29.7091 39.6921 29.4542Z" fill="url(#paint16_linear_6_5867)" stroke="url(#paint17_linear_6_5867)" stroke-width="0.3"/>
<path d="M33.113 23.8494C33.5557 24.105 34.1846 23.9367 34.4403 23.4938L35.1534 22.2585C35.4218 21.7938 35.2625 21.1995 34.7978 20.9312C34.3331 20.6627 33.7388 20.8221 33.4705 21.2868L32.7574 22.522C32.4889 22.9868 32.6483 23.5811 33.113 23.8494Z" fill="url(#paint18_linear_6_5867)" stroke="url(#paint19_linear_6_5867)" stroke-width="0.3"/>
<path d="M25.926 39.4756C28.6496 39.4849 30.0925 36.1972 28.2763 34.2059L32.2309 27.4532C32.502 26.9902 32.3466 26.395 31.8834 26.1237C31.4202 25.8524 30.825 26.008 30.5538 26.4711L26.5969 33.2278C24.6648 32.7843 22.7415 34.3292 22.7659 36.3155C22.7659 38.058 24.1835 39.4756 25.926 39.4756ZM25.926 35.0988C26.5968 35.0988 27.1427 35.6445 27.1427 36.3155C27.0771 37.9292 24.7747 37.9287 24.7094 36.3155C24.7093 35.6445 25.2551 35.0988 25.926 35.0988Z" fill="url(#paint20_linear_6_5867)" stroke="url(#paint21_linear_6_5867)" stroke-width="0.3"/>
<path d="M62.6569 42.7865H50.9109C52.4695 37.0058 51.7928 30.3744 49.216 25.1371H60.2833C62.4235 25.1371 63.8376 22.7444 62.7485 20.8622L51.5723 1.54833C50.4937 -0.315653 47.7205 -0.315524 46.6417 1.54833L39.3143 14.211C36.4413 12.4629 33.2014 11.2609 29.74 10.7479V8.59186H30.313C31.8374 8.59186 33.0774 7.35172 33.0774 5.82744C33.0774 4.30304 31.8373 3.06302 30.313 3.06302H21.5665C20.0423 3.06302 18.8021 4.30316 18.8021 5.82744C18.8021 7.35172 20.0423 8.59186 21.5665 8.59186H22.1396V10.7468C19.7631 11.0977 17.456 11.7787 15.2475 12.7881C14.1049 13.3103 14.9126 15.0779 16.0553 14.5556C34.4459 6.15419 54.4286 23.344 48.8969 42.7867H46.8727C51.37 29.0274 40.4556 14.1181 25.9395 14.3547C13.8541 14.3542 4.02164 24.1868 4.02164 36.2725C3.82937 47.0257 12.5019 56.8516 23.1679 58.0159V59.9735C1.67583 57.2803 -5.56749 29.9934 11.8364 17.0361C12.8486 16.2919 11.6973 14.726 10.6852 15.4703C7.48763 17.8213 4.83476 20.9212 3.0134 24.435C-1.99021 33.8723 -0.313958 46.1525 7.09222 53.8814C11.3487 58.4346 17.0283 61.2692 23.1679 61.9279V62.649C23.1679 64.7513 24.8782 66.4616 26.9805 66.4616H62.6571C64.7593 66.4616 66.4696 64.7513 66.4696 62.649V46.5991C66.4696 44.4967 64.7592 42.7865 62.6569 42.7865ZM20.7456 5.82744C20.7456 5.37463 21.114 5.00642 21.5667 5.00642H30.3131C31.4002 5.04503 31.3994 6.61024 30.3131 6.64846H21.5667C21.1139 6.64846 20.7456 6.28012 20.7456 5.82744ZM24.083 10.5347V8.59186H27.7966V10.5349C26.56 10.4465 25.3196 10.4473 24.083 10.5347ZM40.938 15.2856L48.3239 2.52171C48.6699 1.92392 49.5444 1.92379 49.8903 2.52171L61.0666 21.8355C61.4131 22.4345 60.9754 23.1936 60.2834 23.1936H48.1765C46.3384 20.0805 43.8664 17.3843 40.938 15.2856ZM25.1112 51.7277C28.7635 51.2849 31.6663 48.3822 32.109 44.7299H45.5332C45.5366 44.7298 45.54 44.7301 45.5433 44.7299H57.5282C57.971 48.3822 60.8737 51.2849 64.526 51.7277V57.5202C60.8737 57.9631 57.9709 60.8657 57.528 64.518H32.1091C31.6663 60.8657 28.7636 57.963 25.1112 57.5202V51.7277ZM25.1112 49.7667V46.5991C25.1112 45.5685 25.9497 44.7299 26.9803 44.7299H30.148C29.7323 47.3094 27.6907 49.351 25.1112 49.7667ZM64.5262 46.599V49.7666C61.9468 49.3508 59.9051 47.3092 59.4893 44.7298H62.6569C63.6876 44.7299 64.5262 45.5683 64.5262 46.599ZM11.2582 49.8169C-0.502338 37.1715 8.65665 16.2487 25.94 16.2977C39.4434 16.1185 49.3905 30.0952 44.8274 42.7864H26.9805C24.8782 42.7864 23.1679 44.4967 23.1679 46.599V56.0554C18.6074 55.4223 14.4108 53.2323 11.2582 49.8169ZM25.1112 62.6489V59.4811C27.6906 59.8969 29.7323 61.9385 30.1481 64.518H26.9805C25.9498 64.518 25.1112 63.6795 25.1112 62.6489ZM62.6569 64.518H59.4893C59.9051 61.9386 61.9467 59.8969 64.5262 59.4811V62.6489C64.5262 63.6795 63.6876 64.518 62.6569 64.518Z" fill="url(#paint22_linear_6_5867)" stroke="url(#paint23_linear_6_5867)" stroke-width="0.3"/>
<path d="M44.8185 62.4704C45.9624 62.4704 47.0673 62.2266 48.1029 61.7459C48.5896 61.5199 48.8011 60.9422 48.5751 60.4554C48.3492 59.9686 47.7712 59.7575 47.2846 59.9831C43.4632 61.812 38.8862 58.8669 38.9362 54.6241C38.9362 51.3693 41.575 48.7213 44.8186 48.7213C48.997 48.6728 51.9233 53.1619 50.2143 56.9762C50.0008 57.4685 50.2269 58.0408 50.7191 58.2543C51.2115 58.4677 51.7837 58.2419 51.9972 57.7495C54.2694 52.677 50.3764 46.7135 44.8185 46.7779C34.4371 47.2083 34.4391 62.0411 44.8185 62.4704Z" fill="url(#paint24_linear_6_5867)" stroke="url(#paint25_linear_6_5867)" stroke-width="0.3"/>
<path d="M44.7785 59.5788C45.4021 59.5788 45.7207 59.017 45.7502 58.4871C46.6094 58.1502 47.2607 57.384 47.4225 56.4254C47.6293 55.2007 46.9695 54.0942 45.7812 53.6724C45.5501 53.5904 44.1475 53.2285 44.3319 52.7285C44.4694 52.357 45.1357 52.4356 45.385 52.6036C45.385 52.6036 46.1968 53.2546 46.7591 52.6307C47.46 51.8534 46.7055 51.1778 46.7055 51.1778C46.5121 50.9987 46.1793 50.7849 45.7501 50.6475C45.5603 49.3048 43.9268 49.3658 43.8067 50.7039C43.0832 50.9931 42.5513 51.6459 42.3994 52.4504C42.2459 53.2628 42.5166 54.0558 43.1059 54.5198C43.6442 54.9439 44.3974 55.2433 45.1309 55.5038C45.242 55.5434 45.5801 55.6633 45.5062 56.102C45.467 56.3338 45.2684 56.7269 44.7719 56.7303C44.2073 56.7339 44.0864 56.7152 43.681 56.449C43.2325 56.1542 42.63 56.279 42.3354 56.7277C42.0408 57.1762 42.1656 57.7787 42.6141 58.0733C43.0624 58.3678 43.4228 58.5225 43.8068 58.6007C43.8819 59.0985 44.2002 59.5788 44.7785 59.5788Z" fill="url(#paint26_linear_6_5867)" stroke="url(#paint27_linear_6_5867)" stroke-width="0.3"/>
<path d="M11.5931 36.2725C11.5931 35.7358 11.158 35.3008 10.6214 35.3008H9.19508C7.90841 35.3453 7.90945 37.2 9.19508 37.2442H10.6214C11.158 37.2442 11.5931 36.8091 11.5931 36.2725Z" fill="url(#paint28_linear_6_5867)" stroke="url(#paint29_linear_6_5867)" stroke-width="0.3"/>
<defs>
<linearGradient id="paint0_linear_6_5867" x1="49.7188" y1="9.77293" x2="47.2829" y2="10.2984" gradientUnits="userSpaceOnUse">
<stop stop-color="#4338CA"/>
<stop offset="1" stop-color="#1F1A63"/>
</linearGradient>
<linearGradient id="paint1_linear_6_5867" x1="49.7188" y1="9.77293" x2="47.2829" y2="10.2984" gradientUnits="userSpaceOnUse">
<stop stop-color="#4338CA"/>
<stop offset="1" stop-color="#1F1A63"/>
</linearGradient>
<linearGradient id="paint2_linear_6_5867" x1="49.698" y1="19.1948" x2="48.4376" y2="20.4257" gradientUnits="userSpaceOnUse">
<stop stop-color="#4338CA"/>
<stop offset="1" stop-color="#1F1A63"/>
</linearGradient>
<linearGradient id="paint3_linear_6_5867" x1="49.698" y1="19.1948" x2="48.4376" y2="20.4257" gradientUnits="userSpaceOnUse">
<stop stop-color="#4338CA"/>
<stop offset="1" stop-color="#1F1A63"/>
</linearGradient>
<linearGradient id="paint4_linear_6_5867" x1="26.5527" y1="19.251" x2="24.6523" y2="20.3614" gradientUnits="userSpaceOnUse">
<stop stop-color="#4338CA"/>
<stop offset="1" stop-color="#1F1A63"/>
</linearGradient>
<linearGradient id="paint5_linear_6_5867" x1="26.5527" y1="19.251" x2="24.6523" y2="20.3614" gradientUnits="userSpaceOnUse">
<stop stop-color="#4338CA"/>
<stop offset="1" stop-color="#1F1A63"/>
</linearGradient>
<linearGradient id="paint6_linear_6_5867" x1="18.7611" y1="21.4496" x2="16.7332" y2="23.1685" gradientUnits="userSpaceOnUse">
<stop stop-color="#4338CA"/>
<stop offset="1" stop-color="#1F1A63"/>
</linearGradient>
<linearGradient id="paint7_linear_6_5867" x1="18.7611" y1="21.4496" x2="16.7332" y2="23.1685" gradientUnits="userSpaceOnUse">
<stop stop-color="#4338CA"/>
<stop offset="1" stop-color="#1F1A63"/>
</linearGradient>
<linearGradient id="paint8_linear_6_5867" x1="13.0579" y1="27.4697" x2="11.3727" y2="29.5159" gradientUnits="userSpaceOnUse">
<stop stop-color="#4338CA"/>
<stop offset="1" stop-color="#1F1A63"/>
</linearGradient>
<linearGradient id="paint9_linear_6_5867" x1="13.0579" y1="27.4697" x2="11.3727" y2="29.5159" gradientUnits="userSpaceOnUse">
<stop stop-color="#4338CA"/>
<stop offset="1" stop-color="#1F1A63"/>
</linearGradient>
<linearGradient id="paint10_linear_6_5867" x1="13.0578" y1="43.5009" x2="11.3727" y2="45.5471" gradientUnits="userSpaceOnUse">
<stop stop-color="#4338CA"/>
<stop offset="1" stop-color="#1F1A63"/>
</linearGradient>
<linearGradient id="paint11_linear_6_5867" x1="13.0578" y1="43.5009" x2="11.3727" y2="45.5471" gradientUnits="userSpaceOnUse">
<stop stop-color="#4338CA"/>
<stop offset="1" stop-color="#1F1A63"/>
</linearGradient>
<linearGradient id="paint12_linear_6_5867" x1="18.7611" y1="49.2152" x2="16.7332" y2="50.9342" gradientUnits="userSpaceOnUse">
<stop stop-color="#4338CA"/>
<stop offset="1" stop-color="#1F1A63"/>
</linearGradient>
<linearGradient id="paint13_linear_6_5867" x1="18.7611" y1="49.2152" x2="16.7332" y2="50.9342" gradientUnits="userSpaceOnUse">
<stop stop-color="#4338CA"/>
<stop offset="1" stop-color="#1F1A63"/>
</linearGradient>
<linearGradient id="paint14_linear_6_5867" x1="43.0278" y1="35.6987" x2="41.9414" y2="37.5992" gradientUnits="userSpaceOnUse">
<stop stop-color="#4338CA"/>
<stop offset="1" stop-color="#1F1A63"/>
</linearGradient>
<linearGradient id="paint15_linear_6_5867" x1="43.0278" y1="35.6987" x2="41.9414" y2="37.5992" gradientUnits="userSpaceOnUse">
<stop stop-color="#4338CA"/>
<stop offset="1" stop-color="#1F1A63"/>
</linearGradient>
<linearGradient id="paint16_linear_6_5867" x1="40.8254" y1="27.4647" x2="39.1586" y2="29.5073" gradientUnits="userSpaceOnUse">
<stop stop-color="#4338CA"/>
<stop offset="1" stop-color="#1F1A63"/>
</linearGradient>
<linearGradient id="paint17_linear_6_5867" x1="40.8254" y1="27.4647" x2="39.1586" y2="29.5073" gradientUnits="userSpaceOnUse">
<stop stop-color="#4338CA"/>
<stop offset="1" stop-color="#1F1A63"/>
</linearGradient>
<linearGradient id="paint18_linear_6_5867" x1="34.7924" y1="21.4496" x2="32.7645" y2="23.1686" gradientUnits="userSpaceOnUse">
<stop stop-color="#4338CA"/>
<stop offset="1" stop-color="#1F1A63"/>
</linearGradient>
<linearGradient id="paint19_linear_6_5867" x1="34.7924" y1="21.4496" x2="32.7645" y2="23.1686" gradientUnits="userSpaceOnUse">
<stop stop-color="#4338CA"/>
<stop offset="1" stop-color="#1F1A63"/>
</linearGradient>
<linearGradient id="paint20_linear_6_5867" x1="30.5891" y1="28.7514" x2="22.2937" y2="34.7207" gradientUnits="userSpaceOnUse">
<stop stop-color="#4338CA"/>
<stop offset="1" stop-color="#1F1A63"/>
</linearGradient>
<linearGradient id="paint21_linear_6_5867" x1="30.5891" y1="28.7514" x2="22.2937" y2="34.7207" gradientUnits="userSpaceOnUse">
<stop stop-color="#4338CA"/>
<stop offset="1" stop-color="#1F1A63"/>
</linearGradient>
<linearGradient id="paint22_linear_6_5867" x1="54.2045" y1="13.7278" x2="11.1882" y2="57.2217" gradientUnits="userSpaceOnUse">
<stop stop-color="#4338CA"/>
<stop offset="1" stop-color="#1F1A63"/>
</linearGradient>
<linearGradient id="paint23_linear_6_5867" x1="54.2045" y1="13.7278" x2="11.1882" y2="57.2217" gradientUnits="userSpaceOnUse">
<stop stop-color="#4338CA"/>
<stop offset="1" stop-color="#1F1A63"/>
</linearGradient>
<linearGradient id="paint24_linear_6_5867" x1="49.7673" y1="49.9906" x2="39.5867" y2="60.2373" gradientUnits="userSpaceOnUse">
<stop stop-color="#4338CA"/>
<stop offset="1" stop-color="#1F1A63"/>
</linearGradient>
<linearGradient id="paint25_linear_6_5867" x1="49.7673" y1="49.9906" x2="39.5867" y2="60.2373" gradientUnits="userSpaceOnUse">
<stop stop-color="#4338CA"/>
<stop offset="1" stop-color="#1F1A63"/>
</linearGradient>
<linearGradient id="paint26_linear_6_5867" x1="46.4828" y1="51.6988" x2="41.1123" y2="54.5943" gradientUnits="userSpaceOnUse">
<stop stop-color="#4338CA"/>
<stop offset="1" stop-color="#1F1A63"/>
</linearGradient>
<linearGradient id="paint27_linear_6_5867" x1="46.4828" y1="51.6988" x2="41.1123" y2="54.5943" gradientUnits="userSpaceOnUse">
<stop stop-color="#4338CA"/>
<stop offset="1" stop-color="#1F1A63"/>
</linearGradient>
<linearGradient id="paint28_linear_6_5867" x1="10.9712" y1="35.6987" x2="9.88479" y2="37.5992" gradientUnits="userSpaceOnUse">
<stop stop-color="#4338CA"/>
<stop offset="1" stop-color="#1F1A63"/>
</linearGradient>
<linearGradient id="paint29_linear_6_5867" x1="10.9712" y1="35.6987" x2="9.88479" y2="37.5992" gradientUnits="userSpaceOnUse">
<stop stop-color="#4338CA"/>
<stop offset="1" stop-color="#1F1A63"/>
</linearGradient>
</defs>
</svg>
