<svg width="59" height="48" viewBox="0 0 59 48" fill="none" xmlns="http://www.w3.org/2000/svg">
<path d="M32.5732 44.4798C31.7514 44.4798 31.0855 45.1459 31.0855 45.9675C31.0855 46.7891 31.7514 47.4552 32.5732 47.4552H36.7342C37.2769 47.4552 37.7847 47.3068 38.2235 47.0519C38.6621 47.3068 39.1699 47.4552 39.7128 47.4552H54.9773C56.6185 47.4552 57.9541 46.1199 57.9541 44.4784V40.9414C57.9541 37.4368 55.71 34.4475 52.5836 33.3319C53.5199 32.1747 54.0823 30.703 54.0823 29.102C54.0823 25.8953 51.8297 23.2067 48.8245 22.5305C48.8277 22.475 48.8328 22.4198 48.8328 22.3635V18.8265C48.8328 15.3219 46.5886 12.3326 43.4622 11.217C44.3985 10.0598 44.9608 8.58812 44.9608 6.98714C44.9604 3.27223 41.9382 0.25 38.2233 0.25C34.5084 0.25 31.4861 3.27223 31.4861 6.98714C31.4861 8.58812 32.0485 10.0598 32.9848 11.217C31.4068 11.7799 30.055 12.8207 29.1018 14.1641C28.1487 12.8207 26.7969 11.7801 25.2191 11.217C26.1554 10.0598 26.7177 8.58812 26.7177 6.98714C26.7175 3.27223 23.6953 0.25 19.9806 0.25C16.2655 0.25 13.2433 3.27223 13.2433 6.98714C13.2433 8.58812 13.8056 10.0598 14.7419 11.217C11.6157 12.3326 9.37144 15.3217 9.37144 18.8265V22.3635C9.37144 22.4198 9.3768 22.475 9.37977 22.5305C6.3746 23.2067 4.12201 25.8955 4.12201 29.102C4.12201 30.703 4.68436 32.1747 5.62063 33.3319C2.49426 34.4475 0.25 37.4366 0.25 40.9414V44.4784C0.25 46.1199 1.58537 47.4552 3.22701 47.4552H18.4915C19.0342 47.4552 19.542 47.3068 19.9808 47.0519C20.4194 47.3068 20.9272 47.4552 21.4701 47.4552H25.6305C26.4523 47.4552 27.1182 46.7891 27.1182 45.9675C27.1182 45.1459 26.4523 44.4798 25.6305 44.4798L21.4683 44.4784V40.9414C21.4683 38.1281 23.757 35.8394 26.5704 35.8394H31.6337C34.4471 35.8394 36.7358 38.1283 36.7358 40.9414L36.7342 44.4798H32.5732ZM54.9785 40.9414L54.9771 44.4798L39.711 44.4784V40.9414C39.711 38.1281 41.9997 35.8394 44.813 35.8394H49.8764C52.6898 35.8394 54.9785 38.1281 54.9785 40.9414ZM47.3449 25.3403C49.4192 25.3403 51.1067 27.0278 51.1067 29.102C51.1067 31.1763 49.4192 32.8638 47.3449 32.8638C45.2707 32.8638 43.583 31.1763 43.583 29.102C43.583 27.0278 45.2707 25.3403 47.3449 25.3403ZM38.2233 3.22542C40.2976 3.22542 41.985 4.91288 41.985 6.98714C41.985 9.06141 40.2976 10.7489 38.2233 10.7489C36.149 10.7489 34.4616 9.06141 34.4616 6.98714C34.4616 4.91288 36.149 3.22542 38.2233 3.22542ZM30.5896 18.8265C30.5896 16.0132 32.8784 13.7245 35.6918 13.7245H40.755C43.5683 13.7245 45.8572 16.0134 45.8572 18.8265L45.8556 22.3649L30.5896 22.3633V18.8265ZM19.9806 3.22542C22.0549 3.22542 23.7423 4.91288 23.7423 6.98714C23.7423 9.06141 22.0549 10.7489 19.9806 10.7489C17.9063 10.7489 16.2187 9.06141 16.2187 6.98714C16.2187 4.91288 17.9063 3.22542 19.9806 3.22542ZM12.3467 18.8265C12.3467 16.0132 14.6354 13.7245 17.4487 13.7245H22.5121C25.3254 13.7245 27.6141 16.0134 27.6141 18.8265L27.6127 22.3649L12.3467 22.3635V18.8265ZM10.859 25.3403C12.9332 25.3403 14.6207 27.0278 14.6207 29.102C14.6207 31.1763 12.9332 32.8638 10.859 32.8638C8.78469 32.8638 7.09723 31.1763 7.09723 29.102C7.09723 27.0278 8.78469 25.3403 10.859 25.3403ZM18.4913 44.4798L3.22522 44.4784V40.9414C3.22522 38.1281 5.51411 35.8394 8.32747 35.8394H13.3906C16.204 35.8394 18.4929 38.1283 18.4929 40.9414L18.4913 44.4798ZM19.9806 36.2789C19.0273 34.9356 17.6754 33.895 16.0977 33.3319C17.0339 32.1747 17.5963 30.703 17.5963 29.102C17.5963 27.7099 17.1718 26.4152 16.4456 25.3403H23.5156C22.7894 26.4152 22.3649 27.7101 22.3649 29.102C22.3649 30.703 22.9273 32.1747 23.8635 33.3319C22.2856 33.8948 20.9337 34.9356 19.9806 36.2789ZM29.1018 32.864C27.0276 32.864 25.3401 31.1765 25.3401 29.1022C25.3401 27.028 27.0276 25.3405 29.1018 25.3405C31.1761 25.3405 32.8638 27.028 32.8638 29.1022C32.8638 31.1765 31.1761 32.864 29.1018 32.864ZM34.3406 33.3319C35.2768 32.1747 35.8392 30.703 35.8392 29.102C35.8392 27.7099 35.4147 26.4152 34.6885 25.3403H41.7583C41.0321 26.4152 40.6076 27.7101 40.6076 29.102C40.6076 30.703 41.1699 32.1747 42.1062 33.3319C40.5284 33.8948 39.1766 34.9356 38.2235 36.2789C37.2702 34.9356 35.9183 33.8948 34.3406 33.3319Z" fill="url(#paint0_linear_6_5797)" stroke="white" stroke-width="0.5"/>
<defs>
<linearGradient id="paint0_linear_6_5797" x1="47.2823" y1="9.91542" x2="17.3321" y2="46.9287" gradientUnits="userSpaceOnUse">
<stop stop-color="#4338CA"/>
<stop offset="1" stop-color="#1F1A63"/>
</linearGradient>
</defs>
</svg>
