<svg width="62" height="70" viewBox="0 0 62 70" fill="none" xmlns="http://www.w3.org/2000/svg">
<path d="M61.5973 30.9247C61.5973 30.1806 60.994 29.5771 60.2498 29.5771H46.77V24.7834C46.77 19.588 42.544 15.3613 37.3493 15.3613H36.666C37.7477 14.0643 38.3997 12.3972 38.3997 10.5804V8.05359C38.4314 3.86275 35.2292 0.25 30.9236 0.25C26.6101 0.25 23.4243 3.8641 23.4461 8.05359V10.5802C23.4461 12.3971 24.0983 14.0643 25.1803 15.3612H24.498C19.3035 15.3612 15.0774 19.5878 15.0774 24.7833V29.577H1.59754C0.853293 29.577 0.25 30.1804 0.25 30.9245V35.4732C0.25 38.7409 1.97849 41.8354 4.76088 43.5492L23.4267 55.0453C24.5059 55.7101 25.1763 56.9103 25.1763 58.1779V67.8964C25.1763 68.3796 25.4351 68.8258 25.8544 69.0659C26.2696 69.3035 26.7937 69.3008 27.2063 69.0584L35.8711 63.9701C36.2832 63.7281 36.5362 63.2859 36.5362 62.8081V58.1859C36.5362 56.9148 37.2096 55.7126 38.2934 55.0487L43.3158 51.9721C43.9504 51.5834 44.1497 50.7538 43.761 50.1191C43.3724 49.4844 42.5427 49.2853 41.908 49.6739L36.8856 52.7505C35.0077 53.901 33.8413 55.9838 33.8413 58.1859V62.0366L27.8716 65.5424V58.1781C27.8716 55.9819 26.71 53.9023 24.8401 52.7507L6.17418 41.2545C4.18238 40.0277 2.94508 37.8125 2.94508 35.4733V32.2722H58.9022V35.4604C58.9022 37.8063 57.6595 40.0247 55.6593 41.2502L51.9173 43.5425C51.2827 43.9312 51.0834 44.7608 51.4721 45.3955C51.8608 46.0303 52.6905 46.2291 53.3251 45.8407L57.067 43.5484C59.8614 41.8366 61.5973 38.7376 61.5973 35.4604V30.9247ZM26.258 6.67371C26.7367 4.52614 28.721 2.94508 30.9236 2.94508C33.1557 2.94508 35.1116 4.54379 35.5954 6.70605H31.5854C31.2416 6.70605 30.8655 6.49503 30.7107 6.21501C30.4732 5.78622 30.0218 5.52022 29.5317 5.52022C29.5316 5.52022 29.5312 5.52022 29.5309 5.52022C29.0405 5.52049 28.589 5.78703 28.352 6.21649C28.2064 6.48007 27.7838 6.70605 27.5401 6.70605H26.2507C26.253 6.69527 26.2556 6.68449 26.258 6.67371ZM26.0012 29.5765H23.2449V24.714C23.2449 23.9699 22.6416 23.3665 21.8974 23.3665C21.1531 23.3665 20.5498 23.9699 20.5498 24.714V29.5765H17.7724V24.7834C17.7724 21.0742 20.7896 18.0564 24.498 18.0564H26.0497L27.4351 22.0514L26.0012 29.5765ZM28.7446 29.5765L29.9411 23.2969H31.848L33.0445 29.5765H28.7446ZM28.9023 18.0569H32.887L32.0045 20.6017H29.7847L28.9023 18.0569ZM30.9236 15.3613C28.2866 15.3613 26.1412 13.2165 26.1412 10.5804V9.40126H27.5399C28.2277 9.40126 28.93 9.16895 29.5253 8.77668C30.1273 9.17407 30.8468 9.40126 31.5852 9.40126H35.7047V10.5804C35.7047 13.2165 33.5599 15.3613 30.9236 15.3613ZM44.0749 29.5765H41.2282V24.714C41.2282 23.9699 40.6249 23.3665 39.8807 23.3665C39.1364 23.3665 38.5331 23.9699 38.5331 24.714V29.5765H35.7882L34.3544 22.0515L35.7398 18.0564H37.3495C41.058 18.0564 44.075 21.0742 44.075 24.7834L44.0749 29.5765Z" fill="url(#paint0_linear_6_5816)" stroke="white" stroke-width="0.5"/>
<path d="M46.5429 48.5841C47.2098 49.5748 48.7819 49.2391 48.9904 48.0665C49.2101 46.8303 47.6845 45.9983 46.759 46.8381C46.2708 47.2811 46.1773 48.0354 46.5429 48.5841Z" fill="url(#paint1_linear_6_5816)" stroke="white" stroke-width="0.5"/>
<defs>
<linearGradient id="paint0_linear_6_5816" x1="50.2517" y1="14.3764" x2="5.74629" y2="54.3848" gradientUnits="userSpaceOnUse">
<stop stop-color="#4338CA"/>
<stop offset="1" stop-color="#1F1A63"/>
</linearGradient>
<linearGradient id="paint1_linear_6_5816" x1="48.514" y1="47.0447" x2="46.7824" y2="48.8096" gradientUnits="userSpaceOnUse">
<stop stop-color="#4338CA"/>
<stop offset="1" stop-color="#1F1A63"/>
</linearGradient>
</defs>
</svg>
