<svg width="54" height="57" viewBox="0 0 54 57" fill="none" xmlns="http://www.w3.org/2000/svg">
<path d="M50.2314 16.1345V9.1543C50.2314 8.69628 49.8599 8.32475 49.4019 8.32475H44.8946V0.929154C44.8946 0.471136 44.5231 0.0996094 44.065 0.0996094H10.8909C10.4329 0.0996094 10.0618 0.471136 10.0618 0.929154V8.32475H5.55407C5.09605 8.32475 4.72495 8.69628 4.72495 9.1543V22.2472H3.99212C1.84562 22.2472 0.0996094 23.9936 0.0996094 26.1401V52.0516C0.0996094 54.1981 1.84562 55.9445 3.99212 55.9445H43.3531C43.3548 55.9445 43.3561 55.9441 43.3578 55.9441H49.9183C52.0648 55.9441 53.8108 54.1981 53.8108 52.0516V20.0134C53.8108 17.9725 52.2318 16.2947 50.2314 16.1345ZM11.7205 1.75827H43.2359V16.1209H39.5564V9.1543C39.5564 8.69628 39.1853 8.32475 38.7273 8.32475H11.7205V1.75827ZM1.75827 52.052V26.1401C1.75827 24.9084 2.76037 23.9063 3.99212 23.9063H7.23914C7.69716 23.9063 8.06826 23.5348 8.06826 23.0768C8.06826 22.6187 7.69716 22.2472 7.23914 22.2472H6.38361V9.98342H37.8978V16.1209H29.4881C27.3416 16.1209 25.5956 17.8669 25.5956 20.0134C25.5956 21.2451 24.5935 22.2472 23.3614 22.2472H10.5569C10.0989 22.2472 9.72735 22.6187 9.72735 23.0768C9.72735 23.5348 10.0989 23.9063 10.5569 23.9063H23.3614C25.5079 23.9063 27.2543 22.1599 27.2543 20.0134C27.2543 18.7816 28.2564 17.7795 29.4881 17.7795H43.3531C44.5853 17.7795 45.5874 18.7816 45.5874 20.0134V52.052C45.5874 53.2829 44.5861 54.2846 43.3552 54.2859H43.3527C43.3522 54.2859 43.3514 54.2859 43.3505 54.2859H3.99212C2.76037 54.2859 1.75827 53.2838 1.75827 52.052ZM52.1521 52.052C52.1521 53.2833 51.15 54.2859 49.9183 54.2859H46.5383C46.9252 53.7358 47.1732 53.0818 47.2315 52.375H49.4019C49.8599 52.375 50.2314 52.0034 50.2314 51.5454V29.5563C50.2314 29.0983 49.8599 28.7272 49.4019 28.7272C48.9439 28.7272 48.5724 29.0983 48.5724 29.5563V50.7159H47.246V20.0134C47.246 18.4143 46.2763 17.0377 44.8946 16.4395V9.98342H48.5724V26.239C48.5724 26.697 48.9439 27.0681 49.4019 27.0681C49.8599 27.0681 50.2314 26.697 50.2314 26.239V17.8042C51.3149 17.9572 52.1521 18.8881 52.1521 20.0134V52.052Z" fill="url(#paint0_linear_6_5799)" stroke="url(#paint1_linear_6_5799)" stroke-width="0.2"/>
<path d="M10.7549 14.2978H30.6593C31.1173 14.2978 31.4884 13.9262 31.4884 13.4682C31.4884 13.0102 31.1173 12.6387 30.6593 12.6387H10.7549C10.2969 12.6387 9.92578 13.0102 9.92578 13.4682C9.92578 13.9262 10.2969 14.2978 10.7549 14.2978Z" fill="url(#paint2_linear_6_5799)" stroke="url(#paint3_linear_6_5799)" stroke-width="0.2"/>
<path d="M10.7549 18.4438H22.141C22.599 18.4438 22.9701 18.0727 22.9701 17.6147C22.9701 17.1563 22.599 16.7852 22.141 16.7852H10.7549C10.2969 16.7852 9.92578 17.1563 9.92578 17.6147C9.92578 18.0727 10.2969 18.4438 10.7549 18.4438Z" fill="url(#paint4_linear_6_5799)" stroke="url(#paint5_linear_6_5799)" stroke-width="0.2"/>
<path d="M42.435 26.7363H25.1846C24.7266 26.7363 24.3555 27.1079 24.3555 27.5659V33.7029C24.3555 34.1609 24.7266 34.5324 25.1846 34.5324H42.435C42.893 34.5324 43.2646 34.1609 43.2646 33.7029V27.5659C43.2646 27.1079 42.893 26.7363 42.435 26.7363ZM41.6059 32.8733H26.0141V28.395H41.6059V32.8733Z" fill="url(#paint6_linear_6_5799)" stroke="url(#paint7_linear_6_5799)" stroke-width="0.2"/>
<defs>
<linearGradient id="paint0_linear_6_5799" x1="43.8774" y1="11.534" x2="7.66267" y2="46.7475" gradientUnits="userSpaceOnUse">
<stop stop-color="#4338CA"/>
<stop offset="1" stop-color="#1F1A63"/>
</linearGradient>
<linearGradient id="paint1_linear_6_5799" x1="43.8774" y1="11.534" x2="7.66267" y2="46.7475" gradientUnits="userSpaceOnUse">
<stop stop-color="#4338CA"/>
<stop offset="1" stop-color="#1F1A63"/>
</linearGradient>
<linearGradient id="paint2_linear_6_5799" x1="27.5006" y1="12.9784" x2="27.3377" y2="15.1186" gradientUnits="userSpaceOnUse">
<stop stop-color="#4338CA"/>
<stop offset="1" stop-color="#1F1A63"/>
</linearGradient>
<linearGradient id="paint3_linear_6_5799" x1="27.5006" y1="12.9784" x2="27.3377" y2="15.1186" gradientUnits="userSpaceOnUse">
<stop stop-color="#4338CA"/>
<stop offset="1" stop-color="#1F1A63"/>
</linearGradient>
<linearGradient id="paint4_linear_6_5799" x1="20.5577" y1="17.1248" x2="20.2912" y2="19.2433" gradientUnits="userSpaceOnUse">
<stop stop-color="#4338CA"/>
<stop offset="1" stop-color="#1F1A63"/>
</linearGradient>
<linearGradient id="paint5_linear_6_5799" x1="20.5577" y1="17.1248" x2="20.2912" y2="19.2433" gradientUnits="userSpaceOnUse">
<stop stop-color="#4338CA"/>
<stop offset="1" stop-color="#1F1A63"/>
</linearGradient>
<linearGradient id="paint6_linear_6_5799" x1="39.7675" y1="28.3326" x2="36.2306" y2="37.0055" gradientUnits="userSpaceOnUse">
<stop stop-color="#4338CA"/>
<stop offset="1" stop-color="#1F1A63"/>
</linearGradient>
<linearGradient id="paint7_linear_6_5799" x1="39.7675" y1="28.3326" x2="36.2306" y2="37.0055" gradientUnits="userSpaceOnUse">
<stop stop-color="#4338CA"/>
<stop offset="1" stop-color="#1F1A63"/>
</linearGradient>
</defs>
</svg>
