<svg width="62" height="69" viewBox="0 0 62 69" fill="none" xmlns="http://www.w3.org/2000/svg">
<path d="M41.9554 28.7822C43.0979 27.6514 43.807 26.0838 43.807 24.3531C43.807 20.9157 41.0098 18.1191 37.5717 18.1191C34.9223 18.1191 32.5742 19.7986 31.6974 22.2597C31.3299 22.1919 30.9519 22.1547 30.565 22.1547C30.1781 22.1547 29.8002 22.1919 29.4326 22.2597C28.5558 19.7985 26.2075 18.1191 23.5583 18.1191C20.1202 18.1191 17.323 20.9157 17.323 24.3531C17.323 26.0838 18.0322 27.6514 19.1747 28.7822C16.4342 30.3433 14.6699 33.2995 14.6699 36.5145C14.6699 37.0693 15.1196 37.5189 15.6743 37.5189C16.229 37.5189 16.6787 37.0693 16.6787 36.5145C16.6787 33.675 18.4565 31.0965 21.1062 30.0853C21.8594 30.4087 22.6882 30.5884 23.5584 30.5884C23.9417 30.5884 24.3213 30.5514 24.6927 30.4829C25.0103 31.3709 25.5232 32.1664 26.1802 32.8172C23.4147 34.383 21.6769 37.3173 21.6769 40.5504C21.6769 41.1053 22.1266 41.5548 22.6813 41.5548C23.236 41.5548 23.6857 41.1053 23.6857 40.5504C23.6857 37.7792 25.335 35.2909 27.8875 34.2112C27.9558 34.1823 28.0189 34.1463 28.077 34.1051C28.8397 34.4385 29.6809 34.6246 30.565 34.6246C31.4355 34.6246 32.2644 34.4448 33.0176 34.1212C35.6661 35.1324 37.4443 37.7136 37.4443 40.5504C37.4443 41.1053 37.894 41.5548 38.4487 41.5548C39.0034 41.5548 39.4531 41.1053 39.4531 40.5504C39.4531 37.3384 37.6884 34.3798 34.9487 32.8182C35.6063 32.1672 36.1196 31.3713 36.4372 30.4829C36.8089 30.5514 37.1883 30.5884 37.5715 30.5884C38.4417 30.5884 39.2706 30.4087 40.0236 30.0853C42.6733 31.0965 44.4511 33.6747 44.4511 36.5145C44.4511 37.0693 44.9008 37.5189 45.4555 37.5189C46.0102 37.5189 46.4599 37.0693 46.4599 36.5145C46.4602 33.2993 44.6959 30.3433 41.9554 28.7822ZM24.3302 28.3897C24.3302 28.4292 24.3325 28.4681 24.3332 28.5073C24.0802 28.5544 23.8211 28.5796 23.5584 28.5796C21.228 28.5796 19.3319 26.6837 19.3319 24.3531C19.3319 22.0234 21.228 20.1279 23.5584 20.1279C25.3565 20.1279 26.9492 21.2688 27.5419 22.9393C25.6282 24.005 24.3302 26.0483 24.3302 28.3897ZM26.339 28.3897C26.339 26.0595 28.2348 24.1636 30.5651 24.1636C32.8955 24.1636 34.7912 26.0594 34.7912 28.3897C34.7912 30.7201 32.8955 32.6158 30.5651 32.6158C28.2348 32.6158 26.339 30.7199 26.339 28.3897ZM36.7969 28.5073C36.7976 28.4681 36.7999 28.4291 36.7999 28.3897C36.7999 26.0483 35.5019 24.0052 33.5882 22.9394C34.181 21.2689 35.7737 20.1281 37.5717 20.1281C39.9021 20.1281 41.7982 22.0234 41.7982 24.3532C41.7982 26.6837 39.9021 28.5797 37.5717 28.5797C37.3091 28.5796 37.0499 28.5544 36.7969 28.5073Z" fill="url(#paint0_linear_6_5804)" stroke="url(#paint1_linear_6_5804)" stroke-width="0.3"/>
<path d="M56.5767 43.5587V25.3019C59.0803 24.8294 60.9804 22.6272 60.9804 19.9883C60.9804 17.0059 58.5541 14.5797 55.5718 14.5797C53.9327 14.5797 52.4627 15.3136 51.4701 16.4688L35.6693 7.3455C35.8657 6.78585 35.9739 6.18481 35.9739 5.55874C35.9739 2.57661 33.5477 0.150391 30.5654 0.150391C27.5832 0.150391 25.1568 2.57662 25.1568 5.55887C25.1568 6.18495 25.2649 6.78585 25.4615 7.34563L9.6607 16.4688C8.66809 15.3136 7.19805 14.5797 5.55901 14.5797C2.57662 14.5797 0.150391 17.0059 0.150391 19.9883C0.150391 22.6272 2.05044 24.8293 4.55408 25.3019V43.5587C2.05044 44.0312 0.150391 46.2334 0.150391 48.8723C0.150391 51.8547 2.57662 54.2809 5.55901 54.2809C7.19551 54.2809 8.6634 53.5493 9.65602 52.3973L25.4614 61.5222C25.2649 62.0817 25.1568 62.6826 25.1568 63.3084C25.1568 66.2908 27.5831 68.717 30.5654 68.717C33.5478 68.717 35.9741 66.2908 35.9741 63.3084C35.9741 62.6826 35.866 62.0817 35.6695 61.5222L51.4749 52.3973C52.4675 53.5494 53.9354 54.2809 55.5719 54.2809C58.5543 54.2809 60.9805 51.8547 60.9805 48.8723C60.9804 46.2332 59.0802 44.0312 56.5767 43.5587ZM55.5718 16.5885C57.4464 16.5885 58.9716 18.1137 58.9716 19.9883C58.9716 21.8629 57.4464 23.3881 55.5718 23.3881C53.6971 23.3881 52.1719 21.8629 52.1719 19.9883C52.1719 18.1137 53.6971 16.5885 55.5718 16.5885ZM30.5654 2.15919C32.4401 2.15919 33.9653 3.68427 33.9653 5.55887C33.9653 7.43174 32.4429 8.95575 30.5707 8.95856C30.5689 8.95856 30.5672 8.95829 30.5654 8.95829C30.5637 8.95829 30.562 8.95856 30.5602 8.95856C28.688 8.95575 27.1656 7.43174 27.1656 5.55887C27.1656 3.68427 28.6907 2.15919 30.5654 2.15919ZM2.15919 19.9883C2.15919 18.1137 3.6844 16.5885 5.55901 16.5885C7.43362 16.5885 8.95883 18.1137 8.95883 19.9883C8.95883 21.8629 7.43362 23.3881 5.55901 23.3881C3.6844 23.3881 2.15919 21.8629 2.15919 19.9883ZM5.55901 52.272C3.6844 52.272 2.15919 50.7467 2.15919 48.8721C2.15919 46.9975 3.6844 45.4723 5.55901 45.4723C7.43362 45.4723 8.95883 46.9975 8.95883 48.8721C8.95883 50.7467 7.43362 52.272 5.55901 52.272ZM30.5654 66.7081C28.6908 66.7081 27.1656 65.1829 27.1656 63.3083C27.1656 61.4337 28.6908 59.9085 30.5654 59.9085C32.4401 59.9085 33.9653 61.4337 33.9653 63.3083C33.9653 65.1829 32.4401 66.7081 30.5654 66.7081ZM34.6627 59.7838C33.8784 58.8731 32.797 58.2262 31.5697 57.9948V54.1253C31.5697 53.5704 31.12 53.1209 30.5653 53.1209C30.0106 53.1209 29.5609 53.5704 29.5609 54.1253V57.9948C28.3338 58.2263 27.2524 58.8731 26.4679 59.7838L10.6628 50.659C10.8594 50.0992 10.9675 49.4983 10.9675 48.8723C10.9675 48.2457 10.8592 47.6441 10.6623 47.0839L14.0143 45.1481C14.4947 44.8706 14.6591 44.2563 14.3818 43.776C14.1044 43.2956 13.4901 43.1313 13.0096 43.4085L9.65468 45.346C8.87031 44.4362 7.78931 43.7899 6.56274 43.5586V25.302C7.78971 25.0707 8.87098 24.424 9.65535 23.5138L13.0149 25.4539C13.173 25.5452 13.3458 25.5886 13.5163 25.5886C13.8632 25.5886 14.2009 25.4085 14.3869 25.0864C14.6643 24.606 14.4998 23.9916 14.0194 23.7142L10.6624 21.7756C10.859 21.2157 10.9672 20.6145 10.9672 19.9883C10.9672 19.3648 10.86 18.7662 10.6648 18.2084L26.4679 9.08378C27.2523 9.99416 28.3335 10.641 29.5605 10.8724V14.7423C29.5605 15.2971 30.0102 15.7467 30.5649 15.7467C31.1196 15.7467 31.5693 15.2971 31.5693 14.7423V10.8724C32.7963 10.641 33.8776 9.99416 34.6619 9.08378L50.465 18.2084C50.27 18.7662 50.1626 19.3648 50.1626 19.9883C50.1626 20.6145 50.2708 21.2157 50.4674 21.7756L47.1104 23.7142C46.6301 23.9916 46.4655 24.606 46.743 25.0864C46.929 25.4085 47.2666 25.5886 47.6136 25.5886C47.7839 25.5886 47.9568 25.5452 48.115 25.4539L51.4745 23.5138C52.259 24.424 53.3402 25.0707 54.5671 25.302V43.5586C53.3405 43.7899 52.2596 44.4362 51.4751 45.346L48.1202 43.4085C47.6398 43.1315 47.0255 43.2956 46.748 43.776C46.4706 44.2563 46.6351 44.8706 47.1155 45.1481L50.4675 47.0839C50.2707 47.6441 50.1623 48.2457 50.1623 48.8723C50.1623 49.4983 50.2704 50.0994 50.467 50.659L34.6627 59.7838ZM55.5718 52.272C53.6971 52.272 52.1719 50.7467 52.1719 48.8721C52.1719 46.9975 53.6971 45.4723 55.5718 45.4723C57.4464 45.4723 58.9716 46.9975 58.9716 48.8721C58.9716 50.7467 57.4464 52.272 55.5718 52.272Z" fill="url(#paint2_linear_6_5804)" stroke="url(#paint3_linear_6_5804)" stroke-width="0.3"/>
<path d="M38.9798 44.8105H35.9907C35.436 44.8105 34.9863 45.2601 34.9863 45.8149C34.9863 46.3698 35.436 46.8193 35.9907 46.8193H38.9798C39.5345 46.8193 39.9842 46.3698 39.9842 45.8149C39.9842 45.2601 39.5345 44.8105 38.9798 44.8105Z" fill="url(#paint4_linear_6_5804)" stroke="url(#paint5_linear_6_5804)" stroke-width="0.3"/>
<path d="M38.978 48.7461H22.1528C21.5981 48.7461 21.1484 49.1957 21.1484 49.7505C21.1484 50.3053 21.5981 50.7549 22.1528 50.7549H38.9781C39.5328 50.7549 39.9825 50.3053 39.9825 49.7505C39.9825 49.1957 39.5327 48.7461 38.978 48.7461Z" fill="url(#paint6_linear_6_5804)" stroke="url(#paint7_linear_6_5804)" stroke-width="0.3"/>
<path d="M22.1528 46.8193H22.1668C22.7215 46.8193 23.1712 46.3698 23.1712 45.8149C23.1712 45.2601 22.7215 44.8105 22.1668 44.8105H22.1528C21.5981 44.8105 21.1484 45.2601 21.1484 45.8149C21.1484 46.3698 21.5981 46.8193 22.1528 46.8193Z" fill="url(#paint8_linear_6_5804)" stroke="url(#paint9_linear_6_5804)" stroke-width="0.3"/>
<path d="M25.6453 46.8193C26.2 46.8193 26.6497 46.3698 26.6497 45.8149C26.6497 45.2601 26.2 44.8105 25.6453 44.8105H25.6313C25.0767 44.8105 24.627 45.2601 24.627 45.8149C24.627 46.3698 25.0767 46.8193 25.6313 46.8193H25.6453Z" fill="url(#paint10_linear_6_5804)" stroke="url(#paint11_linear_6_5804)" stroke-width="0.3"/>
<path d="M29.1238 46.8193C29.6785 46.8193 30.1282 46.3698 30.1282 45.8149C30.1282 45.2601 29.6785 44.8105 29.1238 44.8105H29.1099C28.5552 44.8105 28.1055 45.2601 28.1055 45.8149C28.1055 46.3698 28.5552 46.8193 29.1099 46.8193H29.1238Z" fill="url(#paint12_linear_6_5804)" stroke="url(#paint13_linear_6_5804)" stroke-width="0.3"/>
<defs>
<linearGradient id="paint0_linear_6_5804" x1="40.5807" y1="22.9177" x2="26.1048" y2="42.7694" gradientUnits="userSpaceOnUse">
<stop stop-color="#4338CA"/>
<stop offset="1" stop-color="#1F1A63"/>
</linearGradient>
<linearGradient id="paint1_linear_6_5804" x1="40.5807" y1="22.9177" x2="26.1048" y2="42.7694" gradientUnits="userSpaceOnUse">
<stop stop-color="#4338CA"/>
<stop offset="1" stop-color="#1F1A63"/>
</linearGradient>
<linearGradient id="paint2_linear_6_5804" x1="49.7305" y1="14.1896" x2="5.51042" y2="53.851" gradientUnits="userSpaceOnUse">
<stop stop-color="#4338CA"/>
<stop offset="1" stop-color="#1F1A63"/>
</linearGradient>
<linearGradient id="paint3_linear_6_5804" x1="49.7305" y1="14.1896" x2="5.51042" y2="53.851" gradientUnits="userSpaceOnUse">
<stop stop-color="#4338CA"/>
<stop offset="1" stop-color="#1F1A63"/>
</linearGradient>
<linearGradient id="paint4_linear_6_5804" x1="39.0599" y1="45.2219" x2="38.1651" y2="47.4725" gradientUnits="userSpaceOnUse">
<stop stop-color="#4338CA"/>
<stop offset="1" stop-color="#1F1A63"/>
</linearGradient>
<linearGradient id="paint5_linear_6_5804" x1="39.0599" y1="45.2219" x2="38.1651" y2="47.4725" gradientUnits="userSpaceOnUse">
<stop stop-color="#4338CA"/>
<stop offset="1" stop-color="#1F1A63"/>
</linearGradient>
<linearGradient id="paint6_linear_6_5804" x1="36.4993" y1="49.1574" x2="36.2274" y2="51.7351" gradientUnits="userSpaceOnUse">
<stop stop-color="#4338CA"/>
<stop offset="1" stop-color="#1F1A63"/>
</linearGradient>
<linearGradient id="paint7_linear_6_5804" x1="36.4993" y1="49.1574" x2="36.2274" y2="51.7351" gradientUnits="userSpaceOnUse">
<stop stop-color="#4338CA"/>
<stop offset="1" stop-color="#1F1A63"/>
</linearGradient>
<linearGradient id="paint8_linear_6_5804" x1="22.7971" y1="45.2219" x2="21.4941" y2="46.5483" gradientUnits="userSpaceOnUse">
<stop stop-color="#4338CA"/>
<stop offset="1" stop-color="#1F1A63"/>
</linearGradient>
<linearGradient id="paint9_linear_6_5804" x1="22.7971" y1="45.2219" x2="21.4941" y2="46.5483" gradientUnits="userSpaceOnUse">
<stop stop-color="#4338CA"/>
<stop offset="1" stop-color="#1F1A63"/>
</linearGradient>
<linearGradient id="paint10_linear_6_5804" x1="26.2756" y1="45.2219" x2="24.9726" y2="46.5483" gradientUnits="userSpaceOnUse">
<stop stop-color="#4338CA"/>
<stop offset="1" stop-color="#1F1A63"/>
</linearGradient>
<linearGradient id="paint11_linear_6_5804" x1="26.2756" y1="45.2219" x2="24.9726" y2="46.5483" gradientUnits="userSpaceOnUse">
<stop stop-color="#4338CA"/>
<stop offset="1" stop-color="#1F1A63"/>
</linearGradient>
<linearGradient id="paint12_linear_6_5804" x1="29.7541" y1="45.2219" x2="28.4511" y2="46.5483" gradientUnits="userSpaceOnUse">
<stop stop-color="#4338CA"/>
<stop offset="1" stop-color="#1F1A63"/>
</linearGradient>
<linearGradient id="paint13_linear_6_5804" x1="29.7541" y1="45.2219" x2="28.4511" y2="46.5483" gradientUnits="userSpaceOnUse">
<stop stop-color="#4338CA"/>
<stop offset="1" stop-color="#1F1A63"/>
</linearGradient>
</defs>
</svg>
