<svg width="66" height="68" viewBox="0 0 66 68" fill="none" xmlns="http://www.w3.org/2000/svg">
<path d="M43.4235 15.502C37.6233 15.502 32.9434 20.1809 32.9434 25.9822C32.9434 31.7827 37.6224 36.4624 43.4236 36.4625C49.2238 36.4625 53.9039 31.7837 53.9039 25.9822C53.9038 20.1819 49.225 15.502 43.4235 15.502ZM43.4236 34.4724C38.7235 34.4724 34.9335 30.6834 34.9335 25.9822C34.9335 21.2822 38.7222 17.4921 43.4236 17.4921C48.1241 17.4921 51.9135 21.2809 51.9138 25.9822C51.9139 30.6825 48.1251 34.4724 43.4236 34.4724Z" fill="url(#paint0_linear_6_5819)"/>
<path d="M64.5243 41.3384L62.4604 39.2745C62.0717 38.8858 61.4417 38.8859 61.0531 39.2745C60.6645 39.6631 60.6645 40.2932 61.0533 40.6817L63.1172 42.7456C63.927 43.5558 63.927 44.8666 63.1172 45.6761C62.307 46.4859 60.9969 46.4862 60.1866 45.6761C58.4564 43.9459 53.7263 39.2157 52.1784 37.6677C53.2827 36.8391 54.2754 35.8478 55.1102 34.7385L57.7697 37.3979C58.1584 37.7866 58.7884 37.7866 59.177 37.3979C59.5656 37.0093 59.5656 36.3793 59.177 35.9908L56.2171 33.0309C57.3969 30.897 58.0248 28.488 58.0248 25.9822C58.0248 23.0369 57.1582 20.2251 55.5463 17.837V8.9427C55.5463 7.2235 54.1477 5.82484 52.4285 5.82484H49.9156V3.11787C49.9156 1.39866 48.5169 0 46.7977 0H19.0648C18.5152 0 18.0697 0.445523 18.0697 0.995064C18.0697 1.5446 18.5152 1.99013 19.0648 1.99013H46.7976C47.4194 1.99013 47.9253 2.49602 47.9253 3.11787V5.82484H8.7486C7.0294 5.82484 5.63073 7.2235 5.63073 8.9427V60.1146H3.11787C2.49602 60.1146 1.99013 59.6087 1.99013 58.9869V3.11787C1.99013 2.49602 2.49602 1.99013 3.11787 1.99013H14.4211C14.9707 1.99013 15.4162 1.5446 15.4162 0.995064C15.4162 0.445523 14.9707 0 14.4211 0H3.11787C1.39866 0 0 1.39866 0 3.11787V58.987C0 60.7062 1.39866 62.1048 3.11787 62.1048H5.63073V64.8118C5.63073 66.531 7.0294 67.9297 8.7486 67.9297H52.4283C54.1475 67.9297 55.5462 66.531 55.5462 64.8118V43.8503L58.7793 47.0835C60.3669 48.671 62.9358 48.6714 64.5244 47.0835C66.1118 45.4959 66.1122 42.9265 64.5243 41.3384ZM34.9484 35.3207C32.2341 32.8546 30.8178 29.4548 30.8178 25.9822C30.8178 19.0092 36.4506 13.3767 43.4231 13.3767C50.3879 13.3767 56.0346 19.0043 56.0346 25.9822C56.0346 36.7506 43.0892 42.7279 34.9484 35.3207ZM53.5561 64.8118C53.5561 65.4337 53.0502 65.9396 52.4283 65.9396H8.7486C8.12675 65.9396 7.62086 65.4337 7.62086 64.8118V61.1098V8.9427C7.62086 8.32086 8.12675 7.81497 8.7486 7.81497H48.9204H52.4283C53.0502 7.81497 53.5561 8.32086 53.5561 8.9427V15.4689C50.8898 12.8963 47.3227 11.3807 43.4231 11.3807C30.823 11.3807 24.1263 26.4021 32.5813 35.763C34.9458 38.3808 38.2277 40.1085 41.8515 40.4975C44.7134 40.8045 47.7654 40.2599 50.4686 38.7725L53.5562 41.8601V64.8118H53.5561Z" fill="url(#paint1_linear_6_5819)"/>
<path d="M12.6396 15.9745H24.9569C25.5064 15.9745 25.952 15.529 25.952 14.9794C25.952 14.4299 25.5064 13.9844 24.9569 13.9844H12.6396C12.0901 13.9844 11.6445 14.4299 11.6445 14.9794C11.6445 15.529 12.0901 15.9745 12.6396 15.9745Z" fill="url(#paint2_linear_6_5819)"/>
<path d="M12.6396 21.6171H24.9569C25.5064 21.6171 25.952 21.1716 25.952 20.622C25.952 20.0725 25.5064 19.627 24.9569 19.627H12.6396C12.0901 19.627 11.6445 20.0725 11.6445 20.622C11.6445 21.1716 12.0901 21.6171 12.6396 21.6171Z" fill="url(#paint3_linear_6_5819)"/>
<path d="M12.6396 27.2577H24.9569C25.5064 27.2577 25.952 26.8122 25.952 26.2626C25.952 25.7131 25.5064 25.2676 24.9569 25.2676H12.6396C12.0901 25.2676 11.6445 25.7131 11.6445 26.2626C11.6445 26.8122 12.0901 27.2577 12.6396 27.2577Z" fill="url(#paint4_linear_6_5819)"/>
<path d="M12.6396 33.2753H24.9569C25.5064 33.2753 25.952 32.8298 25.952 32.2802C25.952 31.7307 25.5064 31.2852 24.9569 31.2852H12.6396C12.0901 31.2852 11.6445 31.7307 11.6445 32.2802C11.6445 32.8298 12.0901 33.2753 12.6396 33.2753Z" fill="url(#paint5_linear_6_5819)"/>
<path d="M42.4067 61.1288H31.9097L30.7131 58.4258C32.9786 56.3445 34.4014 53.3599 34.4014 50.0483C34.4014 48.4384 34.0633 46.9067 33.4577 45.5173H43.0464C43.596 45.5173 44.0414 45.0718 44.0414 44.5222C44.0414 43.9727 43.596 43.5272 43.0464 43.5272H32.3389C30.2789 40.5931 26.8723 38.6699 23.0229 38.6699C16.7488 38.6699 11.6445 43.7742 11.6445 50.0483C11.6445 56.3224 16.7488 61.4268 23.0229 61.4268C25.2512 61.4268 27.3301 60.7804 29.0871 59.6691L30.3521 62.5268C30.5115 62.8869 30.8682 63.119 31.262 63.119H42.4067C42.9564 63.119 43.4018 62.6735 43.4018 62.124C43.4018 61.5744 42.9564 61.1288 42.4067 61.1288ZM22.0281 50.0483V59.3842C17.3176 58.8855 13.6349 54.8888 13.6349 50.0483C13.6349 44.8716 17.8464 40.66 23.0232 40.66C25.6682 40.66 28.0595 41.7613 29.7676 43.5272H28.2149C27.6653 43.5272 27.2198 43.9727 27.2198 44.5222C27.2198 45.0718 27.6653 45.5173 28.2149 45.5173H31.2413C31.8333 46.5867 32.2246 47.7819 32.3591 49.0532H23.0232C22.4735 49.0532 22.0281 49.4987 22.0281 50.0483ZM24.0182 59.3842V51.0433H32.3591C32.1374 53.1371 31.2234 55.0268 29.8525 56.4813L29.1246 54.8372C28.9021 54.3346 28.3142 54.1076 27.8119 54.3301C27.3094 54.5525 27.0823 55.1402 27.3048 55.6428L28.2715 57.8265C27.0314 58.6659 25.5819 59.2187 24.0182 59.3842Z" fill="url(#paint6_linear_6_5819)"/>
<path d="M49.3956 49.0508H43.0478C42.4981 49.0508 42.0527 49.4963 42.0527 50.0458C42.0527 50.5954 42.4981 51.0409 43.0478 51.0409H49.3956C49.9453 51.0409 50.3907 50.5954 50.3907 50.0458C50.3907 49.4963 49.9453 49.0508 49.3956 49.0508Z" fill="url(#paint7_linear_6_5819)"/>
<path d="M49.3956 53.9414H43.0478C42.4981 53.9414 42.0527 54.3869 42.0527 54.9365C42.0527 55.486 42.4981 55.9315 43.0478 55.9315H49.3956C49.9453 55.9315 50.3907 55.486 50.3907 54.9365C50.3907 54.3869 49.9453 53.9414 49.3956 53.9414Z" fill="url(#paint8_linear_6_5819)"/>
<path d="M46.8615 22.1569L41.3799 27.4321L40.1879 25.0232C39.9442 24.5306 39.3474 24.329 38.8548 24.5727C38.3622 24.8164 38.1605 25.4133 38.4042 25.9058L40.1988 29.5326C40.4957 30.1331 41.2945 30.2762 41.7805 29.8083L48.2413 23.5909C48.6373 23.2097 48.6494 22.5799 48.2684 22.1839C47.8872 21.788 47.2574 21.776 46.8615 22.1569Z" fill="url(#paint9_linear_6_5819)"/>
<defs>
<linearGradient id="paint0_linear_6_5819" x1="50.0275" y1="19.7937" x2="36.4303" y2="33.5402" gradientUnits="userSpaceOnUse">
<stop stop-color="#4338CA"/>
<stop offset="1" stop-color="#1F1A63"/>
</linearGradient>
<linearGradient id="paint1_linear_6_5819" x1="53.5617" y1="13.9088" x2="9.50368" y2="56.9984" gradientUnits="userSpaceOnUse">
<stop stop-color="#4338CA"/>
<stop offset="1" stop-color="#1F1A63"/>
</linearGradient>
<linearGradient id="paint2_linear_6_5819" x1="23.3059" y1="14.3919" x2="22.9573" y2="16.926" gradientUnits="userSpaceOnUse">
<stop stop-color="#4338CA"/>
<stop offset="1" stop-color="#1F1A63"/>
</linearGradient>
<linearGradient id="paint3_linear_6_5819" x1="23.3059" y1="20.0344" x2="22.9573" y2="22.5686" gradientUnits="userSpaceOnUse">
<stop stop-color="#4338CA"/>
<stop offset="1" stop-color="#1F1A63"/>
</linearGradient>
<linearGradient id="paint4_linear_6_5819" x1="23.3059" y1="25.6751" x2="22.9573" y2="28.2093" gradientUnits="userSpaceOnUse">
<stop stop-color="#4338CA"/>
<stop offset="1" stop-color="#1F1A63"/>
</linearGradient>
<linearGradient id="paint5_linear_6_5819" x1="23.3059" y1="31.6926" x2="22.9573" y2="34.2268" gradientUnits="userSpaceOnUse">
<stop stop-color="#4338CA"/>
<stop offset="1" stop-color="#1F1A63"/>
</linearGradient>
<linearGradient id="paint6_linear_6_5819" x1="38.0499" y1="43.676" x2="22.8434" y2="64.047" gradientUnits="userSpaceOnUse">
<stop stop-color="#4338CA"/>
<stop offset="1" stop-color="#1F1A63"/>
</linearGradient>
<linearGradient id="paint7_linear_6_5819" x1="48.8487" y1="49.4583" x2="48.2712" y2="51.9041" gradientUnits="userSpaceOnUse">
<stop stop-color="#4338CA"/>
<stop offset="1" stop-color="#1F1A63"/>
</linearGradient>
<linearGradient id="paint8_linear_6_5819" x1="48.8487" y1="54.3489" x2="48.2712" y2="56.7947" gradientUnits="userSpaceOnUse">
<stop stop-color="#4338CA"/>
<stop offset="1" stop-color="#1F1A63"/>
</linearGradient>
<linearGradient id="paint9_linear_6_5819" x1="46.6516" y1="23.5594" x2="41.4681" y2="30.1012" gradientUnits="userSpaceOnUse">
<stop stop-color="#4338CA"/>
<stop offset="1" stop-color="#1F1A63"/>
</linearGradient>
</defs>
</svg>
