<svg width="74" height="80" viewBox="0 0 74 80" fill="none" xmlns="http://www.w3.org/2000/svg">
<path d="M1.16878 62.5673C1.81426 62.5673 2.33757 62.0442 2.33757 61.3985V4.31671C2.33757 3.22538 3.22615 2.33757 4.31827 2.33757H55.952C57.0434 2.33757 57.9312 3.22538 57.9312 4.31671V9.77571C57.9312 10.4213 58.4545 10.9445 59.0999 10.9445C59.7454 10.9445 60.2687 10.4213 60.2687 9.77571V4.31671C60.2687 1.93644 58.3323 0 55.952 0H4.31827C1.93722 0 0 1.93644 0 4.31671V61.3985C0 62.0442 0.523303 62.5673 1.16878 62.5673Z" fill="url(#paint0_linear_6_5563)"/>
<path d="M47.7669 13.6715C49.1058 13.6715 50.1951 12.5823 50.1951 11.2434V7.46522C50.1951 6.12626 49.1058 5.03711 47.7669 5.03711H12.5044C11.1655 5.03711 10.0762 6.12626 10.0762 7.46522V11.2434C10.0762 12.5823 11.1655 13.6715 12.5044 13.6715H47.7669ZM12.4139 11.2434V7.46522C12.4139 7.41535 12.4546 7.37468 12.5046 7.37468H47.7669C47.8168 7.37468 47.8575 7.41535 47.8575 7.46522V11.2434C47.8575 11.2932 47.8168 11.3339 47.7669 11.3339H12.5044C12.4546 11.3339 12.4139 11.2934 12.4139 11.2434Z" fill="url(#paint1_linear_6_5563)"/>
<path d="M31.7082 45.3379H17.2254C16.5799 45.3379 16.0566 45.861 16.0566 46.5067C16.0566 47.1523 16.5799 47.6755 17.2254 47.6755H31.7082C32.3537 47.6755 32.877 47.1523 32.877 46.5067C32.877 45.861 32.3537 45.3379 31.7082 45.3379Z" fill="url(#paint2_linear_6_5563)"/>
<path d="M12.5027 47.6755C13.1482 47.6755 13.6715 47.1523 13.6715 46.5067C13.6715 45.861 13.1482 45.3379 12.5027 45.3379H9.35433C8.70885 45.3379 8.18555 45.861 8.18555 46.5067C8.18555 47.1523 8.70885 47.6755 9.35433 47.6755H12.5027Z" fill="url(#paint3_linear_6_5563)"/>
<path d="M5.03711 51.5438C5.03711 52.1894 5.56041 52.7126 6.20589 52.7126H22.5777C23.2232 52.7126 23.7465 52.1894 23.7465 51.5438C23.7465 50.8981 23.2232 50.375 22.5777 50.375H6.20589C5.56026 50.375 5.03711 50.8981 5.03711 51.5438Z" fill="url(#paint4_linear_6_5563)"/>
<path d="M31.709 50.375H27.616C26.9706 50.375 26.4473 50.8981 26.4473 51.5438C26.4473 52.1894 26.9706 52.7126 27.616 52.7126H31.709C32.3545 52.7126 32.8778 52.1894 32.8778 51.5438C32.8778 50.8981 32.3545 50.375 31.709 50.375Z" fill="url(#paint5_linear_6_5563)"/>
<path d="M31.7106 55.4121H15.3387C14.6932 55.4121 14.1699 55.9353 14.1699 56.5809C14.1699 57.2265 14.6932 57.7497 15.3387 57.7497H31.7106C32.356 57.7497 32.8793 57.2265 32.8793 56.5809C32.8793 55.9353 32.356 55.4121 31.7106 55.4121Z" fill="url(#paint6_linear_6_5563)"/>
<path d="M6.20589 57.7497H10.2988C10.9443 57.7497 11.4676 57.2265 11.4676 56.5809C11.4676 55.9353 10.9443 55.4121 10.2988 55.4121H6.20589C5.56041 55.4121 5.03711 55.9353 5.03711 56.5809C5.03711 57.2265 5.56026 57.7497 6.20589 57.7497Z" fill="url(#paint7_linear_6_5563)"/>
<path d="M6.20589 62.7868H22.5777C23.2232 62.7868 23.7465 62.2636 23.7465 61.618C23.7465 60.9724 23.2232 60.4492 22.5777 60.4492H6.20589C5.56041 60.4492 5.03711 60.9724 5.03711 61.618C5.03711 62.2636 5.56026 62.7868 6.20589 62.7868Z" fill="url(#paint8_linear_6_5563)"/>
<path d="M31.709 60.4492H27.616C26.9706 60.4492 26.4473 60.9724 26.4473 61.618C26.4473 62.2636 26.9706 62.7868 27.616 62.7868H31.709C32.3545 62.7868 32.8778 62.2636 32.8778 61.618C32.8778 60.9724 32.3545 60.4492 31.709 60.4492Z" fill="url(#paint9_linear_6_5563)"/>
<path d="M54.062 40.1183C54.7075 40.1183 55.2308 39.5951 55.2308 38.9495C55.2308 38.3038 54.7075 37.7807 54.062 37.7807H48.934V18.7996C48.934 18.154 48.4107 17.6309 47.7652 17.6309H42.7277C42.0823 17.6309 41.559 18.154 41.559 18.7996V37.7808H38.8591V23.8371C38.8591 23.1915 38.3358 22.6683 37.6903 22.6683H32.6528C32.0073 22.6683 31.484 23.1915 31.484 23.8371V37.7808H28.7841V29.8191C28.7841 29.1735 28.2608 28.6503 27.6154 28.6503H22.5779C21.9324 28.6503 21.4091 29.1735 21.4091 29.8191V37.7808H18.7092V33.9122C18.7092 33.2665 18.1859 32.7434 17.5404 32.7434H12.503C11.8575 32.7434 11.3342 33.2665 11.3342 33.9122V37.7808H6.20589C5.56041 37.7808 5.03711 38.304 5.03711 38.9496C5.03711 39.5953 5.56041 40.1184 6.20589 40.1184H54.062V40.1183ZM43.8964 19.9684H46.5963V37.7808H43.8964V19.9684ZM13.6715 37.7807V35.0808H16.3714V37.7807H13.6715ZM23.7465 37.7807V30.9877H26.4464V37.7807H23.7465ZM33.8214 37.7807V25.0057H36.5213V37.7807H33.8214Z" fill="url(#paint10_linear_6_5563)"/>
<path d="M60.2687 45.885V15.2293C60.2687 14.5837 59.7454 14.0605 59.0999 14.0605C58.4545 14.0605 57.9312 14.5837 57.9312 15.2293V45.4514C57.2815 45.3768 56.6213 45.337 55.952 45.337C46.4534 45.337 38.7257 53.0641 38.7257 62.5618C38.7257 68.9074 42.1749 74.4616 47.2965 77.4505H4.31827C3.22615 77.4505 2.33757 76.5627 2.33757 75.4714V66.852C2.33757 66.2064 1.81426 65.6832 1.16878 65.6832C0.523303 65.6832 0 66.2064 0 66.852V75.4714C0 77.8517 1.93722 79.7881 4.31827 79.7881H55.952C59.7638 79.7881 63.3782 78.5629 66.4041 76.245C66.9166 75.8524 67.0137 75.1187 66.6213 74.6063C66.2286 74.0938 65.4949 73.9967 64.9827 74.3891C62.3682 76.3921 59.2453 77.4507 55.952 77.4507C47.7423 77.4507 41.0633 70.7716 41.0633 62.562C41.0633 54.353 47.7423 47.6748 55.952 47.6748C64.1617 47.6748 70.8408 54.353 70.8408 62.562C70.8408 65.4651 70.0006 68.2798 68.4113 70.7021C68.0572 71.2418 68.2076 71.9663 68.7472 72.3205C69.2868 72.6744 70.0114 72.5244 70.3656 71.9845C72.2057 69.1804 73.1783 65.9221 73.1783 62.562C73.1783 54.5542 67.6851 47.8055 60.2687 45.885Z" fill="url(#paint11_linear_6_5563)"/>
<path d="M58.7157 55.59L53.824 60.4819L53.1866 59.8443C51.5508 58.209 48.8897 58.2088 47.254 59.8445C46.4617 60.6368 46.0254 61.6902 46.0254 62.8107C46.0254 63.9312 46.4617 64.9846 47.254 65.7769L51.1252 69.6482C51.8459 70.369 52.8043 70.7659 53.8238 70.7659C54.8432 70.7659 55.8016 70.369 56.5223 69.6482L64.648 61.5224C65.4403 60.7301 65.8766 59.6766 65.8766 58.5562C65.8766 57.4357 65.4403 56.3822 64.648 55.5901C63.8557 54.7977 62.8023 54.3613 61.6816 54.3613C60.5615 54.3613 59.508 54.7977 58.7157 55.59ZM63.5392 58.5562C63.5392 59.0524 63.346 59.5188 62.9952 59.8696L54.8695 67.9953C54.2931 68.572 53.3549 68.5722 52.7782 67.9953L48.907 64.1239C48.5562 63.7732 48.363 63.3069 48.363 62.8107C48.363 62.3145 48.5562 61.8481 48.907 61.4973C49.2692 61.1351 49.7446 60.9542 50.2204 60.9542C50.696 60.9542 51.1716 61.1353 51.5338 61.4971L52.9976 62.9611C53.2167 63.1804 53.514 63.3035 53.824 63.3035C54.1339 63.3035 54.4313 63.1804 54.6504 62.9612L60.3685 57.2431C60.7193 56.8923 61.1858 56.6991 61.6819 56.6991C62.1781 56.6991 62.6444 56.8921 62.9953 57.2431C63.3461 57.5937 63.5392 58.06 63.5392 58.5562Z" fill="url(#paint12_linear_6_5563)"/>
<defs>
<linearGradient id="paint0_linear_6_5563" x1="49.1226" y1="12.8109" x2="8.54675" y2="52.3251" gradientUnits="userSpaceOnUse">
<stop stop-color="#4338CA"/>
<stop offset="1" stop-color="#1F1A63"/>
</linearGradient>
<linearGradient id="paint1_linear_6_5563" x1="42.7754" y1="6.80502" x2="40.4939" y2="17.5223" gradientUnits="userSpaceOnUse">
<stop stop-color="#4338CA"/>
<stop offset="1" stop-color="#1F1A63"/>
</linearGradient>
<linearGradient id="paint2_linear_6_5563" x1="29.7662" y1="45.8165" x2="29.357" y2="48.7932" gradientUnits="userSpaceOnUse">
<stop stop-color="#4338CA"/>
<stop offset="1" stop-color="#1F1A63"/>
</linearGradient>
<linearGradient id="paint3_linear_6_5563" x1="12.6569" y1="45.8165" x2="11.5714" y2="48.392" gradientUnits="userSpaceOnUse">
<stop stop-color="#4338CA"/>
<stop offset="1" stop-color="#1F1A63"/>
</linearGradient>
<linearGradient id="paint4_linear_6_5563" x1="20.2864" y1="50.8536" x2="19.9172" y2="53.841" gradientUnits="userSpaceOnUse">
<stop stop-color="#4338CA"/>
<stop offset="1" stop-color="#1F1A63"/>
</linearGradient>
<linearGradient id="paint5_linear_6_5563" x1="31.6885" y1="50.8536" x2="30.7228" y2="53.5394" gradientUnits="userSpaceOnUse">
<stop stop-color="#4338CA"/>
<stop offset="1" stop-color="#1F1A63"/>
</linearGradient>
<linearGradient id="paint6_linear_6_5563" x1="29.4192" y1="55.8907" x2="29.05" y2="58.8781" gradientUnits="userSpaceOnUse">
<stop stop-color="#4338CA"/>
<stop offset="1" stop-color="#1F1A63"/>
</linearGradient>
<linearGradient id="paint7_linear_6_5563" x1="10.2783" y1="55.8907" x2="9.31265" y2="58.5765" gradientUnits="userSpaceOnUse">
<stop stop-color="#4338CA"/>
<stop offset="1" stop-color="#1F1A63"/>
</linearGradient>
<linearGradient id="paint8_linear_6_5563" x1="20.2864" y1="60.9278" x2="19.9172" y2="63.9152" gradientUnits="userSpaceOnUse">
<stop stop-color="#4338CA"/>
<stop offset="1" stop-color="#1F1A63"/>
</linearGradient>
<linearGradient id="paint9_linear_6_5563" x1="31.6885" y1="60.9278" x2="30.7228" y2="63.6136" gradientUnits="userSpaceOnUse">
<stop stop-color="#4338CA"/>
<stop offset="1" stop-color="#1F1A63"/>
</linearGradient>
<linearGradient id="paint10_linear_6_5563" x1="45.9479" y1="22.2353" x2="35.1404" y2="46.6232" gradientUnits="userSpaceOnUse">
<stop stop-color="#4338CA"/>
<stop offset="1" stop-color="#1F1A63"/>
</linearGradient>
<linearGradient id="paint11_linear_6_5563" x1="59.6447" y1="27.5185" x2="17.3011" y2="75.1797" gradientUnits="userSpaceOnUse">
<stop stop-color="#4338CA"/>
<stop offset="1" stop-color="#1F1A63"/>
</linearGradient>
<linearGradient id="paint12_linear_6_5563" x1="62.2053" y1="57.7202" x2="51.7757" y2="70.4797" gradientUnits="userSpaceOnUse">
<stop stop-color="#4338CA"/>
<stop offset="1" stop-color="#1F1A63"/>
</linearGradient>
</defs>
</svg>
