<svg width="83" height="83" viewBox="0 0 83 83" fill="none" xmlns="http://www.w3.org/2000/svg">
<path d="M50.3909 24.4199C48.4546 24.4199 46.8393 25.8153 46.4949 27.653L33.7754 32.9364H29.1645C27.1449 32.9364 25.502 34.493 25.502 36.4064V42.3755C25.502 43.8082 26.4232 45.0407 27.7338 45.5697V53.3609C27.7338 55.4276 29.4151 57.109 31.4819 57.109C33.5486 57.109 35.23 55.4276 35.23 53.3609V46.4498L46.4949 51.1289C46.8393 52.9666 48.4548 54.3622 50.3909 54.3622C52.5773 54.3622 54.3559 52.5835 54.3559 50.3972V45.9306C57.2755 45.1732 59.4292 42.4914 59.4292 39.391C59.4292 36.2904 57.2755 33.6087 54.3559 32.8515V28.3848C54.3559 26.1984 52.5773 24.4199 50.3909 24.4199ZM35.23 34.9587L46.4261 30.3082V48.4741L35.23 43.8233V34.9587ZM27.9275 36.4064C27.9275 35.8306 28.4823 35.3619 29.1643 35.3619H32.8043V43.4199H29.1645C28.4825 43.4199 27.9276 42.9513 27.9276 42.3753V36.4064H27.9275ZM31.4819 54.6835C30.7526 54.6835 30.1593 54.0902 30.1593 53.3609V45.8455H32.8043V53.3609C32.8045 54.0902 32.211 54.6835 31.4819 54.6835ZM51.9303 50.3973C51.9303 51.2461 51.2397 51.9366 50.3909 51.9366C49.5422 51.9366 48.8516 51.2461 48.8516 50.3973V28.3848C48.8516 27.536 49.5422 26.8454 50.3909 26.8454C51.2397 26.8454 51.9303 27.5358 51.9303 28.3848V50.3973ZM57.0037 39.391C57.0037 41.1578 55.9127 42.7127 54.3559 43.3769V35.4051C55.9125 36.0693 57.0037 37.6239 57.0037 39.391Z" fill="url(#paint0_linear_6_5587)" stroke="url(#paint1_linear_6_5587)" stroke-width="0.2"/>
<path d="M71.6058 62.1522C69.4897 62.1522 67.4812 62.845 65.8347 64.1195L60.337 58.6218C64.4745 54.0769 66.6796 48.3901 66.9507 42.6277H71.3571C71.9155 45.2185 74.2235 47.1664 76.9789 47.1664C80.1504 47.1666 82.7305 44.5865 82.7305 41.415C82.7305 38.2436 80.1504 35.6635 76.9789 35.6635C74.2235 35.6635 71.9157 37.6114 71.3571 40.2022H66.9507C66.6796 34.44 64.4745 28.7532 60.337 24.2081L65.8347 18.7104C67.4728 19.9781 69.4703 20.671 71.5747 20.6778H71.5789C72.2467 20.6778 72.7893 20.1374 72.7915 19.469C72.7938 18.7992 72.2525 18.2545 71.5827 18.2523C69.7143 18.2461 67.9576 17.5152 66.6363 16.1939C63.8963 13.4537 63.8963 8.99502 66.6363 6.2548C67.9638 4.92738 69.7285 4.19645 71.606 4.19645C73.4832 4.19645 75.248 4.92738 76.5754 6.2548C77.903 7.58222 78.6339 9.347 78.6339 11.2243C78.6339 13.1015 77.903 14.8663 76.5754 16.1939C76.2644 16.5049 75.925 16.7868 75.5661 17.0322C75.013 17.41 74.8712 18.1648 75.249 18.7177C75.6268 19.2705 76.3814 19.4126 76.9345 19.0347C77.4174 18.7046 77.8738 18.3258 78.2907 17.9088C80.0763 16.1232 81.0595 13.7492 81.0595 11.2241C81.0595 8.69903 80.0761 6.32501 78.2907 4.53957C76.5052 2.75413 74.1312 1.77079 71.606 1.77079C69.0807 1.77079 66.7069 2.75413 64.9211 4.53957C61.5261 7.93469 61.261 13.2897 64.1204 16.9944L58.6221 22.4929C54.0771 18.3554 48.3904 16.1503 42.628 15.8792V11.473C45.2188 10.9146 47.1668 8.60655 47.1668 5.85117C47.1666 2.67973 44.5865 0.0996094 41.415 0.0996094C38.2436 0.0996094 35.6635 2.67973 35.6635 5.85117C35.6635 8.60655 37.6114 10.9146 40.2022 11.473V15.8794C34.44 16.1505 28.7532 18.3555 24.2081 22.4931L18.7096 16.9946C21.5691 13.2899 21.3039 7.93485 17.909 4.53973C16.1235 2.75429 13.7495 1.77095 11.2244 1.77095C8.69935 1.77095 6.32533 2.75429 4.53973 4.53973C2.75413 6.32517 1.77079 8.69935 1.77079 11.2244C1.77079 13.7495 2.75413 16.1235 4.53957 17.9091C6.32501 19.6947 8.69903 20.6779 11.2243 20.6779C13.3404 20.6779 15.3489 19.9851 16.9954 18.7106L22.4947 24.2101C21.1471 25.6902 19.978 27.3139 19.0163 29.0551C18.6925 29.6414 18.9052 30.3791 19.4916 30.703C20.0777 31.027 20.8156 30.8141 21.1395 30.2279C22.1853 28.3343 23.4993 26.5905 25.0449 25.0449C34.0711 16.0186 48.7585 16.0185 57.785 25.0449C66.8116 34.0715 66.8116 48.7585 57.785 57.7852C48.7585 66.8114 34.0714 66.8114 25.0449 57.7852C18.9227 51.6629 16.7325 42.7237 19.3295 34.4561C19.5303 33.8172 19.1749 33.1363 18.536 32.9357C17.8959 32.7349 17.2161 33.0905 17.0154 33.7292C16.3451 35.8628 15.9673 38.0369 15.8623 40.2024H11.473C10.9146 37.6116 8.60655 35.6636 5.85117 35.6636C2.67973 35.6635 0.0996094 38.2436 0.0996094 41.415C0.0996094 44.5865 2.67973 47.1666 5.85117 47.1666C8.60655 47.1666 10.9144 45.2186 11.473 42.6279H15.8595C16.1331 48.491 18.4259 54.1518 22.4948 58.6202L16.9955 64.1195C15.349 62.845 13.3406 62.1522 11.2244 62.1522C8.69919 62.1522 6.32533 63.1355 4.53973 64.9211C2.75413 66.7067 1.77095 69.0806 1.77095 71.6056C1.77095 74.1307 2.75429 76.5048 4.53973 78.2904C6.32517 80.076 8.69935 81.0591 11.2244 81.0591C11.8944 81.0591 12.4373 80.5161 12.4373 79.8463C12.4373 79.1765 11.8944 78.6335 11.2244 78.6335C9.34716 78.6335 7.58222 77.9024 6.25496 76.5751C4.92738 75.2477 4.19645 73.4829 4.19645 71.6055C4.19645 69.7282 4.92738 67.9634 6.25496 66.636C7.58222 65.3086 9.34716 64.5777 11.2244 64.5777C13.1017 64.5777 14.8665 65.3086 16.1941 66.636C18.9341 69.3762 18.9341 73.8349 16.1942 76.575C15.8563 76.9127 15.4851 77.2161 15.0907 77.4765C14.5316 77.8456 14.3776 78.5978 14.7467 79.1567C15.1157 79.7157 15.8681 79.8697 16.427 79.5008C16.9573 79.1507 17.456 78.7434 17.9093 78.2902C21.3043 74.8949 21.5694 69.5399 18.71 65.8354L24.2085 60.3369C28.7535 64.4744 34.4403 66.6794 40.2025 66.9506V71.3569C37.6118 71.9154 35.6638 74.2234 35.6638 76.9787C35.6635 80.1504 38.2436 82.7305 41.415 82.7305C44.5865 82.7305 47.1666 80.1504 47.1666 76.9789C47.1666 74.2235 45.2186 71.9155 42.6279 71.3571V66.9507C48.3901 66.6796 54.0769 64.4745 58.6219 60.337L64.1203 65.8355C61.2608 69.5402 61.526 74.8952 64.9209 78.2904C66.7067 80.076 69.0806 81.0591 71.6058 81.0591C74.1311 81.0591 76.5049 80.0758 78.2905 78.2904C80.0761 76.5049 81.0593 74.1309 81.0593 71.6058C81.0593 69.0807 80.076 66.7067 78.2905 64.9211C76.5051 63.1355 74.1309 62.1522 71.6058 62.1522ZM38.089 5.85117C38.089 4.01715 39.581 2.52512 41.415 2.52512C43.2491 2.52512 44.7411 4.01715 44.7411 5.85117C44.7411 7.68519 43.2491 9.17722 41.415 9.17722C39.581 9.17722 38.089 7.68519 38.089 5.85117ZM6.25496 16.1939C4.92738 14.8665 4.19645 13.1017 4.19645 11.2243C4.19645 9.347 4.92738 7.58222 6.25496 6.2548C7.58222 4.92738 9.34716 4.19645 11.2244 4.19645C13.1017 4.19645 14.8665 4.92738 16.1941 6.2548C18.9341 8.99502 18.9341 13.4537 16.1941 16.1939C14.8666 17.5213 13.1019 18.2523 11.2244 18.2523C9.347 18.2523 7.58222 17.5213 6.25496 16.1939ZM76.9789 38.089C78.8129 38.089 80.305 39.581 80.305 41.415C80.305 43.2491 78.8129 44.7411 76.9789 44.7411C75.1449 44.7411 73.6529 43.2491 73.6529 41.415C73.6529 39.581 75.1449 38.089 76.9789 38.089ZM5.85117 44.7411C4.01715 44.7411 2.52512 43.2491 2.52512 41.415C2.52512 39.581 4.01715 38.089 5.85117 38.089C7.68519 38.089 9.17722 39.5812 9.17722 41.415C9.17722 43.2489 7.68519 44.7411 5.85117 44.7411ZM44.7411 76.9789C44.7411 78.8128 43.2491 80.305 41.415 80.305C39.581 80.305 38.089 78.8129 38.089 76.9789C38.089 75.1449 39.581 73.6529 41.415 73.6529C43.2491 73.6529 44.7411 75.1449 44.7411 76.9789ZM76.5751 76.5753C75.2479 77.9027 73.4829 78.6336 71.6056 78.6336C69.7284 78.6336 67.9634 77.9027 66.636 76.5753C63.896 73.8351 63.896 69.3764 66.636 66.6362C67.9634 65.3088 69.7282 64.5778 71.6056 64.5778C73.4829 64.5778 75.2477 65.3088 76.5751 66.6362C77.9027 67.9636 78.6336 69.7284 78.6336 71.6058C78.6338 73.4829 77.9027 75.2477 76.5751 76.5753Z" fill="url(#paint2_linear_6_5587)" stroke="url(#paint3_linear_6_5587)" stroke-width="0.2"/>
<defs>
<linearGradient id="paint0_linear_6_5587" x1="53.1547" y1="31.1131" x2="31.9724" y2="53.3391" gradientUnits="userSpaceOnUse">
<stop stop-color="#4338CA"/>
<stop offset="1" stop-color="#1F1A63"/>
</linearGradient>
<linearGradient id="paint1_linear_6_5587" x1="53.1547" y1="31.1131" x2="31.9724" y2="53.3391" gradientUnits="userSpaceOnUse">
<stop stop-color="#4338CA"/>
<stop offset="1" stop-color="#1F1A63"/>
</linearGradient>
<linearGradient id="paint2_linear_6_5587" x1="67.4487" y1="17.0185" x2="13.8457" y2="71.21" gradientUnits="userSpaceOnUse">
<stop stop-color="#4338CA"/>
<stop offset="1" stop-color="#1F1A63"/>
</linearGradient>
<linearGradient id="paint3_linear_6_5587" x1="67.4487" y1="17.0185" x2="13.8457" y2="71.21" gradientUnits="userSpaceOnUse">
<stop stop-color="#4338CA"/>
<stop offset="1" stop-color="#1F1A63"/>
</linearGradient>
</defs>
</svg>
