<svg width="75" height="75" viewBox="0 0 75 75" fill="none" xmlns="http://www.w3.org/2000/svg">
<path d="M53.9238 46.4414C57.6789 46.4415 60.7343 49.4967 60.7344 53.252C60.7344 57.0071 57.6789 60.0634 53.9238 60.0635C50.1688 60.0635 47.1133 57.0073 47.1133 53.252C47.1133 49.4968 50.1688 46.4414 53.9238 46.4414ZM53.9238 50.0273C52.1458 50.0273 50.6993 51.4738 50.6992 53.252C50.6992 55.0301 52.1457 56.4766 53.9238 56.4766C55.702 56.4765 57.1475 55.0301 57.1475 53.252C57.1474 51.4739 55.7019 50.0274 53.9238 50.0273Z" fill="url(#paint0_linear_6_4608)" stroke="white" stroke-width="0.8"/>
<path d="M2.19336 0.400391H64.7871C65.7775 0.400391 66.5801 1.20296 66.5801 2.19336V39.3535L67.166 39.0469L67.2764 38.9893C68.1344 38.5401 69.1943 38.8541 69.6699 39.6982L74.2354 47.8008C74.7107 48.6447 74.4304 49.7133 73.6016 50.2148L70.1865 52.2822L69.9756 52.4092L69.9951 52.6553C70.0276 53.0733 70.0439 53.4927 70.0439 53.9102C70.0439 54.3274 70.0276 54.7463 69.9951 55.1641L69.9756 55.4102L70.1865 55.5371L73.6016 57.6045C74.3787 58.0747 74.6738 59.0439 74.3154 59.8584L74.2354 60.0186L69.6699 68.1211C69.1944 68.965 68.1349 69.279 67.2764 68.8301L63.7402 66.9795L63.5215 66.8652L63.3213 67.0098C62.5009 67.6001 61.63 68.1092 60.7148 68.5342L60.4912 68.6387L60.4834 68.8848L60.3643 72.7285C60.3341 73.6968 59.5401 74.4668 58.5713 74.4668H49.2715C48.3029 74.4668 47.5086 73.6968 47.4785 72.7285L47.3594 68.8848L47.3516 68.6387L47.1279 68.5342C46.2128 68.1093 45.342 67.6 44.5215 67.0098L44.3213 66.8652L44.1025 66.9795L40.5674 68.8301C39.709 69.2792 38.6484 68.9651 38.1729 68.1211L33.6074 60.0186C33.1322 59.1748 33.4128 58.1061 34.2412 57.6045L37.6572 55.5371L37.8682 55.4102L37.8486 55.1641C37.8161 54.7461 37.7998 54.3266 37.7998 53.9092C37.7998 53.4919 37.8161 53.0732 37.8486 52.6553L37.8672 52.4092L37.6572 52.2822L34.2412 50.2148C33.4127 49.7133 33.1322 48.6445 33.6074 47.8008L34.5938 46.0498L34.9297 45.4531H22.2217C20.0714 45.4531 17.1471 45.4677 14.375 45.4824C11.8539 45.4958 9.45881 45.5084 7.88379 45.5107H7.51855C7.34122 45.5109 7.15562 45.5115 7.09668 45.5117H7.07227C7.07135 45.5117 7.06859 45.5126 7.06543 45.5127H2.19336C1.20296 45.5127 0.400391 44.7092 0.400391 43.7188V2.19336C0.400391 1.20296 1.20296 0.400391 2.19336 0.400391ZM50.998 37.0449L50.8916 40.4688C50.8688 41.2055 50.3974 41.8533 49.7031 42.1016C48.2339 42.6266 46.8893 43.4147 45.707 44.4414H45.7061C45.1492 44.925 44.3532 45.0178 43.6992 44.6758L40.7881 43.1523L40.4443 42.9727L40.2539 43.3105L37.7764 47.709L37.5859 48.0459L37.918 48.2471L40.7275 49.9473C41.3579 50.3286 41.6912 51.057 41.5674 51.7832C41.4478 52.4841 41.3867 53.1994 41.3867 53.9092C41.3867 54.6191 41.4478 55.3351 41.5674 56.0361C41.6911 56.7622 41.3576 57.4898 40.7275 57.8711V57.8721L37.918 59.5723L37.5859 59.7725L37.7764 60.1104L40.2539 64.5078L40.4443 64.8457L40.7881 64.666L43.6992 63.1426C44.3535 62.8008 45.1502 62.8943 45.707 63.3779C46.8913 64.4064 48.2387 65.1947 49.7109 65.7197C50.3625 65.9523 50.8184 66.5369 50.8916 67.2168L50.9004 67.3535L50.998 70.4922L51.0098 70.8799H56.833L56.8457 70.4922L56.9424 67.3535C56.9653 66.6161 57.438 65.9676 58.1328 65.7197C59.6051 65.1947 60.9525 64.4065 62.1367 63.3779C62.6937 62.8941 63.4905 62.8013 64.1445 63.1436L67.0557 64.666L67.3984 64.8457L67.5889 64.5078L70.0674 60.1104L70.2578 59.7725L69.9258 59.5723L67.1162 57.8721C66.4859 57.4907 66.1525 56.7623 66.2764 56.0361C66.3959 55.3353 66.457 54.62 66.457 53.9102C66.457 53.2002 66.396 52.4842 66.2764 51.7832C66.1526 51.0572 66.4858 50.3289 67.1162 49.9473L69.9258 48.2471L70.2578 48.0459L70.0674 47.709L67.5889 43.3105L67.3984 42.9727L67.0557 43.1523L64.1445 44.6758C63.4908 45.0179 62.6937 44.9252 62.1367 44.4414C61.1022 43.5429 59.9436 42.8271 58.6855 42.3105L58.1406 42.1016C57.4463 41.8533 56.974 41.2057 56.9512 40.4688L56.8457 37.0449L56.833 36.6582H51.0098L50.998 37.0449ZM22.1797 45.5762C22.19 45.5771 22.2043 45.5802 22.2217 45.584V45.8535L22.0605 45.6289C22.0705 45.6183 22.0793 45.6102 22.0859 45.6045C22.1054 45.588 22.1213 45.5792 22.125 45.5771L22.127 45.5762C22.1329 45.5755 22.1522 45.5737 22.1797 45.5762ZM3.98633 41.9258H9.92676V41.9238L21.5156 41.8662H36.9512L37.0654 41.6631L38.1729 39.6982C38.6484 38.8543 39.708 38.5404 40.5664 38.9893L44.1025 40.8389L44.3213 40.9541L44.5215 40.8096C45.3394 40.2212 46.2071 39.7133 47.1191 39.2891L47.3428 39.1846L47.3506 38.9385L47.4785 34.8086C47.5088 33.8404 48.3028 33.0713 49.2715 33.0713H58.5713C59.5398 33.0713 60.334 33.8404 60.3643 34.8086L60.4922 38.9385L60.5 39.1846L60.7236 39.2891C61.2938 39.5543 61.8465 39.8564 62.3838 40.1885L62.9932 40.5664V3.98633H3.98633V41.9258Z" fill="url(#paint1_linear_6_4608)" stroke="white" stroke-width="0.8"/>
<path d="M12.1113 30.1738H39.9951C40.9855 30.1738 41.7891 30.9764 41.7891 31.9668C41.7891 32.9572 40.9855 33.7598 39.9951 33.7598H12.1113C11.1209 33.7598 10.3184 32.9572 10.3184 31.9668C10.3184 30.9764 11.1209 30.1738 12.1113 30.1738Z" fill="url(#paint2_linear_6_4608)" stroke="white" stroke-width="0.8"/>
<path d="M12.1113 20.4141H54.4727C55.4631 20.4141 56.2666 21.2166 56.2666 22.207C56.2666 23.1974 55.4631 24 54.4727 24H12.1113C11.1209 24 10.3184 23.1974 10.3184 22.207C10.3184 21.2166 11.1209 20.4141 12.1113 20.4141Z" fill="url(#paint3_linear_6_4608)" stroke="white" stroke-width="0.8"/>
<path d="M12.1113 10.6602H54.4727C55.4631 10.6602 56.2666 11.4627 56.2666 12.4531C56.2666 13.4435 55.4631 14.2461 54.4727 14.2461H12.1113C11.1209 14.2461 10.3184 13.4435 10.3184 12.4531C10.3184 11.4627 11.1209 10.6602 12.1113 10.6602Z" fill="url(#paint4_linear_6_4608)" stroke="white" stroke-width="0.8"/>
<defs>
<linearGradient id="paint0_linear_6_4608" x1="58.4674" y1="48.994" x2="49.1117" y2="58.4521" gradientUnits="userSpaceOnUse">
<stop stop-color="#4338CA"/>
<stop offset="1" stop-color="#1F1A63"/>
</linearGradient>
<linearGradient id="paint1_linear_6_4608" x1="61.0209" y1="15.3291" x2="12.4549" y2="64.4288" gradientUnits="userSpaceOnUse">
<stop stop-color="#4338CA"/>
<stop offset="1" stop-color="#1F1A63"/>
</linearGradient>
<linearGradient id="paint2_linear_6_4608" x1="36.2207" y1="30.6716" x2="35.469" y2="36.2623" gradientUnits="userSpaceOnUse">
<stop stop-color="#4338CA"/>
<stop offset="1" stop-color="#1F1A63"/>
</linearGradient>
<linearGradient id="paint3_linear_6_4608" x1="48.0206" y1="20.9119" x2="47.4968" y2="26.5549" gradientUnits="userSpaceOnUse">
<stop stop-color="#4338CA"/>
<stop offset="1" stop-color="#1F1A63"/>
</linearGradient>
<linearGradient id="paint4_linear_6_4608" x1="48.0206" y1="11.158" x2="47.4968" y2="16.801" gradientUnits="userSpaceOnUse">
<stop stop-color="#4338CA"/>
<stop offset="1" stop-color="#1F1A63"/>
</linearGradient>
</defs>
</svg>
