<svg width="71" height="73" viewBox="0 0 71 73" fill="none" xmlns="http://www.w3.org/2000/svg">
<path d="M14.9248 4.01367C13.6111 4.01367 12.542 5.0828 12.542 6.39648V57.4141H51.7725C52.8118 57.4141 53.6542 58.2566 53.6543 59.2959V66.5195C53.6543 67.755 54.6591 68.7601 55.8945 68.7607H55.8955C55.8979 68.7607 55.9029 68.761 55.9141 68.7617C55.923 68.7623 55.9405 68.7641 55.958 68.7646H55.9736C55.9911 68.7641 56.0085 68.7623 56.0176 68.7617C56.0283 68.761 56.0333 68.7608 56.0361 68.7607C57.35 68.7607 58.4189 67.6926 58.4189 66.3789V6.25586C58.4189 5.58749 58.5283 4.94428 58.7305 4.34375L58.8418 4.01367H14.9248ZM4.01367 66.5215C4.01389 67.7566 5.01872 68.7607 6.25391 68.7607H50.3135L50.2021 68.4316C50 67.8311 49.8906 67.1879 49.8906 66.5195V61.1777H4.01367V66.5215ZM64.4229 4.01367C63.1876 4.01431 62.1826 5.02044 62.1826 6.25586V13.0186H66.9463V6.25391C66.9462 5.01865 65.9423 4.01377 64.707 4.01367H64.4229ZM55.958 72.5234C55.9563 72.5236 55.9547 72.5243 55.9531 72.5244H55.9316C55.9256 72.5246 55.9218 72.5254 55.9189 72.5254H6.25391C2.94364 72.5253 0.250219 69.8317 0.25 66.5215V59.2959C0.250128 58.2567 1.09262 57.4142 2.13184 57.4141H8.77832V6.39648C8.77832 3.11367 11.3658 0.42283 14.6084 0.257812L14.9248 0.25H64.707C68.0174 0.250095 70.711 2.94357 70.7109 6.25391V14.9004C70.7109 15.9396 69.8683 16.782 68.8291 16.7822H62.1826V66.3789C62.1826 69.7677 59.4249 72.5254 56.0361 72.5254C56.0351 72.5253 56.0329 72.5246 56.0303 72.5244C56.0245 72.524 56.0102 72.5227 55.9951 72.5225H55.9902C55.9856 72.5225 55.9813 72.5233 55.9775 72.5234H55.958Z" fill="url(#paint0_linear_6_4645)" stroke="white" stroke-width="0.5"/>
<path d="M21.3213 46.0645H49.6416C50.6808 46.0646 51.5233 46.9069 51.5234 47.9463C51.5234 48.9856 50.6809 49.828 49.6416 49.8281H21.3213C20.282 49.828 19.4395 48.9856 19.4395 47.9463C19.4396 46.972 20.1801 46.1707 21.1289 46.0742L21.3213 46.0645Z" fill="url(#paint1_linear_6_4645)" stroke="white" stroke-width="0.5"/>
<path d="M21.3213 37.5352H49.6416C50.6808 37.5353 51.5233 38.3776 51.5234 39.417C51.5234 40.4563 50.6809 41.2987 49.6416 41.2988H21.3213C20.282 41.2987 19.4395 40.4563 19.4395 39.417C19.4396 38.4427 20.1801 37.6414 21.1289 37.5449L21.3213 37.5352Z" fill="url(#paint2_linear_6_4645)" stroke="white" stroke-width="0.5"/>
<path d="M40.5674 29.0078H49.6406C50.68 29.0078 51.5223 29.8502 51.5225 30.8896C51.5225 31.929 50.68 32.7715 49.6406 32.7715H40.5674C39.5281 32.7714 38.6855 31.929 38.6855 30.8896C38.6857 29.8504 39.5282 29.0079 40.5674 29.0078Z" fill="url(#paint3_linear_6_4645)" stroke="white" stroke-width="0.5"/>
<path d="M27.4375 14.4355C27.9837 14.4356 28.5135 14.5372 28.9316 14.7334C29.3499 14.9297 29.6353 15.2093 29.7451 15.5586V15.5576L34.4131 30.7861C34.439 30.8903 34.4521 30.9518 34.4521 30.9873C34.4521 31.3133 34.1955 31.647 33.7314 31.916C33.2785 32.1786 32.6975 32.3349 32.2061 32.335C31.9168 32.335 31.68 32.2885 31.5068 32.1982C31.3415 32.1121 31.2275 31.9834 31.1729 31.792L30.3252 28.6748L30.2754 28.4902H24.625L24.5752 28.6748L23.7266 31.792C23.6719 31.9834 23.5579 32.1121 23.3926 32.1982C23.2195 32.2883 22.9832 32.3349 22.6943 32.335C22.203 32.335 21.6219 32.1785 21.1689 31.916C20.7047 31.647 20.4474 31.3134 20.4473 30.9873L20.458 30.9082C20.4651 30.8734 20.4763 30.8292 20.4902 30.7734L20.4893 30.7725L25.1289 15.5576L25.1299 15.5586C25.2397 15.2094 25.5243 14.9297 25.9424 14.7334C26.3606 14.5371 26.891 14.4355 27.4375 14.4355ZM27.1963 18.9883L25.374 25.6787L25.2881 25.9951H29.5869L29.501 25.6787L27.6787 18.9883L27.4375 18.1025L27.1963 18.9883Z" fill="url(#paint4_linear_6_4645)" stroke="white" stroke-width="0.5"/>
<path d="M40.5674 14.123C41.6066 14.1232 42.4491 14.9657 42.4492 16.0049V17.5938H44.0371C45.0765 17.5938 45.9199 18.4362 45.9199 19.4756C45.9199 20.5149 45.0765 21.3574 44.0371 21.3574H42.4492V22.9453C42.4492 23.9846 41.6067 24.828 40.5674 24.8281C39.528 24.8281 38.6855 23.9847 38.6855 22.9453V21.3574H37.0967C36.0574 21.3573 35.2149 20.5149 35.2148 19.4756C35.2148 18.4363 36.0574 17.5939 37.0967 17.5938H38.6855V16.0049C38.6857 14.9656 39.5281 14.123 40.5674 14.123Z" fill="url(#paint5_linear_6_4645)" stroke="white" stroke-width="0.5"/>
<defs>
<linearGradient id="paint0_linear_6_4645" x1="57.8372" y1="14.9009" x2="10.6297" y2="61.4368" gradientUnits="userSpaceOnUse">
<stop stop-color="#4338CA"/>
<stop offset="1" stop-color="#1F1A63"/>
</linearGradient>
<linearGradient id="paint1_linear_6_4645" x1="45.7473" y1="46.6875" x2="45.043" y2="52.129" gradientUnits="userSpaceOnUse">
<stop stop-color="#4338CA"/>
<stop offset="1" stop-color="#1F1A63"/>
</linearGradient>
<linearGradient id="paint2_linear_6_4645" x1="45.7473" y1="38.1582" x2="45.043" y2="43.5997" gradientUnits="userSpaceOnUse">
<stop stop-color="#4338CA"/>
<stop offset="1" stop-color="#1F1A63"/>
</linearGradient>
<linearGradient id="paint3_linear_6_4645" x1="49.3062" y1="29.6309" x2="47.7156" y2="34.6605" gradientUnits="userSpaceOnUse">
<stop stop-color="#4338CA"/>
<stop offset="1" stop-color="#1F1A63"/>
</linearGradient>
<linearGradient id="paint4_linear_6_4645" x1="32.0199" y1="17.9529" x2="20.3841" y2="27.2266" gradientUnits="userSpaceOnUse">
<stop stop-color="#4338CA"/>
<stop offset="1" stop-color="#1F1A63"/>
</linearGradient>
<linearGradient id="paint5_linear_6_4645" x1="44.0974" y1="16.1673" x2="36.8288" y2="23.5156" gradientUnits="userSpaceOnUse">
<stop stop-color="#4338CA"/>
<stop offset="1" stop-color="#1F1A63"/>
</linearGradient>
</defs>
</svg>
