<svg width="85" height="78" viewBox="0 0 85 78" fill="none" xmlns="http://www.w3.org/2000/svg">
<path d="M26.0473 27.1357C25.5167 26.7054 24.7378 26.7865 24.3072 27.3173C23.8074 27.9336 23.1448 28.2729 22.4411 28.2729C21.7374 28.2729 21.0748 27.9334 20.575 27.3173C20.1446 26.7867 19.3654 26.7055 18.8349 27.1357C18.3042 27.5661 18.2229 28.3452 18.6533 28.8758C19.6177 30.0652 20.9984 30.7472 22.4411 30.7472C23.8838 30.7472 25.2643 30.0652 26.229 28.8758C26.6593 28.3452 26.578 27.5661 26.0473 27.1357Z" fill="url(#paint0_linear_6_4659)"/>
<path d="M16.786 19.7891C16.1027 19.7891 15.5488 20.343 15.5488 21.0262V22.4397C15.5488 23.123 16.1027 23.6769 16.786 23.6769C17.4692 23.6769 18.0231 23.123 18.0231 22.4397V21.0262C18.0231 20.343 17.4692 19.7891 16.786 19.7891Z" fill="url(#paint1_linear_6_4659)"/>
<path d="M28.0946 19.7891C27.4113 19.7891 26.8574 20.343 26.8574 21.0262V22.4397C26.8574 23.123 27.4112 23.6769 28.0946 23.6769C28.7778 23.6769 29.3317 23.123 29.3317 22.4397V21.0262C29.3317 20.343 28.7778 19.7891 28.0946 19.7891Z" fill="url(#paint2_linear_6_4659)"/>
<path d="M67.0355 34.2002C66.5049 33.7698 65.7258 33.851 65.2954 34.3818C64.7956 34.9979 64.1328 35.3374 63.4293 35.3374C62.7256 35.3374 62.063 34.9979 61.5632 34.3818C61.133 33.8511 60.3537 33.7698 59.8231 34.2002C59.2924 34.6305 59.2112 35.4096 59.6416 35.9403C60.6059 37.1298 61.9866 37.8117 63.4293 37.8117C64.872 37.8117 66.2525 37.1296 67.217 35.9403C67.6473 35.4096 67.5662 34.6305 67.0355 34.2002Z" fill="url(#paint3_linear_6_4659)"/>
<path d="M57.7762 26.8594C57.093 26.8594 56.5391 27.4133 56.5391 28.0965V29.51C56.5391 30.1933 57.093 30.7472 57.7762 30.7472C58.4595 30.7472 59.0134 30.1933 59.0134 29.51V28.0965C59.0134 27.4133 58.4595 26.8594 57.7762 26.8594Z" fill="url(#paint4_linear_6_4659)"/>
<path d="M69.0868 26.8594C68.4035 26.8594 67.8496 27.4133 67.8496 28.0965V29.51C67.8496 30.1933 68.4034 30.7472 69.0868 30.7472C69.77 30.7472 70.3239 30.1933 70.3239 29.51V28.0965C70.3239 27.4133 69.77 26.8594 69.0868 26.8594Z" fill="url(#paint5_linear_6_4659)"/>
<path d="M81.0134 51.3215L71.3212 47.4445C71.2687 47.4236 71.2203 47.3969 71.1711 47.3711C77.8654 45.8479 81.0359 43.3007 81.1766 43.1854C81.5113 42.9111 81.6784 42.4819 81.6172 42.0535C81.6031 41.9555 80.216 32.134 80.216 22.4397C80.216 13.1841 72.686 5.65414 63.4304 5.65414C54.1748 5.65414 46.645 13.184 46.645 22.4397C46.645 24.9758 46.5299 28.0776 46.3425 31.0139L43.6417 32.3644L35.714 28.4007C35.6912 28.3893 35.6673 28.3811 35.644 28.3712C36.0211 27.2721 36.2677 26.1131 36.3583 24.9104C38.0166 24.3981 39.2249 22.8506 39.2249 21.0263C39.2249 19.7975 38.6759 18.6953 37.8114 17.9494V9.71813C37.8114 7.44423 36.6625 5.31665 34.7783 4.03825C34.14 1.66621 32.0088 0 29.5067 0H18.1988C12.0608 0 7.06714 4.99367 7.06714 11.1316V17.9492C6.20262 18.695 5.65365 19.7973 5.65365 21.0261C5.65365 22.8505 6.86194 24.3979 8.52023 24.9103C8.83265 29.0637 10.9731 32.7129 14.1346 35.0616V38.4811L3.90348 41.5504C1.56872 42.2509 0 44.3592 0 46.7969V60.6038C0 61.287 0.553917 61.8409 1.23716 61.8409H1.4135V76.1522C1.4135 76.8355 1.96741 77.3894 2.65065 77.3894C3.3339 77.3894 3.88781 76.8355 3.88781 76.1522V61.8409H8.48097V76.1522C8.48097 76.8355 9.03489 77.3894 9.71813 77.3894C10.4014 77.3894 10.9553 76.8355 10.9553 76.1522V54.8203C10.9553 53.7352 10.6371 52.6845 10.0353 51.7818L7.92062 48.6098C7.54155 48.0412 6.77336 47.8878 6.20509 48.2665C5.63649 48.6454 5.48292 49.4136 5.86199 49.9822L7.9767 53.1544C8.30661 53.6493 8.48114 54.2253 8.48114 54.8203V59.3666H2.65065H2.47432V46.7969C2.47432 45.4603 3.33439 44.3045 4.61477 43.9203L8.86185 42.6462C10.3408 48.8389 15.9577 53.36 22.4396 53.36C24.7682 53.36 27.0298 52.7858 29.0549 51.6931C29.7951 52.7028 30.9888 53.36 32.3339 53.36H32.5102V53.5363C32.5102 57.6837 34.7919 61.3061 38.1642 63.2211V65.239C38.1642 65.3149 38.1157 65.3822 38.0436 65.4063L33.4287 66.9446C31.1884 67.6914 29.6832 69.7797 29.6832 72.1412V76.1522C29.6832 76.8355 30.2371 77.3894 30.9204 77.3894C31.6036 77.3894 32.1575 76.8355 32.1575 76.1522V72.1412C32.1575 70.8465 32.9828 69.7013 34.2111 69.2921L35.5681 68.8396C37.3635 71.5172 40.383 73.1491 43.6417 73.1491C46.9038 73.1491 49.9205 71.5182 51.7155 68.8398L53.0723 69.2921C54.3005 69.7015 55.1258 70.8465 55.1258 72.1412V76.1522C55.1258 76.8355 55.6797 77.3894 56.363 77.3894C57.0462 77.3894 57.6001 76.8355 57.6001 76.1522V72.1412C57.6001 69.7797 56.0949 67.6914 53.8547 66.9448L49.2397 65.4064C49.1677 65.3823 49.1192 65.3152 49.1192 65.2392V63.2213C51.6441 61.7875 53.5553 59.3963 54.357 56.5438C56.6949 58.99 59.9601 60.4278 63.4303 60.4278C68.9087 60.4278 73.7157 56.8864 75.3715 51.73L80.094 53.6189C81.2409 54.0777 81.9819 55.1723 81.9819 56.4073V62.1938H81.8055H77.3887V60.6039C77.3887 59.9207 76.8348 59.3668 76.1516 59.3668C75.4683 59.3668 74.9144 59.9207 74.9144 60.6039V76.1524C74.9144 76.8356 75.4683 77.3895 76.1516 77.3895C76.8348 77.3895 77.3887 76.8356 77.3887 76.1524V64.6681H80.5684V76.1524C80.5684 76.8356 81.1223 77.3895 81.8055 77.3895C82.4888 77.3895 83.0427 76.8356 83.0427 76.1524V64.6681H83.219C83.5471 64.6681 83.8617 64.5378 84.0938 64.3058C84.3259 64.0738 84.4562 63.7592 84.4562 63.4309V56.4073C84.4567 54.1544 83.1052 52.1581 81.0134 51.3215ZM49.1195 22.4396C49.1195 14.5483 55.5395 8.1283 63.4308 8.1283C71.322 8.1283 77.7419 14.5483 77.7419 22.4396C77.7419 30.7472 78.7423 39.1452 79.0675 41.6533C77.9588 42.3786 75.1203 43.976 70.3219 45.0258V43.0571C70.9791 42.6846 71.6082 42.2595 72.1998 41.7815C74.6342 39.8137 76.3545 37.0578 77.0433 34.0217C77.2729 33.01 77.3894 31.9667 77.3894 30.9207C77.3894 23.9281 72.3324 22.9242 67.4418 21.9533C64.3299 21.3355 61.1122 20.6967 58.5498 18.6468C58.1785 18.3497 57.6697 18.2918 57.241 18.4978C56.8123 18.7039 56.5398 19.1372 56.5398 19.6129C56.5398 19.6457 56.4859 22.901 51.8229 24.0667C51.16 24.2325 50.757 24.9042 50.9228 25.5671C51.0884 26.2301 51.7602 26.6327 52.423 26.4673C56.3259 25.4916 57.918 23.3021 58.5673 21.6572C61.2501 23.247 64.2554 23.8435 66.96 24.3804C72.1872 25.4182 74.9151 26.1804 74.9151 30.9209C74.9151 31.7829 74.8192 32.642 74.6304 33.4744C74.0637 35.9708 72.6483 38.2376 70.6442 39.8575C68.5823 41.5242 66.0879 42.405 63.4308 42.405C61.0086 42.405 58.7033 41.6621 56.747 40.2581C56.0303 38.3019 54.879 36.5122 53.36 35.0375V29.5074C53.36 29.0785 53.1379 28.6803 52.7732 28.455C52.4085 28.2296 51.9532 28.209 51.5696 28.4009L48.8984 29.7363C49.0449 27.1599 49.1195 24.7103 49.1195 22.4396ZM50.8857 31.5088V35.9861L46.4081 33.7475L50.8857 31.5088ZM36.398 31.5088L40.8754 33.7475L36.398 35.9861V31.5088ZM29.6832 45.0553V46.2303C28.7974 46.9952 28.2697 48.1146 28.2697 49.2957C26.5077 50.3367 24.506 50.8857 22.4394 50.8857C17.0579 50.8857 12.4021 47.0986 11.2374 41.9336L14.2938 41.0166C15.0478 44.8251 18.413 47.706 22.4396 47.706C25.6369 47.706 28.416 45.8887 29.8033 43.2337C29.724 43.8345 29.6832 44.4429 29.6832 45.0553ZM16.6093 39.3994V36.5336C18.3845 37.3534 20.3593 37.8115 22.4396 37.8115C24.5197 37.8115 26.4947 37.3533 28.2699 36.5338V39.4012C28.2699 42.616 25.6545 45.2315 22.4396 45.2315C19.2301 45.2315 16.6183 42.6246 16.6096 39.417C16.6096 39.4111 16.6093 39.4051 16.6093 39.3994ZM22.4396 35.3372C16.107 35.3372 10.9553 30.1855 10.9553 23.8531C10.9553 23.1698 10.4014 22.6159 9.71813 22.6159C8.84156 22.6159 8.1283 21.9027 8.1283 21.0261C8.1283 20.1495 8.8414 19.4363 9.71813 19.4363H12.5451C13.0776 19.4363 13.5504 19.0956 13.7188 18.5904L14.8543 15.1837C17.6973 15.1196 26.5107 14.7199 31.4736 12.2383C32.0848 11.9326 32.3326 11.1897 32.0269 10.5785C31.7214 9.96737 30.9785 9.71961 30.3671 10.0253C25.0422 12.6876 14.0685 12.7216 13.9583 12.7216C13.4258 12.7218 12.9531 13.0624 12.7848 13.5677L11.6534 16.9621H9.71813C9.65907 16.9621 9.60035 16.9641 9.54179 16.9666V11.1316C9.54179 6.35801 13.4255 2.47432 18.1991 2.47432H29.5071C30.9844 2.47432 32.2255 3.5391 32.4586 5.00587C32.5178 5.37867 32.744 5.70396 33.0727 5.88937C34.4695 6.67719 35.3374 8.14413 35.3374 9.71796V16.9662C35.2788 16.9636 35.2203 16.9618 35.161 16.9618H33.7475C33.0643 16.9618 32.5104 17.5157 32.5104 18.1989C32.5104 18.8822 33.0643 19.4361 33.7475 19.4361H35.161C36.0376 19.4361 36.7509 20.1492 36.7509 21.0259C36.7509 21.9027 36.0378 22.6158 35.161 22.6158C34.4778 22.6158 33.9239 23.1697 33.9239 23.8529C33.9239 30.1853 28.7722 35.3372 22.4396 35.3372ZM30.7441 39.4015V35.0616C31.9748 34.1472 33.0504 33.0366 33.9237 31.7744V35.0373C32.5383 36.3824 31.4583 37.9892 30.7353 39.7456C30.7401 39.6313 30.7441 39.5168 30.7441 39.4015ZM49.2468 68.0167C47.8848 69.6806 45.8387 70.6746 43.6418 70.6746C41.4476 70.6746 39.4002 69.6799 38.0377 68.0165L38.8262 67.7537C39.9102 67.3925 40.6387 66.3818 40.6387 65.2392V64.2531C41.5948 64.5214 42.6013 64.6681 43.642 64.6681C44.6827 64.6681 45.6893 64.5214 46.6453 64.2531V65.2392C46.6452 66.3816 47.3734 67.3923 48.4577 67.7536L49.2468 68.0167ZM53.5365 50.8857C52.8532 50.8857 52.2993 51.4396 52.2993 52.1228V53.3529C52.2993 53.3636 52.2991 53.3743 52.2993 53.385V53.5363C52.2991 58.3099 48.4155 62.1936 43.6418 62.1936C38.8682 62.1936 34.9847 58.3099 34.9847 53.5363V52.1228C34.9847 51.4396 34.4308 50.8857 33.7475 50.8857H32.334C31.4575 50.8857 30.7442 50.1726 30.7442 49.2958C30.7442 48.7317 31.0428 48.2211 31.5428 47.9302C31.6544 47.8652 31.7516 47.7829 31.8357 47.6898C34.894 47.6012 44.8076 47.0257 51.3231 43.3025C51.9163 42.9635 52.1225 42.2079 51.7835 41.6145C51.4445 41.0212 50.6885 40.8152 50.0955 41.1542C44.3878 44.4156 35.4189 45.0687 32.1577 45.1992V45.0553C32.1577 42.7544 32.8545 40.526 34.117 38.6473C34.2158 38.8039 34.348 38.9398 34.5106 39.0403C34.7094 39.163 34.9349 39.225 35.161 39.225C35.3501 39.225 35.5396 39.1816 35.7143 39.0944L43.642 35.1305L51.5697 39.0944C51.7444 39.1816 51.9339 39.225 52.123 39.225C52.3493 39.225 52.5748 39.163 52.7734 39.0403C52.9359 38.9398 53.068 38.8037 53.1668 38.6473C54.4294 40.526 55.1261 42.7544 55.1261 45.0553V46.8609C55.1261 47.3013 55.3602 47.7086 55.7411 47.9302C56.2412 48.2213 56.5398 48.7317 56.5398 49.2958C56.5398 50.1724 55.8265 50.8857 54.95 50.8857H53.5365ZM63.4308 57.9531C60.0057 57.9531 56.828 56.2094 54.9782 53.3593C57.2061 53.344 59.014 51.5273 59.014 49.296C59.014 48.1149 58.4863 46.9954 57.6005 46.2305V45.0555C57.6005 44.5575 57.5736 44.0623 57.521 43.5717C59.3554 44.4318 61.3583 44.879 63.4308 44.879C64.9393 44.879 66.4311 44.6291 67.8476 44.1567V45.9684C67.8476 47.6398 68.8503 49.1211 70.4022 49.7419L73.0701 50.8089C71.7915 55.0364 67.887 57.9531 63.4308 57.9531Z" fill="url(#paint6_linear_6_4659)"/>
<path d="M47.2466 55.4033C46.7159 54.9729 45.9368 55.0541 45.5065 55.5849C45.0065 56.2012 44.3439 56.5405 43.6403 56.5405C42.9368 56.5405 42.274 56.2012 41.7742 55.5849C41.3438 55.0543 40.5646 54.9729 40.0341 55.4033C39.5034 55.8337 39.4221 56.6128 39.8525 57.1434C40.8171 58.3326 42.1976 59.0148 43.6403 59.0148C45.083 59.0148 46.4635 58.3327 47.4282 57.1436C47.8584 56.6129 47.7771 55.8337 47.2466 55.4033Z" fill="url(#paint7_linear_6_4659)"/>
<path d="M39.4247 51.9489C40.1079 51.9489 40.6618 51.395 40.6618 50.7118C40.6618 50.0285 40.1079 49.4746 39.4247 49.4746C38.7414 49.4746 38.1875 50.0285 38.1875 50.7118C38.1875 51.395 38.7414 51.9489 39.4247 51.9489Z" fill="url(#paint8_linear_6_4659)"/>
<path d="M47.8387 51.9489C48.522 51.9489 49.0759 51.395 49.0759 50.7118C49.0759 50.0285 48.522 49.4746 47.8387 49.4746C47.1555 49.4746 46.6016 50.0285 46.6016 50.7118C46.6016 51.395 47.1555 51.9489 47.8387 51.9489Z" fill="url(#paint9_linear_6_4659)"/>
<defs>
<linearGradient id="paint0_linear_6_4659" x1="25.002" y1="27.6554" x2="23.0519" y2="31.7772" gradientUnits="userSpaceOnUse">
<stop stop-color="#4338CA"/>
<stop offset="1" stop-color="#1F1A63"/>
</linearGradient>
<linearGradient id="paint1_linear_6_4659" x1="17.5655" y1="20.5851" x2="15.2702" y2="22.062" gradientUnits="userSpaceOnUse">
<stop stop-color="#4338CA"/>
<stop offset="1" stop-color="#1F1A63"/>
</linearGradient>
<linearGradient id="paint2_linear_6_4659" x1="28.8741" y1="20.5851" x2="26.5788" y2="22.062" gradientUnits="userSpaceOnUse">
<stop stop-color="#4338CA"/>
<stop offset="1" stop-color="#1F1A63"/>
</linearGradient>
<linearGradient id="paint3_linear_6_4659" x1="65.9901" y1="34.7199" x2="64.04" y2="38.8417" gradientUnits="userSpaceOnUse">
<stop stop-color="#4338CA"/>
<stop offset="1" stop-color="#1F1A63"/>
</linearGradient>
<linearGradient id="paint4_linear_6_4659" x1="58.5558" y1="27.6554" x2="56.2604" y2="29.1323" gradientUnits="userSpaceOnUse">
<stop stop-color="#4338CA"/>
<stop offset="1" stop-color="#1F1A63"/>
</linearGradient>
<linearGradient id="paint5_linear_6_4659" x1="69.8663" y1="27.6554" x2="67.5709" y2="29.1323" gradientUnits="userSpaceOnUse">
<stop stop-color="#4338CA"/>
<stop offset="1" stop-color="#1F1A63"/>
</linearGradient>
<linearGradient id="paint6_linear_6_4659" x1="68.8368" y1="15.8458" x2="18.8725" y2="70.9711" gradientUnits="userSpaceOnUse">
<stop stop-color="#4338CA"/>
<stop offset="1" stop-color="#1F1A63"/>
</linearGradient>
<linearGradient id="paint7_linear_6_4659" x1="46.2011" y1="55.923" x2="44.251" y2="60.0448" gradientUnits="userSpaceOnUse">
<stop stop-color="#4338CA"/>
<stop offset="1" stop-color="#1F1A63"/>
</linearGradient>
<linearGradient id="paint8_linear_6_4659" x1="40.2042" y1="49.9812" x2="38.5991" y2="51.604" gradientUnits="userSpaceOnUse">
<stop stop-color="#4338CA"/>
<stop offset="1" stop-color="#1F1A63"/>
</linearGradient>
<linearGradient id="paint9_linear_6_4659" x1="48.6183" y1="49.9812" x2="47.0132" y2="51.604" gradientUnits="userSpaceOnUse">
<stop stop-color="#4338CA"/>
<stop offset="1" stop-color="#1F1A63"/>
</linearGradient>
</defs>
</svg>
