<svg width="62" height="78" viewBox="0 0 62 78" fill="none" xmlns="http://www.w3.org/2000/svg">
<path d="M60.21 0H1.5C1.10218 0 0.720645 0.158035 0.439341 0.43934C0.158036 0.720644 0 1.10218 0 1.5V76.5C0 76.8978 0.158036 77.2794 0.439341 77.5607C0.720645 77.842 1.10218 78 1.5 78H60.21C60.6078 78 60.9894 77.842 61.2707 77.5607C61.552 77.2794 61.71 76.8978 61.71 76.5V1.5C61.71 1.10218 61.552 0.720644 61.2707 0.43934C60.9894 0.158035 60.6078 0 60.21 0ZM58.71 75H3V3H58.71V75ZM46.36 62.65C46.36 62.9152 46.2546 63.1696 46.0671 63.3571C45.8796 63.5446 45.6252 63.65 45.36 63.65H10.98C10.7148 63.65 10.4604 63.5446 10.2729 63.3571C10.0854 63.1696 9.98 62.9152 9.98 62.65C9.98 62.3848 10.0854 62.1304 10.2729 61.9429C10.4604 61.7554 10.7148 61.65 10.98 61.65H45.36C45.6252 61.65 45.8796 61.7554 46.0671 61.9429C46.2546 62.1304 46.36 62.3848 46.36 62.65ZM32.75 67.34C32.75 67.6052 32.6446 67.8596 32.4571 68.0471C32.2696 68.2346 32.0152 68.34 31.75 68.34H10.98C10.7148 68.34 10.4604 68.2346 10.2729 68.0471C10.0854 67.8596 9.98 67.6052 9.98 67.34C9.98 67.0748 10.0854 66.8204 10.2729 66.6329C10.4604 66.4454 10.7148 66.34 10.98 66.34H31.75C32.0152 66.34 32.2696 66.4454 32.4571 66.6329C32.6446 66.8204 32.75 67.0748 32.75 67.34ZM11.75 51.75L8.38 48.46L13.04 47.79L15.13 43.57L17.21 47.79L21.87 48.46L18.5 51.75L19.29 56.39L15.15 54.2L10.98 56.39L11.75 51.75ZM27.47 51.75L24.1 48.46L28.76 47.79L30.86 43.57L32.94 47.79L37.6 48.46L34.23 51.75L35.03 56.39L30.86 54.2L26.69 56.39L27.47 51.75ZM10.96 27.75H45.36C45.6252 27.75 45.8796 27.8554 46.0671 28.0429C46.2546 28.2304 46.36 28.4848 46.36 28.75C46.36 29.0152 46.2546 29.2696 46.0671 29.4571C45.8796 29.6446 45.6252 29.75 45.36 29.75H10.98C10.7148 29.75 10.4604 29.6446 10.2729 29.4571C10.0854 29.2696 9.98 29.0152 9.98 28.75C9.98 28.4848 10.0854 28.2304 10.2729 28.0429C10.4604 27.8554 10.7148 27.75 10.98 27.75H10.96ZM31.73 34.43H10.98C10.7148 34.43 10.4604 34.3246 10.2729 34.1371C10.0854 33.9496 9.98 33.6952 9.98 33.43C9.98 33.1648 10.0854 32.9104 10.2729 32.7229C10.4604 32.5354 10.7148 32.43 10.98 32.43H31.75C32.0152 32.43 32.2696 32.5354 32.4571 32.7229C32.6446 32.9104 32.75 33.1648 32.75 33.43C32.75 33.6952 32.6446 33.9496 32.4571 34.1371C32.2696 34.3246 32.0152 34.43 31.75 34.43H31.73ZM11.73 17.84L8.36 14.56L13.02 13.88L15.11 9.66L17.19 13.88L21.85 14.56L18.52 17.8L19.31 22.44L15.15 20.25L10.98 22.44L11.73 17.84Z" fill="url(#paint0_linear_6_4690)"/>
<defs>
<linearGradient id="paint0_linear_6_4690" x1="50.2973" y1="15.9707" x2="0.931741" y2="55.4553" gradientUnits="userSpaceOnUse">
<stop stop-color="#4338CA"/>
<stop offset="1" stop-color="#1F1A63"/>
</linearGradient>
</defs>
</svg>
