<svg width="80" height="83" viewBox="0 0 80 83" fill="none" xmlns="http://www.w3.org/2000/svg">
<path d="M45.1677 24.1635H59.7336C60.558 24.1635 61.2292 23.4942 61.2292 22.6696C61.2292 21.8451 60.558 21.1758 59.7336 21.1758H45.1677C44.3433 21.1758 43.6738 21.8451 43.6738 22.6696C43.6738 23.4942 44.3431 24.1635 45.1677 24.1635Z" fill="url(#paint0_linear_6_4692)"/>
<path d="M59.7351 33.0664H44.195C43.3707 33.0664 42.7012 33.7357 42.7012 34.5603C42.7012 35.3847 43.3705 36.0541 44.195 36.0541H59.7351C60.5595 36.0541 61.2307 35.3848 61.2307 34.5603C61.2307 33.7359 60.5595 33.0664 59.7351 33.0664Z" fill="url(#paint1_linear_6_4692)"/>
<path d="M35.7498 23.0952C35.2155 22.4696 34.2688 22.3948 33.6432 22.9255C33.0139 23.4618 32.9392 24.4048 33.4735 25.0322L35.3466 27.2318C35.6312 27.5655 36.0471 27.757 36.4848 27.757C37.0265 27.6932 37.3475 27.5619 37.6302 27.2227L43.5525 20.1495C44.0815 19.5166 43.9976 18.5736 43.3665 18.0446C42.7353 17.5156 41.7925 17.6013 41.2616 18.2306L36.4755 23.9468L35.7498 23.0952Z" fill="url(#paint2_linear_6_4692)"/>
<path d="M43.3666 28.9547C42.7302 28.4239 41.7927 28.5078 41.2617 29.1407L36.4757 34.8588L35.7498 34.0071C35.2155 33.3797 34.2688 33.3085 33.6432 33.8374C33.0139 34.3736 32.9392 35.3166 33.4735 35.944L35.3466 38.1436C35.6312 38.4773 36.0471 38.6688 36.4848 38.6688C37.0265 38.7728 37.3475 38.4718 37.6302 38.1345L43.5525 31.0594C44.0817 30.4265 43.9978 29.4837 43.3666 28.9547Z" fill="url(#paint3_linear_6_4692)"/>
<path d="M79.1368 43.8111C78.3015 42.7276 76.919 42.0801 75.4342 42.0801H65.8294V15.3047C65.8294 13.6284 64.4796 12.2661 62.8236 12.2661L55.7528 12.2738L55.7795 9.11982C55.7795 7.50199 54.4443 6.18504 52.8065 6.18504H48.5832L48.6078 3.02968C48.6406 2.23813 48.3525 1.48303 47.8016 0.906566C47.2471 0.33027 46.4738 0 45.6749 0L17.2069 0.034729C15.4924 0.034729 14.0971 1.43008 14.0971 3.14642V42.0803H4.48845C3.0037 42.0803 1.61935 42.7277 0.783965 43.8129C0.0708155 44.7377 -0.169881 45.8996 0.119986 47.0011L8.70529 79.4599C9.18324 81.2693 10.9797 82.5352 13.0736 82.5352H66.8507C68.9446 82.5352 70.7429 81.2693 71.2209 79.4599L79.8043 46.9974C80.0962 45.8994 79.8519 44.7377 79.1368 43.8111ZM62.8381 15.3047V42.0801H31.3904L31.5101 15.2882L36.5004 15.2535L62.8381 15.3047ZM52.7613 12.2772L31.5101 12.3008C29.7956 12.3008 28.4003 13.6961 28.4003 15.4106V42.0803H24.2201L24.3402 9.17277H47.1486L52.7883 9.10709L52.7613 12.2772ZM17.2069 3.02229L45.6202 2.95661L45.5927 6.18504H24.3402C22.6258 6.18504 21.2304 7.58039 21.2304 9.29673V42.0803H17.0865L17.2069 3.02229ZM76.9154 46.235L68.332 78.6938C68.2225 79.1133 67.6389 79.5438 66.851 79.5438H13.0738C12.2877 79.5438 11.7057 79.1133 11.5945 78.6938L3.0092 46.235C2.98909 46.1584 2.92719 45.9287 3.15139 45.6367C3.36303 45.3594 3.82448 45.0677 4.48828 45.0677H75.4342C76.0982 45.0677 76.5614 45.3594 76.7694 45.6367C76.9955 45.9287 76.9336 46.1621 76.9154 46.235Z" fill="url(#paint4_linear_6_4692)"/>
<path d="M63.9666 54.9766H15.9587C15.1343 54.9766 14.4648 55.6478 14.4648 56.4721C14.4648 57.2965 15.1342 57.9677 15.9587 57.9677H63.9666C64.791 57.9677 65.4622 57.2965 65.4622 56.4721C65.4622 55.6478 64.791 54.9766 63.9666 54.9766Z" fill="url(#paint5_linear_6_4692)"/>
<path d="M58.5997 66.6484H21.3239C20.4996 66.6484 19.8301 67.3196 19.8301 68.144C19.8301 68.9684 20.4994 69.6396 21.3239 69.6396H58.5997C59.4241 69.6396 60.0953 68.9684 60.0953 68.144C60.0955 67.3196 59.4243 66.6484 58.5997 66.6484Z" fill="url(#paint6_linear_6_4692)"/>
<defs>
<linearGradient id="paint0_linear_6_4692" x1="57.9825" y1="21.7875" x2="57.3479" y2="25.5572" gradientUnits="userSpaceOnUse">
<stop stop-color="#4338CA"/>
<stop offset="1" stop-color="#1F1A63"/>
</linearGradient>
<linearGradient id="paint1_linear_6_4692" x1="57.8038" y1="33.6782" x2="57.2009" y2="37.4585" gradientUnits="userSpaceOnUse">
<stop stop-color="#4338CA"/>
<stop offset="1" stop-color="#1F1A63"/>
</linearGradient>
<linearGradient id="paint2_linear_6_4692" x1="41.9062" y1="19.757" x2="35.401" y2="26.8066" gradientUnits="userSpaceOnUse">
<stop stop-color="#4338CA"/>
<stop offset="1" stop-color="#1F1A63"/>
</linearGradient>
<linearGradient id="paint3_linear_6_4692" x1="41.9063" y1="30.6703" x2="35.384" y2="37.7213" gradientUnits="userSpaceOnUse">
<stop stop-color="#4338CA"/>
<stop offset="1" stop-color="#1F1A63"/>
</linearGradient>
<linearGradient id="paint4_linear_6_4692" x1="65.1435" y1="16.8993" x2="11.6114" y2="69.3075" gradientUnits="userSpaceOnUse">
<stop stop-color="#4338CA"/>
<stop offset="1" stop-color="#1F1A63"/>
</linearGradient>
<linearGradient id="paint5_linear_6_4692" x1="56.0307" y1="55.589" x2="55.8063" y2="59.457" gradientUnits="userSpaceOnUse">
<stop stop-color="#4338CA"/>
<stop offset="1" stop-color="#1F1A63"/>
</linearGradient>
<linearGradient id="paint6_linear_6_4692" x1="52.6486" y1="67.2609" x2="52.365" y2="71.121" gradientUnits="userSpaceOnUse">
<stop stop-color="#4338CA"/>
<stop offset="1" stop-color="#1F1A63"/>
</linearGradient>
</defs>
</svg>
