<svg width="79" height="79" viewBox="0 0 79 79" fill="none" xmlns="http://www.w3.org/2000/svg">
<path d="M5.91692 44.9686H23.6677C23.9815 44.9686 24.2825 44.8439 24.5045 44.622C24.7264 44.4001 24.8511 44.0991 24.8511 43.7852C24.8511 43.4714 24.7264 43.1704 24.5045 42.9485C24.2825 42.7265 23.9815 42.6018 23.6677 42.6018H5.91692C4.97568 42.6008 4.07328 42.2265 3.40772 41.5609C2.74216 40.8953 2.3678 39.9929 2.36677 39.0517V10.6505H41.4185C41.7323 10.6505 42.0333 10.5258 42.2552 10.3039C42.4772 10.0819 42.6018 9.78093 42.6018 9.46708C42.6018 9.15322 42.4772 8.85223 42.2552 8.6303C42.0333 8.40837 41.7323 8.28369 41.4185 8.28369H2.36677V5.91692C2.3678 4.97568 2.74216 4.07328 3.40772 3.40772C4.07328 2.74216 4.97568 2.3678 5.91692 2.36677H50.8855C51.8268 2.3678 52.7292 2.74216 53.3947 3.40772C54.0603 4.07328 54.4347 4.97568 54.4357 5.91692V22.7097C54.4357 23.0235 54.5604 23.3245 54.7823 23.5464C55.0042 23.7684 55.3052 23.893 55.6191 23.893C55.9329 23.893 56.2339 23.7684 56.4559 23.5464C56.6778 23.3245 56.8025 23.0235 56.8025 22.7097V5.91692C56.8006 4.34822 56.1766 2.8443 55.0674 1.73506C53.9582 0.625822 52.4542 0.00184154 50.8855 0H5.91692C4.34822 0.00184154 2.8443 0.625822 1.73506 1.73506C0.625822 2.8443 0.00184154 4.34822 0 5.91692V39.0517C0.00184154 40.6204 0.625822 42.1243 1.73506 43.2336C2.8443 44.3428 4.34822 44.9668 5.91692 44.9686Z" fill="url(#paint0_linear_6_4700)"/>
<path d="M50.8865 8.2832C50.5727 8.2832 50.2717 8.40788 50.0497 8.62981C49.8278 8.85174 49.7031 9.15273 49.7031 9.46659C49.7031 9.78044 49.8278 10.0814 50.0497 10.3034C50.2717 10.5253 50.5727 10.65 50.8865 10.65H52.0699C52.3837 10.65 52.6847 10.5253 52.9067 10.3034C53.1286 10.0814 53.2533 9.78044 53.2533 9.46659C53.2533 9.15273 53.1286 8.85174 52.9067 8.62981C52.6847 8.40788 52.3837 8.2832 52.0699 8.2832H50.8865Z" fill="url(#paint1_linear_6_4700)"/>
<path d="M46.1521 8.2832C45.8383 8.2832 45.5373 8.40788 45.3154 8.62981C45.0934 8.85174 44.9688 9.15273 44.9688 9.46659C44.9688 9.78044 45.0934 10.0814 45.3154 10.3034C45.5373 10.5253 45.8383 10.65 46.1521 10.65H47.3355C47.6494 10.65 47.9504 10.5253 48.1723 10.3034C48.3942 10.0814 48.5189 9.78044 48.5189 9.46659C48.5189 9.15273 48.3942 8.85174 48.1723 8.62981C47.9504 8.40788 47.6494 8.2832 47.3355 8.2832H46.1521Z" fill="url(#paint2_linear_6_4700)"/>
<path d="M7.0994 4.73438C6.78555 4.73438 6.48455 4.85905 6.26262 5.08098C6.04069 5.30291 5.91602 5.60391 5.91602 5.91776C5.91602 6.23161 6.04069 6.53261 6.26262 6.75454C6.48455 6.97647 6.78555 7.10114 7.0994 7.10114H8.28278C8.59664 7.10114 8.89764 6.97647 9.11956 6.75454C9.34149 6.53261 9.46617 6.23161 9.46617 5.91776C9.46617 5.60391 9.34149 5.30291 9.11956 5.08098C8.89764 4.85905 8.59664 4.73438 8.28278 4.73438H7.0994Z" fill="url(#paint3_linear_6_4700)"/>
<path d="M11.8338 4.73438C11.5199 4.73438 11.2189 4.85905 10.997 5.08098C10.7751 5.30291 10.6504 5.60391 10.6504 5.91776C10.6504 6.23161 10.7751 6.53261 10.997 6.75454C11.2189 6.97647 11.5199 7.10114 11.8338 7.10114H13.0172C13.331 7.10114 13.632 6.97647 13.8539 6.75454C14.0759 6.53261 14.2005 6.23161 14.2005 5.91776C14.2005 5.60391 14.0759 5.30291 13.8539 5.08098C13.632 4.85905 13.331 4.73438 13.0172 4.73438H11.8338Z" fill="url(#paint4_linear_6_4700)"/>
<path d="M16.5682 4.73438C16.2543 4.73438 15.9533 4.85905 15.7314 5.08098C15.5094 5.30291 15.3848 5.60391 15.3848 5.91776C15.3848 6.23161 15.5094 6.53261 15.7314 6.75454C15.9533 6.97647 16.2543 7.10114 16.5682 7.10114H17.7515C18.0654 7.10114 18.3664 6.97647 18.5883 6.75454C18.8102 6.53261 18.9349 6.23161 18.9349 5.91776C18.9349 5.60391 18.8102 5.30291 18.5883 5.08098C18.3664 4.85905 18.0654 4.73438 17.7515 4.73438H16.5682Z" fill="url(#paint5_linear_6_4700)"/>
<path d="M52.0695 42.6018C53.0057 42.6018 53.9209 42.3242 54.6993 41.8041C55.4777 41.284 56.0844 40.5447 56.4427 39.6798C56.801 38.8148 56.8947 37.8631 56.7121 36.9448C56.5294 36.0266 56.0786 35.1832 55.4166 34.5212C54.7546 33.8592 53.9112 33.4084 52.9929 33.2257C52.0747 33.0431 51.123 33.1368 50.258 33.4951C49.3931 33.8534 48.6538 34.4601 48.1337 35.2385C47.6136 36.0169 47.3359 36.9321 47.3359 37.8683C47.3372 39.1233 47.8363 40.3266 48.7237 41.214C49.6112 42.1015 50.8144 42.6006 52.0695 42.6018ZM52.0695 35.5015C52.5376 35.5015 52.9952 35.6403 53.3844 35.9004C53.7736 36.1605 54.077 36.5301 54.2561 36.9626C54.4352 37.3951 54.4821 37.8709 54.3908 38.33C54.2994 38.7892 54.074 39.2109 53.743 39.5419C53.412 39.8729 52.9903 40.0983 52.5312 40.1896C52.0721 40.2809 51.5962 40.2341 51.1638 40.0549C50.7313 39.8758 50.3616 39.5724 50.1016 39.1832C49.8415 38.794 49.7027 38.3364 49.7027 37.8683C49.7035 37.2409 49.9531 36.6393 50.3968 36.1956C50.8405 35.752 51.442 35.5024 52.0695 35.5015Z" fill="url(#paint6_linear_6_4700)"/>
<path d="M52.0697 26.0352C47.4849 26.0285 42.98 27.2345 39.0117 29.5307C35.0435 31.8269 31.753 35.1317 29.4741 39.1099C27.1952 43.0882 26.009 47.5983 26.0356 52.183C26.0622 56.7676 27.3008 61.2637 29.6258 65.2152L26.1415 72.8806C26.0449 73.0927 26.0132 73.3287 26.0502 73.5588C26.0873 73.7889 26.1915 74.0029 26.3498 74.174C26.508 74.3451 26.7133 74.4657 26.9399 74.5205C27.1664 74.5754 27.4041 74.5621 27.6231 74.4823L35.0898 71.7677C38.2698 74.5092 42.066 76.4405 46.1542 77.3968C50.2425 78.3531 54.5014 78.306 58.5675 77.2595C62.6336 76.213 66.3862 74.1982 69.5048 71.387C72.6234 68.5758 75.0155 65.0518 76.4769 61.1157C77.9383 57.1797 78.4256 52.9484 77.8973 48.7832C77.3689 44.618 75.8405 40.6424 73.4426 37.1959C71.0447 33.7494 67.8485 30.9343 64.1267 28.9908C60.405 27.0474 56.2683 26.0333 52.0697 26.0352ZM52.0697 75.7373C46.1733 75.7345 40.4919 73.5233 36.1448 69.5396C35.9268 69.3409 35.6424 69.2309 35.3474 69.231C35.2094 69.2308 35.0725 69.2551 34.943 69.3027L29.4617 71.2962L32.0377 65.6278C32.1183 65.4505 32.1539 65.2561 32.1414 65.0618C32.1289 64.8675 32.0687 64.6792 31.966 64.5137C29.2145 60.058 28.0197 54.8151 28.5691 49.6072C29.1184 44.3993 31.3808 39.521 35.0014 35.7374C38.6219 31.9539 43.3959 29.479 48.5746 28.701C53.7533 27.923 59.0438 28.8859 63.6162 31.4387C68.1887 33.9914 71.7845 37.9897 73.8398 42.8063C75.8951 47.6229 76.2936 52.9855 74.9727 58.0529C73.6519 63.1204 70.6864 67.6062 66.5415 70.8067C62.3965 74.0072 57.3064 75.7414 52.0697 75.7373Z" fill="url(#paint7_linear_6_4700)"/>
<path d="M59.1692 63.9029H56.8024V46.1521C56.8025 45.9967 56.7719 45.8428 56.7125 45.6992C56.653 45.5556 56.5659 45.4251 56.456 45.3152C56.3461 45.2053 56.2156 45.1181 56.072 45.0587C55.9284 44.9992 55.7744 44.9687 55.619 44.9688H46.1519C45.9965 44.9687 45.8426 44.9992 45.699 45.0587C45.5553 45.1181 45.4249 45.2053 45.3149 45.3152C45.205 45.4251 45.1179 45.5556 45.0584 45.6992C44.999 45.8428 44.9685 45.9967 44.9685 46.1521V50.8857C44.9685 51.0411 44.999 51.195 45.0584 51.3386C45.1179 51.4823 45.205 51.6127 45.3149 51.7227C45.4249 51.8326 45.5553 51.9197 45.699 51.9792C45.8426 52.0386 45.9965 52.0691 46.1519 52.0691H47.3353V63.9029H44.9685C44.8131 63.9028 44.6592 63.9334 44.5156 63.9928C44.372 64.0522 44.2415 64.1394 44.1316 64.2493C44.0217 64.3592 43.9345 64.4897 43.8751 64.6333C43.8156 64.7769 43.7851 64.9309 43.7852 65.0863V69.8198C43.7851 69.9753 43.8156 70.1292 43.8751 70.2728C43.9345 70.4164 44.0217 70.5469 44.1316 70.6568C44.2415 70.7667 44.372 70.8539 44.5156 70.9133C44.6592 70.9728 44.8131 71.0033 44.9685 71.0032H59.1692C59.3246 71.0033 59.4785 70.9728 59.6221 70.9133C59.7657 70.8539 59.8962 70.7667 60.0061 70.6568C60.116 70.5469 60.2032 70.4164 60.2626 70.2728C60.3221 70.1292 60.3526 69.9753 60.3525 69.8198V65.0863C60.3526 64.9309 60.3221 64.7769 60.2626 64.6333C60.2032 64.4897 60.116 64.3592 60.0061 64.2493C59.8962 64.1394 59.7657 64.0522 59.6221 63.9928C59.4785 63.9334 59.3246 63.9028 59.1692 63.9029ZM57.9858 68.6364H46.1519V66.2697H48.5187C48.6741 66.2698 48.828 66.2392 48.9717 66.1798C49.1153 66.1203 49.2458 66.0332 49.3557 65.9233C49.4656 65.8134 49.5527 65.6829 49.6122 65.5393C49.6716 65.3956 49.7022 65.2417 49.7021 65.0863V50.8857C49.7022 50.7302 49.6716 50.5763 49.6122 50.4327C49.5527 50.2891 49.4656 50.1586 49.3557 50.0487C49.2458 49.9388 49.1153 49.8516 48.9717 49.7922C48.828 49.7328 48.6741 49.7022 48.5187 49.7023H47.3353V47.3355H54.4356V65.0863C54.4355 65.2417 54.4661 65.3956 54.5255 65.5393C54.585 65.6829 54.6721 65.8134 54.782 65.9233C54.8919 66.0332 55.0224 66.1203 55.166 66.1798C55.3097 66.2392 55.4636 66.2698 55.619 66.2697H57.9858V68.6364Z" fill="url(#paint8_linear_6_4700)"/>
<defs>
<linearGradient id="paint0_linear_6_4700" x1="46.2974" y1="9.20747" x2="17.9753" y2="45.3755" gradientUnits="userSpaceOnUse">
<stop stop-color="#4338CA"/>
<stop offset="1" stop-color="#1F1A63"/>
</linearGradient>
<linearGradient id="paint1_linear_6_4700" x1="52.5967" y1="8.76781" x2="51.1854" y2="10.908" gradientUnits="userSpaceOnUse">
<stop stop-color="#4338CA"/>
<stop offset="1" stop-color="#1F1A63"/>
</linearGradient>
<linearGradient id="paint2_linear_6_4700" x1="47.8623" y1="8.76781" x2="46.451" y2="10.908" gradientUnits="userSpaceOnUse">
<stop stop-color="#4338CA"/>
<stop offset="1" stop-color="#1F1A63"/>
</linearGradient>
<linearGradient id="paint3_linear_6_4700" x1="8.8096" y1="5.21898" x2="7.3983" y2="7.35918" gradientUnits="userSpaceOnUse">
<stop stop-color="#4338CA"/>
<stop offset="1" stop-color="#1F1A63"/>
</linearGradient>
<linearGradient id="paint4_linear_6_4700" x1="13.544" y1="5.21898" x2="12.1327" y2="7.35918" gradientUnits="userSpaceOnUse">
<stop stop-color="#4338CA"/>
<stop offset="1" stop-color="#1F1A63"/>
</linearGradient>
<linearGradient id="paint5_linear_6_4700" x1="18.2784" y1="5.21898" x2="16.867" y2="7.35918" gradientUnits="userSpaceOnUse">
<stop stop-color="#4338CA"/>
<stop offset="1" stop-color="#1F1A63"/>
</linearGradient>
<linearGradient id="paint6_linear_6_4700" x1="55.0522" y1="35.0732" x2="48.9108" y2="41.2819" gradientUnits="userSpaceOnUse">
<stop stop-color="#4338CA"/>
<stop offset="1" stop-color="#1F1A63"/>
</linearGradient>
<linearGradient id="paint7_linear_6_4700" x1="68.4745" y1="36.6917" x2="34.7124" y2="70.8397" gradientUnits="userSpaceOnUse">
<stop stop-color="#4338CA"/>
<stop offset="1" stop-color="#1F1A63"/>
</linearGradient>
<linearGradient id="paint8_linear_6_4700" x1="57.2886" y1="50.2994" x2="41.9183" y2="60.1878" gradientUnits="userSpaceOnUse">
<stop stop-color="#4338CA"/>
<stop offset="1" stop-color="#1F1A63"/>
</linearGradient>
</defs>
</svg>
