<svg width="73" height="67" viewBox="0 0 73 67" fill="none" xmlns="http://www.w3.org/2000/svg">
<path d="M67.6756 4.88616H58.0048V3.32385C58.0048 1.6053 56.5988 0.199219 54.8802 0.199219C53.1617 0.199219 51.7556 1.6053 51.7556 3.32385V4.88616H20.5093V3.32385C20.5093 1.6053 19.1032 0.199219 17.3847 0.199219C15.6661 0.199219 14.26 1.6053 14.26 3.32385V4.88616H4.58932C2.16774 4.88616 0.199219 6.85468 0.199219 9.27626V50.1933C0.199219 50.3183 0.214841 50.4589 0.246088 50.5682C0.30858 50.8494 0.449189 51.0994 0.65229 51.3025L14.7131 65.3633C14.9162 65.5664 15.1662 65.707 15.4474 65.7695C15.5724 65.8008 15.6974 65.8164 15.8224 65.8164H70.5033C71.3626 65.8164 72.0657 65.1134 72.0657 64.2541V9.27626C72.0657 6.85468 70.0971 4.88616 67.6756 4.88616ZM53.3179 3.32385C53.3179 2.46457 54.0209 1.76153 54.8802 1.76153C55.7395 1.76153 56.4425 2.46457 56.4425 3.32385V6.44847C56.4425 7.30775 55.7395 8.01079 54.8802 8.01079C54.0209 8.01079 53.3179 7.30775 53.3179 6.44847V3.32385ZM15.8224 3.32385C15.8224 2.46457 16.5254 1.76153 17.3847 1.76153C18.2439 1.76153 18.947 2.46457 18.947 3.32385V6.44847C18.947 7.30775 18.2439 8.01079 17.3847 8.01079C16.5254 8.01079 15.8224 7.30775 15.8224 6.44847V3.32385ZM1.76153 9.27626C1.76153 7.71395 3.02701 6.44847 4.58932 6.44847H14.26C14.26 8.16702 15.6661 9.5731 17.3847 9.5731C19.1032 9.5731 20.5093 8.16702 20.5093 6.44847H51.7556C51.7556 8.16702 53.1617 9.5731 54.8802 9.5731C56.5988 9.5731 58.0048 8.16702 58.0048 6.44847H67.6756C69.2379 6.44847 70.5033 7.71395 70.5033 9.27626V11.4323C70.5033 12.9946 69.2379 14.26 67.6756 14.26H4.58932C3.02701 14.26 1.76153 12.9946 1.76153 11.4323V9.27626ZM1.76153 50.1933H15.8224V64.2541L1.76153 50.1933ZM70.5033 64.2541H17.3847V50.1933C17.3847 49.334 16.6816 48.631 15.8224 48.631H1.76153V14.7912C2.52707 15.4318 3.52695 15.8224 4.58932 15.8224H67.6756C68.7379 15.8224 69.7378 15.4318 70.5033 14.7912V64.2541Z" fill="url(#paint0_linear_6_4616)" stroke="url(#paint1_linear_6_4616)" stroke-width="0.4"/>
<path d="M12.6983 20.5098H8.01135C6.2928 20.5098 4.88672 21.9158 4.88672 23.6344V26.759C4.88672 28.4776 6.2928 29.8836 8.01135 29.8836H12.6983C14.4168 29.8836 15.8229 28.4776 15.8229 26.759V23.6344C15.8229 21.9158 14.4168 20.5098 12.6983 20.5098ZM14.2606 26.759C14.2606 27.6183 13.5576 28.3213 12.6983 28.3213H8.01135C7.15207 28.3213 6.44903 27.6183 6.44903 26.759V23.6344C6.44903 22.7751 7.15207 22.0721 8.01135 22.0721H12.6983C13.5576 22.0721 14.2606 22.7751 14.2606 23.6344V26.759Z" fill="url(#paint2_linear_6_4616)" stroke="url(#paint3_linear_6_4616)" stroke-width="0.4"/>
<path d="M29.8838 20.5098H25.1969C23.4783 20.5098 22.0723 21.9158 22.0723 23.6344V26.759C22.0723 28.4776 23.4783 29.8836 25.1969 29.8836H29.8838C31.6024 29.8836 33.0085 28.4776 33.0085 26.759V23.6344C33.0085 21.9158 31.6024 20.5098 29.8838 20.5098ZM31.4461 26.759C31.4461 27.6183 30.7431 28.3213 29.8838 28.3213H25.1969C24.3376 28.3213 23.6346 27.6183 23.6346 26.759V23.6344C23.6346 22.7751 24.3376 22.0721 25.1969 22.0721H29.8838C30.7431 22.0721 31.4461 22.7751 31.4461 23.6344V26.759Z" fill="url(#paint4_linear_6_4616)" stroke="url(#paint5_linear_6_4616)" stroke-width="0.4"/>
<path d="M47.0674 20.5098H42.3805C40.6619 20.5098 39.2559 21.9158 39.2559 23.6344V26.759C39.2559 28.4776 40.6619 29.8836 42.3805 29.8836H47.0674C48.786 29.8836 50.1921 28.4776 50.1921 26.759V23.6344C50.1921 21.9158 48.786 20.5098 47.0674 20.5098ZM48.6297 26.759C48.6297 27.6183 47.9267 28.3213 47.0674 28.3213H42.3805C41.5212 28.3213 40.8182 27.6183 40.8182 26.759V23.6344C40.8182 22.7751 41.5212 22.0721 42.3805 22.0721H47.0674C47.9267 22.0721 48.6297 22.7751 48.6297 23.6344V26.759Z" fill="url(#paint6_linear_6_4616)" stroke="url(#paint7_linear_6_4616)" stroke-width="0.4"/>
<path d="M64.2549 20.5098H59.568C57.8494 20.5098 56.4434 21.9158 56.4434 23.6344V26.759C56.4434 28.4776 57.8494 29.8836 59.568 29.8836H64.2549C65.9735 29.8836 67.3796 28.4776 67.3796 26.759V23.6344C67.3796 21.9158 65.9735 20.5098 64.2549 20.5098ZM65.8172 26.759C65.8172 27.6183 65.1142 28.3213 64.2549 28.3213H59.568C58.7087 28.3213 58.0057 27.6183 58.0057 26.759V23.6344C58.0057 22.7751 58.7087 22.0721 59.568 22.0721H64.2549C65.1142 22.0721 65.8172 22.7751 65.8172 23.6344V26.759Z" fill="url(#paint8_linear_6_4616)" stroke="url(#paint9_linear_6_4616)" stroke-width="0.4"/>
<path d="M12.6983 34.5703H8.01135C6.2928 34.5703 4.88672 35.9764 4.88672 37.6949V40.8196C4.88672 42.5381 6.2928 43.9442 8.01135 43.9442H12.6983C14.4168 43.9442 15.8229 42.5381 15.8229 40.8196V37.6949C15.8229 35.9764 14.4168 34.5703 12.6983 34.5703ZM14.2606 40.8196C14.2606 41.6788 13.5576 42.3819 12.6983 42.3819H8.01135C7.15207 42.3819 6.44903 41.6788 6.44903 40.8196V37.6949C6.44903 36.8357 7.15207 36.1326 8.01135 36.1326H12.6983C13.5576 36.1326 14.2606 36.8357 14.2606 37.6949V40.8196Z" fill="url(#paint10_linear_6_4616)" stroke="url(#paint11_linear_6_4616)" stroke-width="0.4"/>
<path d="M29.8838 34.5703H25.1969C23.4783 34.5703 22.0723 35.9764 22.0723 37.6949V40.8196C22.0723 42.5381 23.4783 43.9442 25.1969 43.9442H29.8838C31.6024 43.9442 33.0085 42.5381 33.0085 40.8196V37.6949C33.0085 35.9764 31.6024 34.5703 29.8838 34.5703ZM31.4461 40.8196C31.4461 41.6788 30.7431 42.3819 29.8838 42.3819H25.1969C24.3376 42.3819 23.6346 41.6788 23.6346 40.8196V37.6949C23.6346 36.8357 24.3376 36.1326 25.1969 36.1326H29.8838C30.7431 36.1326 31.4461 36.8357 31.4461 37.6949V40.8196Z" fill="url(#paint12_linear_6_4616)" stroke="url(#paint13_linear_6_4616)" stroke-width="0.4"/>
<path d="M48.6297 39.3979V40.8196C48.6297 41.6788 47.9267 42.3819 47.0674 42.3819H42.3805C41.5212 42.3819 40.8182 41.6788 40.8182 40.8196V37.6949C40.8182 36.8357 41.5212 36.1326 42.3805 36.1326H44.474C46.0832 36.1326 46.0988 34.5703 44.8177 34.5703H42.3805C40.6619 34.5703 39.2559 35.9764 39.2559 37.6949V40.8196C39.2559 42.5381 40.6619 43.9442 42.3805 43.9442H47.0674C48.786 43.9442 50.1921 42.5381 50.1921 40.8196V38.4917C50.1921 37.5231 48.5673 37.3669 48.6297 39.3979Z" fill="url(#paint14_linear_6_4616)" stroke="url(#paint15_linear_6_4616)" stroke-width="0.4"/>
<path d="M64.2549 34.5703H59.568C57.8494 34.5703 56.4434 35.9764 56.4434 37.6949V40.8196C56.4434 42.5381 57.8494 43.9442 59.568 43.9442H64.2549C65.9735 43.9442 67.3796 42.5381 67.3796 40.8196V37.6949C67.3796 35.9764 65.9735 34.5703 64.2549 34.5703ZM65.8172 40.8196C65.8172 41.6788 65.1142 42.3819 64.2549 42.3819H59.568C58.7087 42.3819 58.0057 41.6788 58.0057 40.8196V37.6949C58.0057 36.8357 58.7087 36.1326 59.568 36.1326H64.2549C65.1142 36.1326 65.8172 36.8357 65.8172 37.6949V40.8196Z" fill="url(#paint16_linear_6_4616)" stroke="url(#paint17_linear_6_4616)" stroke-width="0.4"/>
<path d="M29.8838 48.6309H25.1969C23.4783 48.6309 22.0723 50.0369 22.0723 51.7555V54.8801C22.0723 56.5987 23.4783 58.0047 25.1969 58.0047H29.8838C31.6024 58.0047 33.0085 56.5987 33.0085 54.8801V51.7555C33.0085 50.0369 31.6024 48.6309 29.8838 48.6309ZM31.4461 54.8801C31.4461 55.7394 30.7431 56.4424 29.8838 56.4424H25.1969C24.3376 56.4424 23.6346 55.7394 23.6346 54.8801V51.7555C23.6346 50.8962 24.3376 50.1932 25.1969 50.1932H29.8838C30.7431 50.1932 31.4461 50.8962 31.4461 51.7555V54.8801Z" fill="url(#paint18_linear_6_4616)" stroke="url(#paint19_linear_6_4616)" stroke-width="0.4"/>
<path d="M47.0674 48.6309H42.3805C40.6619 48.6309 39.2559 50.0369 39.2559 51.7555V54.8801C39.2559 56.5987 40.6619 58.0047 42.3805 58.0047H47.0674C48.786 58.0047 50.1921 56.5987 50.1921 54.8801V51.7555C50.1921 50.0369 48.786 48.6309 47.0674 48.6309ZM48.6297 54.8801C48.6297 55.7394 47.9267 56.4424 47.0674 56.4424H42.3805C41.5212 56.4424 40.8182 55.7394 40.8182 54.8801V51.7555C40.8182 50.8962 41.5212 50.1932 42.3805 50.1932H47.0674C47.9267 50.1932 48.6297 50.8962 48.6297 51.7555V54.8801Z" fill="url(#paint20_linear_6_4616)" stroke="url(#paint21_linear_6_4616)" stroke-width="0.4"/>
<path d="M64.2549 48.6309H59.568C57.8494 48.6309 56.4434 50.0369 56.4434 51.7555V54.8801C56.4434 56.5987 57.8494 58.0047 59.568 58.0047H64.2549C65.9735 58.0047 67.3796 56.5987 67.3796 54.8801V51.7555C67.3796 50.0369 65.9735 48.6309 64.2549 48.6309ZM65.8172 54.8801C65.8172 55.7394 65.1142 56.4424 64.2549 56.4424H59.568C58.7087 56.4424 58.0057 55.7394 58.0057 54.8801V51.7555C58.0057 50.8962 58.7087 50.1932 59.568 50.1932H64.2549C65.1142 50.1932 65.8172 50.8962 65.8172 51.7555V54.8801Z" fill="url(#paint22_linear_6_4616)" stroke="url(#paint23_linear_6_4616)" stroke-width="0.4"/>
<path d="M43.8683 37.1486C43.6808 36.758 43.2121 36.6018 42.8215 36.8049C42.4309 36.9924 42.2747 37.461 42.4778 37.8516L44.0401 40.9763C44.1651 41.2262 44.3995 41.3825 44.6651 41.3981C44.6807 41.3981 44.7119 41.3981 44.7276 41.3981C44.9775 41.3981 45.1962 41.2887 45.3525 41.0856L50.0394 34.8364C50.305 34.4926 50.2269 34.0083 49.8832 33.7427C49.5395 33.4771 49.0552 33.5553 48.7896 33.899L44.8682 39.1327L43.8683 37.133V37.1486Z" fill="url(#paint24_linear_6_4616)" stroke="url(#paint25_linear_6_4616)" stroke-width="0.4"/>
<defs>
<linearGradient id="paint0_linear_6_4616" x1="58.7746" y1="13.6345" x2="16.426" y2="60.5256" gradientUnits="userSpaceOnUse">
<stop stop-color="#4338CA"/>
<stop offset="1" stop-color="#1F1A63"/>
</linearGradient>
<linearGradient id="paint1_linear_6_4616" x1="58.7746" y1="13.6345" x2="16.426" y2="60.5256" gradientUnits="userSpaceOnUse">
<stop stop-color="#4338CA"/>
<stop offset="1" stop-color="#1F1A63"/>
</linearGradient>
<linearGradient id="paint2_linear_6_4616" x1="13.8004" y1="22.4291" x2="7.80105" y2="29.5051" gradientUnits="userSpaceOnUse">
<stop stop-color="#4338CA"/>
<stop offset="1" stop-color="#1F1A63"/>
</linearGradient>
<linearGradient id="paint3_linear_6_4616" x1="13.8004" y1="22.4291" x2="7.80105" y2="29.5051" gradientUnits="userSpaceOnUse">
<stop stop-color="#4338CA"/>
<stop offset="1" stop-color="#1F1A63"/>
</linearGradient>
<linearGradient id="paint4_linear_6_4616" x1="30.9859" y1="22.4291" x2="24.9866" y2="29.5051" gradientUnits="userSpaceOnUse">
<stop stop-color="#4338CA"/>
<stop offset="1" stop-color="#1F1A63"/>
</linearGradient>
<linearGradient id="paint5_linear_6_4616" x1="30.9859" y1="22.4291" x2="24.9866" y2="29.5051" gradientUnits="userSpaceOnUse">
<stop stop-color="#4338CA"/>
<stop offset="1" stop-color="#1F1A63"/>
</linearGradient>
<linearGradient id="paint6_linear_6_4616" x1="48.1695" y1="22.4291" x2="42.1702" y2="29.5051" gradientUnits="userSpaceOnUse">
<stop stop-color="#4338CA"/>
<stop offset="1" stop-color="#1F1A63"/>
</linearGradient>
<linearGradient id="paint7_linear_6_4616" x1="48.1695" y1="22.4291" x2="42.1702" y2="29.5051" gradientUnits="userSpaceOnUse">
<stop stop-color="#4338CA"/>
<stop offset="1" stop-color="#1F1A63"/>
</linearGradient>
<linearGradient id="paint8_linear_6_4616" x1="65.357" y1="22.4291" x2="59.3577" y2="29.5051" gradientUnits="userSpaceOnUse">
<stop stop-color="#4338CA"/>
<stop offset="1" stop-color="#1F1A63"/>
</linearGradient>
<linearGradient id="paint9_linear_6_4616" x1="65.357" y1="22.4291" x2="59.3577" y2="29.5051" gradientUnits="userSpaceOnUse">
<stop stop-color="#4338CA"/>
<stop offset="1" stop-color="#1F1A63"/>
</linearGradient>
<linearGradient id="paint10_linear_6_4616" x1="13.8004" y1="36.4896" x2="7.80105" y2="43.5657" gradientUnits="userSpaceOnUse">
<stop stop-color="#4338CA"/>
<stop offset="1" stop-color="#1F1A63"/>
</linearGradient>
<linearGradient id="paint11_linear_6_4616" x1="13.8004" y1="36.4896" x2="7.80105" y2="43.5657" gradientUnits="userSpaceOnUse">
<stop stop-color="#4338CA"/>
<stop offset="1" stop-color="#1F1A63"/>
</linearGradient>
<linearGradient id="paint12_linear_6_4616" x1="30.9859" y1="36.4896" x2="24.9866" y2="43.5657" gradientUnits="userSpaceOnUse">
<stop stop-color="#4338CA"/>
<stop offset="1" stop-color="#1F1A63"/>
</linearGradient>
<linearGradient id="paint13_linear_6_4616" x1="30.9859" y1="36.4896" x2="24.9866" y2="43.5657" gradientUnits="userSpaceOnUse">
<stop stop-color="#4338CA"/>
<stop offset="1" stop-color="#1F1A63"/>
</linearGradient>
<linearGradient id="paint14_linear_6_4616" x1="48.1695" y1="36.4896" x2="42.1702" y2="43.5657" gradientUnits="userSpaceOnUse">
<stop stop-color="#4338CA"/>
<stop offset="1" stop-color="#1F1A63"/>
</linearGradient>
<linearGradient id="paint15_linear_6_4616" x1="48.1695" y1="36.4896" x2="42.1702" y2="43.5657" gradientUnits="userSpaceOnUse">
<stop stop-color="#4338CA"/>
<stop offset="1" stop-color="#1F1A63"/>
</linearGradient>
<linearGradient id="paint16_linear_6_4616" x1="65.357" y1="36.4896" x2="59.3577" y2="43.5657" gradientUnits="userSpaceOnUse">
<stop stop-color="#4338CA"/>
<stop offset="1" stop-color="#1F1A63"/>
</linearGradient>
<linearGradient id="paint17_linear_6_4616" x1="65.357" y1="36.4896" x2="59.3577" y2="43.5657" gradientUnits="userSpaceOnUse">
<stop stop-color="#4338CA"/>
<stop offset="1" stop-color="#1F1A63"/>
</linearGradient>
<linearGradient id="paint18_linear_6_4616" x1="30.9859" y1="50.5502" x2="24.9866" y2="57.6262" gradientUnits="userSpaceOnUse">
<stop stop-color="#4338CA"/>
<stop offset="1" stop-color="#1F1A63"/>
</linearGradient>
<linearGradient id="paint19_linear_6_4616" x1="30.9859" y1="50.5502" x2="24.9866" y2="57.6262" gradientUnits="userSpaceOnUse">
<stop stop-color="#4338CA"/>
<stop offset="1" stop-color="#1F1A63"/>
</linearGradient>
<linearGradient id="paint20_linear_6_4616" x1="48.1695" y1="50.5502" x2="42.1702" y2="57.6262" gradientUnits="userSpaceOnUse">
<stop stop-color="#4338CA"/>
<stop offset="1" stop-color="#1F1A63"/>
</linearGradient>
<linearGradient id="paint21_linear_6_4616" x1="48.1695" y1="50.5502" x2="42.1702" y2="57.6262" gradientUnits="userSpaceOnUse">
<stop stop-color="#4338CA"/>
<stop offset="1" stop-color="#1F1A63"/>
</linearGradient>
<linearGradient id="paint22_linear_6_4616" x1="65.357" y1="50.5502" x2="59.3577" y2="57.6262" gradientUnits="userSpaceOnUse">
<stop stop-color="#4338CA"/>
<stop offset="1" stop-color="#1F1A63"/>
</linearGradient>
<linearGradient id="paint23_linear_6_4616" x1="65.357" y1="50.5502" x2="59.3577" y2="57.6262" gradientUnits="userSpaceOnUse">
<stop stop-color="#4338CA"/>
<stop offset="1" stop-color="#1F1A63"/>
</linearGradient>
<linearGradient id="paint24_linear_6_4616" x1="48.7539" y1="35.1839" x2="43.6848" y2="40.3057" gradientUnits="userSpaceOnUse">
<stop stop-color="#4338CA"/>
<stop offset="1" stop-color="#1F1A63"/>
</linearGradient>
<linearGradient id="paint25_linear_6_4616" x1="48.7539" y1="35.1839" x2="43.6848" y2="40.3057" gradientUnits="userSpaceOnUse">
<stop stop-color="#4338CA"/>
<stop offset="1" stop-color="#1F1A63"/>
</linearGradient>
</defs>
</svg>
