<svg width="61" height="61" viewBox="0 0 61 61" fill="none" xmlns="http://www.w3.org/2000/svg">
<path d="M46.1483 38.7203C49.4985 33.5354 50.812 27.2944 49.8359 21.1991C48.8597 15.1037 45.663 9.58503 40.8612 5.70571C36.0594 1.82639 29.9921 -0.139219 23.8277 0.187383C17.6633 0.513986 11.8377 3.10971 7.47275 7.4747C3.10775 11.8397 0.512033 17.6653 0.18543 23.8297C-0.141172 29.9941 1.82444 36.0613 5.70376 40.8631C9.58307 45.6649 15.1018 48.8617 21.1971 49.8378C27.2925 50.814 33.5335 49.5005 38.7183 46.1503L51.1983 58.6203C51.6855 59.1068 52.2638 59.4926 52.9001 59.7557C53.5364 60.0188 54.2183 60.1539 54.9069 60.1535C55.5954 60.153 56.2771 60.0169 56.9131 59.753C57.549 59.4891 58.1268 59.1025 58.6133 58.6153C59.0999 58.1281 59.4857 57.5498 59.7488 56.9135C60.0118 56.2772 60.147 55.5953 60.1465 54.9067C60.146 54.2182 60.01 53.5365 59.746 52.9005C59.4821 52.2646 59.0955 51.6868 58.6083 51.2003L46.1483 38.7203ZM2.14832 25.1503C2.14832 20.6013 3.49725 16.1545 6.02452 12.3722C8.55179 8.58983 12.1439 5.64186 16.3466 3.90104C20.5493 2.16023 25.1738 1.70475 29.6354 2.59221C34.097 3.47967 38.1952 5.67021 41.4118 8.88682C44.6284 12.1034 46.8189 16.2016 47.7064 20.6632C48.5938 25.1248 48.1384 29.7493 46.3975 33.952C44.6567 38.1547 41.7088 41.7468 37.9264 44.2741C34.1441 46.8013 29.6973 48.1503 25.1483 48.1503C19.0483 48.1503 13.1982 45.7271 8.88486 41.4137C4.57153 37.1004 2.14832 31.2503 2.14832 25.1503ZM54.9083 58.1503C54.4778 58.1442 54.0528 58.0527 53.658 57.8811C53.2631 57.7094 52.9063 57.461 52.6083 57.1503L40.3683 44.9603C42.0917 43.6368 43.6348 42.0937 44.9583 40.3703L57.1983 52.6203C57.651 53.0734 57.9593 53.6505 58.0841 54.2787C58.209 54.907 58.1448 55.5581 57.8998 56.1499C57.6547 56.7417 57.2397 57.2475 56.7073 57.6036C56.1749 57.9596 55.5488 58.1499 54.9083 58.1503Z" fill="url(#paint0_linear_6_4636)" stroke="url(#paint1_linear_6_4636)" stroke-width="0.3"/>
<path d="M25.1484 5.15039C21.1928 5.15039 17.326 6.32337 14.037 8.521C10.7481 10.7186 8.18461 13.8422 6.67086 17.4967C5.1571 21.1512 4.76104 25.1726 5.53274 29.0522C6.30445 32.9318 8.20926 36.4955 11.0063 39.2925C13.8034 42.0896 17.367 43.9944 21.2466 44.7661C25.1263 45.5378 29.1476 45.1417 32.8021 43.628C36.4566 42.1142 39.5802 39.5508 41.7778 36.2618C43.9755 32.9728 45.1484 29.106 45.1484 25.1504C45.1484 19.8461 43.0413 14.759 39.2906 11.0083C35.5399 7.25753 30.4528 5.15039 25.1484 5.15039ZM25.1484 43.1504C21.5884 43.1504 18.1083 42.0947 15.1482 40.1168C12.1881 38.139 9.88099 35.3278 8.51862 32.0387C7.15624 28.7496 6.79978 25.1304 7.49431 21.6388C8.18885 18.1471 9.90318 14.9398 12.4205 12.4225C14.9379 9.90512 18.1452 8.19079 21.6368 7.49626C25.1285 6.80172 28.7477 7.15818 32.0367 8.52056C35.3258 9.88294 38.137 12.19 40.1149 15.1501C42.0928 18.1102 43.1484 21.5903 43.1484 25.1504C43.1484 29.9243 41.252 34.5027 37.8764 37.8783C34.5007 41.254 29.9223 43.1504 25.1484 43.1504Z" fill="url(#paint2_linear_6_4636)" stroke="url(#paint3_linear_6_4636)" stroke-width="0.3"/>
<path d="M48.1484 0.150391H46.1484V6.15039H48.1484V0.150391Z" fill="url(#paint4_linear_6_4636)" stroke="url(#paint5_linear_6_4636)" stroke-width="0.3"/>
<path d="M56.4426 2.44802L51.4434 7.44727L52.8576 8.86148L57.8568 3.86223L56.4426 2.44802Z" fill="url(#paint6_linear_6_4636)" stroke="url(#paint7_linear_6_4636)" stroke-width="0.3"/>
<path d="M60.1484 13.1504H54.1484V15.1504H60.1484V13.1504Z" fill="url(#paint8_linear_6_4636)" stroke="url(#paint9_linear_6_4636)" stroke-width="0.3"/>
<path d="M36.3625 18.45L21.6638 33.1486C21.5785 33.234 21.4772 33.3018 21.3657 33.348C21.2542 33.3943 21.1346 33.4181 21.0139 33.4181C20.8932 33.4181 20.7736 33.3943 20.6621 33.348C20.5506 33.3018 20.4493 33.234 20.3639 33.1486L13.9333 26.718C13.7609 26.5456 13.6641 26.3118 13.6641 26.068C13.6641 25.8242 13.7609 25.5904 13.9333 25.4181C14.1057 25.2457 14.3395 25.1488 14.5832 25.1488C14.827 25.1488 15.0608 25.2457 15.2332 25.4181L21.0139 31.1999L35.0626 17.1501C35.2349 16.9777 35.4687 16.8809 35.7125 16.8809C35.9563 16.8809 36.1901 16.9777 36.3625 17.1501C36.5349 17.3225 36.6317 17.5563 36.6317 17.8C36.6317 18.0438 36.5349 18.2776 36.3625 18.45Z" fill="url(#paint10_linear_6_4636)" stroke="url(#paint11_linear_6_4636)" stroke-width="0.3"/>
<defs>
<linearGradient id="paint0_linear_6_4636" x1="49.0508" y1="12.4378" x2="10.1278" y2="51.7848" gradientUnits="userSpaceOnUse">
<stop stop-color="#4338CA"/>
<stop offset="1" stop-color="#1F1A63"/>
</linearGradient>
<linearGradient id="paint1_linear_6_4636" x1="49.0508" y1="12.4378" x2="10.1278" y2="51.7848" gradientUnits="userSpaceOnUse">
<stop stop-color="#4338CA"/>
<stop offset="1" stop-color="#1F1A63"/>
</linearGradient>
<linearGradient id="paint2_linear_6_4636" x1="37.7508" y1="13.3405" x2="11.8026" y2="39.5736" gradientUnits="userSpaceOnUse">
<stop stop-color="#4338CA"/>
<stop offset="1" stop-color="#1F1A63"/>
</linearGradient>
<linearGradient id="paint3_linear_6_4636" x1="37.7508" y1="13.3405" x2="11.8026" y2="39.5736" gradientUnits="userSpaceOnUse">
<stop stop-color="#4338CA"/>
<stop offset="1" stop-color="#1F1A63"/>
</linearGradient>
<linearGradient id="paint4_linear_6_4636" x1="47.7786" y1="1.37891" x2="45.4226" y2="2.17284" gradientUnits="userSpaceOnUse">
<stop stop-color="#4338CA"/>
<stop offset="1" stop-color="#1F1A63"/>
</linearGradient>
<linearGradient id="paint5_linear_6_4636" x1="47.7786" y1="1.37891" x2="45.4226" y2="2.17284" gradientUnits="userSpaceOnUse">
<stop stop-color="#4338CA"/>
<stop offset="1" stop-color="#1F1A63"/>
</linearGradient>
<linearGradient id="paint6_linear_6_4636" x1="55.8076" y1="3.66215" x2="57.0331" y2="5.83999" gradientUnits="userSpaceOnUse">
<stop stop-color="#4338CA"/>
<stop offset="1" stop-color="#1F1A63"/>
</linearGradient>
<linearGradient id="paint7_linear_6_4636" x1="55.8076" y1="3.66215" x2="57.0331" y2="5.83999" gradientUnits="userSpaceOnUse">
<stop stop-color="#4338CA"/>
<stop offset="1" stop-color="#1F1A63"/>
</linearGradient>
<linearGradient id="paint8_linear_6_4636" x1="59.0388" y1="13.5599" x2="58.2671" y2="15.9004" gradientUnits="userSpaceOnUse">
<stop stop-color="#4338CA"/>
<stop offset="1" stop-color="#1F1A63"/>
</linearGradient>
<linearGradient id="paint9_linear_6_4636" x1="59.0388" y1="13.5599" x2="58.2671" y2="15.9004" gradientUnits="userSpaceOnUse">
<stop stop-color="#4338CA"/>
<stop offset="1" stop-color="#1F1A63"/>
</linearGradient>
<linearGradient id="paint10_linear_6_4636" x1="32.384" y1="20.2669" x2="22.2452" y2="34.5028" gradientUnits="userSpaceOnUse">
<stop stop-color="#4338CA"/>
<stop offset="1" stop-color="#1F1A63"/>
</linearGradient>
<linearGradient id="paint11_linear_6_4636" x1="32.384" y1="20.2669" x2="22.2452" y2="34.5028" gradientUnits="userSpaceOnUse">
<stop stop-color="#4338CA"/>
<stop offset="1" stop-color="#1F1A63"/>
</linearGradient>
</defs>
</svg>
