<svg width="69" height="69" viewBox="0 0 69 69" fill="none" xmlns="http://www.w3.org/2000/svg">
<path d="M17.5642 55.3887H1.58186C0.846408 55.3887 0.25 55.9851 0.25 56.7205V67.1091C0.25 67.8445 0.846408 68.4409 1.58186 68.4409H17.5642C18.2997 68.4409 18.8961 67.8445 18.8961 67.1091V56.7205C18.8961 55.9851 18.2997 55.3887 17.5642 55.3887ZM16.2324 65.7772H2.91373V58.0524H16.2324V65.7772Z" fill="url(#paint0_linear_6_4652)" stroke="url(#paint1_linear_6_4652)" stroke-width="0.5"/>
<path d="M42.3357 50.8594H26.3533C25.6179 50.8594 25.0215 51.4558 25.0215 52.1912V67.1081C25.0215 67.8436 25.6179 68.44 26.3533 68.44H42.3357C43.0712 68.44 43.6676 67.8436 43.6676 67.1081V52.1912C43.6676 51.4558 43.0712 50.8594 42.3357 50.8594ZM41.0038 65.7762H27.6852V53.5231H41.0038V65.7762Z" fill="url(#paint2_linear_6_4652)" stroke="url(#paint3_linear_6_4652)" stroke-width="0.5"/>
<path d="M67.1088 46.5988H55.4751C55.5481 46.4659 55.6151 46.3286 55.6754 46.1873C56.1546 45.0653 56.1682 43.8239 55.7138 42.6918L51.4119 31.9742C51.0349 31.0351 50.3457 30.2377 49.4715 29.7287L45.2682 27.2812C45.27 27.2533 45.2725 27.2256 45.2725 27.1971V18.0894C50.5307 17.299 55.2904 14.8913 59.1004 11.0814L59.1907 10.9909C60.8664 9.3152 60.8664 6.58847 59.1907 4.91299C58.379 4.10108 57.2998 3.65398 56.1517 3.65398C55.0038 3.65398 53.9244 4.10108 53.1127 4.91285L53.0224 5.00315C50.4066 7.61893 47.0581 9.23542 43.4397 9.66241C43.8992 8.85916 44.1633 7.93059 44.1633 6.94075V5.74993C44.1633 2.71714 41.6961 0.25 38.6634 0.25C35.6308 0.25 33.1635 2.71714 33.1635 5.74993V6.94075C33.1635 7.9776 33.4522 8.94827 33.953 9.77695H33.7629C27.1136 9.77695 20.8622 12.3664 16.1601 17.0682L16.0698 17.1587C14.3942 18.8344 14.3942 21.5611 16.0698 23.2368C17.7456 24.9125 20.4723 24.9125 22.148 23.2368L22.2383 23.1465C24.4057 20.9789 27.061 19.4974 29.9882 18.8095V27.1972C29.9882 27.4941 30.0866 27.7675 30.251 27.989L26.3343 35.9409L16.5827 40.5679C15.4805 41.0911 14.6479 42.0119 14.2382 43.1612C13.8285 44.3104 13.8911 45.5503 14.414 46.6524C15.1663 48.2381 16.7869 49.2628 18.5428 49.2628C19.2229 49.2628 19.8809 49.1142 20.4986 48.8211L26.2716 46.0818C26.9361 45.7666 27.2192 44.9722 26.9038 44.3076C26.5886 43.6432 25.7945 43.3598 25.1297 43.6754L19.3567 46.4146C19.0986 46.5372 18.8249 46.5992 18.5429 46.5992C17.8104 46.5992 17.1345 46.172 16.8207 45.5107C16.6027 45.0514 16.5767 44.5346 16.7473 44.0555C16.9181 43.5766 17.2652 43.1927 17.7246 42.9747L27.8952 38.1488C28.1665 38.0202 28.3863 37.8035 28.519 37.5342L32.9542 28.5295H42.1176L48.1313 32.0311C48.4957 32.2434 48.783 32.5757 48.9401 32.967L53.242 43.6846C53.4314 44.1565 53.4258 44.6739 53.226 45.1414C53.0262 45.6091 52.6565 45.971 52.1843 46.1604C51.9569 46.2518 51.7183 46.2981 51.4765 46.2982C50.6941 46.2982 50.0002 45.829 49.7088 45.1028L45.821 35.4168C45.6932 35.0985 45.4478 34.842 45.1356 34.7001L38.4587 31.6681C37.8805 31.4056 37.1982 31.5875 36.8273 32.1024L33.5383 36.6682C33.1083 37.2649 33.2437 38.0973 33.8406 38.5274C34.4375 38.9573 35.2698 38.822 35.6997 38.225L38.3509 34.5446L43.548 36.9046L47.2369 46.0947C47.7163 47.2894 48.65 48.1938 49.795 48.6442V67.1095C49.795 67.845 50.3914 68.4414 51.1268 68.4414H67.1092C67.8447 68.4414 68.4411 67.845 68.4411 67.1095V47.9307C68.4407 47.1953 67.8443 46.5988 67.1088 46.5988ZM35.8272 6.94075V5.74993C35.8272 4.18606 37.0995 2.91373 38.6634 2.91373C40.2273 2.91373 41.4996 4.18606 41.4996 5.74993V6.94075C41.4996 8.50462 40.2273 9.77695 38.6634 9.77695C37.0995 9.77695 35.8272 8.50476 35.8272 6.94075ZM32.6518 25.8652V17.2089C32.6518 16.8238 32.4852 16.4578 32.1951 16.2049C31.9049 15.952 31.52 15.8371 31.138 15.8895C27.033 16.455 23.3042 18.3131 20.3545 21.2629L20.2642 21.3532C19.6272 21.9905 18.5904 21.9905 17.9532 21.3532C17.316 20.7162 17.316 19.6795 17.9532 19.0422L18.0435 18.9519C22.2423 14.7532 27.8248 12.4407 33.7627 12.4407H41.4973C46.5624 12.4407 51.3242 10.4682 54.9056 6.88681L54.9959 6.79651C55.3045 6.48792 55.7148 6.3177 56.1514 6.3177C56.588 6.3177 56.9982 6.48765 57.307 6.79638C57.9441 7.43341 57.9441 8.47026 57.307 9.10756L57.2167 9.19786C53.558 12.8565 48.9202 15.067 43.8048 15.5905C43.1253 15.6601 42.6086 16.2324 42.6086 16.9155V25.8652H32.6518ZM65.7769 65.7777H52.4583V49.2626H65.7769V65.7777Z" fill="url(#paint4_linear_6_4652)" stroke="url(#paint5_linear_6_4652)" stroke-width="0.5"/>
<path d="M32.0586 43.2499C32.3062 43.0023 32.4476 42.6587 32.4476 42.3084C32.4476 41.9581 32.3062 41.6145 32.0586 41.3668C31.8096 41.1191 31.4673 40.9766 31.117 40.9766C30.7667 40.9766 30.4231 41.1189 30.1741 41.3668C29.9263 41.6145 29.7852 41.9581 29.7852 42.3084C29.7852 42.6587 29.9263 43.0023 30.1741 43.2499C30.4231 43.4976 30.7654 43.6403 31.117 43.6403C31.4673 43.6403 31.8096 43.4978 32.0586 43.2499Z" fill="url(#paint6_linear_6_4652)" stroke="url(#paint7_linear_6_4652)" stroke-width="0.5"/>
<defs>
<linearGradient id="paint0_linear_6_4652" x1="15.4477" y1="58.0612" x2="7.52167" y2="69.5083" gradientUnits="userSpaceOnUse">
<stop stop-color="#4338CA"/>
<stop offset="1" stop-color="#1F1A63"/>
</linearGradient>
<linearGradient id="paint1_linear_6_4652" x1="15.4477" y1="58.0612" x2="7.52167" y2="69.5083" gradientUnits="userSpaceOnUse">
<stop stop-color="#4338CA"/>
<stop offset="1" stop-color="#1F1A63"/>
</linearGradient>
<linearGradient id="paint2_linear_6_4652" x1="40.2192" y1="54.4591" x2="28.8416" y2="66.6587" gradientUnits="userSpaceOnUse">
<stop stop-color="#4338CA"/>
<stop offset="1" stop-color="#1F1A63"/>
</linearGradient>
<linearGradient id="paint3_linear_6_4652" x1="40.2192" y1="54.4591" x2="28.8416" y2="66.6587" gradientUnits="userSpaceOnUse">
<stop stop-color="#4338CA"/>
<stop offset="1" stop-color="#1F1A63"/>
</linearGradient>
<linearGradient id="paint4_linear_6_4652" x1="58.3673" y1="14.2124" x2="15.1203" y2="49.1368" gradientUnits="userSpaceOnUse">
<stop stop-color="#4338CA"/>
<stop offset="1" stop-color="#1F1A63"/>
</linearGradient>
<linearGradient id="paint5_linear_6_4652" x1="58.3673" y1="14.2124" x2="15.1203" y2="49.1368" gradientUnits="userSpaceOnUse">
<stop stop-color="#4338CA"/>
<stop offset="1" stop-color="#1F1A63"/>
</linearGradient>
<linearGradient id="paint6_linear_6_4652" x1="31.9552" y1="41.522" x2="30.2272" y2="43.268" gradientUnits="userSpaceOnUse">
<stop stop-color="#4338CA"/>
<stop offset="1" stop-color="#1F1A63"/>
</linearGradient>
<linearGradient id="paint7_linear_6_4652" x1="31.9552" y1="41.522" x2="30.2272" y2="43.268" gradientUnits="userSpaceOnUse">
<stop stop-color="#4338CA"/>
<stop offset="1" stop-color="#1F1A63"/>
</linearGradient>
</defs>
</svg>
