<svg width="70" height="74" viewBox="0 0 70 74" fill="none" xmlns="http://www.w3.org/2000/svg">
<path d="M50.0449 10.9292C50.0957 10.8055 50.1705 10.693 50.2648 10.5982C50.3591 10.5035 50.4711 10.4282 50.5946 10.3767C50.718 10.3253 50.8503 10.2986 50.984 10.2984C51.1178 10.2981 51.2502 10.3242 51.3739 10.3751C52.8121 10.9636 54.1022 11.8634 55.1512 13.0099C56.2002 14.1565 56.9822 15.5212 57.4409 17.0059C57.5208 17.264 57.495 17.5432 57.3691 17.7822C57.2432 18.0211 57.0275 18.2003 56.7695 18.2803C56.5114 18.3602 56.2322 18.3344 55.9932 18.2085C55.7542 18.0826 55.5751 17.8669 55.4951 17.6089C55.1176 16.4145 54.4839 15.3169 53.6382 14.3929C52.7926 13.4688 51.7553 12.7405 50.599 12.2589C50.4752 12.2081 50.3627 12.1333 50.2678 12.039C50.173 11.9446 50.0976 11.8324 50.0462 11.7089C49.9947 11.5854 49.9681 11.453 49.9679 11.3192C49.9677 11.1854 49.9938 11.0528 50.0449 10.9292ZM69.3663 21.3309V62.8197C69.3663 68.7246 64.119 73.5278 57.6698 73.5278H11.9465C5.49732 73.5278 0.25 68.7246 0.25 62.8197V21.3309C0.25 15.4268 5.49732 10.6236 11.9465 10.6236H37.2167C38.9437 8.68044 41.1891 7.27025 43.6895 6.55856V3.91209C43.7039 2.93588 44.1019 2.00456 44.7973 1.31933C45.4928 0.634108 46.4299 0.25 47.4062 0.25C48.3825 0.25 49.3196 0.634108 50.0151 1.31933C50.7105 2.00456 51.1084 2.93588 51.1229 3.91209V6.55856C53.6221 7.27073 55.8664 8.68089 57.5924 10.6236H57.6739C64.119 10.6252 69.3663 15.4268 69.3663 21.3309ZM59.1935 36.6581H35.5643L34.5515 40.5089H59.9855L59.1935 36.6581ZM45.8014 42.5459C45.9503 42.7928 46.1605 42.9971 46.4117 43.139C46.6628 43.2808 46.9463 43.3553 47.2347 43.3553C47.5231 43.3553 47.8066 43.2808 48.0577 43.139C48.3088 42.9971 48.519 42.7928 48.6679 42.5459H45.8014ZM45.7265 6.14383C46.842 6.00585 47.9703 6.00585 49.0859 6.14383V3.91209C49.0762 3.47301 48.895 3.05517 48.5811 2.74805C48.2671 2.44094 47.8454 2.26897 47.4062 2.26897C46.967 2.26897 46.5453 2.44094 46.2313 2.74805C45.9174 3.05517 45.7361 3.47301 45.7265 3.91209V6.14383ZM35.7997 19.6834V34.6211H59.0077V19.6834C59.0077 16.6061 57.7853 13.6549 55.6093 11.479C53.4334 9.30304 50.4822 8.08061 47.405 8.08061C44.3277 8.08061 41.3765 9.30304 39.2006 11.479C37.0246 13.6549 35.8022 16.6061 35.8022 19.6834H35.7997ZM67.3325 21.3309C67.3325 17.0019 63.78 13.4045 59.1544 12.7625C60.3944 14.8579 61.0474 17.2485 61.0447 19.6834V35.5353L62.236 41.3204C62.2662 41.4683 62.2631 41.6211 62.227 41.7677C62.1909 41.9143 62.1226 42.051 62.0272 42.168C61.9317 42.285 61.8114 42.3793 61.6751 42.4441C61.5387 42.5089 61.3896 42.5425 61.2386 42.5426H50.8475C50.652 43.3535 50.1894 44.0751 49.5341 44.5913C48.8787 45.1074 48.0688 45.388 47.2347 45.388C46.4005 45.388 45.5906 45.1074 44.9353 44.5913C44.2799 44.0751 43.8173 43.3535 43.6218 42.5426H33.2331C33.0773 42.5427 32.9236 42.5071 32.7837 42.4384C32.6438 42.3698 32.5216 42.2699 32.4264 42.1466C32.3313 42.0232 32.2657 41.8797 32.2348 41.7269C32.2038 41.5742 32.2084 41.4165 32.248 41.2658L33.7627 35.5052V19.6834C33.7613 17.2078 34.4376 14.7791 35.7183 12.6606H11.9465C6.62093 12.6606 2.287 16.5496 2.287 21.3309V62.8197C2.287 67.601 6.62093 71.4908 11.9465 71.4908H57.6698C62.9953 71.4908 67.3293 67.601 67.3293 62.8197L67.3325 21.3309ZM21.6939 21.0547H31.5913C31.8614 21.0547 32.1205 20.9474 32.3115 20.7564C32.5025 20.5654 32.6098 20.3063 32.6098 20.0362C32.6098 19.7661 32.5025 19.507 32.3115 19.316C32.1205 19.125 31.8614 19.0177 31.5913 19.0177H21.6939C21.4238 19.0177 21.1647 19.125 20.9737 19.316C20.7827 19.507 20.6754 19.7661 20.6754 20.0362C20.6754 20.3063 20.7827 20.5654 20.9737 20.7564C21.1647 20.9474 21.4238 21.0547 21.6939 21.0547ZM21.6939 27.3515H31.5913C31.8614 27.3515 32.1205 27.2442 32.3115 27.0531C32.5025 26.8621 32.6098 26.6031 32.6098 26.333C32.6098 26.0628 32.5025 25.8038 32.3115 25.6128C32.1205 25.4218 31.8614 25.3145 31.5913 25.3145H21.6939C21.4238 25.3145 21.1647 25.4218 20.9737 25.6128C20.7827 25.8038 20.6754 26.0628 20.6754 26.333C20.6754 26.6031 20.7827 26.8621 20.9737 27.0531C21.1647 27.2442 21.4238 27.3515 21.6939 27.3515ZM21.6939 39.9466H27.7585C28.0286 39.9466 28.2877 39.8393 28.4787 39.6483C28.6697 39.4573 28.777 39.1983 28.777 38.9281C28.777 38.658 28.6697 38.399 28.4787 38.208C28.2877 38.0169 28.0286 37.9096 27.7585 37.9096H21.6939C21.4238 37.9096 21.1647 38.0169 20.9737 38.208C20.7827 38.399 20.6754 38.658 20.6754 38.9281C20.6754 39.1983 20.7827 39.4573 20.9737 39.6483C21.1647 39.8393 21.4238 39.9466 21.6939 39.9466ZM21.6939 46.2434H37.4774C37.7476 46.2434 38.0066 46.1361 38.1976 45.9451C38.3886 45.7541 38.4959 45.495 38.4959 45.2249C38.4959 44.9548 38.3886 44.6957 38.1976 44.5047C38.0066 44.3137 37.7476 44.2064 37.4774 44.2064H21.6939C21.4238 44.2064 21.1647 44.3137 20.9737 44.5047C20.7827 44.6957 20.6754 44.9548 20.6754 45.2249C20.6754 45.495 20.7827 45.7541 20.9737 45.9451C21.1647 46.1361 21.4238 46.2434 21.6939 46.2434ZM60.6129 56.8H21.6939C21.4238 56.8 21.1647 56.9073 20.9737 57.0983C20.7827 57.2893 20.6754 57.5484 20.6754 57.8185C20.6754 58.0886 20.7827 58.3477 20.9737 58.5387C21.1647 58.7297 21.4238 58.837 21.6939 58.837H60.6129C60.883 58.837 61.1421 58.7297 61.3331 58.5387C61.5241 58.3477 61.6314 58.0886 61.6314 57.8185C61.6314 57.5484 61.5241 57.2893 61.3331 57.0983C61.1421 56.9073 60.883 56.8 60.6129 56.8ZM60.6129 63.0968H21.6939C21.4238 63.0968 21.1647 63.2041 20.9737 63.3951C20.7827 63.5861 20.6754 63.8451 20.6754 64.1153C20.6754 64.3854 20.7827 64.6444 20.9737 64.8354C21.1647 65.0265 21.4238 65.1338 21.6939 65.1338H60.6129C60.883 65.1338 61.1421 65.0265 61.3331 64.8354C61.5241 64.6444 61.6314 64.3854 61.6314 64.1153C61.6314 63.8451 61.5241 63.5861 61.3331 63.3951C61.1421 63.2041 60.883 63.0968 60.6129 63.0968ZM17.5661 23.3769C17.5663 24.2392 17.3107 25.0823 16.8317 25.7994C16.3528 26.5165 15.6719 27.0754 14.8752 27.4056C14.0785 27.7357 13.2019 27.8221 12.3561 27.654C11.5102 27.4859 10.7333 27.0707 10.1234 26.4609C9.51361 25.8512 9.09828 25.0743 8.92998 24.2286C8.76168 23.3828 8.84798 22.5061 9.17795 21.7094C9.50793 20.9126 10.0668 20.2316 10.7838 19.7525C11.5008 19.2734 12.3438 19.0177 13.2061 19.0177C14.362 19.0188 15.4702 19.4783 16.2876 20.2956C17.1051 21.1128 17.5648 22.221 17.5661 23.3769ZM15.5291 23.3769C15.5293 22.9174 15.3932 22.4682 15.138 22.086C14.8829 21.7039 14.5201 21.4061 14.0957 21.2301C13.6712 21.0542 13.2041 21.008 12.7535 21.0976C12.3028 21.1871 11.8888 21.4083 11.5638 21.7332C11.2389 22.058 11.0175 22.4719 10.9278 22.9226C10.8381 23.3732 10.8841 23.8403 11.0599 24.2648C11.2357 24.6893 11.5334 25.0522 11.9155 25.3075C12.2975 25.5628 12.7467 25.699 13.2061 25.699C13.8219 25.6984 14.4123 25.4536 14.8477 25.0182C15.2832 24.5829 15.5283 23.9926 15.5291 23.3769ZM17.5661 42.0757C17.5661 42.938 17.3104 43.781 16.8314 44.498C16.3523 45.215 15.6713 45.7738 14.8746 46.1038C14.078 46.4338 13.2013 46.5202 12.3556 46.3519C11.5098 46.1837 10.7329 45.7685 10.1232 45.1587C9.5134 44.5489 9.09816 43.7721 8.92992 42.9263C8.76169 42.0806 8.84803 41.2039 9.17803 40.4072C9.50803 39.6105 10.0669 38.9296 10.7839 38.4505C11.5009 37.9714 12.3438 37.7157 13.2061 37.7157C14.3622 37.717 15.4706 38.1769 16.288 38.9944C17.1054 39.812 17.5651 40.9204 17.5661 42.0765V42.0757ZM15.5291 42.0757C15.5291 41.6163 15.3929 41.1671 15.1376 40.7851C14.8824 40.4031 14.5196 40.1054 14.0951 39.9295C13.6706 39.7537 13.2036 39.7077 12.753 39.7974C12.3023 39.887 11.8884 40.1082 11.5635 40.4331C11.2387 40.758 11.0174 41.1719 10.9278 41.6225C10.8382 42.0731 10.8842 42.5402 11.06 42.9647C11.2358 43.3892 11.5335 43.752 11.9156 44.0072C12.2976 44.2625 12.7467 44.3987 13.2061 44.3987C13.8219 44.3981 14.4123 44.1532 14.8477 43.7179C15.2832 43.2826 15.5283 42.6923 15.5291 42.0765V42.0757ZM17.5661 60.9669C17.5661 61.8292 17.3104 62.6721 16.8314 63.3891C16.3523 64.1061 15.6713 64.665 14.8746 64.995C14.078 65.325 13.2013 65.4113 12.3556 65.2431C11.5098 65.0749 10.7329 64.6596 10.1232 64.0499C9.5134 63.4401 9.09816 62.6632 8.92992 61.8175C8.76169 60.9717 8.84803 60.0951 9.17803 59.2984C9.50803 58.5017 10.0669 57.8207 10.7839 57.3417C11.5009 56.8626 12.3438 56.6069 13.2061 56.6069C14.3622 56.6079 15.4705 57.0676 16.2879 57.8851C17.1054 58.7025 17.5651 59.8109 17.5661 60.9669ZM15.5291 60.9669C15.5291 60.5074 15.3929 60.0583 15.1376 59.6763C14.8824 59.2943 14.5196 58.9965 14.0951 58.8207C13.6706 58.6449 13.2036 58.5989 12.753 58.6885C12.3023 58.7781 11.8884 58.9994 11.5635 59.3243C11.2387 59.6491 11.0174 60.063 10.9278 60.5137C10.8382 60.9643 10.8842 61.4314 11.06 61.8558C11.2358 62.2803 11.5335 62.6431 11.9156 62.8984C12.2976 63.1536 12.7467 63.2899 13.2061 63.2899C13.822 63.2892 14.4125 63.0443 14.848 62.6088C15.2835 62.1732 15.5285 61.5828 15.5291 60.9669Z" fill="url(#paint0_linear_6_3880)" stroke="url(#paint1_linear_6_3880)" stroke-width="0.5"/>
<defs>
<linearGradient id="paint0_linear_6_3880" x1="56.5839" y1="15.2539" x2="9.0991" y2="60.5337" gradientUnits="userSpaceOnUse">
<stop stop-color="#4338CA"/>
<stop offset="1" stop-color="#1F1A63"/>
</linearGradient>
<linearGradient id="paint1_linear_6_3880" x1="56.5839" y1="15.2539" x2="9.0991" y2="60.5337" gradientUnits="userSpaceOnUse">
<stop stop-color="#4338CA"/>
<stop offset="1" stop-color="#1F1A63"/>
</linearGradient>
</defs>
</svg>
