<svg width="60" height="68" viewBox="0 0 60 68" fill="none" xmlns="http://www.w3.org/2000/svg">
<path d="M53.4811 48.2389C53.6367 48.0054 53.7145 47.772 53.7145 47.4608V31.1218C53.7145 20.5404 46.7899 11.5151 37.2977 8.24729C37.3755 8.09168 37.3755 7.93607 37.3755 7.78046C37.3755 3.50121 33.8743 0 29.595 0C25.3158 0 21.8146 3.50121 21.8146 7.78046C21.8146 7.93607 21.8146 8.09168 21.8924 8.24729C12.4002 11.5151 5.47562 20.5404 5.47562 31.1218V47.4608C5.47562 47.772 5.55342 48.0054 5.70903 48.2389C2.36343 49.6393 0.0292969 52.9849 0.0292969 56.7974V58.3535H20.2585C20.2585 63.4886 24.4599 67.69 29.595 67.69C34.7302 67.69 38.9316 63.4886 38.9316 58.3535H59.1608V56.7974C59.1608 52.9849 56.8267 49.6393 53.4811 48.2389ZM29.595 3.11218C32.0848 3.11218 34.1077 5.0573 34.2633 7.46924C32.7072 7.15802 31.1511 7.00241 29.595 7.00241C28.039 7.00241 26.4829 7.15802 24.9268 7.46924C25.0824 5.0573 27.1053 3.11218 29.595 3.11218ZM8.5878 47.4608V31.1218C8.5878 19.529 18.0022 10.1146 29.595 10.1146C41.1879 10.1146 50.6023 19.529 50.6023 31.1218V47.4608C50.6023 47.4608 50.6023 47.4608 50.6023 47.5386C50.3689 47.5386 50.0577 47.4608 49.8242 47.4608H9.36585C9.13244 47.4608 8.82122 47.4608 8.5878 47.4608ZM29.595 64.5778C26.1716 64.5778 23.3707 61.7769 23.3707 58.3535H35.8194C35.8194 61.7769 33.0185 64.5778 29.595 64.5778ZM3.37489 55.2413C4.07514 52.5959 6.48708 50.573 9.36585 50.573H49.8242C52.703 50.573 55.1928 52.5959 55.8152 55.2413H3.37489Z" fill="url(#paint0_linear_6_3892)"/>
<path d="M47.7243 5.75673C47.0241 5.2899 46.0126 5.44551 45.5458 6.22356C45.079 6.9238 45.2346 7.93526 46.0126 8.40209C47.6465 9.49135 49.1248 10.7362 50.4475 12.1367C52.8594 14.6265 54.7267 17.583 56.1272 20.9286C56.3606 21.5511 56.9831 21.8623 57.5277 21.8623C57.7611 21.8623 57.9167 21.8623 58.1501 21.7067C58.9282 21.3955 59.3172 20.4618 59.006 19.6838C57.4499 15.9491 55.3492 12.6813 52.7038 9.95818C51.2255 8.32428 49.5916 6.9238 47.7243 5.75673Z" fill="url(#paint1_linear_6_3892)"/>
<path d="M0.963286 21.6303C1.1967 21.7081 1.35231 21.7859 1.58572 21.7859C2.20816 21.7859 2.75279 21.3969 2.98621 20.8523C5.16474 15.6394 8.66594 11.2823 13.1008 8.32573C13.801 7.8589 14.0345 6.84744 13.5676 6.1472C13.1008 5.44696 12.0893 5.21354 11.3891 5.68037C6.40961 8.94816 2.51938 13.7721 0.107436 19.5296C-0.203782 20.3854 0.18524 21.3191 0.963286 21.6303Z" fill="url(#paint2_linear_6_3892)"/>
<defs>
<linearGradient id="paint0_linear_6_3892" x1="48.225" y1="13.8597" x2="4.64841" y2="52.3446" gradientUnits="userSpaceOnUse">
<stop stop-color="#4338CA"/>
<stop offset="1" stop-color="#1F1A63"/>
</linearGradient>
<linearGradient id="paint1_linear_6_3892" x1="56.5557" y1="8.84557" x2="46.0674" y2="17.8049" gradientUnits="userSpaceOnUse">
<stop stop-color="#4338CA"/>
<stop offset="1" stop-color="#1F1A63"/>
</linearGradient>
<linearGradient id="paint2_linear_6_3892" x1="11.2564" y1="8.78489" x2="0.781122" y2="17.7311" gradientUnits="userSpaceOnUse">
<stop stop-color="#4338CA"/>
<stop offset="1" stop-color="#1F1A63"/>
</linearGradient>
</defs>
</svg>
