<svg width="53" height="66" viewBox="0 0 53 66" fill="none" xmlns="http://www.w3.org/2000/svg">
<path d="M45.8307 1.25089H1.25V64.3867L5.81301 60.2026L9.78134 64.2289L12.9642 60.1233L17.1697 64.2289L22.6011 60.1233L27.025 64.2289L32.238 60.1233L35.6357 64.2289L39.2314 60.1233L42.7673 64.2289L45.7326 60.1233L51.1408 64.2289V1.25H45.6809M24.2736 11.864H44.9677M44.9677 19.4146H24.2736M44.9677 26.9653H24.2736M24.2736 34.5159H44.9677M24.2736 41.9363H45.9341M34.1192 49.487H36.5362M30.0732 49.487H24.4529" stroke="url(#paint0_linear_6_3941)" stroke-width="2.5" stroke-miterlimit="10" stroke-linecap="round" stroke-linejoin="round"/>
<path d="M17.2229 12.2984H7.04665C6.59345 12.2984 6.22266 11.9276 6.22266 11.4744C6.22266 11.0212 6.59345 10.6504 7.04665 10.6504H17.2229C17.6761 10.6504 18.0469 11.0212 18.0469 11.4744C18.0469 11.9276 17.6761 12.2984 17.2229 12.2984Z" fill="url(#paint1_linear_6_3941)"/>
<path d="M17.2229 16.4175H7.04665C6.59345 16.4175 6.22266 16.0467 6.22266 15.5935C6.22266 15.1403 6.59345 14.7695 7.04665 14.7695H17.2229C17.6761 14.7695 18.0469 15.1403 18.0469 15.5935C18.0469 16.0467 17.6761 16.4175 17.2229 16.4175Z" fill="url(#paint2_linear_6_3941)"/>
<path d="M10.0336 19.8576H7.04665C6.59345 19.8576 6.22266 19.4868 6.22266 19.0336C6.22266 18.5804 6.59345 18.2096 7.04665 18.2096H10.0336C11.661 18.2096 13 16.8912 13 15.2433C13 13.5953 11.6816 12.2769 10.0336 12.2769H7.04665C6.59345 12.2769 6.22266 11.9061 6.22266 11.4529C6.22266 10.9997 6.59345 10.6289 7.04665 10.6289H10.0336C12.5674 10.6289 14.648 12.6889 14.648 15.2433C14.648 17.7976 12.588 19.8576 10.0336 19.8576Z" fill="url(#paint3_linear_6_3941)"/>
<path d="M14.4221 26.9646C14.2161 26.9646 14.0101 26.8822 13.8453 26.738L6.47054 19.6311C6.14094 19.3221 6.14094 18.7865 6.44994 18.4569C6.75893 18.1273 7.29453 18.1273 7.62413 18.4363L14.9988 25.5226C15.3284 25.8316 15.3284 26.3672 15.0194 26.6968C14.8341 26.8616 14.6281 26.9646 14.4221 26.9646Z" fill="url(#paint4_linear_6_3941)"/>
<defs>
<linearGradient id="paint0_linear_6_3941" x1="41.914" y1="14.1774" x2="1.96584" y2="46.0912" gradientUnits="userSpaceOnUse">
<stop stop-color="#4338CA"/>
<stop offset="1" stop-color="#1F1A63"/>
</linearGradient>
<linearGradient id="paint1_linear_6_3941" x1="15.8601" y1="10.9878" x2="15.5709" y2="13.0862" gradientUnits="userSpaceOnUse">
<stop stop-color="#4338CA"/>
<stop offset="1" stop-color="#1F1A63"/>
</linearGradient>
<linearGradient id="paint2_linear_6_3941" x1="15.8601" y1="15.107" x2="15.5709" y2="17.2053" gradientUnits="userSpaceOnUse">
<stop stop-color="#4338CA"/>
<stop offset="1" stop-color="#1F1A63"/>
</linearGradient>
<linearGradient id="paint3_linear_6_3941" x1="13.0898" y1="12.5185" x2="7.12192" y2="18.0267" gradientUnits="userSpaceOnUse">
<stop stop-color="#4338CA"/>
<stop offset="1" stop-color="#1F1A63"/>
</linearGradient>
<linearGradient id="paint4_linear_6_3941" x1="13.579" y1="20.0002" x2="7.9025" y2="25.9163" gradientUnits="userSpaceOnUse">
<stop stop-color="#4338CA"/>
<stop offset="1" stop-color="#1F1A63"/>
</linearGradient>
</defs>
</svg>
