<svg width="56" height="71" viewBox="0 0 56 71" fill="none" xmlns="http://www.w3.org/2000/svg">
<path d="M1.16686 62.2063H7.8051V68.8446C7.8051 69.154 7.92804 69.4508 8.14687 69.6696C8.3657 69.8885 8.66249 70.0114 8.97196 70.0114H54.7933C55.1027 70.0114 55.3995 69.8885 55.6183 69.6696C55.8372 69.4508 55.9601 69.154 55.9601 68.8446V8.97196C55.9601 8.66249 55.8372 8.3657 55.6183 8.14687C55.3995 7.92804 55.1027 7.80511 54.7933 7.80511H48.155V1.16686C48.155 0.857387 48.0321 0.560592 47.8132 0.341764C47.5944 0.122936 47.2976 0 46.9882 0H1.16686C0.857387 0 0.560593 0.122936 0.341765 0.341764C0.122937 0.560592 0 0.857387 0 1.16686V61.0394C0 61.3489 0.122937 61.6457 0.341765 61.8645C0.560593 62.0834 0.857387 62.2063 1.16686 62.2063ZM53.6264 67.6777H10.1388V10.1388H53.6264V67.6777ZM2.33371 2.33371H45.8213V7.80511H8.97196C8.66249 7.80511 8.3657 7.92804 8.14687 8.14687C7.92804 8.3657 7.8051 8.66249 7.8051 8.97196V59.8726H2.33371V2.33371Z" fill="url(#paint0_linear_6_3948)"/>
<path d="M25.1055 32.3348C25.1055 32.6443 25.2284 32.9411 25.4472 33.1599C25.6661 33.3787 25.9629 33.5017 26.2723 33.5017H47.5698C47.8793 33.5017 48.1761 33.3787 48.3949 33.1599C48.6137 32.9411 48.7367 32.6443 48.7367 32.3348C48.7367 32.0254 48.6137 31.7286 48.3949 31.5097C48.1761 31.2909 47.8793 31.168 47.5698 31.168H26.2723C25.9629 31.168 25.6661 31.2909 25.4472 31.5097C25.2284 31.7286 25.1055 32.0254 25.1055 32.3348Z" fill="url(#paint1_linear_6_3948)"/>
<path d="M16.1942 33.5017H21.9176C22.2271 33.5017 22.5239 33.3787 22.7427 33.1599C22.9616 32.9411 23.0845 32.6443 23.0845 32.3348C23.0845 32.0254 22.9616 31.7286 22.7427 31.5097C22.5239 31.2909 22.2271 31.168 21.9176 31.168H16.1942C15.8847 31.168 15.5879 31.2909 15.3691 31.5097C15.1503 31.7286 15.0273 32.0254 15.0273 32.3348C15.0273 32.6443 15.1503 32.9411 15.3691 33.1599C15.5879 33.3787 15.8847 33.5017 16.1942 33.5017Z" fill="url(#paint2_linear_6_3948)"/>
<path d="M15.0273 38.2313C15.0273 38.5408 15.1503 38.8376 15.3691 39.0564C15.5879 39.2752 15.8847 39.3982 16.1942 39.3982H47.5675C47.8769 39.3982 48.1737 39.2752 48.3926 39.0564C48.6114 38.8376 48.7343 38.5408 48.7343 38.2313C48.7343 37.9218 48.6114 37.625 48.3926 37.4062C48.1737 37.1874 47.8769 37.0645 47.5675 37.0645H16.1942C15.8847 37.0645 15.5879 37.1874 15.3691 37.4062C15.1503 37.625 15.0273 37.9218 15.0273 38.2313Z" fill="url(#paint3_linear_6_3948)"/>
<path d="M47.5693 42.957H42.2391C41.9297 42.957 41.6329 43.08 41.414 43.2988C41.1952 43.5176 41.0723 43.8144 41.0723 44.1239C41.0723 44.4334 41.1952 44.7302 41.414 44.949C41.6329 45.1678 41.9297 45.2907 42.2391 45.2907H47.5693C47.8788 45.2907 48.1756 45.1678 48.3944 44.949C48.6132 44.7302 48.7362 44.4334 48.7362 44.1239C48.7362 43.8144 48.6132 43.5176 48.3944 43.2988C48.1756 43.08 47.8788 42.957 47.5693 42.957Z" fill="url(#paint4_linear_6_3948)"/>
<path d="M16.1942 45.2907H37.8849C38.1944 45.2907 38.4912 45.1678 38.71 44.949C38.9288 44.7302 39.0518 44.4334 39.0518 44.1239C39.0518 43.8144 38.9288 43.5176 38.71 43.2988C38.4912 43.08 38.1944 42.957 37.8849 42.957H16.1942C15.8847 42.957 15.5879 43.08 15.3691 43.2988C15.1503 43.5176 15.0273 43.8144 15.0273 44.1239C15.0273 44.4334 15.1503 44.7302 15.3691 44.949C15.5879 45.1678 15.8847 45.2907 16.1942 45.2907Z" fill="url(#paint5_linear_6_3948)"/>
<path d="M40.0798 50.0262C40.0798 49.7168 39.9568 49.42 39.738 49.2011C39.5192 48.9823 39.2224 48.8594 38.9129 48.8594H16.1942C15.8847 48.8594 15.5879 48.9823 15.3691 49.2011C15.1503 49.42 15.0273 49.7168 15.0273 50.0262C15.0273 50.3357 15.1503 50.6325 15.3691 50.8513C15.5879 51.0702 15.8847 51.1931 16.1942 51.1931H38.9129C39.2224 51.1931 39.5192 51.0702 39.738 50.8513C39.9568 50.6325 40.0798 50.3357 40.0798 50.0262Z" fill="url(#paint6_linear_6_3948)"/>
<path d="M47.5672 57.9023H36.9208C36.6113 57.9023 36.3145 58.0253 36.0957 58.2441C35.8768 58.4629 35.7539 58.7597 35.7539 59.0692C35.7539 59.3787 35.8768 59.6755 36.0957 59.8943C36.3145 60.1131 36.6113 60.2361 36.9208 60.2361H47.5672C47.8766 60.2361 48.1734 60.1131 48.3923 59.8943C48.6111 59.6755 48.734 59.3787 48.734 59.0692C48.734 58.7597 48.6111 58.4629 48.3923 58.2441C48.1734 58.0253 47.8766 57.9023 47.5672 57.9023Z" fill="url(#paint7_linear_6_3948)"/>
<path d="M16.1942 19.6501H24.0763C24.3858 19.6501 24.6826 19.5272 24.9014 19.3084C25.1202 19.0895 25.2432 18.7927 25.2432 18.4833C25.2432 18.1738 25.1202 17.877 24.9014 17.6582C24.6826 17.4393 24.3858 17.3164 24.0763 17.3164H16.1942C15.8847 17.3164 15.5879 17.4393 15.3691 17.6582C15.1503 17.877 15.0273 18.1738 15.0273 18.4833C15.0273 18.7927 15.1503 19.0895 15.3691 19.3084C15.5879 19.5272 15.8847 19.6501 16.1942 19.6501Z" fill="url(#paint8_linear_6_3948)"/>
<path d="M16.1942 25.1814H28.9584C29.2679 25.1814 29.5647 25.0584 29.7835 24.8396C30.0024 24.6208 30.1253 24.324 30.1253 24.0145C30.1253 23.705 30.0024 23.4083 29.7835 23.1894C29.5647 22.9706 29.2679 22.8477 28.9584 22.8477H16.1942C15.8847 22.8477 15.5879 22.9706 15.3691 23.1894C15.1503 23.4083 15.0273 23.705 15.0273 24.0145C15.0273 24.324 15.1503 24.6208 15.3691 24.8396C15.5879 25.0584 15.8847 25.1814 16.1942 25.1814Z" fill="url(#paint9_linear_6_3948)"/>
<defs>
<linearGradient id="paint0_linear_6_3948" x1="45.6108" y1="14.3351" x2="1.20355" y2="50.2195" gradientUnits="userSpaceOnUse">
<stop stop-color="#4338CA"/>
<stop offset="1" stop-color="#1F1A63"/>
</linearGradient>
<linearGradient id="paint1_linear_6_3948" x1="44.3663" y1="31.6458" x2="44.0733" y2="34.6451" gradientUnits="userSpaceOnUse">
<stop stop-color="#4338CA"/>
<stop offset="1" stop-color="#1F1A63"/>
</linearGradient>
<linearGradient id="paint2_linear_6_3948" x1="21.5944" y1="31.6458" x2="20.7927" y2="34.4441" gradientUnits="userSpaceOnUse">
<stop stop-color="#4338CA"/>
<stop offset="1" stop-color="#1F1A63"/>
</linearGradient>
<linearGradient id="paint3_linear_6_3948" x1="42.5005" y1="37.5423" x2="42.2941" y2="40.5561" gradientUnits="userSpaceOnUse">
<stop stop-color="#4338CA"/>
<stop offset="1" stop-color="#1F1A63"/>
</linearGradient>
<linearGradient id="paint4_linear_6_3948" x1="47.3188" y1="43.4349" x2="46.4826" y2="46.211" gradientUnits="userSpaceOnUse">
<stop stop-color="#4338CA"/>
<stop offset="1" stop-color="#1F1A63"/>
</linearGradient>
<linearGradient id="paint5_linear_6_3948" x1="34.6087" y1="43.4349" x2="34.3204" y2="46.4351" gradientUnits="userSpaceOnUse">
<stop stop-color="#4338CA"/>
<stop offset="1" stop-color="#1F1A63"/>
</linearGradient>
<linearGradient id="paint6_linear_6_3948" x1="35.4465" y1="49.3372" x2="35.1699" y2="52.3397" gradientUnits="userSpaceOnUse">
<stop stop-color="#4338CA"/>
<stop offset="1" stop-color="#1F1A63"/>
</linearGradient>
<linearGradient id="paint7_linear_6_3948" x1="46.3335" y1="58.3802" x2="45.8115" y2="61.3153" gradientUnits="userSpaceOnUse">
<stop stop-color="#4338CA"/>
<stop offset="1" stop-color="#1F1A63"/>
</linearGradient>
<linearGradient id="paint8_linear_6_3948" x1="23.3539" y1="17.7942" x2="22.7029" y2="20.6751" gradientUnits="userSpaceOnUse">
<stop stop-color="#4338CA"/>
<stop offset="1" stop-color="#1F1A63"/>
</linearGradient>
<linearGradient id="paint9_linear_6_3948" x1="27.3331" y1="23.3255" x2="26.8807" y2="26.2843" gradientUnits="userSpaceOnUse">
<stop stop-color="#4338CA"/>
<stop offset="1" stop-color="#1F1A63"/>
</linearGradient>
</defs>
</svg>
