<svg width="67" height="69" viewBox="0 0 67 69" fill="none" xmlns="http://www.w3.org/2000/svg">
<path d="M65.8071 0H1.07151C0.930637 -2.1832e-07 0.791148 0.0277779 0.661024 0.0817441C0.530899 0.13571 0.412694 0.214806 0.313171 0.314504C0.213648 0.414203 0.13476 0.532547 0.0810225 0.662766C0.0272853 0.792985 -0.000246352 0.932523 1.6608e-06 1.07339V7.77974C0.000251423 8.06385 0.113222 8.33624 0.314115 8.53713C0.515007 8.73803 0.787403 8.851 1.07151 8.85125H2.97966V50.8758C2.97966 51.0164 3.00735 51.1556 3.06115 51.2855C3.11495 51.4154 3.19381 51.5334 3.29322 51.6328C3.39263 51.7322 3.51065 51.8111 3.64053 51.8649C3.77042 51.9187 3.90963 51.9464 4.05022 51.9464H32.3678V56.1494C30.8264 56.4175 29.4417 57.254 28.4871 58.4935C27.5326 59.7331 27.0776 61.2856 27.2122 62.8443C27.3467 64.403 28.061 65.8545 29.2138 66.9122C30.3667 67.9698 31.8743 68.5566 33.4388 68.5566C35.0033 68.5566 36.511 67.9698 37.6638 66.9122C38.8167 65.8545 39.5309 64.403 39.6655 62.8443C39.8001 61.2856 39.3451 59.7331 38.3905 58.4935C37.436 57.254 36.0512 56.4175 34.5099 56.1494V51.9483H62.8265C62.9673 51.9483 63.1067 51.9205 63.2368 51.8666C63.3668 51.8127 63.485 51.7337 63.5845 51.6341C63.684 51.5345 63.7629 51.4163 63.8167 51.2861C63.8705 51.156 63.8981 51.0166 63.898 50.8758V8.85125H65.8071C66.0912 8.851 66.3636 8.73803 66.5645 8.53713C66.7654 8.33624 66.8784 8.06385 66.8786 7.77974V1.07339C66.8789 0.932523 66.8513 0.792985 66.7976 0.662766C66.7439 0.532547 66.665 0.414203 66.5654 0.314504C66.4659 0.214806 66.3477 0.13571 66.2176 0.0817441C66.0875 0.0277779 65.948 -2.1832e-07 65.8071 0ZM37.5452 62.3011C37.5454 63.1135 37.3046 63.9076 36.8534 64.5831C36.4023 65.2586 35.7609 65.7851 35.0104 66.0961C34.2599 66.407 33.4341 66.4884 32.6374 66.33C31.8407 66.1716 31.1088 65.7804 30.5344 65.206C29.96 64.6316 29.5688 63.8998 29.4104 63.103C29.252 62.3063 29.3334 61.4805 29.6443 60.73C29.9553 59.9796 30.4818 59.3382 31.1573 58.887C31.8328 58.4358 32.627 58.1951 33.4393 58.1953C34.5279 58.1965 35.5715 58.6295 36.3412 59.3992C37.1109 60.1689 37.5439 61.2126 37.5452 62.3011ZM61.7559 49.8062H5.12173V8.85125H61.7559V49.8062ZM64.7365 6.70824H2.14207V2.14207H64.7365V6.70824ZM18.4033 45.157C18.7891 45.1962 19.1767 45.2157 19.5644 45.2155C21.7133 45.2114 23.8169 44.5982 25.6314 43.447C27.4459 42.2959 28.8969 40.654 29.8161 38.7117C30.7353 36.7694 31.0851 34.6063 30.8249 32.4733C30.5646 30.3402 29.7051 28.3247 28.3459 26.6603C27.1635 25.2133 25.6426 24.0801 23.9178 23.3612C22.193 22.6423 20.3175 22.3599 18.4575 22.5388C16.5974 22.7178 14.8102 23.3527 13.2541 24.3873C11.698 25.4219 10.421 26.8242 9.53628 28.4701C8.65154 30.1161 8.18634 31.9548 8.18186 33.8234C8.17739 35.692 8.63379 37.5329 9.51064 39.1831C10.3875 40.8332 11.6577 42.2417 13.2089 43.2837C14.76 44.3257 16.5441 44.9692 18.4033 45.157ZM26.6849 28.0148C27.7977 29.3771 28.4945 31.0311 28.692 32.779H20.6114V24.6994C22.9906 24.9706 25.1699 26.1603 26.6849 28.0148ZM10.367 32.9252C10.575 30.8348 11.4926 28.8787 12.9671 27.3824C14.4416 25.8861 16.3841 24.9399 18.4712 24.7012V33.8506C18.4715 34.1347 18.5844 34.4071 18.7853 34.6079C18.9862 34.8088 19.2586 34.9218 19.5427 34.9221H28.692C28.4035 37.3324 27.1758 39.5316 25.2754 41.0421C23.375 42.5526 20.9555 43.2524 18.5422 42.9896C16.1289 42.7268 13.9167 41.5225 12.3861 39.6383C10.8554 37.7541 10.1299 35.3412 10.367 32.9252ZM19.4937 13.5891H11.0895V11.5791H19.4937V13.5891ZM29.8333 18.5514H11.0895V16.5423H29.8333V18.5514ZM43.4583 27.0272H58.747V17.0017H53.215V25.0191H51.1022V11.3895H45.5702V25.0172H43.4583V18.9806H37.9262V27.0282L43.4583 27.0272ZM55.2231 19.0098H56.737V25.0172H55.2279L55.2231 19.0098ZM47.583 13.3976H49.0969V25.0172H47.5783L47.583 13.3976ZM39.9429 25.0172V20.9849H41.4586V25.0172H39.9344H39.9429ZM38.03 35.6682H46.8397V37.6763H38.03V35.6682ZM38.03 40.3975H57.6737V42.4056H38.03V40.3975ZM51.7587 32.946H38.03V30.9379H51.7587V32.946Z" fill="url(#paint0_linear_6_3959)"/>
<defs>
<linearGradient id="paint0_linear_6_3959" x1="54.51" y1="14.0372" x2="10.0387" y2="57.8963" gradientUnits="userSpaceOnUse">
<stop stop-color="#4338CA"/>
<stop offset="1" stop-color="#1F1A63"/>
</linearGradient>
</defs>
</svg>
