<svg width="59" height="74" viewBox="0 0 59 74" fill="none" xmlns="http://www.w3.org/2000/svg">
<path d="M51.503 1.501H1.5V72.316L6.618 67.623L11.069 72.139L14.639 67.534L19.356 72.139L25.448 67.534L30.41 72.139L36.257 67.534L40.068 72.139L44.101 67.534L48.067 72.139L51.393 67.534L57.459 72.139V1.5H51.335M27.324 13.405H50.535M50.535 21.874H27.324M50.535 30.343H27.324M27.324 38.812H50.535M27.324 47.135H51.619M38.367 55.604H41.078M33.829 55.604H27.525" stroke="url(#paint0_linear_6_3896)" stroke-width="3" stroke-miterlimit="10" stroke-linecap="round" stroke-linejoin="round"/>
<path d="M19.4164 13.8914H8.00234C7.49402 13.8914 7.07812 13.4755 7.07812 12.9672C7.07812 12.4589 7.49402 12.043 8.00234 12.043H19.4164C19.9247 12.043 20.3406 12.4589 20.3406 12.9672C20.3406 13.4755 19.9247 13.8914 19.4164 13.8914Z" fill="url(#paint1_linear_6_3896)"/>
<path d="M19.4164 18.5125H8.00234C7.49402 18.5125 7.07812 18.0966 7.07812 17.5883C7.07812 17.08 7.49402 16.6641 8.00234 16.6641H19.4164C19.9247 16.6641 20.3406 17.08 20.3406 17.5883C20.3406 18.0966 19.9247 18.5125 19.4164 18.5125Z" fill="url(#paint2_linear_6_3896)"/>
<path d="M11.3526 22.3707H8.00234C7.49402 22.3707 7.07812 21.9548 7.07812 21.4465C7.07812 20.9382 7.49402 20.5223 8.00234 20.5223H11.3526C13.1779 20.5223 14.6798 19.0436 14.6798 17.1951C14.6798 15.3467 13.201 13.868 11.3526 13.868H8.00234C7.49402 13.868 7.07812 13.4521 7.07812 12.9437C7.07812 12.4354 7.49402 12.0195 8.00234 12.0195H11.3526C14.1946 12.0195 16.5282 14.3301 16.5282 17.1951C16.5282 20.0602 14.2177 22.3707 11.3526 22.3707Z" fill="url(#paint3_linear_6_3896)"/>
<path d="M16.275 30.3423C16.044 30.3423 15.8129 30.2498 15.6281 30.0881L7.35639 22.1168C6.98671 21.7702 6.98671 21.1694 7.33329 20.7998C7.67987 20.4301 8.28061 20.4301 8.65029 20.7766L16.922 28.7249C17.2917 29.0715 17.2917 29.6722 16.9451 30.0419C16.7372 30.2267 16.5061 30.3423 16.275 30.3423Z" fill="url(#paint4_linear_6_3896)"/>
<defs>
<linearGradient id="paint0_linear_6_3896" x1="47.1099" y1="15.9998" x2="2.30291" y2="51.7952" gradientUnits="userSpaceOnUse">
<stop stop-color="#4338CA"/>
<stop offset="1" stop-color="#1F1A63"/>
</linearGradient>
<linearGradient id="paint1_linear_6_3896" x1="17.8878" y1="12.4214" x2="17.5634" y2="14.775" gradientUnits="userSpaceOnUse">
<stop stop-color="#4338CA"/>
<stop offset="1" stop-color="#1F1A63"/>
</linearGradient>
<linearGradient id="paint2_linear_6_3896" x1="17.8878" y1="17.0425" x2="17.5634" y2="19.3961" gradientUnits="userSpaceOnUse">
<stop stop-color="#4338CA"/>
<stop offset="1" stop-color="#1F1A63"/>
</linearGradient>
<linearGradient id="paint3_linear_6_3896" x1="14.7805" y1="14.139" x2="8.08676" y2="20.3171" gradientUnits="userSpaceOnUse">
<stop stop-color="#4338CA"/>
<stop offset="1" stop-color="#1F1A63"/>
</linearGradient>
<linearGradient id="paint4_linear_6_3896" x1="15.3295" y1="22.5308" x2="8.96252" y2="29.1664" gradientUnits="userSpaceOnUse">
<stop stop-color="#4338CA"/>
<stop offset="1" stop-color="#1F1A63"/>
</linearGradient>
</defs>
</svg>
