<svg width="78" height="78" viewBox="0 0 78 78" fill="none" xmlns="http://www.w3.org/2000/svg">
<path d="M39.4336 64.8027C39.4354 64.8022 39.438 64.8015 39.4404 64.8008L39.4561 64.7969L39.4727 64.792C39.4793 64.7903 39.5009 64.7846 39.5264 64.7783C39.5643 64.7678 39.6014 64.7568 39.6377 64.7451L39.7393 64.7109L39.7588 64.7031L39.9385 64.6289L39.9961 64.6016L40.0391 64.5723L40.1299 64.5322L40.1406 64.5273C40.1586 64.5174 40.1773 64.5076 40.1953 64.4971L40.1982 64.4961C40.2393 64.4722 40.2811 64.4462 40.3516 64.3994L51.9512 56.665L52.2578 56.4346C53.3438 55.502 53.5878 53.8837 52.7734 52.6621C51.8925 51.3407 50.1075 50.9834 48.7861 51.8643L43.1846 55.5928L41.6309 56.6279V38.7949L41.6084 38.4023C41.4352 36.9811 40.2233 35.8799 38.7549 35.8799C37.1668 35.8799 35.8799 37.1668 35.8799 38.7549V56.6328L34.3252 55.5967L28.7441 51.8779L28.4141 51.6846C27.1361 51.0431 25.55 51.4415 24.7363 52.6621C23.8554 53.9834 24.212 55.7685 25.5332 56.6494L37.1602 64.4004L37.167 64.4053L37.1953 64.4238H37.1943C37.218 64.4392 37.2446 64.455 37.2715 64.4717C37.3105 64.4951 37.3507 64.5181 37.3916 64.54L37.4561 64.5732H37.4551L37.5039 64.5977H37.5029L37.5176 64.6045L37.5303 64.6104C37.5921 64.6394 37.6544 64.6654 37.7168 64.6895H37.7158L37.7764 64.7129L37.7822 64.7148C37.7863 64.7164 37.7904 64.7174 37.7939 64.7188L37.8076 64.7227L37.8262 64.7295C37.881 64.7481 37.9396 64.7656 38.001 64.7832L38.1357 64.8154L38.1475 64.8184C38.1952 64.8287 38.2451 64.838 38.2959 64.8467C38.3481 64.855 38.4018 64.8597 38.4551 64.8652L38.7812 64.8828H38.8242L38.8838 64.8809L38.8955 64.8799L39.1084 64.8613H39.1113C39.1639 64.8547 39.2183 64.846 39.2764 64.8359C39.3273 64.8266 39.3782 64.8159 39.4297 64.8037C39.4308 64.8034 39.4321 64.8031 39.4336 64.8027ZM39.4336 64.8027C39.4303 64.8036 39.4279 64.8044 39.4268 64.8047H39.4287C39.43 64.8043 39.4315 64.8034 39.4336 64.8027ZM17.2129 1H60.2969C64.8707 1.00009 68.9315 3.92743 70.3779 8.2666L76.3623 26.2188C76.4601 26.512 76.5098 26.8199 76.5098 27.1289V65.8838C76.5095 71.7522 71.7522 76.5095 65.8838 76.5098H11.627C5.75828 76.5098 1.00026 71.7524 1 65.8838V27.1289C1 26.8199 1.0497 26.512 1.14746 26.2188L7.13184 8.2666C8.57822 3.92743 12.639 1.00009 17.2129 1ZM26.0459 12.627H51.4639C54.3694 12.6271 56.9492 14.4858 57.8682 17.2422L60.8604 26.2188C61.481 28.0806 60.0952 30.0036 58.1328 30.0039H19.3779C17.4153 30.0039 16.0288 28.0807 16.6494 26.2188L19.6416 17.2422C20.5606 14.4858 23.1403 12.6271 26.0459 12.627ZM25.0977 19.0605L23.8047 22.9365L23.3652 24.2529H54.1455L53.7051 22.9365L52.4111 19.0605L52.1826 18.3779H25.3262L25.0977 19.0605ZM70.7588 27.5977L70.707 27.4443L64.9219 10.085C64.3185 8.27498 62.7241 7.00109 60.8623 6.78418L60.833 6.78027L60.8037 6.77832L60.3545 6.75293L60.3252 6.75098H17.2129C15.1798 6.75106 13.3678 8.01148 12.6533 9.90039L12.5879 10.085L6.80273 27.4326L6.75098 27.5859V65.8838C6.75122 68.3844 8.63309 70.4446 11.0586 70.7266L11.0879 70.7295L11.1172 70.7314L11.5693 70.7568L11.5977 70.7588H65.8838C68.5761 70.7585 70.7585 68.5761 70.7588 65.8838V27.5977Z" fill="url(#paint0_linear_6_3938)" stroke="#EDF6FF" stroke-width="2"/>
<defs>
<linearGradient id="paint0_linear_6_3938" x1="63.1751" y1="15.8704" x2="12.8942" y2="66.7033" gradientUnits="userSpaceOnUse">
<stop stop-color="#4338CA"/>
<stop offset="1" stop-color="#1F1A63"/>
</linearGradient>
</defs>
</svg>
