<svg width="60" height="77" viewBox="0 0 60 77" fill="none" xmlns="http://www.w3.org/2000/svg">
<path d="M59.2778 11.7703C59.2749 11.7146 59.2643 11.6608 59.2456 11.6082C59.2403 11.5936 59.2367 11.5796 59.2304 11.5656C59.202 11.5019 59.166 11.4413 59.1148 11.3901L48.2442 0.519145C48.1929 0.467916 48.1325 0.431972 48.0689 0.403668C48.0541 0.397159 48.0392 0.393196 48.024 0.387819C47.9732 0.370129 47.9214 0.359799 47.8676 0.356685C47.8553 0.355836 47.8444 0.349609 47.8321 0.349609H8.14146C7.82107 0.349609 7.56181 0.609149 7.56181 0.929257V7.20746H0.929257C0.608866 7.20746 0.349609 7.467 0.349609 7.7871V75.1239C0.349609 75.444 0.608866 75.7036 0.929257 75.7036H51.4917C51.812 75.7036 52.0713 75.444 52.0713 75.1239V68.8395H58.7044C59.0248 68.8395 59.2841 68.5799 59.2841 68.2598V11.8016C59.2841 11.7909 59.2784 11.7811 59.2778 11.7703ZM48.414 2.33083L57.3034 11.2203H48.414V2.33083ZM50.912 74.5443H1.50891V8.36675H7.56181V68.2598C7.56181 68.5799 7.82107 68.8395 8.14146 68.8395H50.912V74.5443ZM8.72111 67.6802V7.7871V1.50891H47.2547V11.7999C47.2547 12.12 47.5139 12.3796 47.8343 12.3796H58.1248V67.6802C52.0955 67.6802 16.1421 67.6802 8.72111 67.6802Z" fill="url(#paint0_linear_6_3845)" stroke="url(#paint1_linear_6_3845)" stroke-width="0.7"/>
<path d="M50.5703 45.0283C51.3336 60.5838 32.5773 68.963 21.4835 58.2034C23.4627 56.169 24.0665 56.0173 23.919 55.4442C23.8663 55.2421 23.7095 55.0836 23.508 55.0292C16.4294 53.232 16.4021 52.8756 15.9703 53.294C15.8237 53.4355 15.762 53.6435 15.8079 53.8416C17.5447 60.8788 17.2387 61.136 17.8378 61.3137C18.0437 61.3737 18.2581 61.3168 18.405 61.175L20.6494 59.0085C32.5085 70.5583 52.5429 61.5673 51.7285 44.9717C51.6908 44.2114 50.5322 44.2591 50.5703 45.0283ZM18.3365 59.6299L17.1551 54.5218L22.2185 55.8832L18.3365 59.6299Z" fill="url(#paint2_linear_6_3845)" stroke="url(#paint3_linear_6_3845)" stroke-width="0.7"/>
<path d="M16.276 46.6427C16.0564 41.7233 17.9612 36.9423 21.5013 33.525C28.0965 27.1595 38.6552 27.0369 45.3634 33.5431C43.2815 35.683 42.778 35.737 42.9245 36.3055C42.9772 36.5079 43.134 36.6664 43.3355 36.7207C50.7395 38.7068 50.3281 38.6221 50.4741 38.6221C50.8483 38.6221 51.123 38.2725 51.0385 37.9114C49.2953 30.8771 49.5989 30.6161 49.0012 30.4397C48.8031 30.3817 48.5846 30.4337 48.4346 30.5784L46.1975 32.7379C39.2007 25.924 27.9173 25.7206 20.6964 32.6909C16.9168 36.3389 14.8835 41.4431 15.1178 46.6942C15.1317 46.9997 15.3838 47.2581 15.723 47.2475C16.0428 47.2333 16.2902 46.9625 16.276 46.6427ZM48.5036 32.1229L49.6907 37.2313L44.625 35.8671L48.5036 32.1229Z" fill="url(#paint4_linear_6_3845)" stroke="url(#paint5_linear_6_3845)" stroke-width="0.7"/>
<path d="M45.6648 47.6346V44.123C45.6648 43.2055 44.3408 43.6569 43.3117 43.5433C43.0615 42.4723 42.6448 41.4633 42.0686 40.533C42.6937 39.7524 43.9658 39.1072 43.3196 38.4618C41.3357 36.7146 40.7234 35.272 40.0166 35.9788L38.7656 37.23C37.835 36.6535 36.8257 36.2366 35.7547 35.9861C35.6425 34.9681 36.0906 33.6336 35.1751 33.6336C32.5368 33.8009 31.0841 33.2137 31.0841 34.2132V35.9861C30.0132 36.2366 29.0039 36.6535 28.0733 37.23C27.2928 36.6047 26.6484 35.3329 26.0026 35.9788L23.5193 38.4618C22.873 39.1072 24.1441 39.751 24.7703 40.533C24.194 41.4633 23.7774 42.4723 23.5272 43.5433C22.5092 43.6556 21.1747 43.2075 21.1747 44.123C21.3418 46.7612 20.7548 48.2142 21.7543 48.2142H23.5272C23.7774 49.2852 24.194 50.2942 24.7703 51.2245C24.1452 52.0052 22.873 52.6503 23.5193 53.2957C25.5032 55.0429 26.1155 56.4856 26.8223 55.7788L28.0733 54.5275C29.0039 55.104 30.0132 55.5209 31.0841 55.7714C31.1963 56.7895 30.7483 58.1237 31.6638 58.1237C34.302 57.9563 35.7547 58.5436 35.7547 57.544V55.7714C36.8257 55.5209 37.835 55.104 38.7656 54.5275C39.5461 55.1529 40.1904 56.4246 40.8363 55.7788L43.3196 53.2957C43.9658 52.6503 42.6948 52.0066 42.0686 51.2245C42.6448 50.2942 43.0615 49.2852 43.3117 48.2142C44.3297 48.1019 45.6648 48.5501 45.6648 47.6346ZM40.8482 50.9735C40.4125 51.6089 41.3787 52.0311 42.0901 52.8859L40.4264 54.5493C39.5961 53.8585 39.155 52.8678 38.5143 53.3074C37.4761 54.0209 36.3168 54.4998 35.0692 54.7307C34.3132 54.871 34.6967 55.8546 34.5954 56.9644H32.2434C32.1426 55.8594 32.5271 54.8713 31.7696 54.7307C28.6469 54.1526 28.2708 52.689 27.5864 53.3753L26.4124 54.5493L24.7488 52.8859C25.454 52.0385 26.4272 51.6102 25.9907 50.9735C24.2038 48.3733 24.968 47.0549 23.9976 47.0549H22.334V44.7026C23.4354 44.6021 24.4269 44.9876 24.5676 44.2286C25.1455 41.107 26.6082 40.7313 25.9228 40.0459L24.7488 38.8716L26.4124 37.2083C27.2633 37.9163 27.6896 38.8865 28.3246 38.4502C30.9432 36.6504 32.2434 37.4388 32.2434 36.4568V34.7929H34.5954C34.6946 35.879 34.3052 36.8851 35.0692 37.0268C38.1917 37.6049 38.5675 39.0682 39.2524 38.3823L40.4264 37.2083L42.0901 38.8716C41.3848 39.719 40.4117 40.1473 40.8482 40.7841C41.5614 41.8219 42.0403 42.981 42.2712 44.2286C42.4117 44.9861 43.3979 44.6016 44.5055 44.7026V47.0549H42.8413C41.8909 47.0549 42.5923 48.4354 40.8482 50.9735Z" fill="url(#paint6_linear_6_3845)" stroke="url(#paint7_linear_6_3845)" stroke-width="0.7"/>
<path d="M33.4228 38.7949C29.5141 38.7949 26.334 41.9725 26.334 45.8783C26.334 49.7873 29.5141 52.9674 33.4228 52.9674C37.332 52.9674 40.5121 49.7873 40.5121 45.8783C40.5121 41.9725 37.332 38.7949 33.4228 38.7949ZM33.4228 51.8081C30.1532 51.8081 27.4933 49.1479 27.4933 45.8783C27.4933 42.6119 30.1532 39.9542 33.4228 39.9542C36.6924 39.9542 39.3529 42.6119 39.3529 45.8783C39.3529 49.1479 36.6924 51.8081 33.4228 51.8081Z" fill="url(#paint8_linear_6_3845)" stroke="url(#paint9_linear_6_3845)" stroke-width="0.7"/>
<path d="M13.6695 6.14758H42.3864C42.7068 6.14758 42.9661 5.88804 42.9661 5.56793C42.9661 5.24782 42.7068 4.98828 42.3864 4.98828H13.6695C13.3491 4.98828 13.0898 5.24782 13.0898 5.56793C13.0898 5.88804 13.3491 6.14758 13.6695 6.14758Z" fill="url(#paint10_linear_6_3845)" stroke="url(#paint11_linear_6_3845)" stroke-width="0.7"/>
<path d="M13.6695 12.1671H42.3864C42.7068 12.1671 42.9661 11.9076 42.9661 11.5875C42.9661 11.2674 42.7068 11.0078 42.3864 11.0078H13.6695C13.3491 11.0078 13.0898 11.2674 13.0898 11.5875C13.0898 11.9076 13.3491 12.1671 13.6695 12.1671Z" fill="url(#paint12_linear_6_3845)" stroke="url(#paint13_linear_6_3845)" stroke-width="0.7"/>
<path d="M53.1823 17.0254H13.6695C13.3491 17.0254 13.0898 17.2849 13.0898 17.605C13.0898 17.9251 13.3491 18.1847 13.6695 18.1847H53.1823C53.5027 18.1847 53.762 17.9251 53.762 17.605C53.762 17.2849 53.5027 17.0254 53.1823 17.0254Z" fill="url(#paint14_linear_6_3845)" stroke="url(#paint15_linear_6_3845)" stroke-width="0.7"/>
<path d="M53.1823 23.0488H13.6695C13.3491 23.0488 13.0898 23.3084 13.0898 23.6285C13.0898 23.9486 13.3491 24.2081 13.6695 24.2081H53.1823C53.5027 24.2081 53.762 23.9486 53.762 23.6285C53.762 23.3084 53.5027 23.0488 53.1823 23.0488Z" fill="url(#paint16_linear_6_3845)" stroke="url(#paint17_linear_6_3845)" stroke-width="0.7"/>
<defs>
<linearGradient id="paint0_linear_6_3845" x1="48.3847" y1="15.7786" x2="0.817198" y2="53.3897" gradientUnits="userSpaceOnUse">
<stop stop-color="#4338CA"/>
<stop offset="1" stop-color="#1F1A63"/>
</linearGradient>
<linearGradient id="paint1_linear_6_3845" x1="48.3847" y1="15.7786" x2="0.817198" y2="53.3897" gradientUnits="userSpaceOnUse">
<stop stop-color="#4338CA"/>
<stop offset="1" stop-color="#1F1A63"/>
</linearGradient>
<linearGradient id="paint2_linear_6_3845" x1="45.1022" y1="48.4774" x2="34.3216" y2="68.2837" gradientUnits="userSpaceOnUse">
<stop stop-color="#4338CA"/>
<stop offset="1" stop-color="#1F1A63"/>
</linearGradient>
<linearGradient id="paint3_linear_6_3845" x1="45.1022" y1="48.4774" x2="34.3216" y2="68.2837" gradientUnits="userSpaceOnUse">
<stop stop-color="#4338CA"/>
<stop offset="1" stop-color="#1F1A63"/>
</linearGradient>
<linearGradient id="paint4_linear_6_3845" x1="44.4044" y1="31.5791" x2="33.6942" y2="51.3379" gradientUnits="userSpaceOnUse">
<stop stop-color="#4338CA"/>
<stop offset="1" stop-color="#1F1A63"/>
</linearGradient>
<linearGradient id="paint5_linear_6_3845" x1="44.4044" y1="31.5791" x2="33.6942" y2="51.3379" gradientUnits="userSpaceOnUse">
<stop stop-color="#4338CA"/>
<stop offset="1" stop-color="#1F1A63"/>
</linearGradient>
<linearGradient id="paint6_linear_6_3845" x1="41.1314" y1="38.6349" x2="25.2156" y2="54.7109" gradientUnits="userSpaceOnUse">
<stop stop-color="#4338CA"/>
<stop offset="1" stop-color="#1F1A63"/>
</linearGradient>
<linearGradient id="paint7_linear_6_3845" x1="41.1314" y1="38.6349" x2="25.2156" y2="54.7109" gradientUnits="userSpaceOnUse">
<stop stop-color="#4338CA"/>
<stop offset="1" stop-color="#1F1A63"/>
</linearGradient>
<linearGradient id="paint8_linear_6_3845" x1="37.89" y1="41.6968" x2="28.6963" y2="50.9952" gradientUnits="userSpaceOnUse">
<stop stop-color="#4338CA"/>
<stop offset="1" stop-color="#1F1A63"/>
</linearGradient>
<linearGradient id="paint9_linear_6_3845" x1="37.89" y1="41.6968" x2="28.6963" y2="50.9952" gradientUnits="userSpaceOnUse">
<stop stop-color="#4338CA"/>
<stop offset="1" stop-color="#1F1A63"/>
</linearGradient>
<linearGradient id="paint10_linear_6_3845" x1="37.4407" y1="5.22565" x2="37.3831" y2="6.72761" gradientUnits="userSpaceOnUse">
<stop stop-color="#4338CA"/>
<stop offset="1" stop-color="#1F1A63"/>
</linearGradient>
<linearGradient id="paint11_linear_6_3845" x1="37.4407" y1="5.22565" x2="37.3831" y2="6.72761" gradientUnits="userSpaceOnUse">
<stop stop-color="#4338CA"/>
<stop offset="1" stop-color="#1F1A63"/>
</linearGradient>
<linearGradient id="paint12_linear_6_3845" x1="37.4407" y1="11.2452" x2="37.3831" y2="12.7471" gradientUnits="userSpaceOnUse">
<stop stop-color="#4338CA"/>
<stop offset="1" stop-color="#1F1A63"/>
</linearGradient>
<linearGradient id="paint13_linear_6_3845" x1="37.4407" y1="11.2452" x2="37.3831" y2="12.7471" gradientUnits="userSpaceOnUse">
<stop stop-color="#4338CA"/>
<stop offset="1" stop-color="#1F1A63"/>
</linearGradient>
<linearGradient id="paint14_linear_6_3845" x1="46.2401" y1="17.2628" x2="46.1977" y2="18.7657" gradientUnits="userSpaceOnUse">
<stop stop-color="#4338CA"/>
<stop offset="1" stop-color="#1F1A63"/>
</linearGradient>
<linearGradient id="paint15_linear_6_3845" x1="46.2401" y1="17.2628" x2="46.1977" y2="18.7657" gradientUnits="userSpaceOnUse">
<stop stop-color="#4338CA"/>
<stop offset="1" stop-color="#1F1A63"/>
</linearGradient>
<linearGradient id="paint16_linear_6_3845" x1="46.2401" y1="23.2862" x2="46.1977" y2="24.7892" gradientUnits="userSpaceOnUse">
<stop stop-color="#4338CA"/>
<stop offset="1" stop-color="#1F1A63"/>
</linearGradient>
<linearGradient id="paint17_linear_6_3845" x1="46.2401" y1="23.2862" x2="46.1977" y2="24.7892" gradientUnits="userSpaceOnUse">
<stop stop-color="#4338CA"/>
<stop offset="1" stop-color="#1F1A63"/>
</linearGradient>
</defs>
</svg>
