<svg width="75" height="74" viewBox="0 0 75 74" fill="none" xmlns="http://www.w3.org/2000/svg">
<path d="M43.1541 31.2362C43.1541 30.9352 43.0346 30.6466 42.8218 30.4338C42.6089 30.2209 42.3203 30.1014 42.0193 30.1014H32.2521V19.8802C32.2284 19.5945 32.0981 19.3281 31.8872 19.134C31.6762 18.9398 31.4 18.832 31.1133 18.832C30.8266 18.832 30.5504 18.9398 30.3395 19.134C30.1286 19.3281 29.9983 19.5945 29.9746 19.8802V31.2362C29.9746 31.3859 30.0042 31.5341 30.0617 31.6723C30.1193 31.8105 30.2035 31.9359 30.3098 32.0414C30.416 32.1469 30.542 32.2303 30.6806 32.2869C30.8192 32.3434 30.9676 32.372 31.1173 32.371H42.0193C42.3203 32.371 42.6089 32.2514 42.8218 32.0386C43.0346 31.8258 43.1541 31.5372 43.1541 31.2362Z" fill="url(#paint0_linear_6_3864)"/>
<path d="M61.9689 36.5173C62.267 34.7695 62.4188 32.9998 62.4228 31.2267C62.426 24.786 60.4365 18.5021 56.7273 13.2367C53.0181 7.97134 47.7709 3.9824 41.7051 1.81695C35.6394 -0.348491 29.0523 -0.584381 22.8472 1.14163C16.6421 2.86765 11.1229 6.47104 7.04659 11.4576C2.97026 16.4442 0.536429 22.5697 0.0788785 28.9941C-0.378672 35.4185 1.16247 41.8271 4.49094 47.3411C7.8194 52.855 12.7722 57.2043 18.67 59.7922C24.5679 62.3802 31.1219 63.0803 37.4333 61.7963C38.6525 64.7281 40.5807 67.3113 43.0448 69.3139C45.5089 71.3164 48.4317 72.6757 51.5508 73.2698C54.67 73.8638 57.8878 73.6739 60.9155 72.7172C63.9431 71.7604 66.6858 70.0668 68.8972 67.7884C71.1087 65.5099 72.7197 62.7179 73.5856 59.6631C74.4516 56.6082 74.5453 53.3861 73.8585 50.2861C73.1717 47.1861 71.7257 44.3051 69.6505 41.9019C67.5753 39.4987 64.9358 37.6485 61.9689 36.5173ZM31.2271 60.145C25.3128 60.1435 19.5413 58.3282 14.6911 54.9439C9.84082 51.5596 6.1452 46.7692 4.1027 41.2188C2.06021 35.6684 1.76912 29.6252 3.2687 23.9042C4.76827 18.1832 7.98636 13.0598 12.4889 9.22499C16.9914 5.3902 22.5617 3.02856 28.4484 2.45863C34.3351 1.8887 40.2551 3.1379 45.4096 6.03774C50.5641 8.93758 54.7053 13.3485 57.2745 18.6756C59.8437 24.0026 60.7173 29.9895 59.7775 35.8286C58.7785 35.5766 57.7601 35.4091 56.7331 35.3277C56.9535 33.9719 57.0634 32.6003 57.0618 31.2267C57.0618 26.1186 55.547 21.1253 52.7092 16.8781C49.8713 12.6308 45.8377 9.32055 41.1184 7.36578C36.3992 5.411 31.2062 4.89954 26.1963 5.89608C21.1864 6.89262 16.5845 9.35239 12.9725 12.9643C9.36057 16.5763 6.9008 21.1782 5.90426 26.1881C4.90773 31.1981 5.41919 36.391 7.37396 41.1102C9.32874 45.8295 12.639 49.8631 16.8862 52.701C21.1334 55.5389 26.1268 57.0536 31.2349 57.0536C32.8658 57.0514 34.4929 56.8968 36.095 56.5918C36.2087 57.6085 36.4076 58.6138 36.6898 59.5971C34.8908 59.955 33.0614 60.1385 31.2271 60.145ZM35.962 54.3222C34.7779 54.5648 33.577 54.7166 32.3697 54.7761V48.6403C32.346 48.3546 32.2158 48.0882 32.0048 47.8941C31.7939 47.6999 31.5177 47.5921 31.231 47.5921C30.9443 47.5921 30.6681 47.6999 30.4571 47.8941C30.2462 48.0882 30.1159 48.3546 30.0922 48.6403V54.8153C24.2348 54.5246 18.6952 52.0644 14.5519 47.9139C10.4086 43.7634 7.95813 38.2195 7.67764 32.3615H13.8135C14.1145 32.3615 14.4031 32.242 14.6159 32.0291C14.8287 31.8163 14.9483 31.5277 14.9483 31.2267C14.9483 30.9257 14.8287 30.6371 14.6159 30.4243C14.4031 30.2114 14.1145 30.0919 13.8135 30.0919H7.67764C7.96819 24.2357 10.4272 18.6972 14.5761 14.554C18.725 10.4109 24.267 7.95965 30.1235 7.67729V13.8131C30.1473 14.0988 30.2775 14.3652 30.4884 14.5594C30.6994 14.7535 30.9756 14.8613 31.2623 14.8613C31.549 14.8613 31.8252 14.7535 32.0361 14.5594C32.2471 14.3652 32.3773 14.0988 32.401 13.8131V7.67729C38.2451 7.9766 43.7699 10.4353 47.9041 14.5768C52.0383 18.7182 54.4874 24.2473 54.7765 30.0919H48.6406C48.3397 30.0919 48.051 30.2114 47.8382 30.4243C47.6254 30.6371 47.5058 30.9257 47.5058 31.2267C47.5058 31.5277 47.6254 31.8163 47.8382 32.0291C48.051 32.242 48.3397 32.3615 48.6406 32.3615H54.7765C54.7258 33.33 54.616 34.2944 54.4478 35.2494C49.5009 35.4291 44.815 37.5142 41.3698 41.0688C37.9247 44.6233 35.987 49.3721 35.962 54.3222ZM55.1678 71.321C51.8242 71.3287 48.5535 70.3443 45.7697 68.4924C42.9858 66.6404 40.814 64.0042 39.5291 60.9173C38.2442 57.8305 37.904 54.4318 38.5515 51.1515C39.1991 47.8713 40.8053 44.8568 43.1668 42.4898C45.5283 40.1228 48.539 38.5096 51.8178 37.8545C55.0966 37.1993 58.496 37.5317 61.5858 38.8094C64.6756 40.0871 67.3169 42.2528 69.1753 45.0324C71.0337 47.8119 72.0257 51.0804 72.0257 54.4239C72.0216 58.8973 70.2454 63.1868 67.086 66.3536C63.9265 69.5204 59.6411 71.3065 55.1678 71.321Z" fill="url(#paint1_linear_6_3864)"/>
<path d="M55.1702 39.9454C52.3068 39.9376 49.5055 40.7795 47.1208 42.3646C44.7361 43.9496 42.8752 46.2064 41.7737 48.8495C40.6722 51.4926 40.3796 54.403 40.9329 57.2124C41.4862 60.0219 42.8605 62.604 44.882 64.632C46.9034 66.66 49.4811 68.0428 52.2887 68.6052C55.0963 69.1676 58.0077 68.8844 60.6543 67.7915C63.3009 66.6986 65.5638 64.8451 67.1566 62.4656C68.7493 60.086 69.6004 57.2875 69.6019 54.4241C69.6019 50.5922 68.083 46.9166 65.3778 44.2026C62.6727 41.4887 59.002 39.9578 55.1702 39.9454ZM55.1702 66.6018C52.7562 66.6096 50.3943 65.9006 48.3836 64.5648C46.3729 63.229 44.804 61.3265 43.8756 59.0982C42.9471 56.8699 42.701 54.4162 43.1683 52.0479C43.6356 49.6796 44.7954 47.5033 46.5007 45.7948C48.206 44.0862 50.38 42.9222 52.7474 42.4503C55.1148 41.9784 57.569 42.2198 59.799 43.144C62.0291 44.0681 63.9347 45.6334 65.2744 47.6415C66.614 49.6496 67.3275 52.0101 67.3245 54.4241C67.3204 57.6499 66.0397 60.7431 63.7624 63.0278C61.485 65.3125 58.396 66.603 55.1702 66.6175V66.6018Z" fill="url(#paint2_linear_6_3864)"/>
<path d="M62.6427 48.0762L52.3589 58.36L47.6161 53.6172L46.0117 55.2294L52.3589 61.5766L64.2549 49.6884L62.6427 48.0762Z" fill="url(#paint3_linear_6_3864)"/>
<defs>
<linearGradient id="paint0_linear_6_3864" x1="40.7167" y1="21.6042" x2="31.9345" y2="30.2471" gradientUnits="userSpaceOnUse">
<stop stop-color="#4338CA"/>
<stop offset="1" stop-color="#1F1A63"/>
</linearGradient>
<linearGradient id="paint1_linear_6_3864" x1="60.5691" y1="15.0715" x2="12.8262" y2="63.8003" gradientUnits="userSpaceOnUse">
<stop stop-color="#4338CA"/>
<stop offset="1" stop-color="#1F1A63"/>
</linearGradient>
<linearGradient id="paint2_linear_6_3864" x1="64.2494" y1="45.8712" x2="45.4748" y2="64.852" gradientUnits="userSpaceOnUse">
<stop stop-color="#4338CA"/>
<stop offset="1" stop-color="#1F1A63"/>
</linearGradient>
<linearGradient id="paint3_linear_6_3864" x1="60.881" y1="50.8404" x2="52.5323" y2="62.2459" gradientUnits="userSpaceOnUse">
<stop stop-color="#4338CA"/>
<stop offset="1" stop-color="#1F1A63"/>
</linearGradient>
</defs>
</svg>
