<svg width="63" height="63" viewBox="0 0 63 63" fill="none" xmlns="http://www.w3.org/2000/svg">
<path fill-rule="evenodd" clip-rule="evenodd" d="M1.77051 45.4313H60.6377V1.79104H1.77051V45.4313ZM61.4478 47.0705H0.960449C0.513322 47.0705 0.150391 46.7046 0.150391 46.2517V0.970703C0.150391 0.517795 0.513202 0.150391 0.960409 0.150391H61.4478C61.8948 0.150391 62.2577 0.517835 62.2577 0.970703L62.2578 46.2516C62.2578 46.7044 61.8948 47.0706 61.4478 47.0705Z" fill="url(#paint0_linear_6_3869)" stroke="url(#paint1_linear_6_3869)" stroke-width="0.3"/>
<path fill-rule="evenodd" clip-rule="evenodd" d="M5.9366 41.2111H56.4696V6.01174H5.9366V41.2111ZM57.2797 42.8517H5.12654C4.67942 42.8517 4.31641 42.4844 4.31641 42.0315L4.31649 5.19141C4.31649 4.73866 4.67926 4.37121 5.1265 4.37121L57.2798 4.37109C57.7269 4.37109 58.0897 4.7387 58.0897 5.19153L58.0898 42.0314C58.0898 42.4843 57.7268 42.8518 57.2797 42.8517Z" fill="url(#paint2_linear_6_3869)" stroke="url(#paint3_linear_6_3869)" stroke-width="0.3"/>
<path fill-rule="evenodd" clip-rule="evenodd" d="M20.9047 57.3894C20.8411 57.3894 20.7764 57.3823 20.7117 57.3667C20.2772 57.2598 20.0114 56.8155 20.1168 56.3754L22.5878 46.0588C22.6935 45.6172 23.1321 45.3482 23.5666 45.455C24.0013 45.5618 24.2684 46.0047 24.1629 46.4448L21.6907 56.7627C21.6005 57.1373 21.2686 57.3895 20.9047 57.3894ZM41.502 57.3894C41.1362 57.3894 40.8057 57.1374 40.7157 56.7628L38.2435 46.4448C38.1381 46.0047 38.4051 45.5619 38.8396 45.4551C39.2744 45.3481 39.713 45.6174 39.8184 46.0589L42.2896 56.3754C42.395 56.8155 42.1277 57.2598 41.6931 57.3666C41.6299 57.3823 41.5651 57.3895 41.502 57.3894Z" fill="url(#paint4_linear_6_3869)" stroke="url(#paint5_linear_6_3869)" stroke-width="0.3"/>
<path fill-rule="evenodd" clip-rule="evenodd" d="M19.1359 60.38H43.2744V57.3906H19.1359V60.38ZM44.0844 62.0206H18.3259C17.8788 62.0206 17.5156 61.6532 17.5156 61.2003L17.5158 56.5703C17.5158 56.1174 17.8785 55.7501 18.3257 55.7501L44.0845 55.75C44.5319 55.75 44.8945 56.1175 44.8945 56.5704L44.8945 61.2003C44.8945 61.6531 44.5316 62.0206 44.0844 62.0206Z" fill="url(#paint6_linear_6_3869)" stroke="url(#paint7_linear_6_3869)" stroke-width="0.3"/>
<path fill-rule="evenodd" clip-rule="evenodd" d="M18.6009 16.7586C21.9101 20.6251 26.468 22.8298 31.2032 22.8298C35.9386 22.8297 40.4964 20.6252 43.8054 16.7586C40.4964 12.8921 35.9383 10.6875 31.2032 10.6875C26.4682 10.6875 21.91 12.8921 18.6009 16.7586ZM31.2033 24.4704C25.7692 24.4704 20.5613 21.8486 16.9146 17.2742C16.6744 16.9736 16.6742 16.5436 16.9146 16.2431C20.5614 11.6701 25.769 9.04688 31.2032 9.04688C36.636 9.04688 41.845 11.6701 45.4917 16.2431C45.7324 16.5436 45.7322 16.9737 45.4917 17.2742C41.845 21.8485 36.6359 24.4704 31.2033 24.4704Z" fill="url(#paint8_linear_6_3869)" stroke="url(#paint9_linear_6_3869)" stroke-width="0.3"/>
<path fill-rule="evenodd" clip-rule="evenodd" d="M31.2022 14.3241C29.8748 14.3241 28.7958 15.418 28.7958 16.7609C28.7961 18.1053 29.8746 19.1977 31.2021 19.1977C32.5283 19.1977 33.6084 18.1053 33.6084 16.7609C33.6087 15.418 32.5283 14.3242 31.2022 14.3241ZM31.2022 20.8383C28.9815 20.8383 27.1758 19.0097 27.1758 16.7609C27.176 14.5121 28.9815 12.6836 31.2021 12.6836C33.4229 12.6835 35.2285 14.5122 35.2285 16.7609C35.2288 19.0095 33.4228 20.8383 31.2022 20.8383Z" fill="url(#paint10_linear_6_3869)" stroke="url(#paint11_linear_6_3869)" stroke-width="0.3"/>
<path fill-rule="evenodd" clip-rule="evenodd" d="M43.1301 29.0391H12.0327C11.5855 29.0391 11.2227 28.6716 11.2227 28.2188C11.2229 27.7658 11.5855 27.3985 12.0327 27.3985L43.1301 27.3984C43.5772 27.3984 43.9386 27.7659 43.9386 28.2188C43.9389 28.6715 43.5772 29.0391 43.1301 29.0391Z" fill="url(#paint12_linear_6_3869)" stroke="url(#paint13_linear_6_3869)" stroke-width="0.3"/>
<path fill-rule="evenodd" clip-rule="evenodd" d="M17.6426 33.6055H12.0327C11.5855 33.6055 11.2227 33.2381 11.2227 32.7853C11.2229 32.3324 11.5855 31.965 12.0327 31.965L17.6426 31.9648C18.0913 31.9648 18.4527 32.3324 18.4527 32.7853C18.4527 33.2381 18.0912 33.6056 17.6426 33.6055ZM47.3012 33.6055H23.9586C23.5115 33.6055 23.1485 33.2381 23.1485 32.7853C23.1485 32.3324 23.5114 31.965 23.9586 31.965L47.3012 31.9648C47.7486 31.9648 48.1112 32.3324 48.1112 32.7853C48.1113 33.2381 47.7484 33.6056 47.3012 33.6055Z" fill="url(#paint14_linear_6_3869)" stroke="url(#paint15_linear_6_3869)" stroke-width="0.3"/>
<path fill-rule="evenodd" clip-rule="evenodd" d="M50.3757 38.1758H12.0327C11.5855 38.1758 11.2227 37.8084 11.2227 37.3556C11.2229 36.9025 11.5855 36.5352 12.0327 36.5352L50.3757 36.5352C50.8228 36.5352 51.1856 36.9026 51.1856 37.3556C51.1857 37.8084 50.8227 38.1758 50.3757 38.1758Z" fill="url(#paint16_linear_6_3869)" stroke="url(#paint17_linear_6_3869)" stroke-width="0.3"/>
<defs>
<linearGradient id="paint0_linear_6_3869" x1="50.7716" y1="9.75744" x2="21.5802" y2="48.8219" gradientUnits="userSpaceOnUse">
<stop stop-color="#4338CA"/>
<stop offset="1" stop-color="#1F1A63"/>
</linearGradient>
<linearGradient id="paint1_linear_6_3869" x1="50.7716" y1="9.75744" x2="21.5802" y2="48.8219" gradientUnits="userSpaceOnUse">
<stop stop-color="#4338CA"/>
<stop offset="1" stop-color="#1F1A63"/>
</linearGradient>
<linearGradient id="paint2_linear_6_3869" x1="48.1449" y1="12.2501" x2="24.6005" y2="45.5127" gradientUnits="userSpaceOnUse">
<stop stop-color="#4338CA"/>
<stop offset="1" stop-color="#1F1A63"/>
</linearGradient>
<linearGradient id="paint3_linear_6_3869" x1="48.1449" y1="12.2501" x2="24.6005" y2="45.5127" gradientUnits="userSpaceOnUse">
<stop stop-color="#4338CA"/>
<stop offset="1" stop-color="#1F1A63"/>
</linearGradient>
<linearGradient id="paint4_linear_6_3869" x1="38.2034" y1="47.88" x2="31.7679" y2="59.9692" gradientUnits="userSpaceOnUse">
<stop stop-color="#4338CA"/>
<stop offset="1" stop-color="#1F1A63"/>
</linearGradient>
<linearGradient id="paint5_linear_6_3869" x1="38.2034" y1="47.88" x2="31.7679" y2="59.9692" gradientUnits="userSpaceOnUse">
<stop stop-color="#4338CA"/>
<stop offset="1" stop-color="#1F1A63"/>
</linearGradient>
<linearGradient id="paint6_linear_6_3869" x1="39.831" y1="57.0339" x2="38.0779" y2="64.7728" gradientUnits="userSpaceOnUse">
<stop stop-color="#4338CA"/>
<stop offset="1" stop-color="#1F1A63"/>
</linearGradient>
<linearGradient id="paint7_linear_6_3869" x1="39.831" y1="57.0339" x2="38.0779" y2="64.7728" gradientUnits="userSpaceOnUse">
<stop stop-color="#4338CA"/>
<stop offset="1" stop-color="#1F1A63"/>
</linearGradient>
<linearGradient id="paint8_linear_6_3869" x1="40.3204" y1="12.2049" x2="32.0647" y2="27.8643" gradientUnits="userSpaceOnUse">
<stop stop-color="#4338CA"/>
<stop offset="1" stop-color="#1F1A63"/>
</linearGradient>
<linearGradient id="paint9_linear_6_3869" x1="40.3204" y1="12.2049" x2="32.0647" y2="27.8643" gradientUnits="userSpaceOnUse">
<stop stop-color="#4338CA"/>
<stop offset="1" stop-color="#1F1A63"/>
</linearGradient>
<linearGradient id="paint10_linear_6_3869" x1="33.7392" y1="14.3533" x2="28.4489" y2="19.6348" gradientUnits="userSpaceOnUse">
<stop stop-color="#4338CA"/>
<stop offset="1" stop-color="#1F1A63"/>
</linearGradient>
<linearGradient id="paint11_linear_6_3869" x1="33.7392" y1="14.3533" x2="28.4489" y2="19.6348" gradientUnits="userSpaceOnUse">
<stop stop-color="#4338CA"/>
<stop offset="1" stop-color="#1F1A63"/>
</linearGradient>
<linearGradient id="paint12_linear_6_3869" x1="37.8881" y1="27.7344" x2="37.7828" y2="29.8578" gradientUnits="userSpaceOnUse">
<stop stop-color="#4338CA"/>
<stop offset="1" stop-color="#1F1A63"/>
</linearGradient>
<linearGradient id="paint13_linear_6_3869" x1="37.8881" y1="27.7344" x2="37.7828" y2="29.8578" gradientUnits="userSpaceOnUse">
<stop stop-color="#4338CA"/>
<stop offset="1" stop-color="#1F1A63"/>
</linearGradient>
<linearGradient id="paint14_linear_6_3869" x1="41.289" y1="32.3008" x2="41.1955" y2="34.4253" gradientUnits="userSpaceOnUse">
<stop stop-color="#4338CA"/>
<stop offset="1" stop-color="#1F1A63"/>
</linearGradient>
<linearGradient id="paint15_linear_6_3869" x1="41.289" y1="32.3008" x2="41.1955" y2="34.4253" gradientUnits="userSpaceOnUse">
<stop stop-color="#4338CA"/>
<stop offset="1" stop-color="#1F1A63"/>
</linearGradient>
<linearGradient id="paint16_linear_6_3869" x1="43.7948" y1="36.8711" x2="43.7085" y2="38.9963" gradientUnits="userSpaceOnUse">
<stop stop-color="#4338CA"/>
<stop offset="1" stop-color="#1F1A63"/>
</linearGradient>
<linearGradient id="paint17_linear_6_3869" x1="43.7948" y1="36.8711" x2="43.7085" y2="38.9963" gradientUnits="userSpaceOnUse">
<stop stop-color="#4338CA"/>
<stop offset="1" stop-color="#1F1A63"/>
</linearGradient>
</defs>
</svg>
