<svg width="71" height="70" viewBox="0 0 71 70" fill="none" xmlns="http://www.w3.org/2000/svg">
<path d="M20.2826 26.3599C20.2825 26.3686 20.2812 26.3771 20.2812 26.3857V43.4924C20.338 51.1917 49.6752 51.1913 49.7318 43.4924V26.3857C49.7318 26.3807 49.731 26.3766 49.7309 26.3716C49.636 18.6928 20.4015 18.6936 20.2826 26.3599ZM47.6953 37.7902C47.6953 39.3214 42.7523 41.5455 35.0065 41.5455C27.2608 41.5455 22.3178 39.3214 22.3178 37.7902V35.179C27.7483 38.7718 42.2649 38.7718 47.6953 35.179V37.7902ZM47.6953 32.088C47.6953 33.6191 42.7523 35.8433 35.0065 35.8433C27.2608 35.8433 22.3178 33.6191 22.3178 32.088V29.4755C27.7478 33.0685 42.2653 33.0685 47.6953 29.4755V32.088ZM35.0065 47.2477C27.2608 47.2477 22.3178 45.0236 22.3178 43.4924V40.8812C27.7483 44.474 42.2649 44.474 47.6953 40.8812V43.4924C47.6953 45.0236 42.7523 47.2477 35.0065 47.2477ZM35.0065 22.6304C42.7521 22.6304 47.6948 24.8543 47.6948 26.3852C47.6948 27.9161 42.7521 30.14 35.0065 30.14C27.261 30.14 22.3183 27.9161 22.3183 26.3852C22.3183 24.8543 27.261 22.6304 35.0065 22.6304Z" fill="url(#paint0_linear_6_4310)" stroke="url(#paint1_linear_6_4310)" stroke-width="0.5"/>
<path d="M39.2449 55.6108C16.4947 59.9105 4.25431 30.3565 23.3764 17.333C23.8454 17.0227 23.9739 16.3909 23.6637 15.9219C23.3532 15.4529 22.7215 15.3242 22.2526 15.6346C21.2291 16.3118 20.2709 17.0616 19.3822 17.8743L16.7183 15.2104C19.3853 11.4846 16.601 6.10236 11.9845 6.14676C8.80292 6.14676 6.21452 8.73516 6.21452 11.9169C6.17067 16.5332 11.5522 19.3179 15.2782 16.6505L17.9414 19.3139C14.2997 23.2854 12.1357 28.4335 11.8964 33.9202H8.95498C7.65609 28.8974 0.375177 29.6987 0.25 34.9387C0.37572 40.1798 7.65704 40.979 8.95498 35.9569H11.8953C12.1397 41.5692 14.3922 46.6688 17.9516 50.5533L15.2783 53.2266C11.5525 50.5596 6.17026 53.3439 6.21466 57.9604C6.21466 61.1419 8.80305 63.7303 11.9848 63.7303C16.6011 63.7742 19.3858 58.3927 16.7184 54.6667L19.3917 51.9934C23.2761 55.5528 28.3758 57.8053 33.9881 58.0497V60.99C28.9651 62.2889 29.7663 69.5698 35.0064 69.695C40.2474 69.5693 41.0467 62.2879 36.0246 60.99V58.0497C37.2478 57.9965 38.464 57.8488 39.6525 57.606C40.2035 57.4935 40.559 56.9556 40.4464 56.4045C40.3337 55.8538 39.7952 55.4986 39.2449 55.6108ZM8.25116 11.917C8.25116 9.85836 9.92612 8.1834 11.9848 8.1834C16.931 8.37117 16.9297 15.4635 11.9848 15.6506C9.92612 15.6506 8.25116 13.9756 8.25116 11.917ZM4.66243 37.3145C3.35241 37.3145 2.28651 36.2486 2.28651 34.9386C2.40598 31.791 6.91942 31.7918 7.03835 34.9386C7.03835 36.2486 5.97245 37.3145 4.66243 37.3145ZM11.9848 61.6938C9.92612 61.6938 8.25116 60.0189 8.25116 57.9602C8.43893 53.014 15.5313 53.0153 15.7184 57.9602C15.7184 60.0189 14.0434 61.6938 11.9848 61.6938ZM37.3823 65.2826C37.3823 66.5926 36.3164 67.6585 35.0064 67.6585C31.8587 67.539 31.8596 63.0256 35.0064 62.9066C36.3164 62.9066 37.3823 63.9725 37.3823 65.2826Z" fill="url(#paint2_linear_6_4310)" stroke="url(#paint3_linear_6_4310)" stroke-width="0.5"/>
<path d="M65.3508 30.5261C63.2682 30.5261 61.5193 31.9767 61.0582 33.9202H58.1179C57.8735 28.3079 55.621 23.2083 52.0616 19.3238L54.7349 16.6505C58.4607 19.3175 63.8429 16.5332 63.7985 11.9167C63.7985 8.73517 61.2101 6.14677 58.0284 6.14677C53.4121 6.10292 50.6274 11.4845 53.2948 15.2104L50.6215 17.8837C46.7371 14.3243 41.6374 12.0718 36.0251 11.8274V8.95498C41.048 7.65609 40.2469 0.375177 35.0068 0.25C29.7658 0.37572 28.9665 7.65704 33.9886 8.95498V11.8262C31.4731 11.9348 29.0168 12.4458 26.6733 13.3506C26.1487 13.5531 25.8876 14.1426 26.09 14.6672C26.2926 15.1918 26.882 15.4532 27.4067 15.2505C40.9105 9.82294 56.3118 20.3651 56.1049 34.9386C56.105 43.2674 51.1869 50.8374 43.5752 54.2238C43.0615 54.4524 42.8303 55.0543 43.0588 55.568C43.2878 56.0872 43.9015 56.3111 44.403 56.0845C46.7246 55.0516 48.8173 53.6632 50.6294 52.0012L53.2946 54.6664C50.6276 58.3923 53.4119 63.7745 58.0284 63.7301C61.21 63.7301 63.7984 61.1417 63.7984 57.96C63.8422 53.3436 58.4607 50.5589 54.7347 53.2263L52.0681 50.5597C55.6769 46.612 57.8757 41.4639 58.118 35.9566H61.0579C62.3574 40.9803 69.6377 40.1777 69.7629 34.9384C69.7632 32.5054 67.7838 30.5261 65.3508 30.5261ZM58.0284 8.18328C60.0871 8.18328 61.762 9.85824 61.762 11.9169C61.5743 16.8631 54.4819 16.8618 54.2948 11.9169C54.2948 9.85824 55.9698 8.18328 58.0284 8.18328ZM32.6309 4.66243C32.6309 3.35241 33.6968 2.28651 35.0068 2.28651C38.1544 2.40598 38.1536 6.91942 35.0068 7.03835C33.6968 7.03835 32.6309 5.97245 32.6309 4.66243ZM61.762 57.9601C61.762 60.0187 60.0871 61.6937 58.0284 61.6937C53.0822 61.5059 53.0835 54.4136 58.0284 54.2265C60.0871 54.2265 61.762 55.9015 61.762 57.9601ZM65.3508 37.3144C64.0407 37.3144 62.9748 36.2485 62.9748 34.9385C63.0943 31.7909 67.6077 31.7917 67.7267 34.9385C67.7267 36.2485 66.6608 37.3144 65.3508 37.3144Z" fill="url(#paint4_linear_6_4310)" stroke="url(#paint5_linear_6_4310)" stroke-width="0.5"/>
<defs>
<linearGradient id="paint0_linear_6_4310" x1="44.2852" y1="26.4786" x2="25.7089" y2="45.7801" gradientUnits="userSpaceOnUse">
<stop stop-color="#4338CA"/>
<stop offset="1" stop-color="#1F1A63"/>
</linearGradient>
<linearGradient id="paint1_linear_6_4310" x1="44.2852" y1="26.4786" x2="25.7089" y2="45.7801" gradientUnits="userSpaceOnUse">
<stop stop-color="#4338CA"/>
<stop offset="1" stop-color="#1F1A63"/>
</linearGradient>
<linearGradient id="paint2_linear_6_4310" x1="33.0294" y1="19.1582" x2="-4.40206" y2="43.1072" gradientUnits="userSpaceOnUse">
<stop stop-color="#4338CA"/>
<stop offset="1" stop-color="#1F1A63"/>
</linearGradient>
<linearGradient id="paint3_linear_6_4310" x1="33.0294" y1="19.1582" x2="-4.40206" y2="43.1072" gradientUnits="userSpaceOnUse">
<stop stop-color="#4338CA"/>
<stop offset="1" stop-color="#1F1A63"/>
</linearGradient>
<linearGradient id="paint4_linear_6_4310" x1="61.6733" y1="13.2478" x2="23.0429" y2="40.1585" gradientUnits="userSpaceOnUse">
<stop stop-color="#4338CA"/>
<stop offset="1" stop-color="#1F1A63"/>
</linearGradient>
<linearGradient id="paint5_linear_6_4310" x1="61.6733" y1="13.2478" x2="23.0429" y2="40.1585" gradientUnits="userSpaceOnUse">
<stop stop-color="#4338CA"/>
<stop offset="1" stop-color="#1F1A63"/>
</linearGradient>
</defs>
</svg>
