<svg width="52" height="56" viewBox="0 0 52 56" fill="none" xmlns="http://www.w3.org/2000/svg">
<path d="M32.6307 16.7691C34.1782 16.7691 35.4372 15.5101 35.4372 13.9626C35.4372 12.4151 34.1782 11.1562 32.6307 11.1562C31.0832 11.1562 29.8242 12.4152 29.8242 13.9626C29.8242 15.5101 31.0832 16.7691 32.6307 16.7691ZM32.6307 12.7856C33.2798 12.7856 33.8078 13.3136 33.8078 13.9625C33.8078 14.6116 33.2798 15.1396 32.6307 15.1396C31.9817 15.1396 31.4536 14.6116 31.4536 13.9625C31.4536 13.3136 31.9817 12.7856 32.6307 12.7856Z" fill="url(#paint0_linear_6_4323)"/>
<path d="M48.6169 25.9255H48.4589V21.3471C48.4589 20.8972 48.0941 20.5324 47.6442 20.5324C47.1942 20.5324 46.8295 20.8972 46.8295 21.3471V25.9255H44.4392V9.90638C44.4392 9.03779 43.7326 8.33128 42.864 8.33128H18.8543C17.9858 8.33128 17.2791 9.0379 17.2791 9.90638V21.4651C16.8208 20.8856 16.1216 20.5391 15.3645 20.5391H14.8889V6.973C14.8889 6.40391 15.352 5.94083 15.9211 5.94083H45.7975C46.3666 5.94083 46.8297 6.40391 46.8297 6.973V17.5451C46.8297 17.995 47.1944 18.3598 47.6444 18.3598C48.0943 18.3598 48.4591 17.995 48.4591 17.5451V6.973C48.4591 5.50545 47.265 4.31142 45.7975 4.31142H42.9158V2.66159C42.9156 1.19403 41.7217 0 40.2541 0C39.6506 0 5.95908 0 5.14231 0C3.67475 0 2.48072 1.19403 2.48072 2.66159V20.539H2.44433C1.09648 20.539 0 21.6355 0 22.9834V36.5875C0 37.0375 0.364771 37.4022 0.814705 37.4022C1.26464 37.4022 1.62941 37.0375 1.62941 36.5875V22.9835C1.62941 22.5341 1.99494 22.1686 2.44433 22.1686H15.3644C15.6687 22.1686 15.9454 22.3361 16.0864 22.6057L18.4474 27.1179C18.5881 27.3869 18.8664 27.5549 19.1694 27.5549H48.617C49.3659 27.5549 49.9752 28.1641 49.9752 28.913V52.6297C49.9752 53.3786 49.3659 53.9878 48.617 53.9878H2.98758C2.2387 53.9878 1.62941 53.3786 1.62941 52.6297V40.3913C1.62941 39.9414 1.26464 39.5766 0.814705 39.5766C0.364771 39.5766 0 39.9414 0 40.3913V52.6297C0 54.2771 1.34024 55.6172 2.98758 55.6172H48.617C50.2644 55.6172 51.6046 54.2771 51.6046 52.6297V28.913C51.6045 27.2657 50.2643 25.9255 48.6169 25.9255ZM4.11013 2.66159C4.11013 2.09238 4.57321 1.62941 5.14231 1.62941H7.92436C7.79032 1.94682 7.71612 2.3029 7.71612 2.66159V20.539H4.11013V2.66159ZM9.34543 2.66159C9.34543 2.09238 9.8085 1.62941 10.3776 1.62941H40.254C40.8231 1.62941 41.2862 2.09249 41.2862 2.66159V4.31142H15.921C14.4534 4.31142 13.2594 5.50545 13.2594 6.973V20.539H9.34553L9.34543 2.66159ZM42.8098 9.96058V25.9254H42.7555L38.3256 18.5891C37.4198 17.0889 35.2466 17.0922 34.3427 18.5891L32.0038 22.4627L28.0421 15.902C27.1364 14.4019 24.9633 14.4047 24.0593 15.902L18.9083 24.4326V9.96058H42.8098ZM25.4543 16.7441C25.7256 16.2949 26.3765 16.2954 26.6474 16.7441C27.3217 17.8609 31.5039 24.787 32.1913 25.9254H19.9104L25.4543 16.7441ZM34.0947 25.9255L32.9556 24.039L35.7377 19.4315C36.009 18.9822 36.6599 18.9827 36.9308 19.4315L40.8521 25.9255H34.0947Z" fill="url(#paint1_linear_6_4323)"/>
<defs>
<linearGradient id="paint0_linear_6_4323" x1="34.3991" y1="12.3055" x2="30.758" y2="15.9867" gradientUnits="userSpaceOnUse">
<stop stop-color="#4338CA"/>
<stop offset="1" stop-color="#1F1A63"/>
</linearGradient>
<linearGradient id="paint1_linear_6_4323" x1="42.0608" y1="11.3878" x2="6.05325" y2="45.1644" gradientUnits="userSpaceOnUse">
<stop stop-color="#4338CA"/>
<stop offset="1" stop-color="#1F1A63"/>
</linearGradient>
</defs>
</svg>
