<svg width="83" height="82" viewBox="0 0 83 82" fill="none" xmlns="http://www.w3.org/2000/svg">
<path d="M70.6677 36.1679C72.1682 34.3172 73.0695 31.962 73.0695 29.3994C73.0695 23.4627 68.2396 18.6328 62.3029 18.6328C56.3663 18.6328 51.5365 23.4627 51.5365 29.3994C51.5365 31.9636 52.439 34.3201 53.941 36.1713C52.5189 36.6248 51.1688 37.289 49.9386 38.1411C47.9964 35.3137 44.7413 33.4549 41.0593 33.4549C37.3773 33.4549 34.1224 35.3137 32.1801 38.1411C30.9499 37.2888 29.5997 36.6248 28.1776 36.1713C29.6797 34.3201 30.5822 31.9636 30.5822 29.3994C30.5822 23.4627 25.7523 18.6328 19.8158 18.6328C13.8791 18.6328 9.04918 23.4627 9.04918 29.3994C9.04918 31.962 9.95059 34.3171 11.451 36.1679C5.39698 38.099 1 43.7765 1 50.4623V63.7898C1 65.0887 2.05303 66.1417 3.35191 66.1417H22.244V78.6116C22.244 79.9104 23.2971 80.9635 24.5959 80.9635H57.5227C58.8216 80.9635 59.8746 79.9104 59.8746 78.6116V66.1417H78.7667C80.0656 66.1417 81.1186 65.0887 81.1186 63.7898V50.4623C81.1186 43.7765 76.7217 38.099 70.6677 36.1679ZM62.303 23.3366C65.646 23.3366 68.3658 26.0564 68.3658 29.3994C68.3658 32.7402 65.6493 35.4585 62.3091 35.4618H62.2971C58.9569 35.4585 56.2406 32.7402 56.2406 29.3994C56.2404 26.0564 58.96 23.3366 62.303 23.3366ZM41.0593 38.1587C44.4254 38.1587 47.1677 40.9197 47.1199 44.3107C47.071 47.6248 44.3609 50.284 41.0593 50.284C37.7055 50.284 34.9966 47.5482 34.9966 44.2215C34.9966 40.923 37.676 38.1587 41.0593 38.1587ZM19.8158 23.3366C23.1586 23.3366 25.8784 26.0564 25.8784 29.3994C25.8784 32.7402 23.1619 35.4585 19.8219 35.4618H19.8098C16.4695 35.4585 13.7532 32.7402 13.7532 29.3994C13.753 26.0564 16.4728 23.3366 19.8158 23.3366ZM5.70382 50.4623C5.70382 44.7847 10.3228 40.1657 16.0005 40.1657H23.6317C26.125 40.1657 28.5345 41.0795 30.3992 42.7042C29.9782 45.6748 30.8244 48.6857 32.6878 50.9902C27.814 52.5436 24.0461 56.513 22.7434 61.4379H15.7371V52.636C15.7371 51.3371 14.684 50.284 13.3852 50.284C12.0863 50.284 11.0333 51.3371 11.0333 52.636V61.4379H5.70382V50.4623ZM55.1708 76.2597H50.467V69.3085C50.467 68.0096 49.4139 66.9566 48.115 66.9566C46.8162 66.9566 45.7631 68.0096 45.7631 69.3085V76.2597H36.3555V69.3085C36.3555 68.0096 35.3025 66.9566 34.0036 66.9566C32.7047 66.9566 31.6517 68.0096 31.6517 69.3085V76.2597H26.9479V65.2841C26.9479 59.6291 31.5479 54.9879 37.244 54.9879H44.8746C50.5631 54.9879 55.1708 59.6208 55.1708 65.2841V76.2597ZM76.4148 61.4379H71.0854V52.636C71.0854 51.3371 70.0323 50.284 68.7335 50.284C67.4346 50.284 66.3816 51.3371 66.3816 52.636V61.4379H59.3752C58.0812 56.5455 54.3365 52.5538 49.4309 50.9902C51.2291 48.7661 52.1547 45.7759 51.7194 42.7042C53.5843 41.0795 55.9936 40.1657 58.487 40.1657H66.1181C71.7958 40.1657 76.4148 44.7847 76.4148 50.4623V61.4379Z" fill="url(#paint0_linear_6_4314)" stroke="white" stroke-width="2"/>
<path d="M28.3571 12.9181C28.8944 14.1003 30.2887 14.6237 31.4714 14.0859C32.6539 13.5484 33.1768 12.1542 32.6392 10.9716L29.5033 4.0727C28.9656 2.89016 27.5711 2.36709 26.389 2.9049C25.2065 3.44239 24.6836 4.8366 25.2212 6.01914L28.3571 12.9181Z" fill="url(#paint1_linear_6_4314)" stroke="white" stroke-width="2"/>
<path d="M50.6468 14.0858C51.8308 14.6238 53.2242 14.0993 53.7611 12.918L56.897 6.01907C57.4346 4.83653 56.9117 3.44216 55.7292 2.90483C54.5465 2.36718 53.1523 2.89009 52.6149 4.07263L49.479 10.9716C48.9414 12.1541 49.4643 13.5483 50.6468 14.0858Z" fill="url(#paint2_linear_6_4314)" stroke="white" stroke-width="2"/>
<path d="M41.0589 12.5766C42.3578 12.5766 43.4109 11.5235 43.4109 10.2247V3.35191C43.4109 2.05303 42.3578 1 41.0589 1C39.7601 1 38.707 2.05303 38.707 3.35191V10.2247C38.707 11.5235 39.7601 12.5766 41.0589 12.5766Z" fill="url(#paint3_linear_6_4314)" stroke="white" stroke-width="2"/>
<defs>
<linearGradient id="paint0_linear_6_4314" x1="66.3014" y1="31.3952" x2="27.2139" y2="82.1893" gradientUnits="userSpaceOnUse">
<stop stop-color="#4338CA"/>
<stop offset="1" stop-color="#1F1A63"/>
</linearGradient>
<linearGradient id="paint1_linear_6_4314" x1="31.4005" y1="5.06932" x2="24.3879" y2="9.8598" gradientUnits="userSpaceOnUse">
<stop stop-color="#4338CA"/>
<stop offset="1" stop-color="#1F1A63"/>
</linearGradient>
<linearGradient id="paint2_linear_6_4314" x1="55.6583" y1="5.06929" x2="48.6458" y2="9.85979" gradientUnits="userSpaceOnUse">
<stop stop-color="#4338CA"/>
<stop offset="1" stop-color="#1F1A63"/>
</linearGradient>
<linearGradient id="paint3_linear_6_4314" x1="42.5409" y1="3.37034" x2="37.2616" y2="5.53899" gradientUnits="userSpaceOnUse">
<stop stop-color="#4338CA"/>
<stop offset="1" stop-color="#1F1A63"/>
</linearGradient>
</defs>
</svg>
