<svg width="59" height="63" viewBox="0 0 59 63" fill="none" xmlns="http://www.w3.org/2000/svg">
<path d="M44.0479 55.8711H37.1866C36.6801 55.8711 36.2695 56.2817 36.2695 56.7882C36.2695 57.2946 36.6801 57.7052 37.1866 57.7052H44.0479C44.5544 57.7052 44.965 57.2946 44.965 56.7882C44.965 56.2817 44.5544 55.8711 44.0479 55.8711Z" fill="url(#paint0_linear_6_4290)"/>
<path d="M46.005 51.9492H39.1436C38.6372 51.9492 38.2266 52.3598 38.2266 52.8663C38.2266 53.3728 38.6372 53.7834 39.1436 53.7834H46.005C46.5114 53.7834 46.922 53.3728 46.922 52.8663C46.922 52.3598 46.5116 51.9492 46.005 51.9492Z" fill="url(#paint1_linear_6_4290)"/>
<path d="M4.83895 10.6564H9.73994C10.2464 10.6564 10.657 10.2458 10.657 9.73934C10.657 9.23287 10.2464 8.82227 9.73994 8.82227H4.83895C4.33248 8.82227 3.92188 9.23287 3.92188 9.73934C3.92188 10.2458 4.33248 10.6564 4.83895 10.6564Z" fill="url(#paint2_linear_6_4290)"/>
<path d="M10.6569 13.6593C10.6569 13.1528 10.2463 12.7422 9.73981 12.7422H4.83895C4.33248 12.7422 3.92188 13.1528 3.92188 13.6593C3.92188 14.1657 4.33248 14.5763 4.83895 14.5763H9.73994C10.2463 14.5763 10.6569 14.1659 10.6569 13.6593Z" fill="url(#paint3_linear_6_4290)"/>
<path d="M26.4015 10.6564H31.3024C31.8089 10.6564 32.2195 10.2458 32.2195 9.73934C32.2195 9.23287 31.8089 8.82227 31.3024 8.82227H26.4015C25.895 8.82227 25.4844 9.23287 25.4844 9.73934C25.4844 10.2458 25.895 10.6564 26.4015 10.6564Z" fill="url(#paint4_linear_6_4290)"/>
<path d="M32.2195 13.6593C32.2195 13.1528 31.8089 12.7422 31.3024 12.7422H26.4015C25.895 12.7422 25.4844 13.1528 25.4844 13.6593C25.4844 14.1657 25.895 14.5763 26.4015 14.5763H31.3024C31.8089 14.5763 32.2195 14.1659 32.2195 13.6593Z" fill="url(#paint5_linear_6_4290)"/>
<path d="M58.4165 5.1695L53.5155 0.268643C53.3436 0.0965988 53.1103 0 52.8671 0H45.0256C43.9794 0 43.1282 0.851048 43.1282 1.89725V17.5802C43.1282 18.6265 43.9794 19.4775 45.0256 19.4775H49.9896V22.4811C49.9896 23.0564 49.5216 23.5244 48.9464 23.5244H32.0693C31.7827 22.6744 31.1096 22.0014 30.2596 21.7147V19.4774H35.2237C36.2699 19.4774 37.121 18.6263 37.121 17.5801V5.81806C37.121 5.57485 37.0244 5.34155 36.8523 5.16963L31.9513 0.268643C31.7794 0.0965988 31.5461 0 31.3029 0H23.4614C22.4152 0 21.5642 0.851048 21.5642 1.89725V17.5802C21.5642 18.6265 22.4152 19.4775 23.4614 19.4775H28.4255V21.7148C27.5755 22.0014 26.9025 22.6746 26.6158 23.5245H9.73875C9.16344 23.5245 8.69548 23.0564 8.69548 22.4812V19.4776H13.6596C14.7058 19.4776 15.5569 18.6266 15.5569 17.5804V5.81806C15.5569 5.57485 15.4603 5.34155 15.2883 5.16963L10.3872 0.268643C10.2153 0.0965988 9.98208 0 9.73875 0H1.89725C0.851048 0 0 0.851048 0 1.89725V17.5802C0 18.6265 0.851048 19.4775 1.89725 19.4775H6.86133V22.4811C6.86133 24.0678 8.15221 25.3585 9.73875 25.3585H26.6158C26.9024 26.2085 27.5755 26.8815 28.4255 27.1682V33.3178C27.951 33.2774 27.51 33.0743 27.1695 32.7335L24.9712 30.5354C24.2426 29.8068 23.2738 29.4055 22.2434 29.4055H13.6594C11.5323 29.4055 9.80185 31.136 9.80185 33.2631V58.748C9.80185 60.8749 11.5319 62.6052 13.6587 62.6056H13.6591H45.8465C47.5096 62.6056 48.9802 61.5455 49.5063 59.9678L56.2475 39.7442C56.4399 39.1671 56.3424 38.5283 55.9868 38.0349C55.6313 37.5415 55.0558 37.2469 54.4476 37.2469H48.8832V37.1838C48.8832 35.0567 47.1527 33.3262 45.0256 33.3262H33.2631C32.7567 33.3262 32.346 33.7368 32.346 34.2433C32.346 34.7498 32.7567 35.1604 33.2631 35.1604H45.0256C46.1413 35.1604 47.049 36.068 47.049 37.1838V37.2469H30.2596V27.1681C31.1096 26.8815 31.7826 26.2084 32.0693 25.3584H48.9464C50.533 25.3584 51.8238 24.0675 51.8238 22.481V19.4774H56.7879C57.8341 19.4774 58.6851 18.6263 58.6851 17.5801V5.81806C58.6851 5.57473 58.5885 5.34155 58.4165 5.1695ZM32.22 3.13102L33.9898 4.90086H32.2831C32.2482 4.90086 32.22 4.87262 32.22 4.83777V3.13102ZM23.3983 17.5802V1.89725C23.3983 1.8624 23.4266 1.83415 23.4614 1.83415H30.3858V4.83777C30.3858 5.88397 31.2369 6.73502 32.2831 6.73502H35.2867V17.5802C35.2867 17.6151 35.2584 17.6433 35.2236 17.6433H23.4614C23.4267 17.6435 23.3983 17.6151 23.3983 17.5802ZM10.6558 3.13102L12.4257 4.90086H10.7189C10.6841 4.90086 10.6558 4.87262 10.6558 4.83777V3.13102ZM1.83415 17.5802V1.89725C1.83415 1.8624 1.8624 1.83415 1.89725 1.83415H8.82167V4.83777C8.82167 5.88397 9.67272 6.73502 10.7189 6.73502H13.7227V17.5802C13.7227 17.6151 13.6943 17.6433 13.6594 17.6433H1.89725C1.86252 17.6435 1.83415 17.6151 1.83415 17.5802ZM29.3426 23.3983C29.9173 23.3983 30.3849 23.8654 30.3857 24.4399C30.3857 24.4405 30.3856 24.4411 30.3856 24.4416C30.3856 24.4421 30.3857 24.4428 30.3857 24.4433C30.3847 25.0177 29.9171 25.4848 29.3426 25.4848C28.7672 25.4848 28.2993 25.0168 28.2993 24.4416C28.2993 23.8664 28.7672 23.3983 29.3426 23.3983ZM54.4988 39.1075C54.5177 39.1336 54.5108 39.1544 54.5075 39.1643L47.7663 59.388C47.4904 60.2155 46.719 60.7715 45.8466 60.7715H13.6596C13.086 60.7715 12.5685 60.5305 12.1999 60.1458L18.7603 40.4648C19.0362 39.6372 19.8076 39.0812 20.68 39.0812H54.4477C54.4581 39.0813 54.48 39.0813 54.4988 39.1075ZM20.68 37.2472C19.0169 37.2472 17.5463 38.3072 17.0202 39.8849L11.636 56.0375V33.2633C11.636 32.1475 12.5437 31.2398 13.6594 31.2398H22.2434C22.7839 31.2398 23.2921 31.4502 23.6742 31.8325L25.8723 34.0307C26.5595 34.718 27.4606 35.1135 28.4254 35.1563V37.2472H20.68ZM53.7841 3.13102L55.554 4.90086H53.8472C53.8124 4.90086 53.7841 4.87262 53.7841 4.83777V3.13102ZM56.7879 17.6435H45.0257C44.9908 17.6435 44.9625 17.6152 44.9625 17.5804V1.89725C44.9625 1.8624 44.9908 1.83415 45.0257 1.83415H51.9501V4.83777C51.9501 5.88397 52.8012 6.73502 53.8474 6.73502H56.851V17.5802C56.851 17.6151 56.8226 17.6435 56.7879 17.6435Z" fill="url(#paint6_linear_6_4290)"/>
<path d="M52.8649 8.82227H47.964C47.4575 8.82227 47.0469 9.23287 47.0469 9.73934C47.0469 10.2458 47.4575 10.6564 47.964 10.6564H52.8649C53.3714 10.6564 53.782 10.2458 53.782 9.73934C53.782 9.23287 53.3714 8.82227 52.8649 8.82227Z" fill="url(#paint7_linear_6_4290)"/>
<path d="M52.8649 12.7422H47.964C47.4575 12.7422 47.0469 13.1528 47.0469 13.6593C47.0469 14.1657 47.4575 14.5763 47.964 14.5763H52.8649C53.3714 14.5763 53.782 14.1657 53.782 13.6593C53.782 13.1528 53.3714 12.7422 52.8649 12.7422Z" fill="url(#paint8_linear_6_4290)"/>
<defs>
<linearGradient id="paint0_linear_6_4290" x1="43.3569" y1="56.2466" x2="42.8811" y2="58.5272" gradientUnits="userSpaceOnUse">
<stop stop-color="#4338CA"/>
<stop offset="1" stop-color="#1F1A63"/>
</linearGradient>
<linearGradient id="paint1_linear_6_4290" x1="45.3139" y1="52.3248" x2="44.8381" y2="54.6053" gradientUnits="userSpaceOnUse">
<stop stop-color="#4338CA"/>
<stop offset="1" stop-color="#1F1A63"/>
</linearGradient>
<linearGradient id="paint2_linear_6_4290" x1="9.41141" y1="9.19781" x2="8.81374" y2="11.4166" gradientUnits="userSpaceOnUse">
<stop stop-color="#4338CA"/>
<stop offset="1" stop-color="#1F1A63"/>
</linearGradient>
<linearGradient id="paint3_linear_6_4290" x1="9.41131" y1="13.1177" x2="8.81363" y2="15.3365" gradientUnits="userSpaceOnUse">
<stop stop-color="#4338CA"/>
<stop offset="1" stop-color="#1F1A63"/>
</linearGradient>
<linearGradient id="paint4_linear_6_4290" x1="30.9739" y1="9.19781" x2="30.3762" y2="11.4166" gradientUnits="userSpaceOnUse">
<stop stop-color="#4338CA"/>
<stop offset="1" stop-color="#1F1A63"/>
</linearGradient>
<linearGradient id="paint5_linear_6_4290" x1="30.9739" y1="13.1177" x2="30.3762" y2="15.3365" gradientUnits="userSpaceOnUse">
<stop stop-color="#4338CA"/>
<stop offset="1" stop-color="#1F1A63"/>
</linearGradient>
<linearGradient id="paint6_linear_6_4290" x1="47.8319" y1="12.8187" x2="7.27555" y2="51.2527" gradientUnits="userSpaceOnUse">
<stop stop-color="#4338CA"/>
<stop offset="1" stop-color="#1F1A63"/>
</linearGradient>
<linearGradient id="paint7_linear_6_4290" x1="52.5364" y1="9.19781" x2="51.9387" y2="11.4166" gradientUnits="userSpaceOnUse">
<stop stop-color="#4338CA"/>
<stop offset="1" stop-color="#1F1A63"/>
</linearGradient>
<linearGradient id="paint8_linear_6_4290" x1="52.5364" y1="13.1177" x2="51.9387" y2="15.3365" gradientUnits="userSpaceOnUse">
<stop stop-color="#4338CA"/>
<stop offset="1" stop-color="#1F1A63"/>
</linearGradient>
</defs>
</svg>
