<svg width="73" height="67" viewBox="0 0 73 67" fill="none" xmlns="http://www.w3.org/2000/svg">
<path d="M23.5195 7.23886C24.1064 7.23886 24.5822 6.76308 24.5822 6.17622V3.56127C24.5822 2.76953 25.2263 2.12528 26.0182 2.12528H30.9318V8.60854C30.9318 9.51207 31.3957 10.3266 32.1728 10.7875C32.9498 11.2484 33.8874 11.2651 34.6803 10.8317L36.0754 10.0693C36.1978 10.0024 36.3445 10.0023 36.467 10.0693L37.8624 10.8317C38.2455 11.041 38.662 11.1453 39.0782 11.1453C39.5235 11.1453 39.968 11.0257 40.3696 10.7875C41.1468 10.3266 41.6108 9.51207 41.6108 8.60854V2.12528H46.5245C47.3162 2.12528 47.9604 2.76939 47.9604 3.56127V14.3598C47.9604 14.9467 48.4361 15.4225 49.0231 15.4225C49.6101 15.4225 50.0857 14.9467 50.0857 14.3598V3.56127C50.0857 1.59765 48.4882 0 46.5245 0H26.0183C24.0547 0 22.457 1.59751 22.457 3.56127V6.17622C22.4569 6.76308 22.9327 7.23886 23.5195 7.23886ZM39.4855 8.60854C39.4855 8.81086 39.3603 8.91543 39.2856 8.95963C39.2109 9.00398 39.0593 9.06391 38.8815 8.96672L37.4861 8.20417C36.7253 7.7886 35.817 7.78846 35.0563 8.20417L33.6611 8.96658C33.4836 9.06363 33.3317 9.00384 33.2569 8.95949C33.1822 8.91529 33.057 8.81072 33.057 8.6084V2.12528H39.4854V8.60854H39.4855Z" fill="url(#paint0_linear_6_4307)"/>
<path d="M72.5347 49.7602C72.4969 49.432 72.2968 49.1338 72.0119 48.9686L63.4783 44.0409C63.3633 43.9745 63.2437 43.9171 63.1211 43.8676V37.7903C63.1211 35.8505 61.5429 34.2722 59.6031 34.2722H37.3343V25.202H46.5248C48.4884 25.202 50.086 23.6045 50.086 21.6407V19.266C50.086 18.6792 49.6104 18.2034 49.0234 18.2034C48.4364 18.2034 47.9607 18.6792 47.9607 19.266V21.6407C47.9607 22.4324 47.3165 23.0767 46.5248 23.0767H26.0186C25.2269 23.0767 24.5826 22.4324 24.5826 21.6407V11.3029C24.5826 10.716 24.1068 10.2402 23.52 10.2402C22.9331 10.2402 22.4573 10.716 22.4573 11.3029V21.6407C22.4573 23.6045 24.0548 25.202 26.0186 25.202H35.209V34.2722H12.9403C11.0005 34.2722 9.42224 35.8505 9.42224 37.7903V43.8676C9.29969 43.9171 9.1801 43.9745 9.06505 44.0409L0.531327 48.9687C0.207434 49.1551 -0.00126936 49.5146 5.81062e-06 49.889V59.7432C5.81062e-06 60.7527 0.543087 61.6942 1.41842 62.2008L9.0652 66.6143C9.50286 66.8669 9.99338 66.9931 10.4842 66.9931C10.9747 66.9931 11.4655 66.8668 11.903 66.6143L19.5509 62.2001C20.4251 61.6941 20.9682 60.7527 20.9682 59.7431V49.8888C20.9689 49.5152 20.7618 49.1549 20.4369 48.9686L11.9032 44.0408C11.7885 43.9746 11.6695 43.9174 11.5475 43.8681V37.7903C11.5475 37.0224 12.1724 36.3975 12.9403 36.3975H35.209V43.8682C35.087 43.9175 34.968 43.9747 34.8534 44.0409L26.3183 48.9687C25.9944 49.1549 25.7855 49.5146 25.7869 49.889V59.7432C25.7869 60.7536 26.331 61.6952 27.2068 62.2008L34.8524 66.6137C35.2902 66.8672 35.7812 66.9938 36.272 66.9938C36.7625 66.9938 37.2528 66.8673 37.6898 66.6144L45.3369 62.2009C46.2125 61.6954 46.7566 60.7537 46.7566 59.7434V49.8891C46.7573 49.5155 46.5501 49.1552 46.2252 48.9689L37.6902 44.0412C37.5756 43.975 37.4566 43.9178 37.3345 43.8683V36.3978H59.6032C60.3711 36.3978 60.996 37.0226 60.996 37.7906V43.8682C60.874 43.9175 60.755 43.9747 60.6403 44.0409L52.1066 48.9687C51.7827 49.1549 51.5743 49.5145 51.5753 49.889V59.7432C51.5753 60.7527 52.1184 61.6941 52.9937 62.2008L60.6405 66.6143C61.0781 66.8669 61.5688 66.9931 62.0595 66.9931C62.5501 66.9931 63.0408 66.8668 63.4783 66.6143L71.1264 62.2001C72.0005 61.6941 72.5436 60.7527 72.5436 59.7431V49.8888C72.5432 49.8453 72.5398 49.8026 72.5347 49.7602ZM18.8429 59.7432C18.8429 59.9968 18.7063 60.2335 18.4874 60.3601L10.8405 64.7736C10.6206 64.9007 10.3475 64.9004 10.1277 64.7736L2.48206 60.3607C2.26216 60.2335 2.12543 59.9968 2.12543 59.7432V51.7293L9.95356 56.2485C10.277 56.4364 10.692 56.4363 11.0162 56.2485L18.8429 51.7295V59.7432ZM17.7804 49.889L10.4849 54.1013L3.18808 49.8888L10.1278 45.8814C10.3438 45.7567 10.6229 45.7557 10.8404 45.8814L17.7804 49.889ZM44.6311 59.7432C44.6311 59.9967 44.4944 60.233 44.2742 60.3601L36.6262 64.7743C36.4074 64.9009 36.1358 64.901 35.9158 64.7738L28.269 60.3603C28.0488 60.2332 27.9119 59.9968 27.9119 59.7434V51.7295L35.7401 56.2487C36.0635 56.4368 36.4785 56.4363 36.8027 56.2487L44.6311 51.7295V59.7432ZM43.5685 49.889L36.2717 54.1013L28.9749 49.8888L35.916 45.8814C36.133 45.7562 36.4102 45.7563 36.6273 45.8814L43.5685 49.889ZM61.703 45.8814C61.9203 45.7559 62.1992 45.7567 62.4154 45.8814L69.3551 49.8888L62.0585 54.1013L54.7629 49.889L61.703 45.8814ZM70.0624 60.3601L62.4154 64.7736C62.1958 64.9004 61.9227 64.9006 61.7027 64.7736L54.0571 60.3607C53.837 60.2333 53.7003 59.9967 53.7003 59.7431V51.7293L61.527 56.2484C61.8557 56.4383 62.2609 56.4383 62.5896 56.2484L70.4179 51.7295V59.7434C70.4179 59.9968 70.2813 60.2335 70.0624 60.3601Z" fill="url(#paint1_linear_6_4307)"/>
<defs>
<linearGradient id="paint0_linear_6_4307" x1="44.9761" y1="3.1578" x2="36.5088" y2="18.4931" gradientUnits="userSpaceOnUse">
<stop stop-color="#4338CA"/>
<stop offset="1" stop-color="#1F1A63"/>
</linearGradient>
<linearGradient id="paint1_linear_6_4307" x1="59.1274" y1="21.8607" x2="23.4867" y2="67.9175" gradientUnits="userSpaceOnUse">
<stop stop-color="#4338CA"/>
<stop offset="1" stop-color="#1F1A63"/>
</linearGradient>
</defs>
</svg>
