<svg width="67" height="56" viewBox="0 0 67 56" fill="none" xmlns="http://www.w3.org/2000/svg">
<path d="M19.7334 0.400391H33.5117C34.864 0.400442 36.1257 1.18499 36.7217 2.39746V2.39844L39.0713 7.16504C39.156 7.3378 39.3294 7.43255 39.5029 7.43262H62.2939C64.2663 7.43262 65.8721 9.03867 65.8721 11.0117V36.166C65.8721 38.1385 64.2664 39.7441 62.2939 39.7441H57.9941V44.0439C57.9939 46.0156 56.3892 47.6209 54.417 47.6211H50.1162V51.9209C50.1162 53.8932 48.5114 55.4988 46.5391 55.499H3.97754C2.00516 55.499 0.400391 53.8933 0.400391 51.9209V19.7334C0.400501 17.7611 2.00523 16.1563 3.97754 16.1562H8.27734V11.8564C8.27734 9.88402 9.88265 8.27839 11.8545 8.27832H16.1562V3.97852C16.1563 2.00561 17.7612 0.400503 19.7334 0.400391ZM3.97754 19.2539C3.71493 19.254 3.49816 19.467 3.49805 19.7334V51.9209C3.49805 52.1874 3.71486 52.4003 3.97754 52.4004H46.5391C46.8038 52.4002 47.0186 52.1857 47.0186 51.9209C47.0186 51.8558 47.0177 49.0039 47.0176 44.4512C47.0175 39.8966 47.0176 33.6396 47.0176 26.7666C47.0176 26.5706 46.8998 26.3992 46.7275 26.3252L46.7246 26.3242C46.6628 26.2982 46.5992 26.2872 46.5391 26.2871H23.7471C22.374 26.2871 21.1457 25.5227 20.5381 24.291L18.1865 19.5215L18.1855 19.5195C18.1557 19.46 18.1186 19.4213 18.1025 19.4053C18.1012 19.4039 18.0999 19.4026 18.0986 19.4014C18.097 19.3995 18.0955 19.3974 18.0938 19.3955C18.0785 19.3792 18.054 19.3564 18.0205 19.334V19.333L18.0039 19.3242L18.001 19.3223L17.9854 19.3135L17.9756 19.3096C17.9549 19.2993 17.9364 19.2905 17.9199 19.2852C17.8765 19.269 17.8215 19.2539 17.7568 19.2539H3.97754ZM11.8545 11.377C11.5885 11.377 11.376 11.5933 11.376 11.8564V16.1562H17.7568C19.1303 16.1562 20.3586 16.921 20.9658 18.1514L23.3174 22.9199C23.3969 23.0818 23.5634 23.1884 23.7471 23.1885H46.5381C48.5106 23.1885 50.1162 24.7937 50.1162 26.7666V44.5225H54.417C54.6812 44.5225 54.8963 44.3081 54.8965 44.0439V18.8887C54.8965 18.6255 54.683 18.4092 54.417 18.4092H31.625C30.2525 18.4092 29.0242 17.6459 28.416 16.4141L26.0635 11.6445C25.982 11.4791 25.8153 11.377 25.6338 11.377H11.8545ZM19.7334 3.49805C19.4625 3.49805 19.254 3.71982 19.2539 3.97852V8.27832H25.6338C27.0078 8.27832 28.2361 9.04223 28.8428 10.2744V10.2754L31.1943 15.043L31.1953 15.0449C31.2737 15.2018 31.4371 15.3115 31.625 15.3115H54.417C56.3894 15.3115 57.9941 16.9162 57.9941 18.8887V36.6455H62.2939C62.5588 36.6455 62.7734 36.4309 62.7734 36.166V11.0117C62.7734 10.7541 62.5665 10.5312 62.2939 10.5312H39.5029C38.1288 10.5312 36.9006 9.76751 36.293 8.53711L33.9404 3.76562C33.8582 3.5992 33.6901 3.49805 33.5107 3.49805H19.7334ZM17.9258 19.2881C17.9378 19.2923 17.9508 19.298 17.9648 19.3047C17.9533 19.299 17.9402 19.2937 17.9258 19.2881ZM17.8623 19.2705C17.8595 19.27 17.857 19.2707 17.8555 19.2705L17.8535 19.2695H17.8555C17.857 19.2698 17.8594 19.27 17.8623 19.2705Z" fill="url(#paint0_linear_6_4319)" stroke="#EDF6FF" stroke-width="0.8"/>
<path d="M34.6387 43.9258C35.4942 43.9258 36.1875 44.6191 36.1875 45.4746V46.6016C36.1875 47.4571 35.4942 48.1503 34.6387 48.1504C33.7831 48.1504 33.0899 47.4571 33.0898 46.6016V45.4746C33.0898 44.6191 33.7831 43.9258 34.6387 43.9258Z" fill="url(#paint1_linear_6_4319)" stroke="#EDF6FF" stroke-width="0.8"/>
<path d="M40.3164 43.9258C41.1719 43.9258 41.8652 44.6191 41.8652 45.4746V46.6016C41.8652 47.4571 41.1719 48.1503 40.3164 48.1504C39.4609 48.1504 38.7676 47.4571 38.7676 46.6016V45.4746C38.7676 44.6191 39.4609 43.9258 40.3164 43.9258Z" fill="url(#paint2_linear_6_4319)" stroke="#EDF6FF" stroke-width="0.8"/>
<defs>
<linearGradient id="paint0_linear_6_4319" x1="54.0155" y1="11.4454" x2="18.3386" y2="54.2073" gradientUnits="userSpaceOnUse">
<stop stop-color="#4338CA"/>
<stop offset="1" stop-color="#1F1A63"/>
</linearGradient>
<linearGradient id="paint1_linear_6_4319" x1="35.8668" y1="44.5543" x2="32.7006" y2="47.0374" gradientUnits="userSpaceOnUse">
<stop stop-color="#4338CA"/>
<stop offset="1" stop-color="#1F1A63"/>
</linearGradient>
<linearGradient id="paint2_linear_6_4319" x1="41.5445" y1="44.5543" x2="38.3784" y2="47.0374" gradientUnits="userSpaceOnUse">
<stop stop-color="#4338CA"/>
<stop offset="1" stop-color="#1F1A63"/>
</linearGradient>
</defs>
</svg>
