<svg width="53" height="75" viewBox="0 0 53 75" fill="none" xmlns="http://www.w3.org/2000/svg">
<path d="M26.4443 0.200195C30.8238 0.200195 34.3875 3.76315 34.3877 8.14258C34.3877 10.1741 33.62 12.0292 32.3604 13.4355L32.1406 13.6807L32.459 13.7627C35.1633 14.4569 37.168 16.9159 37.168 19.833V28.1885C37.1677 29.6871 35.9478 30.9062 34.4492 30.9062H18.4404C16.9417 30.9062 15.7219 29.6871 15.7217 28.1885V19.833C15.7217 16.916 17.7255 14.457 20.4297 13.7627L20.749 13.6807L20.5293 13.4355C19.2694 12.0292 18.502 10.1742 18.502 8.14258C18.502 3.76324 22.065 0.20033 26.4443 0.200195ZM21.9873 16.085C19.9208 16.085 18.2402 17.7665 18.2402 19.833V28.3877H34.6514V28.1885L34.6494 19.833C34.6494 17.7667 32.9686 16.0852 30.9023 16.085H21.9873ZM26.4443 2.71875C23.4534 2.71888 21.0206 5.15183 21.0205 8.14258C21.0205 11.1334 23.4534 13.5663 26.4443 13.5664C29.4354 13.5664 31.8682 11.1335 31.8682 8.14258C31.8682 5.15167 29.4354 2.71875 26.4443 2.71875Z" fill="url(#paint0_linear_6_4327)" stroke="white" stroke-width="0.4"/>
<path d="M2.91895 34.8877H15.0391C16.5378 34.8878 17.7578 36.1077 17.7578 37.6064V49.7266C17.7577 51.2252 16.5377 52.4452 15.0391 52.4453H2.91895C1.42019 52.4453 0.200318 51.2253 0.200195 49.7266V37.6064C0.200195 36.1076 1.42012 34.8877 2.91895 34.8877ZM2.71875 49.9268H15.2412V49.7266L15.2393 37.6064V37.4062H2.71875V49.9268Z" fill="url(#paint1_linear_6_4327)" stroke="white" stroke-width="0.4"/>
<path d="M9.7627 41.2949C10.0737 40.6729 10.8302 40.4206 11.4521 40.7314C12.0741 41.0424 12.3265 41.7987 12.0156 42.4209L10.1074 46.2383C9.94905 46.5551 9.66523 46.788 9.3291 46.8848L9.18262 46.918C9.11538 46.9289 9.04757 46.9346 8.98047 46.9346C8.64922 46.9345 8.32798 46.8034 8.08984 46.5654L6.07812 44.5537C5.58669 44.0618 5.58651 43.2641 6.07812 42.7725C6.56992 42.2808 7.36762 42.2811 7.85938 42.7725L8.63574 43.5488L9.7627 41.2949Z" fill="url(#paint2_linear_6_4327)" stroke="white" stroke-width="0.4"/>
<path d="M24.1934 37.6143H51.4277C52.1231 37.6143 52.6873 38.1777 52.6875 38.873C52.6875 39.5685 52.1232 40.1328 51.4277 40.1328H24.1934C23.498 40.1327 22.9346 39.5685 22.9346 38.873C22.9347 38.1778 23.4981 37.6144 24.1934 37.6143Z" fill="url(#paint3_linear_6_4327)" stroke="white" stroke-width="0.4"/>
<path d="M24.1934 43.5166H51.4277C52.1231 43.5166 52.6873 44.08 52.6875 44.7754C52.6875 45.4709 52.1232 46.0352 51.4277 46.0352H24.1934C23.498 46.035 22.9346 45.4708 22.9346 44.7754C22.9347 44.0801 23.4981 43.5168 24.1934 43.5166Z" fill="url(#paint4_linear_6_4327)" stroke="white" stroke-width="0.4"/>
<path d="M24.1934 49.4189H37.8105C38.506 49.4189 39.0702 49.9824 39.0703 50.6777C39.0703 51.3732 38.506 51.9375 37.8105 51.9375H24.1934C23.498 51.9373 22.9346 51.3731 22.9346 50.6777C22.9347 49.9825 23.4981 49.4191 24.1934 49.4189Z" fill="url(#paint5_linear_6_4327)" stroke="white" stroke-width="0.4"/>
<path d="M2.91895 56.958H15.0391C16.5378 56.9581 17.7578 58.178 17.7578 59.6768V71.7969C17.7577 73.2955 16.5377 74.5155 15.0391 74.5156H2.91895C1.42019 74.5156 0.200318 73.2956 0.200195 71.7969V59.6768C0.200195 58.1779 1.42012 56.958 2.91895 56.958ZM2.71875 71.9971H15.2412V71.7969L15.2393 59.6768V59.4766H2.71875V71.9971Z" fill="url(#paint6_linear_6_4327)" stroke="white" stroke-width="0.4"/>
<path d="M9.7627 63.3672C10.0737 62.7452 10.8298 62.4928 11.4521 62.8037C12.0351 63.0951 12.2934 63.7783 12.0674 64.375L12.0156 64.4932L10.1074 68.3105C9.94905 68.6274 9.66523 68.8603 9.3291 68.957L9.18262 68.9902C9.11538 69.0012 9.04757 69.0068 8.98047 69.0068C8.64922 69.0068 8.32798 68.8757 8.08984 68.6377L6.07812 66.626C5.58669 66.134 5.58651 65.3363 6.07812 64.8447C6.56992 64.3531 7.36762 64.3533 7.85938 64.8447L8.63574 65.6211L9.7627 63.3672Z" fill="url(#paint7_linear_6_4327)" stroke="white" stroke-width="0.4"/>
<path d="M24.1934 59.6865H51.4277C52.1231 59.6865 52.6873 60.2499 52.6875 60.9453C52.6875 61.6408 52.1232 62.2051 51.4277 62.2051H24.1934C23.498 62.2049 22.9346 61.6407 22.9346 60.9453C22.9347 60.25 23.4981 59.6867 24.1934 59.6865Z" fill="url(#paint8_linear_6_4327)" stroke="white" stroke-width="0.4"/>
<path d="M24.1934 65.5889H51.4277C52.1231 65.5889 52.6873 66.1523 52.6875 66.8477C52.6875 67.5432 52.1232 68.1074 51.4277 68.1074H24.1934C23.498 68.1073 22.9346 67.5431 22.9346 66.8477C22.9347 66.1524 23.4981 65.589 24.1934 65.5889Z" fill="url(#paint9_linear_6_4327)" stroke="white" stroke-width="0.4"/>
<path d="M24.1934 71.4912H37.8105C38.506 71.4912 39.0702 72.0546 39.0703 72.75C39.0703 73.4455 38.506 74.0098 37.8105 74.0098H24.1934C23.498 74.0096 22.9346 73.4454 22.9346 72.75C22.9347 72.0547 23.4981 71.4914 24.1934 71.4912Z" fill="url(#paint10_linear_6_4327)" stroke="white" stroke-width="0.4"/>
<path d="M44.3672 71.4912C45.0626 71.4912 45.6268 72.0547 45.627 72.75C45.627 73.4455 45.0627 74.0098 44.3672 74.0098C43.6718 74.0096 43.1084 73.4454 43.1084 72.75C43.1086 72.0548 43.6719 71.4914 44.3672 71.4912Z" fill="url(#paint11_linear_6_4327)" stroke="white" stroke-width="0.4"/>
<defs>
<linearGradient id="paint0_linear_6_4327" x1="33.3276" y1="6.36918" x2="14.2756" y2="19.8964" gradientUnits="userSpaceOnUse">
<stop stop-color="#4338CA"/>
<stop offset="1" stop-color="#1F1A63"/>
</linearGradient>
<linearGradient id="paint1_linear_6_4327" x1="14.6363" y1="38.3643" x2="2.98731" y2="50.1413" gradientUnits="userSpaceOnUse">
<stop stop-color="#4338CA"/>
<stop offset="1" stop-color="#1F1A63"/>
</linearGradient>
<linearGradient id="paint2_linear_6_4327" x1="11.084" y1="41.7776" x2="6.71564" y2="46.2616" gradientUnits="userSpaceOnUse">
<stop stop-color="#4338CA"/>
<stop offset="1" stop-color="#1F1A63"/>
</linearGradient>
<linearGradient id="paint3_linear_6_4327" x1="47.3107" y1="38.0116" x2="46.9515" y2="41.764" gradientUnits="userSpaceOnUse">
<stop stop-color="#4338CA"/>
<stop offset="1" stop-color="#1F1A63"/>
</linearGradient>
<linearGradient id="paint4_linear_6_4327" x1="47.3107" y1="43.914" x2="46.9515" y2="47.6664" gradientUnits="userSpaceOnUse">
<stop stop-color="#4338CA"/>
<stop offset="1" stop-color="#1F1A63"/>
</linearGradient>
<linearGradient id="paint5_linear_6_4327" x1="36.212" y1="49.8163" x2="35.5704" y2="53.4911" gradientUnits="userSpaceOnUse">
<stop stop-color="#4338CA"/>
<stop offset="1" stop-color="#1F1A63"/>
</linearGradient>
<linearGradient id="paint6_linear_6_4327" x1="14.6363" y1="60.4346" x2="2.98731" y2="72.2116" gradientUnits="userSpaceOnUse">
<stop stop-color="#4338CA"/>
<stop offset="1" stop-color="#1F1A63"/>
</linearGradient>
<linearGradient id="paint7_linear_6_4327" x1="11.0839" y1="63.8499" x2="6.71554" y2="68.3338" gradientUnits="userSpaceOnUse">
<stop stop-color="#4338CA"/>
<stop offset="1" stop-color="#1F1A63"/>
</linearGradient>
<linearGradient id="paint8_linear_6_4327" x1="47.3107" y1="60.0839" x2="46.9515" y2="63.8363" gradientUnits="userSpaceOnUse">
<stop stop-color="#4338CA"/>
<stop offset="1" stop-color="#1F1A63"/>
</linearGradient>
<linearGradient id="paint9_linear_6_4327" x1="47.3107" y1="65.9863" x2="46.9515" y2="69.7386" gradientUnits="userSpaceOnUse">
<stop stop-color="#4338CA"/>
<stop offset="1" stop-color="#1F1A63"/>
</linearGradient>
<linearGradient id="paint10_linear_6_4327" x1="36.212" y1="71.8886" x2="35.5704" y2="75.5634" gradientUnits="userSpaceOnUse">
<stop stop-color="#4338CA"/>
<stop offset="1" stop-color="#1F1A63"/>
</linearGradient>
<linearGradient id="paint11_linear_6_4327" x1="45.287" y1="71.8886" x2="43.3937" y2="73.8027" gradientUnits="userSpaceOnUse">
<stop stop-color="#4338CA"/>
<stop offset="1" stop-color="#1F1A63"/>
</linearGradient>
</defs>
</svg>
