<svg width="64" height="64" viewBox="0 0 64 64" fill="none" xmlns="http://www.w3.org/2000/svg">
<path d="M0.777344 13.9173C0.777344 14.4552 1.21313 14.8911 1.75107 14.8911C2.28881 14.8911 2.72481 14.4552 2.72481 13.9173V2.44742H14.1945C14.7325 2.44742 15.1682 2.01162 15.1682 1.47374C15.1682 0.935849 14.7325 0.5 14.1945 0.5H1.75107C1.21313 0.5 0.777344 0.935849 0.777344 1.47374V13.9173Z" fill="url(#paint0_linear_6_4266)" stroke="url(#paint1_linear_6_4266)"/>
<path d="M60.5022 13.9173C60.5022 14.4552 60.938 14.8911 61.476 14.8911C62.0137 14.8911 62.4495 14.4552 62.4495 13.9173V1.47374C62.4495 0.935849 62.0137 0.5 61.476 0.5H49.0323C48.4943 0.5 48.0586 0.935849 48.0586 1.47374C48.0586 2.01162 48.4943 2.44742 49.0323 2.44742H60.5022V13.9173Z" fill="url(#paint2_linear_6_4266)" stroke="url(#paint3_linear_6_4266)"/>
<path d="M14.1945 62.1761H1.75107C1.21313 62.1761 0.777344 61.7403 0.777344 61.2024V48.7589C0.777344 48.221 1.21313 47.7852 1.75107 47.7852C2.28881 47.7852 2.72481 48.221 2.72481 48.7589V60.2288H14.1945C14.7325 60.2288 15.1682 60.6646 15.1682 61.2024C15.1682 61.7403 14.7304 62.1761 14.1945 62.1761Z" fill="url(#paint4_linear_6_4266)" stroke="url(#paint5_linear_6_4266)"/>
<path d="M49.0323 62.1761H61.476C62.0137 62.1761 62.4495 61.7403 62.4495 61.2024V48.7589C62.4495 48.221 62.0137 47.7852 61.476 47.7852C60.938 47.7852 60.5022 48.221 60.5022 48.7589V60.2288H49.0323C48.4943 60.2288 48.0586 60.6646 48.0586 61.2024C48.0586 61.7403 48.4943 62.1761 49.0323 62.1761Z" fill="url(#paint6_linear_6_4266)" stroke="url(#paint7_linear_6_4266)"/>
<path d="M11.2456 28.9485C11.1881 28.9485 11.1308 28.9443 11.0733 28.9336C10.544 28.8401 10.1911 28.3341 10.2845 27.8048C11.0841 23.304 13.2524 19.2369 16.5563 16.0414C19.8686 12.8397 24.0187 10.8072 28.5577 10.1673C29.0892 10.0949 29.5825 10.4628 29.6568 10.9943C29.7314 11.5258 29.3614 12.019 28.8299 12.0934C20.3769 13.2883 13.6946 19.7386 12.2002 28.1428C12.1194 28.6169 11.709 28.9485 11.2456 28.9485Z" fill="url(#paint8_linear_6_4266)" stroke="url(#paint9_linear_6_4266)"/>
<path d="M28.832 53.1013C28.8745 53.1077 28.9171 53.1099 28.9574 53.1099C29.4401 53.1099 29.8589 52.7526 29.9226 52.2594C29.9907 51.7258 29.6143 51.2368 29.0807 51.1687C20.6298 50.0845 13.6905 43.4683 12.2022 35.0811C12.1087 34.5517 11.6027 34.1989 11.0733 34.2924C10.544 34.3859 10.1911 34.8919 10.2845 35.4213C11.0903 39.9688 13.2929 44.0699 16.6499 47.2781C20.0175 50.4969 24.2313 52.5103 28.832 53.1013Z" fill="url(#paint10_linear_6_4266)" stroke="url(#paint11_linear_6_4266)"/>
<path d="M34.8281 53.0308C34.3562 53.0308 33.9416 52.6864 33.8673 52.2059C33.7842 51.6744 34.1478 51.1769 34.6793 51.0939C43.092 49.7822 49.6786 43.2575 51.069 34.8576C51.1562 34.3261 51.6598 33.9689 52.1892 34.0561C52.7207 34.1433 53.0779 34.645 52.9909 35.1764C51.4622 44.4076 44.2252 51.5766 34.9791 53.018C34.928 53.0265 34.8771 53.0308 34.8281 53.0308Z" fill="url(#paint12_linear_6_4266)" stroke="url(#paint13_linear_6_4266)"/>
<path d="M51.003 28.0145C51.0902 28.4844 51.4985 28.8118 51.9598 28.8118C52.0173 28.8118 52.0766 28.8076 52.1383 28.7926C52.6657 28.6969 53.0165 28.1888 52.9187 27.6594C51.2583 18.6579 44.068 11.6484 35.0282 10.2155C34.4946 10.1304 33.997 10.4939 33.9142 11.0254C33.8313 11.557 34.1928 12.0545 34.7242 12.1395C42.9497 13.4428 49.4916 19.823 51.003 28.0145Z" fill="url(#paint14_linear_6_4266)" stroke="url(#paint15_linear_6_4266)"/>
<path d="M29.5509 36.6454C29.6369 36.6698 29.7266 36.6823 29.8173 36.6823C29.8408 36.6823 29.8642 36.6823 29.8875 36.6802C30.1532 36.6611 30.3999 36.5313 30.5699 36.3251L37.2628 28.1357C37.6028 27.7212 37.5411 27.1067 37.1244 26.7666C36.7078 26.4263 36.0955 26.488 35.7554 26.9047L29.7133 34.2969L27.1662 31.969C26.7686 31.6054 26.1543 31.633 25.7907 32.0306C25.4272 32.4281 25.4548 33.0426 25.8524 33.4061L29.1604 36.4272C29.2735 36.5309 29.4073 36.6047 29.5509 36.6454Z" fill="url(#paint16_linear_6_4266)" stroke="url(#paint17_linear_6_4266)"/>
<path fill-rule="evenodd" clip-rule="evenodd" d="M44.5448 32.5881C44.0702 38.9643 38.964 44.0712 32.588 44.5469V61.7549C32.588 62.2928 32.1522 62.7287 31.6143 62.7287C31.0763 62.7287 30.6405 62.2928 30.6405 61.7549V44.5469C24.2645 44.0712 19.1584 38.9643 18.6837 32.5881H1.47374C0.935794 32.5881 0.5 32.1522 0.5 31.6143C0.5 31.0764 0.935794 30.6406 1.47374 30.6406H18.684C19.1604 24.2663 24.266 19.1615 30.6405 18.686V1.47374C30.6405 0.935849 31.0763 0.5 31.6143 0.5C32.1522 0.5 32.588 0.935849 32.588 1.47374V18.686C38.9625 19.1615 44.0681 24.2663 44.5446 30.6406H61.7548C62.2927 30.6406 62.7285 31.0764 62.7285 31.6143C62.7285 32.1522 62.2927 32.5881 61.7548 32.5881H44.5448ZM31.6143 42.6335C25.538 42.6335 20.5951 37.6905 20.5951 31.6143C20.5951 25.5413 25.5327 20.6004 31.6045 20.5951H31.624C37.6959 20.6004 42.6334 25.5413 42.6334 31.6143C42.6334 37.6905 37.6905 42.6335 31.6143 42.6335Z" fill="url(#paint18_linear_6_4266)" stroke="url(#paint19_linear_6_4266)"/>
<defs>
<linearGradient id="paint0_linear_6_4266" x1="12.5068" y1="3.44663" x2="3.17119" y2="12.8846" gradientUnits="userSpaceOnUse">
<stop stop-color="#4338CA"/>
<stop offset="1" stop-color="#1F1A63"/>
</linearGradient>
<linearGradient id="paint1_linear_6_4266" x1="12.5068" y1="3.44663" x2="3.17119" y2="12.8846" gradientUnits="userSpaceOnUse">
<stop stop-color="#4338CA"/>
<stop offset="1" stop-color="#1F1A63"/>
</linearGradient>
<linearGradient id="paint2_linear_6_4266" x1="59.788" y1="3.44663" x2="50.4524" y2="12.8846" gradientUnits="userSpaceOnUse">
<stop stop-color="#4338CA"/>
<stop offset="1" stop-color="#1F1A63"/>
</linearGradient>
<linearGradient id="paint3_linear_6_4266" x1="59.788" y1="3.44663" x2="50.4524" y2="12.8846" gradientUnits="userSpaceOnUse">
<stop stop-color="#4338CA"/>
<stop offset="1" stop-color="#1F1A63"/>
</linearGradient>
<linearGradient id="paint4_linear_6_4266" x1="12.5068" y1="50.7318" x2="3.17129" y2="60.1697" gradientUnits="userSpaceOnUse">
<stop stop-color="#4338CA"/>
<stop offset="1" stop-color="#1F1A63"/>
</linearGradient>
<linearGradient id="paint5_linear_6_4266" x1="12.5068" y1="50.7318" x2="3.17129" y2="60.1697" gradientUnits="userSpaceOnUse">
<stop stop-color="#4338CA"/>
<stop offset="1" stop-color="#1F1A63"/>
</linearGradient>
<linearGradient id="paint6_linear_6_4266" x1="59.788" y1="50.7318" x2="50.4525" y2="60.1697" gradientUnits="userSpaceOnUse">
<stop stop-color="#4338CA"/>
<stop offset="1" stop-color="#1F1A63"/>
</linearGradient>
<linearGradient id="paint7_linear_6_4266" x1="59.788" y1="50.7318" x2="50.4525" y2="60.1697" gradientUnits="userSpaceOnUse">
<stop stop-color="#4338CA"/>
<stop offset="1" stop-color="#1F1A63"/>
</linearGradient>
<linearGradient id="paint8_linear_6_4266" x1="26.0791" y1="14.0056" x2="13.9001" y2="26.7157" gradientUnits="userSpaceOnUse">
<stop stop-color="#4338CA"/>
<stop offset="1" stop-color="#1F1A63"/>
</linearGradient>
<linearGradient id="paint9_linear_6_4266" x1="26.0791" y1="14.0056" x2="13.9001" y2="26.7157" gradientUnits="userSpaceOnUse">
<stop stop-color="#4338CA"/>
<stop offset="1" stop-color="#1F1A63"/>
</linearGradient>
<linearGradient id="paint10_linear_6_4266" x1="26.2944" y1="38.1334" x2="14.0947" y2="51.0096" gradientUnits="userSpaceOnUse">
<stop stop-color="#4338CA"/>
<stop offset="1" stop-color="#1F1A63"/>
</linearGradient>
<linearGradient id="paint11_linear_6_4266" x1="26.2944" y1="38.1334" x2="14.0947" y2="51.0096" gradientUnits="userSpaceOnUse">
<stop stop-color="#4338CA"/>
<stop offset="1" stop-color="#1F1A63"/>
</linearGradient>
<linearGradient id="paint12_linear_6_4266" x1="49.4626" y1="37.9308" x2="37.1467" y2="50.4873" gradientUnits="userSpaceOnUse">
<stop stop-color="#4338CA"/>
<stop offset="1" stop-color="#1F1A63"/>
</linearGradient>
<linearGradient id="paint13_linear_6_4266" x1="49.4626" y1="37.9308" x2="37.1467" y2="50.4873" gradientUnits="userSpaceOnUse">
<stop stop-color="#4338CA"/>
<stop offset="1" stop-color="#1F1A63"/>
</linearGradient>
<linearGradient id="paint14_linear_6_4266" x1="49.4152" y1="14.0133" x2="37.3497" y2="26.4893" gradientUnits="userSpaceOnUse">
<stop stop-color="#4338CA"/>
<stop offset="1" stop-color="#1F1A63"/>
</linearGradient>
<linearGradient id="paint15_linear_6_4266" x1="49.4152" y1="14.0133" x2="37.3497" y2="26.4893" gradientUnits="userSpaceOnUse">
<stop stop-color="#4338CA"/>
<stop offset="1" stop-color="#1F1A63"/>
</linearGradient>
<linearGradient id="paint16_linear_6_4266" x1="35.2728" y1="28.6221" x2="28.7974" y2="36.3389" gradientUnits="userSpaceOnUse">
<stop stop-color="#4338CA"/>
<stop offset="1" stop-color="#1F1A63"/>
</linearGradient>
<linearGradient id="paint17_linear_6_4266" x1="35.2728" y1="28.6221" x2="28.7974" y2="36.3389" gradientUnits="userSpaceOnUse">
<stop stop-color="#4338CA"/>
<stop offset="1" stop-color="#1F1A63"/>
</linearGradient>
<linearGradient id="paint18_linear_6_4266" x1="51.2199" y1="13.2415" x2="10.8519" y2="54.0526" gradientUnits="userSpaceOnUse">
<stop stop-color="#4338CA"/>
<stop offset="1" stop-color="#1F1A63"/>
</linearGradient>
<linearGradient id="paint19_linear_6_4266" x1="51.2199" y1="13.2415" x2="10.8519" y2="54.0526" gradientUnits="userSpaceOnUse">
<stop stop-color="#4338CA"/>
<stop offset="1" stop-color="#1F1A63"/>
</linearGradient>
</defs>
</svg>
