<svg width="68" height="68" viewBox="0 0 68 68" fill="none" xmlns="http://www.w3.org/2000/svg">
<path d="M60.2892 12.9097H62.3745C63.1019 12.9097 63.6918 12.3198 63.6918 11.5924C63.6918 10.865 63.1019 10.2751 62.3745 10.2751H57.3687C56.6413 10.2751 56.0514 10.865 56.0514 11.5924V16.5982C56.0514 17.3256 56.6413 17.9155 57.3687 17.9155C58.0961 17.9155 58.686 17.3256 58.686 16.5982V15.1487C62.683 20.4998 64.8556 26.9924 64.8556 33.7451C64.8556 50.8996 50.8996 64.8556 33.7451 64.8556C16.5907 64.8556 2.63461 50.8996 2.63461 33.7451C2.63461 16.5907 16.5907 2.63461 33.7451 2.63461C35.0138 2.63461 36.2907 2.71167 37.5405 2.86356C38.2618 2.95076 38.9195 2.43714 39.0072 1.71487C39.0951 0.99272 38.5808 0.335913 37.8585 0.24818C36.5036 0.0835171 35.1197 0 33.7451 0C24.7315 0 16.2572 3.51009 9.88373 9.88373C3.51009 16.2572 0 24.7315 0 33.7451C0 42.7588 3.51009 51.233 9.88373 57.6065C16.2572 63.9801 24.7315 67.4902 33.7451 67.4902C42.7588 67.4902 51.233 63.9801 57.6065 57.6065C63.9801 51.233 67.4902 42.7588 67.4902 33.7451C67.4902 26.1389 64.9492 18.8368 60.2892 12.9097Z" fill="url(#paint0_linear_6_4340)"/>
<path d="M14.289 19.8928C13.6742 19.5037 12.8605 19.6868 12.4713 20.3012C9.46398 25.0508 8.13271 30.7629 8.72273 36.3853C9.32145 42.0911 11.8895 47.4718 15.9539 51.5363C20.8589 56.4413 27.302 58.8938 33.7452 58.8938C40.1884 58.8938 46.6313 56.4414 51.5364 51.5363C61.3465 41.7262 61.3465 25.7639 51.5364 15.9539C47.4782 11.8958 42.1064 9.32869 36.4101 8.72536C30.7981 8.1306 25.0922 9.45146 20.3445 12.444C19.7289 12.8319 19.5447 13.6454 19.9325 14.2608C20.3204 14.8764 21.1338 15.0607 21.7493 14.6729C30.6988 9.03216 42.1813 10.3248 49.6734 17.8169C58.4562 26.5997 58.4562 40.8904 49.6734 49.6732C40.8906 58.4562 26.5997 58.4562 17.817 49.6732C10.4285 42.2847 9.11648 30.5248 14.6974 21.7107C15.0864 21.0959 14.9037 20.2821 14.289 19.8928Z" fill="url(#paint1_linear_6_4340)"/>
<path d="M50.87 35.0838H52.4945C53.222 35.0838 53.8118 34.4939 53.8118 33.7665C53.8118 33.0391 53.222 32.4492 52.4945 32.4492H50.87C50.1426 32.4492 49.5527 33.0391 49.5527 33.7665C49.5527 34.4939 50.1425 35.0838 50.87 35.0838Z" fill="url(#paint2_linear_6_4340)"/>
<path d="M13.6777 33.7236C13.6777 34.451 14.2676 35.0409 14.995 35.0409H16.6195C17.347 35.0409 17.9368 34.451 17.9368 33.7236C17.9368 32.9961 17.347 32.4062 16.6195 32.4062H14.995C14.2676 32.4063 13.6777 32.996 13.6777 33.7236Z" fill="url(#paint3_linear_6_4340)"/>
<path d="M35.0838 16.6195V14.995C35.0838 14.2676 34.4939 13.6777 33.7665 13.6777C33.0391 13.6777 32.4492 14.2676 32.4492 14.995V16.6195C32.4492 17.347 33.0391 17.9368 33.7665 17.9368C34.4939 17.9368 35.0838 17.347 35.0838 16.6195Z" fill="url(#paint4_linear_6_4340)"/>
<path d="M32.4062 50.87V52.4945C32.4062 53.222 32.9961 53.8118 33.7236 53.8118C34.451 53.8118 35.0409 53.222 35.0409 52.4945V50.87C35.0409 50.1426 34.451 49.5527 33.7236 49.5527C32.9961 49.5527 32.4062 50.1425 32.4062 50.87Z" fill="url(#paint5_linear_6_4340)"/>
<path d="M27.1414 25.279C26.6269 24.7647 25.7931 24.7647 25.2784 25.279C24.764 25.7934 24.764 26.6275 25.2784 27.142L29.7429 31.6065C29.4008 32.2441 29.2062 32.9722 29.2062 33.7449C29.2062 36.2472 31.242 38.283 33.7443 38.283C36.2467 38.283 38.2824 36.2472 38.2824 33.7449C38.2824 32.9722 38.0877 32.2441 37.7457 31.6065L46.7539 22.5984C47.2683 22.084 47.2683 21.2499 46.7539 20.7353C46.2393 20.221 45.4055 20.221 44.8908 20.7353L35.8827 29.7434C35.2451 29.4013 34.517 29.2068 33.7443 29.2068C32.9716 29.2068 32.2435 29.4015 31.6059 29.7434L27.1414 25.279ZM35.6478 33.7449C35.6478 34.7945 34.7939 35.6484 33.7443 35.6484C32.6947 35.6484 31.8408 34.7945 31.8408 33.7449C31.8408 32.6953 32.6947 31.8414 33.7443 31.8414C34.7939 31.8414 35.6478 32.6953 35.6478 33.7449Z" fill="url(#paint6_linear_6_4340)"/>
<path d="M17.815 17.817C18.0614 17.572 18.2022 17.2321 18.2022 16.8857C18.2022 16.5392 18.0614 16.2007 17.815 15.9543C17.57 15.7094 17.2313 15.5684 16.8837 15.5684C16.5373 15.5684 16.1974 15.7093 15.9524 15.9543C15.7075 16.1993 15.5664 16.5392 15.5664 16.8857C15.5664 17.2334 15.7074 17.572 15.9524 17.817C16.1974 18.0619 16.5373 18.203 16.8837 18.203C17.2313 18.203 17.57 18.0619 17.815 17.817Z" fill="url(#paint7_linear_6_4340)"/>
<path d="M42.87 3.93539C43.2179 3.93539 43.5578 3.79562 43.8027 3.54942C44.0477 3.3044 44.1888 2.96572 44.1888 2.61809C44.1888 2.27163 44.0478 1.93177 43.8027 1.68675C43.5578 1.44186 43.2179 1.30078 42.87 1.30078C42.5236 1.30078 42.1837 1.44173 41.9388 1.68675C41.6938 1.93177 41.5527 2.27163 41.5527 2.61809C41.5527 2.96585 41.6937 3.3044 41.9388 3.54942C42.1837 3.79562 42.5236 3.93539 42.87 3.93539Z" fill="url(#paint8_linear_6_4340)"/>
<defs>
<linearGradient id="paint0_linear_6_4340" x1="55.0085" y1="13.8188" x2="11.2274" y2="58.0807" gradientUnits="userSpaceOnUse">
<stop stop-color="#4338CA"/>
<stop offset="1" stop-color="#1F1A63"/>
</linearGradient>
<linearGradient id="paint1_linear_6_4340" x1="49.59" y1="18.8866" x2="16.9551" y2="51.88" gradientUnits="userSpaceOnUse">
<stop stop-color="#4338CA"/>
<stop offset="1" stop-color="#1F1A63"/>
</linearGradient>
<linearGradient id="paint2_linear_6_4340" x1="53.0242" y1="32.9887" x2="51.5023" y2="35.4759" gradientUnits="userSpaceOnUse">
<stop stop-color="#4338CA"/>
<stop offset="1" stop-color="#1F1A63"/>
</linearGradient>
<linearGradient id="paint3_linear_6_4340" x1="17.1492" y1="32.9457" x2="15.6273" y2="35.4329" gradientUnits="userSpaceOnUse">
<stop stop-color="#4338CA"/>
<stop offset="1" stop-color="#1F1A63"/>
</linearGradient>
<linearGradient id="paint4_linear_6_4340" x1="34.5966" y1="14.5498" x2="32.1123" y2="16.1034" gradientUnits="userSpaceOnUse">
<stop stop-color="#4338CA"/>
<stop offset="1" stop-color="#1F1A63"/>
</linearGradient>
<linearGradient id="paint5_linear_6_4340" x1="34.5536" y1="50.4248" x2="32.0693" y2="51.9784" gradientUnits="userSpaceOnUse">
<stop stop-color="#4338CA"/>
<stop offset="1" stop-color="#1F1A63"/>
</linearGradient>
<linearGradient id="paint6_linear_6_4340" x1="43.0253" y1="24.0215" x2="31.6832" y2="38.2463" gradientUnits="userSpaceOnUse">
<stop stop-color="#4338CA"/>
<stop offset="1" stop-color="#1F1A63"/>
</linearGradient>
<linearGradient id="paint7_linear_6_4340" x1="17.7147" y1="16.1078" x2="16.0057" y2="17.8364" gradientUnits="userSpaceOnUse">
<stop stop-color="#4338CA"/>
<stop offset="1" stop-color="#1F1A63"/>
</linearGradient>
<linearGradient id="paint8_linear_6_4340" x1="43.7013" y1="1.84023" x2="41.9922" y2="3.56901" gradientUnits="userSpaceOnUse">
<stop stop-color="#4338CA"/>
<stop offset="1" stop-color="#1F1A63"/>
</linearGradient>
</defs>
</svg>
