<svg width="18" height="20" viewBox="0 0 18 20" fill="none" xmlns="http://www.w3.org/2000/svg">
<path d="M16.4025 1.49114H14.1658V0.745568C14.1658 0.547831 14.0872 0.358193 13.9474 0.218372C13.8076 0.0785507 13.618 0 13.4202 0C13.2225 0 13.0328 0.0785507 12.893 0.218372C12.7532 0.358193 12.6747 0.547831 12.6747 0.745568V1.49114H5.21898V0.745568C5.21898 0.547831 5.14042 0.358193 5.0006 0.218372C4.86078 0.0785507 4.67114 0 4.47341 0C4.27567 0 4.08603 0.0785507 3.94621 0.218372C3.80639 0.358193 3.72784 0.547831 3.72784 0.745568V1.49114H1.49114C1.09566 1.49114 0.716386 1.64824 0.436743 1.92788C0.157101 2.20752 0 2.5868 0 2.98227V17.8936C0 18.2891 0.157101 18.6684 0.436743 18.948C0.716386 19.2277 1.09566 19.3848 1.49114 19.3848H16.4025C16.798 19.3848 17.1772 19.2277 17.4569 18.948C17.7365 18.6684 17.8936 18.2891 17.8936 17.8936V2.98227C17.8936 2.5868 17.7365 2.20752 17.4569 1.92788C17.1772 1.64824 16.798 1.49114 16.4025 1.49114ZM3.72784 2.98227V3.72784C3.72784 3.92558 3.80639 4.11521 3.94621 4.25504C4.08603 4.39486 4.27567 4.47341 4.47341 4.47341C4.67114 4.47341 4.86078 4.39486 5.0006 4.25504C5.14042 4.11521 5.21898 3.92558 5.21898 3.72784V2.98227H12.6747V3.72784C12.6747 3.92558 12.7532 4.11521 12.893 4.25504C13.0328 4.39486 13.2225 4.47341 13.4202 4.47341C13.618 4.47341 13.8076 4.39486 13.9474 4.25504C14.0872 4.11521 14.1658 3.92558 14.1658 3.72784V2.98227H16.4025V5.96454H1.49114V2.98227H3.72784ZM16.4025 17.8936H1.49114V7.45568H16.4025V17.8936Z" fill="#656565"/>
</svg>
