<svg width="16" height="20" viewBox="0 0 16 20" fill="none" xmlns="http://www.w3.org/2000/svg">
<path d="M7.58943 4.13969C6.90714 4.13969 6.24016 4.34201 5.67286 4.72108C5.10555 5.10014 4.66339 5.63892 4.40229 6.26927C4.14118 6.89963 4.07287 7.59326 4.20598 8.26244C4.33908 8.93163 4.66764 9.54631 5.1501 10.0288C5.63255 10.5112 6.24724 10.8398 6.91642 10.9729C7.5856 11.106 8.27923 11.0377 8.90959 10.7766C9.53995 10.5155 10.0787 10.0733 10.4578 9.50601C10.8369 8.9387 11.0392 8.27173 11.0392 7.58943C11.0392 6.6745 10.6757 5.79705 10.0288 5.1501C9.38181 4.50314 8.50436 4.13969 7.58943 4.13969ZM7.58943 9.65928C7.18005 9.65928 6.77987 9.53788 6.43949 9.31044C6.0991 9.08301 5.83381 8.75974 5.67714 8.38153C5.52048 8.00331 5.47949 7.58714 5.55936 7.18563C5.63922 6.78411 5.83636 6.4153 6.12583 6.12583C6.4153 5.83636 6.78411 5.63922 7.18563 5.55936C7.58714 5.47949 8.00331 5.52048 8.38153 5.67714C8.75974 5.83381 9.08301 6.0991 9.31044 6.43949C9.53788 6.77987 9.65928 7.18005 9.65928 7.58943C9.65928 8.13839 9.4412 8.66486 9.05303 9.05303C8.66486 9.4412 8.13839 9.65928 7.58943 9.65928ZM7.58943 0C5.57729 0.00228264 3.64821 0.802614 2.22541 2.22541C0.802614 3.64821 0.00228264 5.57729 0 7.58943C0 10.2975 1.25139 13.1677 3.62223 15.8904C4.68753 17.1207 5.88651 18.2286 7.19702 19.1935C7.31303 19.2748 7.45124 19.3184 7.59288 19.3184C7.73452 19.3184 7.87273 19.2748 7.98874 19.1935C9.29684 18.2282 10.4935 17.1203 11.5566 15.8904C13.924 13.1677 15.1789 10.2975 15.1789 7.58943C15.1766 5.57729 14.3762 3.64821 12.9534 2.22541C11.5306 0.802614 9.60157 0.00228264 7.58943 0ZM7.58943 17.7662C6.16383 16.645 1.3799 12.5269 1.3799 7.58943C1.3799 5.94256 2.03411 4.36314 3.19863 3.19863C4.36314 2.03411 5.94256 1.3799 7.58943 1.3799C9.2363 1.3799 10.8157 2.03411 11.9802 3.19863C13.1447 4.36314 13.799 5.94256 13.799 7.58943C13.799 12.5251 9.01504 16.645 7.58943 17.7662Z" fill="#656565"/>
</svg>
