<svg width="56" height="76" viewBox="0 0 56 76" fill="none" xmlns="http://www.w3.org/2000/svg">
<path fill-rule="evenodd" clip-rule="evenodd" d="M54.7757 75.0621H1.18324C0.530418 75.0621 0 74.5328 0 73.8813V1.1808C0 0.529322 0.530418 0 1.18324 0H54.7757C55.4286 0 55.959 0.529322 55.959 1.1808V73.8813C55.959 74.5328 55.4286 75.0621 54.7757 75.0621ZM2.36648 72.7005H53.6129V2.34124H2.36648V72.7005Z" fill="url(#paint0_linear_6_3401)"/>
<path fill-rule="evenodd" clip-rule="evenodd" d="M42.0674 47.3549C41.027 47.3549 39.9662 46.8867 39.1705 46.052L27.0117 33.1853C26.5629 32.7171 26.5833 31.9638 27.0525 31.5363C27.5218 31.0884 28.2766 31.1088 28.705 31.577L40.8434 44.4436C41.3126 44.9323 41.843 45.0544 42.1694 45.0137C42.2918 44.9933 42.3938 44.9526 42.4754 44.8712C42.5774 44.7694 42.6386 44.6269 42.6386 44.4233C42.659 44.0365 42.455 43.6089 42.1286 43.2628L30.0718 30.498C29.623 30.0298 29.6434 29.2765 30.1126 28.849C30.5819 28.4011 31.3367 28.4214 31.7651 28.8897L43.8219 41.6545C44.5767 42.4485 45.0051 43.4868 44.9643 44.5047C44.9439 45.3191 44.6175 46.0723 44.0463 46.5813C43.6179 46.9681 43.0875 47.2328 42.4958 47.3142C42.3938 47.3346 42.2306 47.3549 42.0674 47.3549Z" fill="url(#paint1_linear_6_3401)"/>
<path fill-rule="evenodd" clip-rule="evenodd" d="M20.4211 26.5242C17.2794 26.5242 14.3009 25.3027 12.0773 23.0836L10.7308 21.74C10.2616 21.2717 10.2616 20.5388 10.7308 20.0909L12.0773 18.7472C14.3009 16.5282 17.259 15.3066 20.4211 15.3066C23.5628 15.3066 26.5413 16.5282 28.765 18.7472L30.1114 20.0909C30.3358 20.3149 30.4582 20.5999 30.4582 20.9256C30.4582 21.2513 30.3358 21.5364 30.1114 21.7603L28.765 23.104C26.5209 25.2823 23.5628 26.5242 20.4211 26.5242ZM13.2197 20.8849L13.7501 21.4142C15.525 23.1854 17.9118 24.183 20.4211 24.183C22.9304 24.183 25.3173 23.2058 27.0921 21.4142L27.6226 20.8849L27.0921 20.3556C25.3173 18.5844 22.9304 17.5868 20.4211 17.5868C17.9118 17.5868 15.525 18.564 13.7501 20.3556L13.2197 20.8849Z" fill="url(#paint2_linear_6_3401)"/>
<path fill-rule="evenodd" clip-rule="evenodd" d="M20.4186 23.7356C18.8477 23.7356 17.5625 22.453 17.5625 20.8854C17.5625 19.3177 18.8477 18.0352 20.4186 18.0352C21.9894 18.0352 23.2747 19.3177 23.2747 20.8854C23.2747 22.453 21.9894 23.7356 20.4186 23.7356ZM20.4186 20.3764C20.133 20.3764 19.9086 20.6003 19.9086 20.8854C19.9086 21.1704 20.133 21.3943 20.4186 21.3943C20.7042 21.3943 20.9286 21.1704 20.9286 20.8854C20.9286 20.6003 20.6838 20.3764 20.4186 20.3764Z" fill="url(#paint3_linear_6_3401)"/>
<path fill-rule="evenodd" clip-rule="evenodd" d="M20.3398 35.726C17.1777 35.726 14.0972 34.7285 11.5063 32.8351C8.28298 30.4939 6.18171 27.0329 5.59009 23.1037C4.99848 19.1745 5.97771 15.2657 8.36458 12.0694C10.7515 8.87307 14.24 6.79649 18.1977 6.18574C22.1554 5.59534 26.1131 6.55219 29.3161 8.89343C32.5394 11.2347 34.6406 14.6956 35.2322 18.6248C35.8239 22.554 34.8446 26.4629 32.4578 29.6592C30.0709 32.8555 26.5824 34.9321 22.6246 35.5428C21.8698 35.6853 21.115 35.726 20.3398 35.726ZM20.4622 8.38446C16.5656 8.38446 12.7303 10.1557 10.2414 13.4741C8.24218 16.1614 7.40575 19.4595 7.91577 22.7576C8.42578 26.0557 10.1802 28.967 12.8935 30.9418C18.5037 35.0339 26.4192 33.8327 30.5809 28.2748C32.5802 25.5875 33.4166 22.2894 32.9066 18.9913C32.3965 15.6932 30.6421 12.7819 27.9288 10.8071C25.6847 9.17845 23.053 8.38446 20.4622 8.38446Z" fill="url(#paint4_linear_6_3401)"/>
<path fill-rule="evenodd" clip-rule="evenodd" d="M48.6148 9.56863H39.4957C38.8429 9.56863 38.3125 9.0393 38.3125 8.38783C38.3125 7.73635 38.8429 7.20703 39.4957 7.20703H48.6148C49.2676 7.20703 49.7981 7.73635 49.7981 8.38783C49.7981 9.0393 49.2676 9.56863 48.6148 9.56863Z" fill="url(#paint5_linear_6_3401)"/>
<path fill-rule="evenodd" clip-rule="evenodd" d="M48.6148 16.7561H39.4957C38.8429 16.7561 38.3125 16.2268 38.3125 15.5753C38.3125 14.9239 38.8429 14.3945 39.4957 14.3945H48.6148C49.2676 14.3945 49.7981 14.9239 49.7981 15.5753C49.7981 16.2268 49.2676 16.7561 48.6148 16.7561Z" fill="url(#paint6_linear_6_3401)"/>
<path fill-rule="evenodd" clip-rule="evenodd" d="M48.6148 23.9417H39.4957C38.8429 23.9417 38.3125 23.4124 38.3125 22.7609C38.3125 22.1094 38.8429 21.5801 39.4957 21.5801H48.6148C49.2676 21.5801 49.7981 22.1094 49.7981 22.7609C49.7981 23.4124 49.2676 23.9417 48.6148 23.9417Z" fill="url(#paint7_linear_6_3401)"/>
<path fill-rule="evenodd" clip-rule="evenodd" d="M48.6148 31.1311H39.4957C38.8429 31.1311 38.3125 30.6018 38.3125 29.9503C38.3125 29.2989 38.8429 28.7695 39.4957 28.7695H48.6148C49.2676 28.7695 49.7981 29.2989 49.7981 29.9503C49.7981 30.6018 49.2676 31.1311 48.6148 31.1311Z" fill="url(#paint8_linear_6_3401)"/>
<path fill-rule="evenodd" clip-rule="evenodd" d="M48.6178 67.8382H7.3473C6.69448 67.8382 6.16406 67.3088 6.16406 66.6574C6.16406 66.0059 6.69448 65.4766 7.3473 65.4766H48.6382C49.291 65.4766 49.8215 66.0059 49.8215 66.6574C49.8011 67.3088 49.2706 67.8382 48.6178 67.8382Z" fill="url(#paint9_linear_6_3401)"/>
<path fill-rule="evenodd" clip-rule="evenodd" d="M48.6178 60.6507H7.3473C6.69448 60.6507 6.16406 60.1213 6.16406 59.4699C6.16406 58.8184 6.69448 58.2891 7.3473 58.2891H48.6382C49.291 58.2891 49.8215 58.8184 49.8215 59.4699C49.8215 60.1213 49.2706 60.6507 48.6178 60.6507Z" fill="url(#paint10_linear_6_3401)"/>
<path fill-rule="evenodd" clip-rule="evenodd" d="M48.6178 53.4632H7.3473C6.69448 53.4632 6.16406 52.9338 6.16406 52.2824C6.16406 51.6309 6.69448 51.1016 7.3473 51.1016H48.6382C49.291 51.1016 49.8215 51.6309 49.8215 52.2824C49.8215 52.9338 49.2706 53.4632 48.6178 53.4632Z" fill="url(#paint11_linear_6_3401)"/>
<path fill-rule="evenodd" clip-rule="evenodd" d="M30.706 46.2776H7.3473C6.69448 46.2776 6.16406 45.7483 6.16406 45.0968C6.16406 44.4453 6.69448 43.916 7.3473 43.916H30.706C31.3589 43.916 31.8893 44.4453 31.8893 45.0968C31.8689 45.7483 31.3589 46.2776 30.706 46.2776Z" fill="url(#paint12_linear_6_3401)"/>
<defs>
<linearGradient id="paint0_linear_6_3401" x1="45.6099" y1="15.3692" x2="-1.20199" y2="50.6507" gradientUnits="userSpaceOnUse">
<stop stop-color="#4338CA"/>
<stop offset="1" stop-color="#1F1A63"/>
</linearGradient>
<linearGradient id="paint1_linear_6_3401" x1="41.5864" y1="32.3808" x2="29.373" y2="44.3676" gradientUnits="userSpaceOnUse">
<stop stop-color="#4338CA"/>
<stop offset="1" stop-color="#1F1A63"/>
</linearGradient>
<linearGradient id="paint2_linear_6_3401" x1="26.7448" y1="17.6035" x2="20.5834" y2="28.7534" gradientUnits="userSpaceOnUse">
<stop stop-color="#4338CA"/>
<stop offset="1" stop-color="#1F1A63"/>
</linearGradient>
<linearGradient id="paint3_linear_6_3401" x1="22.2183" y1="19.2023" x2="18.5205" y2="22.9484" gradientUnits="userSpaceOnUse">
<stop stop-color="#4338CA"/>
<stop offset="1" stop-color="#1F1A63"/>
</linearGradient>
<linearGradient id="paint4_linear_6_3401" x1="29.8562" y1="12.0989" x2="10.5856" y2="31.757" gradientUnits="userSpaceOnUse">
<stop stop-color="#4338CA"/>
<stop offset="1" stop-color="#1F1A63"/>
</linearGradient>
<linearGradient id="paint5_linear_6_3401" x1="47.6739" y1="7.69058" x2="47.0755" y2="10.633" gradientUnits="userSpaceOnUse">
<stop stop-color="#4338CA"/>
<stop offset="1" stop-color="#1F1A63"/>
</linearGradient>
<linearGradient id="paint6_linear_6_3401" x1="47.6739" y1="14.8781" x2="47.0755" y2="17.8205" gradientUnits="userSpaceOnUse">
<stop stop-color="#4338CA"/>
<stop offset="1" stop-color="#1F1A63"/>
</linearGradient>
<linearGradient id="paint7_linear_6_3401" x1="47.6739" y1="22.0636" x2="47.0755" y2="25.0061" gradientUnits="userSpaceOnUse">
<stop stop-color="#4338CA"/>
<stop offset="1" stop-color="#1F1A63"/>
</linearGradient>
<linearGradient id="paint8_linear_6_3401" x1="47.6739" y1="29.2531" x2="47.0755" y2="32.1955" gradientUnits="userSpaceOnUse">
<stop stop-color="#4338CA"/>
<stop offset="1" stop-color="#1F1A63"/>
</linearGradient>
<linearGradient id="paint9_linear_6_3401" x1="41.7474" y1="65.9601" x2="41.5839" y2="69.0155" gradientUnits="userSpaceOnUse">
<stop stop-color="#4338CA"/>
<stop offset="1" stop-color="#1F1A63"/>
</linearGradient>
<linearGradient id="paint10_linear_6_3401" x1="41.7474" y1="58.7726" x2="41.5839" y2="61.828" gradientUnits="userSpaceOnUse">
<stop stop-color="#4338CA"/>
<stop offset="1" stop-color="#1F1A63"/>
</linearGradient>
<linearGradient id="paint11_linear_6_3401" x1="41.7474" y1="51.5851" x2="41.5839" y2="54.6405" gradientUnits="userSpaceOnUse">
<stop stop-color="#4338CA"/>
<stop offset="1" stop-color="#1F1A63"/>
</linearGradient>
<linearGradient id="paint12_linear_6_3401" x1="27.1316" y1="44.3996" x2="26.8557" y2="47.4386" gradientUnits="userSpaceOnUse">
<stop stop-color="#4338CA"/>
<stop offset="1" stop-color="#1F1A63"/>
</linearGradient>
</defs>
</svg>
