<svg width="86" height="77" viewBox="0 0 86 77" fill="none" xmlns="http://www.w3.org/2000/svg">
<path d="M42.5427 16.6191C41.6254 16.6191 40.8809 17.3637 40.8809 18.281C40.8809 19.1982 41.6254 19.9428 42.5427 19.9428C43.4599 19.9428 44.2045 19.1982 44.2045 18.281C44.2045 17.3637 43.4599 16.6191 42.5427 16.6191Z" fill="url(#paint0_linear_6_3448)"/>
<path d="M14.9567 46.5307C15.874 46.5307 16.6185 45.7861 16.6185 44.8688C16.6185 43.9516 15.874 43.207 14.9567 43.207C14.0395 43.207 13.2949 43.9516 13.2949 44.8688C13.2949 45.7861 14.0395 46.5307 14.9567 46.5307Z" fill="url(#paint1_linear_6_3448)"/>
<path d="M55.8369 0C40.876 0 28.5968 10.3149 27.6471 23.3076C13.399 24.0223 0 34.2963 0 48.1926C0 53.9998 2.29797 59.6266 6.48107 64.0849C7.30873 67.4968 6.30385 71.1132 3.81048 73.6066C3.33531 74.0818 3.19315 74.7965 3.45021 75.4177C3.70727 76.0383 4.31292 76.4434 4.98544 76.4434C9.72485 76.4434 14.2922 74.5849 17.686 71.3099C20.9921 72.4368 25.3056 73.1197 29.2479 73.1197C44.2068 73.1197 56.4847 62.8074 57.437 49.8174C60.9165 49.6629 64.5354 49.0202 67.3988 48.0445C70.7925 51.3195 75.3599 53.178 80.0993 53.178C80.7719 53.178 81.3775 52.7729 81.6346 52.1523C81.8916 51.5311 81.7495 50.8164 81.2743 50.3412C78.7809 47.8479 77.7761 44.2315 78.6037 40.8196C82.7868 36.3612 85.0848 30.7344 85.0848 24.9272C85.0848 10.4882 70.6536 0 55.8369 0ZM29.2479 69.7961C25.3258 69.7961 20.8564 69.0262 17.8625 67.835C17.2212 67.5793 16.4883 67.7474 16.0216 68.257C14.015 70.4505 11.4061 71.9798 8.56353 72.6829C10.1299 69.6819 10.5298 66.144 9.57684 62.7918C9.50154 62.5276 9.36197 62.2862 9.17048 62.0895C5.40024 58.2063 3.32362 53.2708 3.32362 48.1926C3.32362 36.482 15.1952 26.589 29.2479 26.589C42.5177 26.589 54.1751 35.8166 54.1751 48.1926C54.1751 60.105 42.9929 69.7961 29.2479 69.7961ZM75.9143 38.8241C75.7228 39.0214 75.5832 39.2629 75.5079 39.5265C74.555 42.8787 74.9549 46.4165 76.5213 49.4175C73.6786 48.7151 71.0697 47.1851 69.0632 44.9916C68.5965 44.4827 67.8636 44.3139 67.2223 44.5697C64.6276 45.6018 60.9262 46.3165 57.4318 46.4892C56.9463 40.2048 53.8116 34.2982 48.4522 29.9126H70.1285C71.0464 29.9126 71.7903 29.1687 71.7903 28.2508C71.7903 27.3329 71.0464 26.589 70.1285 26.589H43.3467C39.5745 24.6688 35.3388 23.549 30.9792 23.3141C31.9341 12.1527 42.7183 3.32362 55.8369 3.32362C69.8896 3.32362 81.7612 13.2166 81.7612 24.9272C81.7612 30.0054 79.6845 34.9409 75.9143 38.8241Z" fill="url(#paint2_linear_6_3448)"/>
<path d="M42.5421 43.207H21.6032C20.6853 43.207 19.9414 43.951 19.9414 44.8688C19.9414 45.7867 20.6853 46.5307 21.6032 46.5307H42.5421C43.4599 46.5307 44.2039 45.7867 44.2039 44.8688C44.2039 43.951 43.4599 43.207 42.5421 43.207Z" fill="url(#paint3_linear_6_3448)"/>
<path d="M42.5428 53.1777H14.9567C14.0388 53.1777 13.2949 53.9217 13.2949 54.8395C13.2949 55.7574 14.0388 56.5014 14.9567 56.5014H42.5428C43.4607 56.5014 44.2046 55.7574 44.2046 54.8395C44.2046 53.9217 43.4607 53.1777 42.5428 53.1777Z" fill="url(#paint4_linear_6_3448)"/>
<path d="M70.128 16.6191H49.1892C48.2713 16.6191 47.5273 17.3631 47.5273 18.281C47.5273 19.1988 48.2713 19.9428 49.1892 19.9428H70.128C71.0459 19.9428 71.7898 19.1988 71.7898 18.281C71.7898 17.3631 71.0459 16.6191 70.128 16.6191Z" fill="url(#paint5_linear_6_3448)"/>
<defs>
<linearGradient id="paint0_linear_6_3448" x1="43.5898" y1="17.2997" x2="41.4338" y2="19.4794" gradientUnits="userSpaceOnUse">
<stop stop-color="#4338CA"/>
<stop offset="1" stop-color="#1F1A63"/>
</linearGradient>
<linearGradient id="paint1_linear_6_3448" x1="16.0039" y1="43.8876" x2="13.8478" y2="46.0673" gradientUnits="userSpaceOnUse">
<stop stop-color="#4338CA"/>
<stop offset="1" stop-color="#1F1A63"/>
</linearGradient>
<linearGradient id="paint2_linear_6_3448" x1="69.3492" y1="15.652" x2="20.1005" y2="71.0698" gradientUnits="userSpaceOnUse">
<stop stop-color="#4338CA"/>
<stop offset="1" stop-color="#1F1A63"/>
</linearGradient>
<linearGradient id="paint3_linear_6_3448" x1="39.7168" y1="43.8876" x2="39.143" y2="48.1222" gradientUnits="userSpaceOnUse">
<stop stop-color="#4338CA"/>
<stop offset="1" stop-color="#1F1A63"/>
</linearGradient>
<linearGradient id="paint4_linear_6_3448" x1="38.4882" y1="53.8583" x2="38.0346" y2="58.1224" gradientUnits="userSpaceOnUse">
<stop stop-color="#4338CA"/>
<stop offset="1" stop-color="#1F1A63"/>
</linearGradient>
<linearGradient id="paint5_linear_6_3448" x1="67.3027" y1="17.2997" x2="66.7289" y2="21.5343" gradientUnits="userSpaceOnUse">
<stop stop-color="#4338CA"/>
<stop offset="1" stop-color="#1F1A63"/>
</linearGradient>
</defs>
</svg>
