<svg width="73" height="70" viewBox="0 0 73 70" fill="none" xmlns="http://www.w3.org/2000/svg">
<path d="M72.2794 63.9261L67.2988 56.7612L69.9659 56.0706C71.5585 55.6582 71.8519 53.5651 70.426 52.7753L62.9338 48.6255V5.04867C62.9338 2.26486 60.5386 0 57.5943 0H5.33964C2.39539 0 0 2.26486 0 5.04867V51.2878C0 54.0715 2.39525 56.3362 5.3395 56.3362H26.2791C27.0759 56.3362 27.7219 55.7255 27.7219 54.972C27.7219 54.2185 27.0759 53.6078 26.2791 53.6078H5.3395C3.98655 53.6078 2.88567 52.567 2.88567 51.2878V12.2176H60.0482V47.0274L54.9544 44.2062C54.2356 43.8081 53.4901 43.5671 52.6903 43.9958C52.0254 44.3522 51.6413 45.0561 51.7353 45.781L52.7499 53.6079H38.9189C38.122 53.6079 37.476 54.2187 37.476 54.9721C37.476 55.7256 38.122 56.3363 38.9189 56.3363H53.1037L53.9679 63.0028C54.1689 64.5522 56.3169 65.1303 57.3496 63.9106L59.0783 61.8697L64.0587 69.0347C64.6287 69.8549 65.8299 70.092 66.6999 69.5513L71.7334 66.4235C72.6119 65.8772 72.8568 64.7571 72.2794 63.9261ZM2.88567 5.04867C2.88567 3.76932 3.98655 2.72842 5.33964 2.72842H57.5943C58.9474 2.72842 60.0483 3.76932 60.0483 5.04867V9.48864H2.88567V5.04867ZM65.9326 66.763L60.7498 59.3069C60.0499 58.3001 58.4652 58.2282 57.6675 59.1702L56.5493 60.4904L54.8403 47.3051L66.9631 54.0192L65.2378 54.466C64.0096 54.784 63.4462 56.186 64.1477 57.1957L69.3304 64.6516L65.9326 66.763Z" fill="url(#paint0_linear_6_3436)"/>
<path d="M12.7163 29.724H22.3983C23.1951 29.724 23.8411 29.1133 23.8411 28.3598V19.2412C23.8411 18.4877 23.1951 17.877 22.3983 17.877H12.7163C11.9194 17.877 11.2734 18.4877 11.2734 19.2412V28.3598C11.2734 29.1133 11.9194 29.724 12.7163 29.724ZM14.1591 20.6055H20.9554V26.9958H14.1591V20.6055Z" fill="url(#paint1_linear_6_3436)"/>
<path d="M31.3569 20.6054H50.2479C51.0448 20.6054 51.6908 19.9946 51.6908 19.2412C51.6908 18.4877 51.0448 17.877 50.2479 17.877H31.3569C30.56 17.877 29.9141 18.4877 29.9141 19.2412C29.9141 19.9946 30.5602 20.6054 31.3569 20.6054Z" fill="url(#paint2_linear_6_3436)"/>
<path d="M31.3569 29.2206H50.2479C51.0448 29.2206 51.6908 28.6099 51.6908 27.8564C51.6908 27.1029 51.0448 26.4922 50.2479 26.4922H31.3569C30.56 26.4922 29.9141 27.1029 29.9141 27.8564C29.9141 28.6099 30.5602 29.2206 31.3569 29.2206Z" fill="url(#paint3_linear_6_3436)"/>
<path d="M12.7163 37.8398H50.2466C51.0434 37.8398 51.6894 37.229 51.6894 36.4755C51.6894 35.7221 51.0434 35.1113 50.2466 35.1113H12.7163C11.9194 35.1113 11.2734 35.7221 11.2734 36.4755C11.2734 37.229 11.9194 37.8398 12.7163 37.8398Z" fill="url(#paint4_linear_6_3436)"/>
<path d="M12.7163 46.4569H43.8909C44.6877 46.4569 45.3337 45.8462 45.3337 45.0927C45.3337 44.3393 44.6877 43.7285 43.8909 43.7285H12.7163C11.9194 43.7285 11.2734 44.3393 11.2734 45.0927C11.2734 45.8462 11.9194 46.4569 12.7163 46.4569Z" fill="url(#paint5_linear_6_3436)"/>
<path d="M8.43809 5.70768C7.92848 4.53132 6.07487 4.64469 5.71705 5.86538C5.3712 7.04502 6.79052 8.03257 7.88087 7.37898C8.46391 7.02946 8.70386 6.31039 8.43809 5.70768Z" fill="url(#paint6_linear_6_3436)"/>
<path d="M13.7213 5.70847C13.4232 5.0205 12.5617 4.68654 11.837 4.97043C11.1108 5.25474 10.7556 6.06549 11.0564 6.75209C11.3572 7.43884 12.2153 7.77334 12.9407 7.49013C13.6659 7.20692 14.0236 6.39385 13.7213 5.70847Z" fill="url(#paint7_linear_6_3436)"/>
<path d="M19.0182 5.70847C18.7201 5.0205 17.8586 4.68654 17.1338 4.97043C16.4077 5.25474 16.0524 6.06549 16.3533 6.75209C16.6541 7.43884 17.5122 7.77334 18.2376 7.49013C18.9628 7.20692 19.3205 6.39385 19.0182 5.70847Z" fill="url(#paint8_linear_6_3436)"/>
<path d="M33.9905 54.4495C33.688 53.763 32.8332 53.4285 32.1061 53.7128C31.3797 53.9968 31.0257 54.8065 31.3255 55.4931C31.6255 56.1798 32.4844 56.5157 33.2099 56.2311C33.9382 55.9453 34.2891 55.1381 33.9905 54.4495Z" fill="url(#paint9_linear_6_3436)"/>
<defs>
<linearGradient id="paint0_linear_6_3436" x1="59.1669" y1="14.3004" x2="13.913" y2="61.8527" gradientUnits="userSpaceOnUse">
<stop stop-color="#4338CA"/>
<stop offset="1" stop-color="#1F1A63"/>
</linearGradient>
<linearGradient id="paint1_linear_6_3436" x1="21.5168" y1="20.3027" x2="13.8499" y2="28.5252" gradientUnits="userSpaceOnUse">
<stop stop-color="#4338CA"/>
<stop offset="1" stop-color="#1F1A63"/>
</linearGradient>
<linearGradient id="paint2_linear_6_3436" x1="47.6634" y1="18.4356" x2="47.2313" y2="21.9221" gradientUnits="userSpaceOnUse">
<stop stop-color="#4338CA"/>
<stop offset="1" stop-color="#1F1A63"/>
</linearGradient>
<linearGradient id="paint3_linear_6_3436" x1="47.6634" y1="27.0508" x2="47.2313" y2="30.5374" gradientUnits="userSpaceOnUse">
<stop stop-color="#4338CA"/>
<stop offset="1" stop-color="#1F1A63"/>
</linearGradient>
<linearGradient id="paint4_linear_6_3436" x1="44.2148" y1="35.67" x2="43.9795" y2="39.1944" gradientUnits="userSpaceOnUse">
<stop stop-color="#4338CA"/>
<stop offset="1" stop-color="#1F1A63"/>
</linearGradient>
<linearGradient id="paint5_linear_6_3436" x1="39.0346" y1="44.2872" x2="38.7558" y2="47.8052" gradientUnits="userSpaceOnUse">
<stop stop-color="#4338CA"/>
<stop offset="1" stop-color="#1F1A63"/>
</linearGradient>
<linearGradient id="paint6_linear_6_3436" x1="8.01301" y1="5.43816" x2="6.26458" y2="7.323" gradientUnits="userSpaceOnUse">
<stop stop-color="#4338CA"/>
<stop offset="1" stop-color="#1F1A63"/>
</linearGradient>
<linearGradient id="paint7_linear_6_3436" x1="13.2964" y1="5.42645" x2="11.5346" y2="7.3109" gradientUnits="userSpaceOnUse">
<stop stop-color="#4338CA"/>
<stop offset="1" stop-color="#1F1A63"/>
</linearGradient>
<linearGradient id="paint8_linear_6_3436" x1="18.5933" y1="5.42645" x2="16.8315" y2="7.3109" gradientUnits="userSpaceOnUse">
<stop stop-color="#4338CA"/>
<stop offset="1" stop-color="#1F1A63"/>
</linearGradient>
<linearGradient id="paint9_linear_6_3436" x1="33.5647" y1="54.1685" x2="31.8033" y2="56.052" gradientUnits="userSpaceOnUse">
<stop stop-color="#4338CA"/>
<stop offset="1" stop-color="#1F1A63"/>
</linearGradient>
</defs>
</svg>
