<svg width="63" height="63" viewBox="0 0 63 63" fill="none" xmlns="http://www.w3.org/2000/svg">
<path d="M1.83594 0.349609H31.2119C31.594 0.349609 31.974 0.500292 32.2559 0.77832L32.3027 0.825195C32.3323 0.854805 32.3747 0.897992 32.4297 0.953125C32.5396 1.06338 32.6984 1.22305 32.8994 1.4248C33.3015 1.82833 33.8726 2.40041 34.5557 3.08594C35.9217 4.45693 37.7373 6.28035 39.5576 8.10742C43.1983 11.7617 46.8561 15.4328 46.96 15.5371V15.5381L46.9629 15.54C47.2389 15.8173 47.3955 16.203 47.3955 16.5889V32.2666L47.9268 31.9453L51.9668 29.502L52.1797 29.373L52.1279 29.1299C51.4402 25.9098 53.9091 22.8916 57.1729 22.8916C60.017 22.8918 62.3318 25.2066 62.332 28.0508C62.332 30.8951 60.0171 33.2098 57.1729 33.21C55.9452 33.21 54.8169 32.7789 53.9297 32.0596L53.7383 31.9043L53.5283 32.0322L47.5645 35.6387L47.3955 35.7412V49.4912L47.5645 49.5938L53.5137 53.2031L53.7246 53.3311L53.916 53.1748C54.8052 52.4492 55.939 52.0137 57.1729 52.0137C60.0171 52.0139 62.332 54.3285 62.332 57.1729C62.3318 60.017 60.017 62.3318 57.1729 62.332C53.9062 62.332 51.4501 59.3175 52.124 56.1104L52.1748 55.8682L51.9629 55.7393L47.9277 53.291L47.3955 52.9688V60.8457C47.3953 61.6664 46.7299 62.332 45.9092 62.332H1.83594C1.01542 62.3318 0.349846 61.6662 0.349609 60.8457V1.83594C0.349846 1.01542 1.01542 0.349846 1.83594 0.349609ZM57.1729 54.9863C55.967 54.9863 54.9863 55.967 54.9863 57.1729C54.9865 58.3786 55.9671 59.3594 57.1729 59.3594C58.3785 59.3592 59.3592 58.3785 59.3594 57.1729C59.3594 55.9671 58.3786 54.9865 57.1729 54.9863ZM43.8916 37.8604L38.3916 41.1875L38.1797 41.3154L38.2295 41.5576C38.3767 42.2699 38.367 42.9877 38.2275 43.6572L38.1777 43.8994L38.3887 44.0273L43.8916 47.3652L44.4229 47.6875V37.5391L43.8916 37.8604ZM33.1768 40.418C31.9712 40.4182 30.9914 41.398 30.9912 42.6035C30.9912 43.8092 31.9711 44.7898 33.1768 44.79C34.3826 44.79 35.3633 43.8094 35.3633 42.6035C35.3631 41.3978 34.3825 40.418 33.1768 40.418ZM57.1729 25.8652C55.9671 25.8652 54.9865 26.8451 54.9863 28.0508C54.9863 29.2567 55.967 30.2373 57.1729 30.2373C58.3786 30.2371 59.3594 29.2565 59.3594 28.0508C59.3592 26.8452 58.3785 25.8654 57.1729 25.8652ZM32.7021 6.28516L32.709 14.7529L32.71 15.1025H42.3301L41.7354 14.5049L33.2998 6.03809L32.7012 5.4375L32.7021 6.28516ZM44.4229 51.165L44.2549 51.0625L36.8447 46.5674L36.6328 46.4385L36.4414 46.5957C35.5511 47.3251 34.4141 47.7627 33.1768 47.7627C30.3325 47.7625 28.0186 45.4478 28.0186 42.6035C28.0188 39.7594 30.3327 37.4446 33.1768 37.4443C34.4165 37.4443 35.5553 37.8844 36.4463 38.6162L36.6377 38.7734L36.8496 38.6455L44.2539 34.167L44.4229 34.0645V18.0752H31.2246C30.4043 18.0752 29.739 17.4103 29.7383 16.5898L29.7275 3.67285V3.32227H3.32227V59.3594H44.4229V51.165Z" fill="url(#paint0_linear_6_3459)" stroke="white" stroke-width="0.7"/>
<path d="M9.17969 22.3867H23.8799C24.7006 22.3867 25.366 23.0524 25.3662 23.873C25.3662 24.6939 24.7008 25.3594 23.8799 25.3594H9.17969C8.35902 25.3591 7.69336 24.6938 7.69336 23.873C7.6936 23.0525 8.35917 22.387 9.17969 22.3867Z" fill="url(#paint1_linear_6_3459)" stroke="white" stroke-width="0.7"/>
<path d="M9.17188 29.8535H23.8721C24.6928 29.8535 25.3582 30.5192 25.3584 31.3398C25.3584 32.1607 24.6929 32.8262 23.8721 32.8262H9.17188C8.35121 32.8259 7.68555 32.1606 7.68555 31.3398C7.68578 30.5193 8.35135 29.8538 9.17188 29.8535Z" fill="url(#paint2_linear_6_3459)" stroke="white" stroke-width="0.7"/>
<path d="M9.17969 37.2012H23.8682C24.6888 37.2012 25.3543 37.8669 25.3545 38.6875C25.3545 39.5083 24.689 40.1738 23.8682 40.1738H9.17969C8.35902 40.1736 7.69336 39.5082 7.69336 38.6875C7.6936 37.867 8.35917 37.2014 9.17969 37.2012Z" fill="url(#paint3_linear_6_3459)" stroke="white" stroke-width="0.7"/>
<path d="M9.17969 44.4219H23.8682C24.6888 44.4219 25.3543 45.0876 25.3545 45.9082C25.3545 46.729 24.689 47.3945 23.8682 47.3945H9.17969C8.35902 47.3943 7.69336 46.7289 7.69336 45.9082C7.6936 45.0877 8.35917 44.4221 9.17969 44.4219Z" fill="url(#paint4_linear_6_3459)" stroke="white" stroke-width="0.7"/>
<path d="M9.17969 51.6465H23.8682C24.6888 51.6465 25.3543 52.3122 25.3545 53.1328C25.3545 53.9537 24.689 54.6191 23.8682 54.6191H9.17969C8.35902 54.6189 7.69336 53.9535 7.69336 53.1328C7.6936 52.3123 8.35917 51.6467 9.17969 51.6465Z" fill="url(#paint5_linear_6_3459)" stroke="white" stroke-width="0.7"/>
<defs>
<linearGradient id="paint0_linear_6_3459" x1="51.0893" y1="12.8343" x2="10.4274" y2="53.9425" gradientUnits="userSpaceOnUse">
<stop stop-color="#4338CA"/>
<stop offset="1" stop-color="#1F1A63"/>
</linearGradient>
<linearGradient id="paint1_linear_6_3459" x1="22.3188" y1="22.7891" x2="21.412" y2="27.3752" gradientUnits="userSpaceOnUse">
<stop stop-color="#4338CA"/>
<stop offset="1" stop-color="#1F1A63"/>
</linearGradient>
<linearGradient id="paint2_linear_6_3459" x1="22.311" y1="30.2559" x2="21.4042" y2="34.842" gradientUnits="userSpaceOnUse">
<stop stop-color="#4338CA"/>
<stop offset="1" stop-color="#1F1A63"/>
</linearGradient>
<linearGradient id="paint3_linear_6_3459" x1="22.3088" y1="37.6036" x2="21.4015" y2="42.1894" gradientUnits="userSpaceOnUse">
<stop stop-color="#4338CA"/>
<stop offset="1" stop-color="#1F1A63"/>
</linearGradient>
<linearGradient id="paint4_linear_6_3459" x1="22.3088" y1="44.8243" x2="21.4015" y2="49.4101" gradientUnits="userSpaceOnUse">
<stop stop-color="#4338CA"/>
<stop offset="1" stop-color="#1F1A63"/>
</linearGradient>
<linearGradient id="paint5_linear_6_3459" x1="22.3088" y1="52.0489" x2="21.4015" y2="56.6347" gradientUnits="userSpaceOnUse">
<stop stop-color="#4338CA"/>
<stop offset="1" stop-color="#1F1A63"/>
</linearGradient>
</defs>
</svg>
