<svg width="54" height="61" viewBox="0 0 54 61" fill="none" xmlns="http://www.w3.org/2000/svg">
<path d="M48.0243 43.3195C48.164 43.1099 48.2339 42.9003 48.2339 42.6208V27.9481C48.2339 18.4457 42.0154 10.3408 33.4913 7.40625C33.5611 7.26651 33.5611 7.12676 33.5611 6.98702C33.5611 3.14416 30.417 0 26.5741 0C22.7313 0 19.5871 3.14416 19.5871 6.98702C19.5871 7.12676 19.5871 7.26651 19.657 7.40625C11.1328 10.3408 4.91435 18.4457 4.91435 27.9481V42.6208C4.91435 42.9003 4.98422 43.1099 5.12396 43.3195C2.11954 44.5772 0.0234375 47.5816 0.0234375 51.0053V52.4027H18.1897C18.1897 57.0141 21.9627 60.7871 26.5741 60.7871C31.1856 60.7871 34.9586 57.0141 34.9586 52.4027H53.1248V51.0053C53.1248 47.5816 51.0287 44.5772 48.0243 43.3195ZM26.5741 2.79481C28.81 2.79481 30.6266 4.54157 30.7663 6.70754C29.3689 6.42806 27.9715 6.28832 26.5741 6.28832C25.1767 6.28832 23.7793 6.42806 22.3819 6.70754C22.5217 4.54157 24.3383 2.79481 26.5741 2.79481ZM7.70916 42.6208V27.9481C7.70916 17.5374 16.1635 9.08313 26.5741 9.08313C36.9848 9.08313 45.4391 17.5374 45.4391 27.9481V42.6208C45.4391 42.6208 45.4391 42.6208 45.4391 42.6907C45.2295 42.6907 44.95 42.6208 44.7404 42.6208H8.40787C8.19825 42.6208 7.91877 42.6208 7.70916 42.6208ZM26.5741 57.9923C23.4998 57.9923 20.9845 55.477 20.9845 52.4027H32.1637C32.1637 55.477 29.6484 57.9923 26.5741 57.9923ZM3.02786 49.6079C3.65669 47.2323 5.82267 45.4157 8.40787 45.4157H44.7404C47.3256 45.4157 49.5614 47.2323 50.1204 49.6079H3.02786Z" fill="url(#paint0_linear_6_3455)"/>
<path d="M42.8601 5.16941C42.2313 4.75018 41.323 4.88993 40.9038 5.58863C40.4846 6.21746 40.6243 7.12577 41.323 7.54499C42.7903 8.52318 44.1178 9.6411 45.3056 10.8988C47.4716 13.1346 49.1485 15.7897 50.4061 18.7941C50.6157 19.3531 51.1747 19.6325 51.6638 19.6325C51.8734 19.6325 52.0131 19.6325 52.2228 19.4928C52.9215 19.2133 53.2708 18.3749 52.9913 17.6762C51.5939 14.3224 49.7074 11.3879 47.3318 8.9424C46.0043 7.47512 44.537 6.21746 42.8601 5.16941Z" fill="url(#paint1_linear_6_3455)"/>
<path d="M0.865052 19.4243C1.07466 19.4942 1.2144 19.5641 1.42401 19.5641C1.98298 19.5641 2.47207 19.2147 2.68168 18.7256C4.63804 14.0443 7.78221 10.1316 11.7648 7.47651C12.3936 7.05728 12.6033 6.14897 12.184 5.52014C11.7648 4.89131 10.8565 4.68169 10.2277 5.10092C5.75597 8.03547 2.26246 12.3674 0.09648 17.5378C-0.183001 18.3064 0.16635 19.1448 0.865052 19.4243Z" fill="url(#paint2_linear_6_3455)"/>
<defs>
<linearGradient id="paint0_linear_6_3455" x1="43.3042" y1="12.4464" x2="4.1715" y2="47.0066" gradientUnits="userSpaceOnUse">
<stop stop-color="#4338CA"/>
<stop offset="1" stop-color="#1F1A63"/>
</linearGradient>
<linearGradient id="paint1_linear_6_3455" x1="50.7909" y1="7.94325" x2="41.3722" y2="15.9889" gradientUnits="userSpaceOnUse">
<stop stop-color="#4338CA"/>
<stop offset="1" stop-color="#1F1A63"/>
</linearGradient>
<linearGradient id="paint2_linear_6_3455" x1="10.1085" y1="7.88884" x2="0.701464" y2="15.9228" gradientUnits="userSpaceOnUse">
<stop stop-color="#4338CA"/>
<stop offset="1" stop-color="#1F1A63"/>
</linearGradient>
</defs>
</svg>
