<svg width="58" height="59" viewBox="0 0 58 59" fill="none" xmlns="http://www.w3.org/2000/svg">
<path d="M56.9839 53.303L53.0574 47.3287L55.1601 46.7528C56.4156 46.409 56.6469 44.6637 55.5228 44.0052L49.6161 40.545V4.20969C49.6161 1.88849 47.7277 0 45.4065 0H4.20969C1.88849 0 0 1.88849 0 4.20969V42.7649C0 45.0859 1.88838 46.9743 4.20958 46.9743H20.718C21.3463 46.9743 21.8555 46.4651 21.8555 45.8368C21.8555 45.2086 21.3463 44.6993 20.718 44.6993H4.20958C3.14294 44.6993 2.27502 43.8315 2.27502 42.7649V10.1873H47.3411V39.2124L43.3252 36.8601C42.7585 36.5281 42.1707 36.3271 41.5402 36.6846C41.0161 36.9818 40.7132 37.5687 40.7873 38.1732L41.5872 44.6994H30.683C30.0548 44.6994 29.5455 45.2087 29.5455 45.8369C29.5455 46.4652 30.0548 46.9744 30.683 46.9744H41.8661L42.5475 52.5331C42.7059 53.825 44.3993 54.307 45.2136 53.29L46.5764 51.5883L50.5029 57.5626C50.9523 58.2465 51.8993 58.4442 52.5852 57.9934L56.5535 55.3853C57.2461 54.9298 57.4392 53.9958 56.9839 53.303ZM2.27502 4.20969C2.27502 3.14294 3.14294 2.27502 4.20969 2.27502H45.4065C46.4733 2.27502 47.3412 3.14294 47.3412 4.20969V7.91183H2.27502V4.20969ZM51.9803 55.6684L47.8942 49.4514C47.3424 48.6119 46.0931 48.5519 45.4642 49.3374L44.5826 50.4381L43.2352 39.444L52.7927 45.0424L51.4324 45.4149C50.4642 45.6801 50.02 46.8491 50.5731 47.691L54.659 53.9079L51.9803 55.6684Z" fill="url(#paint0_linear_6_3466)"/>
<path d="M10.0242 24.7846H17.6574C18.2856 24.7846 18.7949 24.2753 18.7949 23.6471V16.0438C18.7949 15.4155 18.2856 14.9062 17.6574 14.9062H10.0242C9.39598 14.9062 8.88672 15.4155 8.88672 16.0438V23.6471C8.88672 24.2753 9.39598 24.7846 10.0242 24.7846ZM11.1617 17.1814H16.5199V22.5097H11.1617V17.1814Z" fill="url(#paint1_linear_6_3466)"/>
<path d="M24.7195 17.1813H39.6129C40.2412 17.1813 40.7504 16.672 40.7504 16.0438C40.7504 15.4155 40.2412 14.9062 39.6129 14.9062H24.7195C24.0913 14.9062 23.582 15.4155 23.582 16.0438C23.582 16.672 24.0914 17.1813 24.7195 17.1813Z" fill="url(#paint2_linear_6_3466)"/>
<path d="M24.7195 24.3649H39.6129C40.2412 24.3649 40.7504 23.8556 40.7504 23.2274C40.7504 22.5991 40.2412 22.0898 39.6129 22.0898H24.7195C24.0913 22.0898 23.582 22.5991 23.582 23.2274C23.582 23.8556 24.0914 24.3649 24.7195 24.3649Z" fill="url(#paint3_linear_6_3466)"/>
<path d="M10.0242 31.5524H39.6125C40.2408 31.5524 40.75 31.0431 40.75 30.4149C40.75 29.7866 40.2408 29.2773 39.6125 29.2773H10.0242C9.39598 29.2773 8.88672 29.7866 8.88672 30.4149C8.88672 31.0431 9.39598 31.5524 10.0242 31.5524Z" fill="url(#paint4_linear_6_3466)"/>
<path d="M10.0242 38.736H34.6018C35.23 38.736 35.7393 38.2267 35.7393 37.5984C35.7393 36.9702 35.23 36.4609 34.6018 36.4609H10.0242C9.39598 36.4609 8.88672 36.9702 8.88672 37.5984C8.88672 38.2267 9.39598 38.736 10.0242 38.736Z" fill="url(#paint5_linear_6_3466)"/>
<path d="M6.65184 4.75843C6.25008 3.77756 4.78872 3.87208 4.50662 4.88992C4.23396 5.87353 5.35292 6.69697 6.21254 6.15199C6.6722 5.86056 6.86137 5.26098 6.65184 4.75843Z" fill="url(#paint6_linear_6_3466)"/>
<path d="M10.8183 4.75845C10.5833 4.1848 9.90407 3.90634 9.3327 4.14305C8.7602 4.38011 8.48014 5.05613 8.71731 5.62864C8.95448 6.20126 9.63096 6.48018 10.2029 6.24403C10.7746 6.00789 11.0566 5.32993 10.8183 4.75845Z" fill="url(#paint7_linear_6_3466)"/>
<path d="M14.9941 4.75845C14.7591 4.1848 14.0799 3.90634 13.5085 4.14305C12.936 4.38011 12.6559 5.05613 12.8931 5.62864C13.1303 6.20126 13.8067 6.48018 14.3787 6.24403C14.9504 6.00789 15.2324 5.32993 14.9941 4.75845Z" fill="url(#paint8_linear_6_3466)"/>
<path d="M26.7985 45.402C26.56 44.8296 25.8861 44.5507 25.3129 44.7877C24.7401 45.0246 24.4611 45.6997 24.6975 46.2722C24.934 46.8448 25.6111 47.1249 26.1831 46.8876C26.7573 46.6493 27.0339 45.9762 26.7985 45.402Z" fill="url(#paint9_linear_6_3466)"/>
<defs>
<linearGradient id="paint0_linear_6_3466" x1="46.6463" y1="11.9239" x2="8.86712" y2="49.4587" gradientUnits="userSpaceOnUse">
<stop stop-color="#4338CA"/>
<stop offset="1" stop-color="#1F1A63"/>
</linearGradient>
<linearGradient id="paint1_linear_6_3466" x1="16.9625" y1="16.9289" x2="10.5546" y2="23.4267" gradientUnits="userSpaceOnUse">
<stop stop-color="#4338CA"/>
<stop offset="1" stop-color="#1F1A63"/>
</linearGradient>
<linearGradient id="paint2_linear_6_3466" x1="37.5753" y1="15.3721" x2="37.1949" y2="18.274" gradientUnits="userSpaceOnUse">
<stop stop-color="#4338CA"/>
<stop offset="1" stop-color="#1F1A63"/>
</linearGradient>
<linearGradient id="paint3_linear_6_3466" x1="37.5753" y1="22.5557" x2="37.1949" y2="25.4576" gradientUnits="userSpaceOnUse">
<stop stop-color="#4338CA"/>
<stop offset="1" stop-color="#1F1A63"/>
</linearGradient>
<linearGradient id="paint4_linear_6_3466" x1="34.8572" y1="29.7432" x2="34.6498" y2="32.6803" gradientUnits="userSpaceOnUse">
<stop stop-color="#4338CA"/>
<stop offset="1" stop-color="#1F1A63"/>
</linearGradient>
<linearGradient id="paint5_linear_6_3466" x1="30.7732" y1="36.9268" x2="30.5275" y2="39.858" gradientUnits="userSpaceOnUse">
<stop stop-color="#4338CA"/>
<stop offset="1" stop-color="#1F1A63"/>
</linearGradient>
<linearGradient id="paint6_linear_6_3466" x1="6.31672" y1="4.53369" x2="4.85499" y2="6.0236" gradientUnits="userSpaceOnUse">
<stop stop-color="#4338CA"/>
<stop offset="1" stop-color="#1F1A63"/>
</linearGradient>
<linearGradient id="paint7_linear_6_3466" x1="10.4833" y1="4.52329" x2="9.01103" y2="6.01223" gradientUnits="userSpaceOnUse">
<stop stop-color="#4338CA"/>
<stop offset="1" stop-color="#1F1A63"/>
</linearGradient>
<linearGradient id="paint8_linear_6_3466" x1="14.6591" y1="4.52329" x2="13.1868" y2="6.01223" gradientUnits="userSpaceOnUse">
<stop stop-color="#4338CA"/>
<stop offset="1" stop-color="#1F1A63"/>
</linearGradient>
<linearGradient id="paint9_linear_6_3466" x1="26.4628" y1="45.1677" x2="24.9909" y2="46.6559" gradientUnits="userSpaceOnUse">
<stop stop-color="#4338CA"/>
<stop offset="1" stop-color="#1F1A63"/>
</linearGradient>
</defs>
</svg>
