<svg width="69" height="60" viewBox="0 0 69 60" fill="none" xmlns="http://www.w3.org/2000/svg">
<path d="M38.7734 0.299805C54.9559 0.297505 68.123 13.4672 68.123 29.6494C68.123 45.8318 54.9566 59.0076 38.7734 58.999L37.959 58.9873C29.5541 58.7499 21.6388 54.9026 16.2461 48.4209L16.2422 48.416L16.1201 48.2607C16.0068 48.1 15.9178 47.923 15.8564 47.7354C15.7746 47.485 15.7442 47.2205 15.7656 46.958C15.7871 46.6956 15.8601 46.4397 15.9814 46.2061C16.1029 45.9724 16.2703 45.7651 16.4727 45.5967C16.675 45.4283 16.9094 45.3025 17.1611 45.2256C17.4129 45.1487 17.6775 45.1219 17.9395 45.1484C18.2013 45.175 18.4552 45.254 18.6865 45.3799C18.9178 45.5058 19.1217 45.6764 19.2861 45.8818L19.29 45.8867C24.1078 51.6775 31.2432 55.0338 38.7734 55.0371C52.8208 55.043 64.1611 43.6976 64.1611 29.6494C64.1611 15.6011 52.8214 4.25981 38.7734 4.26172C31.2392 4.26281 24.0996 7.61141 19.2773 13.4014H19.2764L19.2734 13.4053C19.109 13.6109 18.905 13.7823 18.6738 13.9082C18.4425 14.0341 18.1878 14.1121 17.9258 14.1387C17.6638 14.1652 17.3993 14.1394 17.1475 14.0625C16.8956 13.9855 16.6614 13.8589 16.459 13.6904C16.2567 13.522 16.0901 13.3147 15.9688 13.0811C15.8473 12.8474 15.7734 12.5916 15.752 12.3291C15.7306 12.0668 15.762 11.8029 15.8438 11.5527C15.9052 11.3648 15.9939 11.1873 16.1074 11.0264L16.2285 10.8721L16.2324 10.8672C21.8048 4.17668 30.0654 0.301042 38.7734 0.299805Z" fill="url(#paint0_linear_6_3479)" stroke="#EDF6FF" stroke-width="0.6"/>
<path d="M2.28125 27.667H20.5234C20.7836 27.667 21.041 27.7188 21.2812 27.8184C21.5214 27.9179 21.7399 28.0633 21.9238 28.2471C22.1078 28.431 22.2539 28.6502 22.3535 28.8906C22.453 29.1309 22.5049 29.3884 22.5049 29.6484C22.5049 29.9085 22.453 30.166 22.3535 30.4062C22.2539 30.6466 22.1078 30.8658 21.9238 31.0498C21.7399 31.2336 21.5214 31.379 21.2812 31.4785C21.041 31.578 20.7836 31.6298 20.5234 31.6299H2.28125C2.02111 31.6299 1.76375 31.578 1.52344 31.4785C1.28308 31.379 1.06388 31.2338 0.879883 31.0498C0.695928 30.8658 0.550739 30.6466 0.451172 30.4062C0.35166 30.1659 0.299805 29.9085 0.299805 29.6484C0.29981 29.3883 0.351647 29.131 0.451172 28.8906C0.550745 28.6502 0.695912 28.431 0.879883 28.2471C1.06388 28.0631 1.28308 27.9179 1.52344 27.8184C1.76374 27.7188 2.02112 27.667 2.28125 27.667Z" fill="url(#paint1_linear_6_3479)" stroke="#EDF6FF" stroke-width="0.6"/>
<path d="M9.125 18.542H20.5234C20.7835 18.542 21.041 18.5938 21.2812 18.6934C21.5214 18.7929 21.7399 18.9383 21.9238 19.1221C22.1078 19.306 22.2539 19.5252 22.3535 19.7656C22.453 20.0059 22.5039 20.2634 22.5039 20.5234C22.5039 20.7835 22.453 21.041 22.3535 21.2812C22.2539 21.5216 22.1078 21.7408 21.9238 21.9248C21.7399 22.1086 21.5214 22.254 21.2812 22.3535C21.041 22.453 20.7835 22.5048 20.5234 22.5049H9.125C8.86486 22.5049 8.6075 22.453 8.36719 22.3535C8.12683 22.254 7.90763 22.1088 7.72363 21.9248C7.53968 21.7408 7.39449 21.5216 7.29492 21.2812C7.19541 21.0409 7.14355 20.7835 7.14355 20.5234C7.14356 20.2633 7.1954 20.006 7.29492 19.7656C7.39449 19.5252 7.53966 19.306 7.72363 19.1221C7.90763 18.9381 8.12683 18.7929 8.36719 18.6934C8.60749 18.5938 8.86487 18.542 9.125 18.542Z" fill="url(#paint2_linear_6_3479)" stroke="#EDF6FF" stroke-width="0.6"/>
<path d="M9.125 36.792H20.5234C21.0486 36.7921 21.5524 37.0008 21.9238 37.3721C22.2954 37.7436 22.5039 38.248 22.5039 38.7734C22.5039 39.2989 22.2954 39.8032 21.9238 40.1748C21.5524 40.5461 21.0486 40.7548 20.5234 40.7549H9.125C8.59955 40.7549 8.09519 40.5464 7.72363 40.1748C7.35209 39.8032 7.14355 39.2989 7.14355 38.7734C7.14357 38.248 7.35207 37.7436 7.72363 37.3721C8.09519 37.0005 8.59955 36.792 9.125 36.792Z" fill="url(#paint3_linear_6_3479)" stroke="#EDF6FF" stroke-width="0.6"/>
<path d="M36.792 13.6855C36.7881 13.4254 36.8357 13.1666 36.9316 12.9248C37.0276 12.6832 37.1705 12.4629 37.3516 12.2764C37.5328 12.0896 37.7494 11.94 37.9883 11.8369C38.2271 11.7339 38.484 11.6786 38.7441 11.6748C39.0092 11.6708 39.2728 11.7207 39.5186 11.8203C39.7642 11.9199 39.9874 12.0676 40.1748 12.2549C40.3623 12.4424 40.5107 12.6664 40.6104 12.9121C40.7098 13.1577 40.7588 13.4206 40.7549 13.6855V28.832L49.3018 37.3789C49.4952 37.5605 49.6505 37.7789 49.7578 38.0215C49.8652 38.2642 49.9225 38.5266 49.9268 38.792C49.9309 39.0572 49.8817 39.3205 49.7822 39.5664C49.6826 39.8124 49.5343 40.0359 49.3467 40.2236C49.159 40.4113 48.9356 40.5595 48.6895 40.6592C48.4434 40.7588 48.1794 40.8079 47.9141 40.8037C47.6489 40.7994 47.3872 40.7421 47.1445 40.6348C46.9019 40.5274 46.6835 40.3721 46.502 40.1787L46.4951 40.1719L37.3691 31.0547C37.1857 30.8704 37.0404 30.6516 36.9414 30.4111C36.8423 30.1703 36.7913 29.9118 36.792 29.6514V13.6855Z" fill="url(#paint4_linear_6_3479)" stroke="#EDF6FF" stroke-width="0.6"/>
<defs>
<linearGradient id="paint0_linear_6_3479" x1="58.6251" y1="12.1416" x2="20.3538" y2="46.7084" gradientUnits="userSpaceOnUse">
<stop stop-color="#4338CA"/>
<stop offset="1" stop-color="#1F1A63"/>
</linearGradient>
<linearGradient id="paint1_linear_6_3479" x1="18.587" y1="28.3014" x2="17.4596" y2="33.9982" gradientUnits="userSpaceOnUse">
<stop stop-color="#4338CA"/>
<stop offset="1" stop-color="#1F1A63"/>
</linearGradient>
<linearGradient id="paint2_linear_6_3479" x1="19.8526" y1="19.1764" x2="18.3026" y2="24.658" gradientUnits="userSpaceOnUse">
<stop stop-color="#4338CA"/>
<stop offset="1" stop-color="#1F1A63"/>
</linearGradient>
<linearGradient id="paint3_linear_6_3479" x1="19.8526" y1="37.4264" x2="18.3026" y2="42.908" gradientUnits="userSpaceOnUse">
<stop stop-color="#4338CA"/>
<stop offset="1" stop-color="#1F1A63"/>
</linearGradient>
<linearGradient id="paint4_linear_6_3479" x1="47.687" y1="17.4622" x2="32.897" y2="24.3701" gradientUnits="userSpaceOnUse">
<stop stop-color="#4338CA"/>
<stop offset="1" stop-color="#1F1A63"/>
</linearGradient>
</defs>
</svg>
