<svg width="66" height="66" viewBox="0 0 66 66" fill="none" xmlns="http://www.w3.org/2000/svg">
<path d="M8.65137 1.41602C4.66129 1.41623 1.41623 4.66129 1.41602 8.65137V14.9258H49.6953C49.9482 14.9258 50.1533 15.1308 50.1533 15.3838C50.1531 15.6366 49.9481 15.8408 49.6953 15.8408H1.41602V47.1211C1.41602 50.7744 4.13603 53.8 7.65625 54.2871L8.22461 54.3662V42.9736C8.2248 42.7208 8.42975 42.5166 8.68262 42.5166C8.93533 42.5168 9.14043 42.7209 9.14062 42.9736V59.7617C9.14062 62.0849 11.0293 63.9745 13.3525 63.9746H36.7119C39.0348 63.9746 40.9238 62.0849 40.9238 59.7617V50.1025L40.2324 50.3877L33.1807 53.2959L33.1572 53.3057C33.102 53.3318 33.0202 53.3534 32.9395 53.3506L32.9307 53.3496H14.4531C14.2001 53.3496 13.9951 53.1446 13.9951 52.8916C13.9954 52.6388 14.2003 52.4346 14.4531 52.4346H32.5615L32.6221 52.0049L33.1709 48.1494L33.252 47.5791H14.4531C14.2001 47.5791 13.9951 47.3741 13.9951 47.1211C13.9953 46.8683 14.2003 46.6641 14.4531 46.6641H33.3828L33.4434 46.2344L33.5977 45.1514L33.5986 45.1484C33.6078 45.0815 33.641 44.9968 33.6895 44.9346C33.9425 44.6089 34.6041 43.7581 35.4922 42.6152L36.1191 41.8086H14.4531C14.2001 41.8086 13.9951 41.6036 13.9951 41.3506C13.9953 41.0978 14.2003 40.8936 14.4531 40.8936H36.8301L36.9805 40.7002C38.1732 39.1653 39.5352 37.4121 40.8184 35.7607L40.9238 35.625V24.8623C40.9237 22.5397 39.0344 20.6514 36.7119 20.6514H13.3525C11.0295 20.6515 9.14075 22.5398 9.14062 24.8623V38.5039C9.14062 38.7567 8.93541 38.9617 8.68262 38.9619C8.42967 38.9619 8.22461 38.7568 8.22461 38.5039V24.8623C8.22473 22.0358 10.5252 19.7355 13.3525 19.7354H36.7119C39.5386 19.7354 41.8387 22.0357 41.8389 24.8623V34.4473L42.7344 33.2949C46.5223 28.4201 48.3961 26.0086 49.6221 24.4307C51.0776 22.5575 53.7882 22.2163 55.6631 23.6709C57.5371 25.1288 57.877 27.8398 56.4219 29.7129C54.6369 32.0099 43.5889 46.2257 41.9443 48.3428L41.8389 48.4785V54.3574H56.7393C60.7295 54.3573 63.9746 51.1115 63.9746 47.1211V15.8408H54.166C53.9132 15.8408 53.7082 15.6366 53.708 15.3838C53.708 15.1308 53.913 14.9258 54.166 14.9258H63.9746V8.65137C63.9744 4.66125 60.7294 1.41616 56.7393 1.41602H8.65137ZM34.2715 46.915C33.9724 49.0158 33.7768 50.3952 33.6484 51.2969L33.5244 52.1631L34.334 51.8301L38.4268 50.1426L39.2227 49.8135L38.542 49.2852L35.0732 46.5898L34.3936 46.0615L34.2715 46.915ZM45.627 31.0645C43.5314 33.7614 37.1337 41.9957 35.001 44.7402L34.6934 45.1357L35.0889 45.4424L39.6514 48.9863L40.0469 49.2939L40.3535 48.8975C40.3541 48.8968 40.3566 48.8938 40.3613 48.8877C40.3667 48.8808 40.3746 48.8706 40.3848 48.8574C40.4052 48.8311 40.4355 48.7925 40.4746 48.7422C40.5531 48.6412 40.6678 48.4931 40.8135 48.3057C41.1048 47.9307 41.5206 47.3967 42.0186 46.7559C43.0145 45.4742 44.3406 43.7666 45.667 42.0596C48.3198 38.6456 50.9732 35.2318 50.9795 35.2236L51.2852 34.8291L50.8906 34.5225L46.3291 30.9766L45.9346 30.6689L45.627 31.0645ZM48.5781 27.2676L46.8027 29.5518L46.4961 29.9463L46.8906 30.2529L51.4521 33.7988L51.8477 34.1055L52.1543 33.7109L53.9297 31.4258L54.2363 31.0312L53.8418 30.7236L49.2793 27.1787L48.8848 26.8721L48.5781 27.2676ZM54.9609 24.291C53.5407 23.2998 51.5876 23.545 50.4561 24.8574L50.3457 24.9922L49.7539 25.7549L49.4473 26.1494L49.8418 26.4561L54.4043 30.002L54.7988 30.3086L55.1055 29.9141L55.6982 29.1514C56.8089 27.7216 56.5923 25.6748 55.2363 24.5049L55.1016 24.3945L54.9609 24.291ZM8.22461 55.2734L7.77734 55.2256C3.6925 54.788 0.5 51.3197 0.5 47.1211V8.65137C0.500212 4.15723 4.15723 0.500212 8.65137 0.5H56.7393C61.2335 0.500143 64.8905 4.1572 64.8906 8.65137V47.1211C64.8906 51.6154 61.2335 55.2732 56.7393 55.2734H41.8389V59.7627C41.8386 62.59 39.5384 64.8906 36.7119 64.8906H13.3525C10.5255 64.8906 8.22483 62.59 8.22461 59.7627V55.2734Z" fill="url(#paint0_linear_6_5231)" stroke="url(#paint1_linear_6_5231)"/>
<path d="M8.1709 5.30859C9.74853 5.30862 11.0332 6.59311 11.0332 8.1709C11.0332 9.74865 9.74865 11.0332 8.1709 11.0332C6.59299 11.0332 5.30862 9.74865 5.30859 8.1709C5.30859 6.59298 6.59298 5.30859 8.1709 5.30859ZM8.1709 6.22461C7.0972 6.22461 6.22465 7.09721 6.22461 8.1709C6.22461 9.24469 7.09723 10.1172 8.1709 10.1172C9.24461 10.1172 10.1172 9.24461 10.1172 8.1709C10.1171 7.09728 9.24464 6.22463 8.1709 6.22461Z" fill="url(#paint2_linear_6_5231)" stroke="url(#paint3_linear_6_5231)"/>
<path d="M17.7881 5.30859C19.366 5.30862 20.6504 6.59311 20.6504 8.1709C20.6504 9.74863 19.3659 11.0332 17.7881 11.0332C16.2103 11.0332 14.9258 9.74864 14.9258 8.1709C14.9258 6.59298 16.2102 5.30859 17.7881 5.30859ZM17.7881 6.22461C16.7144 6.22461 15.8418 7.09721 15.8418 8.1709C15.8418 9.24469 16.7144 10.1172 17.7881 10.1172C18.8617 10.1172 19.7344 9.24467 19.7344 8.1709C19.7343 7.09722 18.8618 6.22463 17.7881 6.22461Z" fill="url(#paint4_linear_6_5231)" stroke="url(#paint5_linear_6_5231)"/>
<path d="M28.3682 5.30859C29.946 5.30869 31.2305 6.59316 31.2305 8.1709C31.2304 9.7486 29.946 11.0331 28.3682 11.0332C26.7905 11.0332 25.5059 9.74865 25.5059 8.1709C25.5059 6.59297 26.7904 5.30859 28.3682 5.30859ZM28.3682 6.22461C27.2944 6.22461 26.4219 7.09726 26.4219 8.1709C26.4219 9.24463 27.2944 10.1172 28.3682 10.1172C29.4418 10.1171 30.3145 9.24463 30.3145 8.1709C30.3144 7.09726 29.4418 6.2247 28.3682 6.22461Z" fill="url(#paint6_linear_6_5231)" stroke="url(#paint7_linear_6_5231)"/>
<path d="M37.9834 5.30859H57.2178C58.7956 5.30859 60.0801 6.593 60.0801 8.1709C60.0801 9.74851 58.7957 11.0332 57.2178 11.0332H37.9834C36.4056 11.0332 35.1211 9.74864 35.1211 8.1709C35.1211 6.59298 36.4055 5.30859 37.9834 5.30859ZM37.9834 6.22461C36.9097 6.22461 36.0371 7.09717 36.0371 8.1709C36.0371 9.24467 36.9097 10.1172 37.9834 10.1172H57.2178C58.2914 10.1172 59.165 9.24467 59.165 8.1709C59.165 7.09717 58.2915 6.22461 57.2178 6.22461H37.9834Z" fill="url(#paint8_linear_6_5231)" stroke="url(#paint9_linear_6_5231)"/>
<path d="M15.4141 25.5059H34.6494C35.962 25.5059 37.0303 26.5752 37.0303 27.8877C37.03 29.2001 35.9618 30.2685 34.6494 30.2686H15.4141C14.1019 30.2683 13.0334 29.2 13.0332 27.8877C13.0332 26.5752 14.1017 25.5061 15.4141 25.5059ZM15.4141 26.4219C14.6056 26.4221 13.9492 27.0793 13.9492 27.8877C13.9494 28.6959 14.6057 29.3533 15.4141 29.3535H34.6494C35.4579 29.3535 36.1151 28.6961 36.1152 27.8877C36.1152 27.0791 35.458 26.4219 34.6494 26.4219H15.4141Z" fill="url(#paint10_linear_6_5231)" stroke="url(#paint11_linear_6_5231)"/>
<path d="M14.4541 35.1211H36.5742C36.8271 35.1212 37.0322 35.3262 37.0322 35.5791C37.0322 35.832 36.8271 36.037 36.5742 36.0371H14.4541C14.2012 36.0371 13.9962 35.832 13.9961 35.5791C13.9961 35.3579 14.1528 35.1737 14.3613 35.1309L14.4541 35.1211Z" fill="url(#paint12_linear_6_5231)" stroke="url(#paint13_linear_6_5231)"/>
<path d="M14.4541 58.2051H25.9951C26.248 58.2052 26.4531 58.4102 26.4531 58.6631C26.4531 58.9159 26.248 59.121 25.9951 59.1211H14.4541C14.2012 59.1211 13.9962 58.916 13.9961 58.6631C13.9961 58.4101 14.2011 58.2051 14.4541 58.2051Z" fill="url(#paint14_linear_6_5231)" stroke="url(#paint15_linear_6_5231)"/>
<defs>
<linearGradient id="paint0_linear_6_5231" x1="53.2972" y1="13.389" x2="10.878" y2="56.2739" gradientUnits="userSpaceOnUse">
<stop stop-color="#4338CA"/>
<stop offset="1" stop-color="#1F1A63"/>
</linearGradient>
<linearGradient id="paint1_linear_6_5231" x1="53.2972" y1="13.389" x2="10.878" y2="56.2739" gradientUnits="userSpaceOnUse">
<stop stop-color="#4338CA"/>
<stop offset="1" stop-color="#1F1A63"/>
</linearGradient>
<linearGradient id="paint2_linear_6_5231" x1="10.2894" y1="6.18543" x2="5.92723" y2="10.5955" gradientUnits="userSpaceOnUse">
<stop stop-color="#4338CA"/>
<stop offset="1" stop-color="#1F1A63"/>
</linearGradient>
<linearGradient id="paint3_linear_6_5231" x1="10.2894" y1="6.18543" x2="5.92723" y2="10.5955" gradientUnits="userSpaceOnUse">
<stop stop-color="#4338CA"/>
<stop offset="1" stop-color="#1F1A63"/>
</linearGradient>
<linearGradient id="paint4_linear_6_5231" x1="19.9067" y1="6.18543" x2="15.5445" y2="10.5956" gradientUnits="userSpaceOnUse">
<stop stop-color="#4338CA"/>
<stop offset="1" stop-color="#1F1A63"/>
</linearGradient>
<linearGradient id="paint5_linear_6_5231" x1="19.9067" y1="6.18543" x2="15.5445" y2="10.5956" gradientUnits="userSpaceOnUse">
<stop stop-color="#4338CA"/>
<stop offset="1" stop-color="#1F1A63"/>
</linearGradient>
<linearGradient id="paint6_linear_6_5231" x1="30.4866" y1="6.18543" x2="26.1245" y2="10.5955" gradientUnits="userSpaceOnUse">
<stop stop-color="#4338CA"/>
<stop offset="1" stop-color="#1F1A63"/>
</linearGradient>
<linearGradient id="paint7_linear_6_5231" x1="30.4866" y1="6.18543" x2="26.1245" y2="10.5955" gradientUnits="userSpaceOnUse">
<stop stop-color="#4338CA"/>
<stop offset="1" stop-color="#1F1A63"/>
</linearGradient>
<linearGradient id="paint8_linear_6_5231" x1="55.7795" y1="6.18543" x2="53.6817" y2="14.3727" gradientUnits="userSpaceOnUse">
<stop stop-color="#4338CA"/>
<stop offset="1" stop-color="#1F1A63"/>
</linearGradient>
<linearGradient id="paint9_linear_6_5231" x1="55.7795" y1="6.18543" x2="53.6817" y2="14.3727" gradientUnits="userSpaceOnUse">
<stop stop-color="#4338CA"/>
<stop offset="1" stop-color="#1F1A63"/>
</linearGradient>
<linearGradient id="paint10_linear_6_5231" x1="32.9077" y1="26.1858" x2="31.2869" y2="33.2934" gradientUnits="userSpaceOnUse">
<stop stop-color="#4338CA"/>
<stop offset="1" stop-color="#1F1A63"/>
</linearGradient>
<linearGradient id="paint11_linear_6_5231" x1="32.9077" y1="26.1858" x2="31.2869" y2="33.2934" gradientUnits="userSpaceOnUse">
<stop stop-color="#4338CA"/>
<stop offset="1" stop-color="#1F1A63"/>
</linearGradient>
<linearGradient id="paint12_linear_6_5231" x1="33.0867" y1="35.0133" x2="32.892" y2="37.4836" gradientUnits="userSpaceOnUse">
<stop stop-color="#4338CA"/>
<stop offset="1" stop-color="#1F1A63"/>
</linearGradient>
<linearGradient id="paint13_linear_6_5231" x1="33.0867" y1="35.0133" x2="32.892" y2="37.4836" gradientUnits="userSpaceOnUse">
<stop stop-color="#4338CA"/>
<stop offset="1" stop-color="#1F1A63"/>
</linearGradient>
<linearGradient id="paint14_linear_6_5231" x1="24.4641" y1="58.0973" x2="24.1209" y2="60.5347" gradientUnits="userSpaceOnUse">
<stop stop-color="#4338CA"/>
<stop offset="1" stop-color="#1F1A63"/>
</linearGradient>
<linearGradient id="paint15_linear_6_5231" x1="24.4641" y1="58.0973" x2="24.1209" y2="60.5347" gradientUnits="userSpaceOnUse">
<stop stop-color="#4338CA"/>
<stop offset="1" stop-color="#1F1A63"/>
</linearGradient>
</defs>
</svg>
