<svg width="77" height="65" viewBox="0 0 77 65" fill="none" xmlns="http://www.w3.org/2000/svg">
<path d="M4.69824 19.3262H38.3311C38.6731 19.3262 38.9501 19.6032 38.9502 19.9453C38.9502 20.2875 38.6732 20.5644 38.3311 20.5645H4.69824C3.06609 20.5646 1.73853 21.892 1.73828 23.5244V25.3027L1.94043 25.4521L11.6406 32.6465C11.9153 32.8502 11.9729 33.2379 11.7695 33.5127V33.5137C11.6484 33.6769 11.4614 33.7637 11.2705 33.7637C11.1744 33.7636 11.0783 33.7412 10.9893 33.6953L10.9033 33.6416L2.53613 27.4365L1.73828 26.8447V58.8125L2.57031 58.0762L20.9287 41.8291L21.3906 41.4199L20.8955 41.0527L14.7764 36.5146C14.5015 36.3108 14.4437 35.9222 14.6475 35.6475C14.8513 35.3728 15.2392 35.3159 15.5137 35.5195L28.2354 44.9541C31.496 47.3724 35.9783 47.2802 39.1367 44.7305L48.4043 37.2471C48.6706 37.0321 49.0605 37.0741 49.2754 37.3398C49.4904 37.6062 49.4487 37.9961 49.1826 38.2109L45.0977 41.5098L44.6475 41.873L45.0732 42.2656L62.1182 57.998L62.957 58.7725V39.416C62.957 39.074 63.2342 38.7971 63.5762 38.7969C63.9184 38.7969 64.1955 39.0741 64.1953 39.416V60.1875C64.1953 60.219 64.1953 60.1771 64.1943 60.2422V60.2441C64.1638 62.5331 62.2926 64.3867 59.9971 64.3867H55.0195C54.6774 64.3867 54.4004 64.1088 54.4004 63.7666C54.4006 63.4247 54.6775 63.1475 55.0195 63.1475H59.9971C61.4457 63.1474 62.6498 62.1027 62.9053 60.7295L62.9561 60.458L62.7529 60.2705L43.9902 42.9521L43.6729 42.6602L43.3369 42.9307L39.915 45.6943C38.0593 47.1927 35.802 47.9462 33.541 47.9463C31.4192 47.9463 29.2952 47.283 27.4971 45.9492L22.7334 42.416L22.4072 42.1738L22.1035 42.4434L1.95215 60.2773L1.73926 60.4658L1.79297 60.7461C2.05503 62.1114 3.25575 63.1473 4.69824 63.1475H50.25C50.5919 63.1476 50.869 63.4247 50.8691 63.7666C50.8691 64.1087 50.592 64.3856 50.25 64.3857H4.69824C2.39834 64.3856 0.524241 62.5254 0.500977 60.2305V60.2031C0.500882 60.1985 0.500104 60.1945 0.5 60.1914V23.5244C0.500247 21.21 2.38388 19.3263 4.69824 19.3262Z" fill="url(#paint0_linear_6_5197)" stroke="url(#paint1_linear_6_5197)"/>
<path d="M54.2891 0.558594C55.9929 0.558594 57.3799 1.94574 57.3799 3.64941V5.35547L57.7207 5.46973C61.999 6.90781 65.0888 10.9538 65.0889 15.707V22.418L65.1094 22.4873L66.3848 26.8018C66.5433 27.3383 66.4432 27.8994 66.1084 28.3477C65.7736 28.7956 65.2645 29.0507 64.7051 29.0508H57.5459L57.9258 29.7812C58.1863 30.2825 58.3339 30.8504 58.334 31.4531C58.334 33.4607 56.6999 35.0947 54.6924 35.0947H53.8867C51.8792 35.0947 50.2451 33.4606 50.2451 31.4531C50.2452 30.8504 50.3929 30.2825 50.6533 29.7812L51.0332 29.0508H43.875C43.3157 29.0508 42.8065 28.7955 42.4717 28.3477C42.1368 27.8994 42.0358 27.3381 42.1943 26.8018L43.4697 22.4873L43.4902 22.418V15.707C43.4903 14.3957 43.7248 13.1109 44.1875 11.8877C44.2935 11.6075 44.5807 11.4489 44.8652 11.4951L44.9863 11.5273C45.306 11.6483 45.4673 12.0055 45.3467 12.3252V12.3262C44.9372 13.4089 44.7295 14.5467 44.7295 15.707V21.8877H58.085C58.427 21.8877 58.7039 22.1649 58.7041 22.5068C58.7041 22.849 58.4271 23.1269 58.085 23.127H44.5723L44.4668 23.4844L43.3828 27.1533L43.3311 27.3262L43.4023 27.4922L43.4092 27.5088L43.5391 27.8115H64.8867L65.0264 27.6953L65.04 27.6836L65.291 27.4727L65.1982 27.1582L63.876 22.6826C63.8591 22.6255 63.8506 22.5661 63.8506 22.5068V15.707C63.8505 10.435 59.562 6.14672 54.29 6.14648C51.9414 6.14648 49.6817 7.00829 47.9287 8.57227C47.6734 8.79986 47.2815 8.77755 47.0537 8.52246C46.8261 8.26724 46.8484 7.87525 47.1035 7.64746C48.2049 6.66487 49.4834 5.92849 50.8574 5.46777L51.1992 5.35352V3.64941C51.1992 1.94586 52.5856 0.558805 54.2891 0.558594ZM53.8828 29.0508C52.5592 29.0531 51.4834 30.1289 51.4834 31.4531C51.4834 32.7784 52.5613 33.8564 53.8867 33.8564H54.6924C56.0177 33.8564 57.0957 32.7784 57.0957 31.4531C57.0957 30.1289 56.0197 29.0527 54.6963 29.0508H53.8828ZM54.29 1.79688C53.2683 1.79688 52.4375 2.62785 52.4375 3.64941V5.05566L52.9971 4.98828C53.4259 4.93668 53.8576 4.9082 54.29 4.9082C54.7254 4.90822 55.1557 4.93711 55.582 4.98828L56.1416 5.05566V3.64941C56.1416 2.62774 55.3115 1.79711 54.29 1.79688Z" fill="url(#paint2_linear_6_5197)" stroke="url(#paint3_linear_6_5197)"/>
<path d="M42.7422 5.32422C43.0841 5.32438 43.3612 5.60142 43.3613 5.94336C43.3613 6.28542 43.0842 6.56234 42.7422 6.5625C40.584 6.5625 38.8281 8.31834 38.8281 10.4766C38.828 10.8186 38.551 11.0957 38.209 11.0957C37.867 11.0956 37.59 10.8185 37.5898 10.4766C37.5898 7.63611 39.9017 5.32422 42.7422 5.32422Z" fill="url(#paint4_linear_6_5197)" stroke="url(#paint5_linear_6_5197)"/>
<path d="M42.7422 0.5C43.0842 0.500083 43.3612 0.777106 43.3613 1.11914C43.3613 1.46125 43.0843 1.7382 42.7422 1.73828C37.9238 1.73828 34.0039 5.65797 34.0039 10.4766C34.0038 10.8187 33.7269 11.0957 33.3848 11.0957C33.0428 11.0956 32.7657 10.8186 32.7656 10.4766C32.7656 4.97604 37.2417 0.5 42.7422 0.5Z" fill="url(#paint6_linear_6_5197)" stroke="url(#paint7_linear_6_5197)"/>
<path d="M65.8379 5.32422C68.6783 5.32422 70.9902 7.63611 70.9902 10.4766C70.9901 10.8185 70.713 11.0955 70.3711 11.0957C70.029 11.0957 69.7521 10.8186 69.752 10.4766C69.752 8.31834 67.9961 6.5625 65.8379 6.5625C65.4958 6.56241 65.2188 6.28547 65.2188 5.94336C65.2188 5.60133 65.4959 5.32431 65.8379 5.32422Z" fill="url(#paint8_linear_6_5197)" stroke="url(#paint9_linear_6_5197)"/>
<path d="M65.8379 0.5C71.3384 0.5 75.8146 4.97606 75.8145 10.4766C75.8144 10.8186 75.5374 11.0956 75.1953 11.0957C74.8532 11.0957 74.5763 10.8187 74.5762 10.4766C74.5762 5.65813 70.6565 1.73828 65.8379 1.73828C65.4958 1.73819 65.2188 1.46125 65.2188 1.11914C65.2188 0.77711 65.4959 0.500089 65.8379 0.5Z" fill="url(#paint10_linear_6_5197)" stroke="url(#paint11_linear_6_5197)"/>
<defs>
<linearGradient id="paint0_linear_6_5197" x1="52.7307" y1="28.2571" x2="24.5971" y2="68.2072" gradientUnits="userSpaceOnUse">
<stop stop-color="#4338CA"/>
<stop offset="1" stop-color="#1F1A63"/>
</linearGradient>
<linearGradient id="paint1_linear_6_5197" x1="52.7307" y1="28.2571" x2="24.5971" y2="68.2072" gradientUnits="userSpaceOnUse">
<stop stop-color="#4338CA"/>
<stop offset="1" stop-color="#1F1A63"/>
</linearGradient>
<linearGradient id="paint2_linear_6_5197" x1="62.2724" y1="7.33474" x2="40.401" y2="23.1002" gradientUnits="userSpaceOnUse">
<stop stop-color="#4338CA"/>
<stop offset="1" stop-color="#1F1A63"/>
</linearGradient>
<linearGradient id="paint3_linear_6_5197" x1="62.2724" y1="7.33474" x2="40.401" y2="23.1002" gradientUnits="userSpaceOnUse">
<stop stop-color="#4338CA"/>
<stop offset="1" stop-color="#1F1A63"/>
</linearGradient>
<linearGradient id="paint4_linear_6_5197" x1="42.6089" y1="6.21067" x2="38.2163" y2="10.6515" gradientUnits="userSpaceOnUse">
<stop stop-color="#4338CA"/>
<stop offset="1" stop-color="#1F1A63"/>
</linearGradient>
<linearGradient id="paint5_linear_6_5197" x1="42.6089" y1="6.21067" x2="38.2163" y2="10.6515" gradientUnits="userSpaceOnUse">
<stop stop-color="#4338CA"/>
<stop offset="1" stop-color="#1F1A63"/>
</linearGradient>
<linearGradient id="paint6_linear_6_5197" x1="41.7168" y1="2.37426" x2="34.1946" y2="9.97903" gradientUnits="userSpaceOnUse">
<stop stop-color="#4338CA"/>
<stop offset="1" stop-color="#1F1A63"/>
</linearGradient>
<linearGradient id="paint7_linear_6_5197" x1="41.7168" y1="2.37426" x2="34.1946" y2="9.97903" gradientUnits="userSpaceOnUse">
<stop stop-color="#4338CA"/>
<stop offset="1" stop-color="#1F1A63"/>
</linearGradient>
<linearGradient id="paint8_linear_6_5197" x1="70.2378" y1="6.21067" x2="65.8452" y2="10.6515" gradientUnits="userSpaceOnUse">
<stop stop-color="#4338CA"/>
<stop offset="1" stop-color="#1F1A63"/>
</linearGradient>
<linearGradient id="paint9_linear_6_5197" x1="70.2378" y1="6.21067" x2="65.8452" y2="10.6515" gradientUnits="userSpaceOnUse">
<stop stop-color="#4338CA"/>
<stop offset="1" stop-color="#1F1A63"/>
</linearGradient>
<linearGradient id="paint10_linear_6_5197" x1="74.1699" y1="2.37426" x2="66.6478" y2="9.97903" gradientUnits="userSpaceOnUse">
<stop stop-color="#4338CA"/>
<stop offset="1" stop-color="#1F1A63"/>
</linearGradient>
<linearGradient id="paint11_linear_6_5197" x1="74.1699" y1="2.37426" x2="66.6478" y2="9.97903" gradientUnits="userSpaceOnUse">
<stop stop-color="#4338CA"/>
<stop offset="1" stop-color="#1F1A63"/>
</linearGradient>
</defs>
</svg>
