<svg width="70" height="66" viewBox="0 0 70 66" fill="none" xmlns="http://www.w3.org/2000/svg">
<path d="M7.61093 19.5226C9.52546 19.5226 11.0831 17.965 11.0831 16.0504C11.0831 14.1357 9.52546 12.5781 7.61093 12.5781C5.69628 12.5781 4.13867 14.1357 4.13867 16.0504C4.13867 17.965 5.69628 19.5226 7.61093 19.5226ZM7.61093 14.5978C8.41188 14.5978 9.06352 15.2494 9.06352 16.0505C9.06352 16.8516 8.41188 17.5032 7.61093 17.5032C6.80998 17.5032 6.15821 16.8515 6.15821 16.0505C6.15821 15.2496 6.80998 14.5978 7.61093 14.5978Z" fill="url(#paint0_linear_6_5241)" stroke="url(#paint1_linear_6_5241)" stroke-width="0.2"/>
<path d="M15.4391 19.5226C17.3537 19.5226 18.9113 17.965 18.9113 16.0504C18.9113 14.1357 17.3537 12.5781 15.4391 12.5781C13.5244 12.5781 11.9668 14.1357 11.9668 16.0504C11.9668 17.965 13.5244 19.5226 15.4391 19.5226ZM15.4391 14.5978C16.24 14.5978 16.8918 15.2494 16.8918 16.0505C16.8918 16.8516 16.24 17.5032 15.4391 17.5032C14.6381 17.5032 13.9863 16.8516 13.9863 16.0505C13.9863 15.2494 14.638 14.5978 15.4391 14.5978Z" fill="url(#paint2_linear_6_5241)" stroke="url(#paint3_linear_6_5241)" stroke-width="0.2"/>
<path d="M23.2691 19.5226C25.1837 19.5226 26.7413 17.965 26.7413 16.0504C26.7413 14.1357 25.1837 12.5781 23.2691 12.5781C21.3545 12.5781 19.7969 14.1357 19.7969 16.0504C19.7969 17.965 21.3545 19.5226 23.2691 19.5226ZM23.2691 14.5978C24.0701 14.5978 24.7217 15.2494 24.7217 16.0505C24.7217 16.8516 24.0701 17.5032 23.2691 17.5032C22.4682 17.5032 21.8164 16.8516 21.8164 16.0505C21.8164 15.2494 22.4682 14.5978 23.2691 14.5978Z" fill="url(#paint4_linear_6_5241)" stroke="url(#paint5_linear_6_5241)" stroke-width="0.2"/>
<path d="M68.0234 7.5369C68.5812 7.5369 69.0332 7.08479 69.0332 6.52713V5.19962C69.0332 2.38748 66.7453 0.0996094 63.9332 0.0996094H35.0026C32.1905 0.0996094 29.9026 2.38748 29.9026 5.19962V8.86306H8.62745C3.92515 8.86306 0.0996094 12.6887 0.0996094 17.391V56.8771C0.0996094 61.58 3.92515 65.4062 8.62745 65.4062H54.0253C58.7276 65.4062 62.5532 61.58 62.5532 56.8771V32.9792H63.9332C66.7453 32.9792 69.0332 30.6913 69.0332 27.8792V10.5662C69.0332 10.0085 68.5812 9.55644 68.0234 9.55644C67.4656 9.55644 67.0137 10.0085 67.0137 10.5662V27.879C67.0137 29.5776 65.6318 30.9595 63.9332 30.9595H50.9422C50.7433 30.9595 50.5489 31.0182 50.3834 31.1282L41.5212 37.0162C41.1073 37.2914 40.7232 37.1394 40.5772 37.0611C40.4309 36.9827 40.0907 36.7466 40.0907 36.248V31.9693C40.0907 31.4116 39.6387 30.9595 39.0809 30.9595H35.0028C33.3042 30.9595 31.9223 29.5776 31.9223 27.879V5.19962C31.9223 3.50105 33.3042 2.11915 35.0028 2.11915H63.9333C65.6319 2.11915 67.0138 3.50105 67.0138 5.19962V6.52713C67.0137 7.08479 67.4656 7.5369 68.0234 7.5369ZM35.0026 32.979H38.071V36.248C38.071 37.3345 38.6658 38.3281 39.6233 38.8412C40.0591 39.0747 40.5363 39.1905 41.0121 39.1905C41.5808 39.1905 42.1474 39.0251 42.639 38.698L51.247 32.979H56.4946V56.8783C56.4946 58.2398 55.3868 59.3475 54.0253 59.3475H16.8497C16.2919 59.3475 15.8399 59.7996 15.8399 60.3573C15.8399 60.9149 16.2919 61.367 16.8497 61.367H54.0253C56.5005 61.367 58.5141 59.3534 58.5141 56.8783V32.979H60.5336V56.8769C60.5336 60.4663 57.6139 63.3866 54.0253 63.3866H8.62745C5.03886 63.3866 2.11915 60.4663 2.11915 56.8769V17.3909C2.11915 13.8022 5.03886 10.8826 8.62745 10.8826H29.9026V20.9505H9.40834C6.50262 20.9505 4.13869 23.3145 4.13869 26.2202V56.8781C4.13869 59.3533 6.1523 61.3669 8.62745 61.3669H12.8106C13.3684 61.3669 13.8204 60.9148 13.8204 60.3571C13.8204 59.7995 13.3684 59.3474 12.8106 59.3474H8.62745C7.26601 59.3474 6.15823 58.2397 6.15823 56.8781V26.2203C6.15823 24.4282 7.6162 22.9702 9.40834 22.9702H29.9026V27.879C29.9026 30.6912 32.1906 32.979 35.0026 32.979Z" fill="url(#paint6_linear_6_5241)" stroke="url(#paint7_linear_6_5241)" stroke-width="0.2"/>
<path d="M44.5095 23.1674C42.848 23.1674 41.4962 24.5192 41.4962 26.1807C41.4962 27.8423 42.848 29.194 44.5095 29.194H54.4264C56.0879 29.194 57.4397 27.8423 57.4397 26.1807C57.4397 24.5192 56.0879 23.1674 54.4264 23.1674H54.2053V16.0704C54.2053 14.4561 52.8919 13.1426 51.2775 13.1426H44.5094C42.8478 13.1426 41.4961 14.4943 41.4961 16.1559C41.4961 17.8174 42.8478 19.1692 44.5094 19.1692H45.2333V23.1674H44.5095ZM46.2432 17.1496H44.5095C43.9617 17.1496 43.5158 16.7038 43.5158 16.1559C43.5158 15.6079 43.9617 15.1621 44.5095 15.1621H51.2777C51.7785 15.1621 52.1859 15.5695 52.1859 16.0704V24.1772C52.1859 24.7349 52.6379 25.187 53.1957 25.187H54.4265C54.9744 25.187 55.4203 25.6328 55.4203 26.1807C55.4203 26.7287 54.9744 27.1745 54.4265 27.1745H44.5096C43.9618 27.1745 43.5159 26.7287 43.5159 26.1807C43.5159 25.6328 43.9618 25.187 44.5096 25.187H46.2434C46.8012 25.187 47.2531 24.7349 47.2531 24.1772V18.1594C47.253 17.6017 46.8009 17.1496 46.2432 17.1496Z" fill="url(#paint8_linear_6_5241)" stroke="url(#paint9_linear_6_5241)" stroke-width="0.2"/>
<path d="M54.2043 7.60507C54.2043 5.13154 52.1919 3.11914 49.7184 3.11914C47.2448 3.11914 45.2324 5.13154 45.2324 7.60507C45.2324 10.0786 47.2448 12.091 49.7184 12.091C52.1919 12.091 54.2043 10.0787 54.2043 7.60507ZM47.252 7.60507C47.252 6.24512 48.3584 5.13868 49.7184 5.13868C51.0783 5.13868 52.1848 6.24512 52.1848 7.60507C52.1848 8.96503 51.0783 10.0715 49.7184 10.0715C48.3584 10.0715 47.252 8.96503 47.252 7.60507Z" fill="url(#paint10_linear_6_5241)" stroke="url(#paint11_linear_6_5241)" stroke-width="0.2"/>
<path d="M16.5117 38.2715C16.5117 38.8292 16.9637 39.2813 17.5215 39.2813H33.0964C33.6542 39.2813 34.1062 38.8292 34.1062 38.2715C34.1062 37.7138 33.6542 37.2617 33.0964 37.2617H17.5215C16.9638 37.2617 16.5117 37.7138 16.5117 38.2715Z" fill="url(#paint12_linear_6_5241)" stroke="url(#paint13_linear_6_5241)" stroke-width="0.2"/>
<path d="M33.0978 42.5527H12.8106C12.2528 42.5527 11.8008 43.0048 11.8008 43.5625C11.8008 44.1202 12.2528 44.5723 12.8106 44.5723H33.0978C33.6556 44.5723 34.1075 44.1202 34.1075 43.5625C34.1075 43.0048 33.6554 42.5527 33.0978 42.5527Z" fill="url(#paint14_linear_6_5241)" stroke="url(#paint15_linear_6_5241)" stroke-width="0.2"/>
<path d="M33.0978 47.8438H12.8106C12.2528 47.8438 11.8008 48.2959 11.8008 48.8535C11.8008 49.4112 12.2528 49.8633 12.8106 49.8633H33.0978C33.6556 49.8633 34.1075 49.4112 34.1075 48.8535C34.1075 48.2959 33.6554 47.8438 33.0978 47.8438Z" fill="url(#paint16_linear_6_5241)" stroke="url(#paint17_linear_6_5241)" stroke-width="0.2"/>
<path d="M26.366 53.1348H12.8106C12.2528 53.1348 11.8008 53.5869 11.8008 54.1445C11.8008 54.7022 12.2528 55.1543 12.8106 55.1543H26.366C26.9238 55.1543 27.3757 54.7022 27.3757 54.1445C27.3757 53.5869 26.9236 53.1348 26.366 53.1348Z" fill="url(#paint18_linear_6_5241)" stroke="url(#paint19_linear_6_5241)" stroke-width="0.2"/>
<defs>
<linearGradient id="paint0_linear_6_5241" x1="9.79876" y1="14" x2="5.29382" y2="18.5544" gradientUnits="userSpaceOnUse">
<stop stop-color="#4338CA"/>
<stop offset="1" stop-color="#1F1A63"/>
</linearGradient>
<linearGradient id="paint1_linear_6_5241" x1="9.79876" y1="14" x2="5.29382" y2="18.5544" gradientUnits="userSpaceOnUse">
<stop stop-color="#4338CA"/>
<stop offset="1" stop-color="#1F1A63"/>
</linearGradient>
<linearGradient id="paint2_linear_6_5241" x1="17.627" y1="14" x2="13.1221" y2="18.5544" gradientUnits="userSpaceOnUse">
<stop stop-color="#4338CA"/>
<stop offset="1" stop-color="#1F1A63"/>
</linearGradient>
<linearGradient id="paint3_linear_6_5241" x1="17.627" y1="14" x2="13.1221" y2="18.5544" gradientUnits="userSpaceOnUse">
<stop stop-color="#4338CA"/>
<stop offset="1" stop-color="#1F1A63"/>
</linearGradient>
<linearGradient id="paint4_linear_6_5241" x1="25.457" y1="14" x2="20.952" y2="18.5543" gradientUnits="userSpaceOnUse">
<stop stop-color="#4338CA"/>
<stop offset="1" stop-color="#1F1A63"/>
</linearGradient>
<linearGradient id="paint5_linear_6_5241" x1="25.457" y1="14" x2="20.952" y2="18.5543" gradientUnits="userSpaceOnUse">
<stop stop-color="#4338CA"/>
<stop offset="1" stop-color="#1F1A63"/>
</linearGradient>
<linearGradient id="paint6_linear_6_5241" x1="56.2846" y1="13.4714" x2="14.0066" y2="58.5873" gradientUnits="userSpaceOnUse">
<stop stop-color="#4338CA"/>
<stop offset="1" stop-color="#1F1A63"/>
</linearGradient>
<linearGradient id="paint7_linear_6_5241" x1="56.2846" y1="13.4714" x2="14.0066" y2="58.5873" gradientUnits="userSpaceOnUse">
<stop stop-color="#4338CA"/>
<stop offset="1" stop-color="#1F1A63"/>
</linearGradient>
<linearGradient id="paint8_linear_6_5241" x1="54.4911" y1="16.4292" x2="44.0779" y2="26.8859" gradientUnits="userSpaceOnUse">
<stop stop-color="#4338CA"/>
<stop offset="1" stop-color="#1F1A63"/>
</linearGradient>
<linearGradient id="paint9_linear_6_5241" x1="54.4911" y1="16.4292" x2="44.0779" y2="26.8859" gradientUnits="userSpaceOnUse">
<stop stop-color="#4338CA"/>
<stop offset="1" stop-color="#1F1A63"/>
</linearGradient>
<linearGradient id="paint10_linear_6_5241" x1="52.545" y1="4.95616" x2="46.7249" y2="10.8401" gradientUnits="userSpaceOnUse">
<stop stop-color="#4338CA"/>
<stop offset="1" stop-color="#1F1A63"/>
</linearGradient>
<linearGradient id="paint11_linear_6_5241" x1="52.545" y1="4.95616" x2="46.7249" y2="10.8401" gradientUnits="userSpaceOnUse">
<stop stop-color="#4338CA"/>
<stop offset="1" stop-color="#1F1A63"/>
</linearGradient>
<linearGradient id="paint12_linear_6_5241" x1="30.8523" y1="37.6752" x2="30.5586" y2="40.2622" gradientUnits="userSpaceOnUse">
<stop stop-color="#4338CA"/>
<stop offset="1" stop-color="#1F1A63"/>
</linearGradient>
<linearGradient id="paint13_linear_6_5241" x1="30.8523" y1="37.6752" x2="30.5586" y2="40.2622" gradientUnits="userSpaceOnUse">
<stop stop-color="#4338CA"/>
<stop offset="1" stop-color="#1F1A63"/>
</linearGradient>
<linearGradient id="paint14_linear_6_5241" x1="29.9821" y1="42.9662" x2="29.7493" y2="45.5657" gradientUnits="userSpaceOnUse">
<stop stop-color="#4338CA"/>
<stop offset="1" stop-color="#1F1A63"/>
</linearGradient>
<linearGradient id="paint15_linear_6_5241" x1="29.9821" y1="42.9662" x2="29.7493" y2="45.5657" gradientUnits="userSpaceOnUse">
<stop stop-color="#4338CA"/>
<stop offset="1" stop-color="#1F1A63"/>
</linearGradient>
<linearGradient id="paint16_linear_6_5241" x1="29.9821" y1="48.2573" x2="29.7493" y2="50.8567" gradientUnits="userSpaceOnUse">
<stop stop-color="#4338CA"/>
<stop offset="1" stop-color="#1F1A63"/>
</linearGradient>
<linearGradient id="paint17_linear_6_5241" x1="29.9821" y1="48.2573" x2="29.7493" y2="50.8567" gradientUnits="userSpaceOnUse">
<stop stop-color="#4338CA"/>
<stop offset="1" stop-color="#1F1A63"/>
</linearGradient>
<linearGradient id="paint18_linear_6_5241" x1="24.4953" y1="53.5483" x2="24.1647" y2="56.1262" gradientUnits="userSpaceOnUse">
<stop stop-color="#4338CA"/>
<stop offset="1" stop-color="#1F1A63"/>
</linearGradient>
<linearGradient id="paint19_linear_6_5241" x1="24.4953" y1="53.5483" x2="24.1647" y2="56.1262" gradientUnits="userSpaceOnUse">
<stop stop-color="#4338CA"/>
<stop offset="1" stop-color="#1F1A63"/>
</linearGradient>
</defs>
</svg>
