<svg width="70" height="67" viewBox="0 0 70 67" fill="none" xmlns="http://www.w3.org/2000/svg">
<path d="M69.4278 36.5999C68.8033 30.3178 65.9967 24.3953 61.5248 19.9233C57.7032 16.1018 53.0256 13.646 48.1038 12.5541V9.10202C50.114 8.6019 51.6083 6.78226 51.6083 4.61942C51.6083 2.07222 49.5361 0 46.9889 0H37.2066C34.6594 0 32.5872 2.07222 32.5872 4.61942C32.5872 6.78212 34.0814 8.60177 36.0915 9.10202V12.5637C31.1848 13.6603 26.5227 16.1127 22.7119 19.9234C21.878 20.7574 21.109 21.6322 20.4051 22.5414C20.371 22.5388 20.3369 22.5362 20.3021 22.5362H10.6202C9.86993 22.5362 9.26153 23.1445 9.26153 23.8949C9.26153 24.6453 9.86993 25.2536 10.6202 25.2536H18.5563C17.5602 26.9213 16.7569 28.6727 16.1456 30.4757H1.35865C0.608405 30.4757 0 31.0839 0 31.8343C0 32.5847 0.608405 33.193 1.35865 33.193H15.3778C14.9862 34.9118 14.7615 36.6611 14.7035 38.4152H8.69538C7.94513 38.4152 7.33673 39.0235 7.33673 39.7739C7.33673 40.5243 7.94513 41.1325 8.69538 41.1325H14.7468C14.8615 42.8912 15.1442 44.6406 15.5952 46.3548H6.79326C6.04302 46.3548 5.43461 46.9631 5.43461 47.7134C5.43461 48.4638 6.04302 49.0721 6.79326 49.0721H16.4623C17.7951 52.5979 19.878 55.9026 22.7119 58.7365C27.1881 63.2127 33.1168 66.0199 39.4054 66.6412C40.3029 66.7298 41.2011 66.7737 42.0981 66.7737C47.3999 66.7737 52.6342 65.2394 57.0756 62.3471C57.7044 61.9376 57.8823 61.0959 57.4728 60.4671C57.0633 59.8383 56.2216 59.6605 55.5928 60.07C45.8707 66.4009 32.8503 65.0321 24.6333 56.8151C14.9921 47.1738 14.9921 31.4864 24.6333 21.845C34.2745 12.2038 49.9619 12.2038 59.6033 21.845C67.8094 30.0512 69.1857 43.0605 62.8757 52.7778C62.4671 53.4072 62.646 54.2487 63.2752 54.6572C63.9048 55.0659 64.7461 54.887 65.1546 54.2577C68.526 49.0656 70.0436 42.7947 69.4278 36.5999ZM35.3045 4.61956C35.3045 3.57068 36.1577 2.71744 37.2066 2.71744H46.9889C48.0378 2.71744 48.891 3.57068 48.891 4.61956C48.891 5.66844 48.0378 6.52167 46.9889 6.52167H46.7451H37.4502H37.2066C36.1577 6.52167 35.3045 5.6683 35.3045 4.61956ZM38.8088 12.0966V9.23898H45.3865V12.0917C43.2023 11.832 40.9926 11.8336 38.8088 12.0966Z" fill="url(#paint0_linear_6_5252)"/>
<path d="M60.5657 56.416C60.207 56.416 59.8578 56.5614 59.6052 56.8141C59.3512 57.0668 59.207 57.4173 59.207 57.7746C59.207 58.132 59.3512 58.4825 59.6052 58.7352C59.8578 58.9893 60.2071 59.1333 60.5657 59.1333C60.923 59.1333 61.2722 58.9893 61.5262 58.7352C61.7789 58.4825 61.9243 58.132 61.9243 57.7746C61.9243 57.4173 61.7791 57.0668 61.5262 56.8141C61.2722 56.5614 60.9228 56.416 60.5657 56.416Z" fill="url(#paint1_linear_6_5252)"/>
<path d="M42.1177 18.2539C30.496 18.2539 21.041 27.7088 21.041 39.3306C21.041 50.9523 30.496 60.4072 42.1177 60.4072C53.7393 60.4072 63.1943 50.9523 63.1943 39.3306C63.1943 27.7088 53.7393 18.2539 42.1177 18.2539ZM42.1177 57.6899C31.9942 57.6899 23.7583 49.4539 23.7583 39.3306C23.7583 29.2072 31.9942 20.9712 42.1177 20.9712C52.2411 20.9712 60.477 29.2072 60.477 39.3306C60.477 49.4539 52.2411 57.6899 42.1177 57.6899Z" fill="url(#paint2_linear_6_5252)"/>
<path d="M50.7122 28.8139L43.9828 35.5432C43.4201 35.2649 42.7871 35.1078 42.1179 35.1078C41.4487 35.1078 40.8158 35.2649 40.2531 35.5432L37.2413 32.5315C36.7106 32.0009 35.8506 32.0009 35.3198 32.5315C34.7892 33.062 34.7892 33.9223 35.3198 34.4529L38.3315 37.4646C38.0531 38.0274 37.8961 38.6604 37.8961 39.3295C37.8961 41.6574 39.7899 43.5514 42.1179 43.5514C44.446 43.5514 46.3398 41.6574 46.3398 39.3295C46.3398 38.6604 46.1826 38.0274 45.9044 37.4646L52.4362 30.9328L52.6336 30.7353C53.1642 30.2048 53.1642 29.3445 52.6336 28.8139C52.1031 28.2834 51.2431 28.2834 50.7122 28.8139ZM42.1179 40.8342C41.2884 40.8342 40.6134 40.1592 40.6134 39.3296C40.6134 38.5 41.2884 37.8251 42.1179 37.8251C42.9475 37.8251 43.6225 38.5 43.6225 39.3296C43.6225 40.1592 42.9475 40.8342 42.1179 40.8342Z" fill="url(#paint3_linear_6_5252)"/>
<path d="M56.6467 37.9883H55.3879C54.6377 37.9883 54.0293 38.5965 54.0293 39.3469C54.0293 40.0973 54.6377 40.7055 55.3879 40.7055H56.6467C57.3969 40.7055 58.0053 40.0973 58.0053 39.3469C58.0053 38.5965 57.3969 37.9883 56.6467 37.9883Z" fill="url(#paint4_linear_6_5252)"/>
<path d="M28.8497 37.9551H27.5911C26.8408 37.9551 26.2324 38.5633 26.2324 39.3137C26.2324 40.0641 26.8408 40.6723 27.5911 40.6723H28.8497C29.5999 40.6723 30.2083 40.0641 30.2083 39.3137C30.2083 38.5633 29.5999 37.9551 28.8497 37.9551Z" fill="url(#paint5_linear_6_5252)"/>
<path d="M42.134 27.4212C42.8843 27.4212 43.4927 26.813 43.4927 26.0626V24.8039C43.4927 24.0536 42.8843 23.4453 42.134 23.4453C41.3838 23.4453 40.7754 24.0536 40.7754 24.8039V26.0626C40.7754 26.813 41.3838 27.4212 42.134 27.4212Z" fill="url(#paint6_linear_6_5252)"/>
<path d="M42.1008 51.2402C41.3506 51.2402 40.7422 51.8485 40.7422 52.5989V53.8575C40.7422 54.6079 41.3506 55.2161 42.1008 55.2161C42.8511 55.2161 43.4595 54.6079 43.4595 53.8575V52.5989C43.4595 51.8485 42.8511 51.2402 42.1008 51.2402Z" fill="url(#paint7_linear_6_5252)"/>
<path d="M1.35863 46.3535C1.00131 46.3535 0.650785 46.4989 0.398079 46.7516C0.145374 47.0043 0 47.3548 0 47.7121C0 48.0708 0.145238 48.42 0.398079 48.6727C0.65092 48.9254 1.00131 49.0708 1.35863 49.0708C1.71595 49.0708 2.06648 48.9254 2.31905 48.6727C2.57175 48.42 2.71726 48.0695 2.71726 47.7121C2.71726 47.3548 2.57189 47.0043 2.31905 46.7516C2.06648 46.4989 1.71595 46.3535 1.35863 46.3535Z" fill="url(#paint8_linear_6_5252)"/>
<defs>
<linearGradient id="paint0_linear_6_5252" x1="56.6971" y1="13.6721" x2="13.4363" y2="59.2342" gradientUnits="userSpaceOnUse">
<stop stop-color="#4338CA"/>
<stop offset="1" stop-color="#1F1A63"/>
</linearGradient>
<linearGradient id="paint1_linear_6_5252" x1="61.4218" y1="56.9724" x2="59.6591" y2="58.7544" gradientUnits="userSpaceOnUse">
<stop stop-color="#4338CA"/>
<stop offset="1" stop-color="#1F1A63"/>
</linearGradient>
<linearGradient id="paint2_linear_6_5252" x1="55.3985" y1="26.8849" x2="28.0534" y2="54.5302" gradientUnits="userSpaceOnUse">
<stop stop-color="#4338CA"/>
<stop offset="1" stop-color="#1F1A63"/>
</linearGradient>
<linearGradient id="paint3_linear_6_5252" x1="49.6823" y1="31.515" x2="40.0386" y2="43.1806" gradientUnits="userSpaceOnUse">
<stop stop-color="#4338CA"/>
<stop offset="1" stop-color="#1F1A63"/>
</linearGradient>
<linearGradient id="paint4_linear_6_5252" x1="57.27" y1="38.5446" x2="55.6342" y2="40.9645" gradientUnits="userSpaceOnUse">
<stop stop-color="#4338CA"/>
<stop offset="1" stop-color="#1F1A63"/>
</linearGradient>
<linearGradient id="paint5_linear_6_5252" x1="29.473" y1="38.5114" x2="27.8372" y2="40.9312" gradientUnits="userSpaceOnUse">
<stop stop-color="#4338CA"/>
<stop offset="1" stop-color="#1F1A63"/>
</linearGradient>
<linearGradient id="paint6_linear_6_5252" x1="42.9901" y1="24.2594" x2="40.5776" y2="25.9263" gradientUnits="userSpaceOnUse">
<stop stop-color="#4338CA"/>
<stop offset="1" stop-color="#1F1A63"/>
</linearGradient>
<linearGradient id="paint7_linear_6_5252" x1="42.9569" y1="52.0543" x2="40.5443" y2="53.7212" gradientUnits="userSpaceOnUse">
<stop stop-color="#4338CA"/>
<stop offset="1" stop-color="#1F1A63"/>
</linearGradient>
<linearGradient id="paint8_linear_6_5252" x1="2.21473" y1="46.9099" x2="0.452031" y2="48.6919" gradientUnits="userSpaceOnUse">
<stop stop-color="#4338CA"/>
<stop offset="1" stop-color="#1F1A63"/>
</linearGradient>
</defs>
</svg>
