<svg width="72" height="65" viewBox="0 0 72 65" fill="none" xmlns="http://www.w3.org/2000/svg">
<mask id="path-1-inside-1_6_5223" fill="white">
<path d="M68.5028 51.147C67.4736 50.2627 66.8835 49.0139 66.8835 47.7207V36.567C66.8835 36.5613 66.8826 36.5558 66.8826 36.5503C66.8732 31.7589 62.9727 27.8638 58.1792 27.8638H56.9394V5.17857C56.9394 2.32306 54.6163 0 51.7608 0H17.6659C16.8981 0 16.2757 0.622401 16.2757 1.39022C16.2757 2.15804 16.8981 2.78044 17.6659 2.78044H51.7607C53.083 2.78044 54.1588 3.85619 54.1588 5.17857V27.8636H51.867C51.022 27.8636 50.176 27.9882 49.3667 28.2305V8.8557C49.3667 8.08788 48.7442 7.46548 47.9765 7.46548H40.1675V6.33078C40.1675 5.56297 39.5449 4.94056 38.7773 4.94056C38.0096 4.94056 37.387 5.56297 37.387 6.33078V7.46548H29.8598V6.33078C29.8598 5.56297 29.2374 4.94056 28.4696 4.94056C27.7018 4.94056 27.0794 5.56297 27.0794 6.33078V7.46548H19.5522V6.33078C19.5522 5.56297 18.9298 4.94056 18.162 4.94056C17.3942 4.94056 16.7718 5.56297 16.7718 6.33078V7.46548H8.96275C8.19493 7.46548 7.57253 8.08788 7.57253 8.8557V36.1346C7.57253 36.6245 7.84835 37.0968 8.27167 37.3406L21.5622 44.9966C21.7703 45.1164 22.0159 45.1821 22.2562 45.1821H43.1636V47.7207C43.1636 48.3834 43.0052 49.0401 42.7149 49.635H5.17857C3.85619 49.635 2.78044 48.5593 2.78044 47.2369V5.17857C2.78044 3.85619 3.85619 2.78044 5.17857 2.78044H5.30911C6.07693 2.78044 6.69933 2.15804 6.69933 1.39022C6.69933 0.622401 6.07693 0 5.30911 0H5.17857C2.32306 0 0 2.3232 0 5.17857V47.2369C0 50.0924 2.32306 52.4155 5.17857 52.4155H40.3799C39.5979 53.5041 38.9541 55.0435 38.9541 57.1631C38.9541 57.9309 39.5766 58.5533 40.3443 58.5533H49.1323C49.2555 61.6971 51.8502 64.217 55.0237 64.217C58.1964 64.217 60.7904 61.6971 60.9137 58.5533H69.7017C70.4694 58.5533 71.092 57.9309 71.092 57.1631C71.0917 54.0283 69.6837 52.1611 68.5028 51.147ZM63.9377 35.1767H46.1097C46.737 32.5528 49.1737 30.6446 51.8663 30.6446L58.179 30.6441C60.9666 30.6442 63.3103 32.5794 63.9377 35.1767ZM13.0959 36.9109C14.9285 36.3655 16.4699 35.5073 17.6626 34.3807L19.7844 40.7638L13.0959 36.9109ZM23.2588 42.4017L19.4812 31.0375C19.306 30.5103 18.8337 30.138 18.2801 30.0908C17.7257 30.0432 17.1981 30.3303 16.9361 30.8202C15.4567 33.5854 12.1749 34.406 10.3528 34.649V10.2459H16.7716V11.4373C16.7716 12.2052 17.394 12.8276 18.1618 12.8276C18.9297 12.8276 19.5521 12.2052 19.5521 11.4373V10.2459H27.0793V11.4373C27.0793 12.2052 27.7017 12.8276 28.4695 12.8276C29.2373 12.8276 29.8597 12.2052 29.8597 11.4373V10.2459H37.3869V11.4373C37.3869 12.2052 38.0094 12.8276 38.7771 12.8276C39.5448 12.8276 40.1673 12.2052 40.1673 11.4373V10.2459H46.5863V29.6484C44.4448 31.2742 43.1448 33.8862 43.1637 36.5782V42.4017H23.2588ZM55.0235 61.4366C53.3835 61.4366 52.0352 60.1633 51.9154 58.5533H58.1304C58.0105 60.1633 56.6629 61.4366 55.0235 61.4366ZM59.3791 55.7728H50.6666H41.8777C42.1042 54.7487 42.5983 53.9055 43.355 53.2559C44.9578 51.8786 45.944 49.8429 45.944 47.7207V37.9577H64.103V47.7207C64.103 49.8253 65.0462 51.8428 66.6911 53.2561C67.4474 53.9056 67.9414 54.7488 68.1679 55.773L59.3791 55.7728Z"/>
</mask>
<path d="M68.5028 51.147C67.4736 50.2627 66.8835 49.0139 66.8835 47.7207V36.567C66.8835 36.5613 66.8826 36.5558 66.8826 36.5503C66.8732 31.7589 62.9727 27.8638 58.1792 27.8638H56.9394V5.17857C56.9394 2.32306 54.6163 0 51.7608 0H17.6659C16.8981 0 16.2757 0.622401 16.2757 1.39022C16.2757 2.15804 16.8981 2.78044 17.6659 2.78044H51.7607C53.083 2.78044 54.1588 3.85619 54.1588 5.17857V27.8636H51.867C51.022 27.8636 50.176 27.9882 49.3667 28.2305V8.8557C49.3667 8.08788 48.7442 7.46548 47.9765 7.46548H40.1675V6.33078C40.1675 5.56297 39.5449 4.94056 38.7773 4.94056C38.0096 4.94056 37.387 5.56297 37.387 6.33078V7.46548H29.8598V6.33078C29.8598 5.56297 29.2374 4.94056 28.4696 4.94056C27.7018 4.94056 27.0794 5.56297 27.0794 6.33078V7.46548H19.5522V6.33078C19.5522 5.56297 18.9298 4.94056 18.162 4.94056C17.3942 4.94056 16.7718 5.56297 16.7718 6.33078V7.46548H8.96275C8.19493 7.46548 7.57253 8.08788 7.57253 8.8557V36.1346C7.57253 36.6245 7.84835 37.0968 8.27167 37.3406L21.5622 44.9966C21.7703 45.1164 22.0159 45.1821 22.2562 45.1821H43.1636V47.7207C43.1636 48.3834 43.0052 49.0401 42.7149 49.635H5.17857C3.85619 49.635 2.78044 48.5593 2.78044 47.2369V5.17857C2.78044 3.85619 3.85619 2.78044 5.17857 2.78044H5.30911C6.07693 2.78044 6.69933 2.15804 6.69933 1.39022C6.69933 0.622401 6.07693 0 5.30911 0H5.17857C2.32306 0 0 2.3232 0 5.17857V47.2369C0 50.0924 2.32306 52.4155 5.17857 52.4155H40.3799C39.5979 53.5041 38.9541 55.0435 38.9541 57.1631C38.9541 57.9309 39.5766 58.5533 40.3443 58.5533H49.1323C49.2555 61.6971 51.8502 64.217 55.0237 64.217C58.1964 64.217 60.7904 61.6971 60.9137 58.5533H69.7017C70.4694 58.5533 71.092 57.9309 71.092 57.1631C71.0917 54.0283 69.6837 52.1611 68.5028 51.147ZM63.9377 35.1767H46.1097C46.737 32.5528 49.1737 30.6446 51.8663 30.6446L58.179 30.6441C60.9666 30.6442 63.3103 32.5794 63.9377 35.1767ZM13.0959 36.9109C14.9285 36.3655 16.4699 35.5073 17.6626 34.3807L19.7844 40.7638L13.0959 36.9109ZM23.2588 42.4017L19.4812 31.0375C19.306 30.5103 18.8337 30.138 18.2801 30.0908C17.7257 30.0432 17.1981 30.3303 16.9361 30.8202C15.4567 33.5854 12.1749 34.406 10.3528 34.649V10.2459H16.7716V11.4373C16.7716 12.2052 17.394 12.8276 18.1618 12.8276C18.9297 12.8276 19.5521 12.2052 19.5521 11.4373V10.2459H27.0793V11.4373C27.0793 12.2052 27.7017 12.8276 28.4695 12.8276C29.2373 12.8276 29.8597 12.2052 29.8597 11.4373V10.2459H37.3869V11.4373C37.3869 12.2052 38.0094 12.8276 38.7771 12.8276C39.5448 12.8276 40.1673 12.2052 40.1673 11.4373V10.2459H46.5863V29.6484C44.4448 31.2742 43.1448 33.8862 43.1637 36.5782V42.4017H23.2588ZM55.0235 61.4366C53.3835 61.4366 52.0352 60.1633 51.9154 58.5533H58.1304C58.0105 60.1633 56.6629 61.4366 55.0235 61.4366ZM59.3791 55.7728H50.6666H41.8777C42.1042 54.7487 42.5983 53.9055 43.355 53.2559C44.9578 51.8786 45.944 49.8429 45.944 47.7207V37.9577H64.103V47.7207C64.103 49.8253 65.0462 51.8428 66.6911 53.2561C67.4474 53.9056 67.9414 54.7488 68.1679 55.773L59.3791 55.7728Z" fill="url(#paint0_linear_6_5223)" stroke="white" stroke-width="0.6" mask="url(#path-1-inside-1_6_5223)"/>
<path d="M62.1006 24.2041C62.2997 23.5505 62.9856 23.1808 63.6396 23.377C63.833 23.4349 68.5897 24.9092 70.9111 29.8359C71.2029 30.4555 70.9369 31.1944 70.3174 31.4863C69.7074 31.7736 68.9542 31.5022 68.667 30.8926C66.8315 26.9977 62.9721 25.766 62.9238 25.751C62.271 25.5492 61.9019 24.8572 62.1006 24.2041Z" fill="url(#paint1_linear_6_5223)" stroke="white" stroke-width="0.3"/>
<path d="M34.6797 56.6582C35.3644 56.6584 35.9199 57.2136 35.9199 57.8984C35.9201 59.7785 37.4488 61.3084 39.3291 61.3086C40.0138 61.3086 40.5691 61.8631 40.5693 62.5479C40.5693 63.2327 40.0147 63.7878 39.3301 63.7881C36.0824 63.7881 33.4397 61.1461 33.4395 57.8984C33.4395 57.2135 33.9948 56.6582 34.6797 56.6582Z" fill="url(#paint2_linear_6_5223)" stroke="white" stroke-width="0.3"/>
<path d="M44.9199 61.4287C45.5505 61.1303 46.3254 61.4293 46.5938 62.0732C46.8529 62.6952 46.5458 63.4348 45.9229 63.6924C45.3197 63.9418 44.6003 63.6626 44.3252 63.0713C44.0416 62.4619 44.3129 61.7162 44.9199 61.4287Z" fill="url(#paint3_linear_6_5223)" stroke="white" stroke-width="0.3"/>
<path d="M11.1934 0.245117C11.8162 -0.0123221 12.5545 0.293325 12.8125 0.916016C13.0707 1.54028 12.7647 2.27449 12.1416 2.53516C11.5584 2.77905 10.8732 2.52336 10.5762 1.97754L10.5225 1.86523C10.2665 1.23965 10.5685 0.503635 11.1934 0.245117Z" fill="url(#paint4_linear_6_5223)" stroke="white" stroke-width="0.3"/>
<path d="M26.6191 18.2539H29.7197C30.4047 18.2539 30.96 18.8093 30.96 19.4941V34.0029C30.9598 34.6877 30.4046 35.2432 29.7197 35.2432C29.035 35.2431 28.4797 34.6877 28.4795 34.0029V20.7344H26.6191C25.9343 20.7344 25.3791 20.1789 25.3789 19.4941C25.3789 18.8092 25.9342 18.2539 26.6191 18.2539Z" fill="url(#paint5_linear_6_5223)" stroke="white" stroke-width="0.3"/>
<defs>
<linearGradient id="paint0_linear_6_5223" x1="57.9442" y1="13.1486" x2="16.5467" y2="59.4812" gradientUnits="userSpaceOnUse">
<stop stop-color="#4338CA"/>
<stop offset="1" stop-color="#1F1A63"/>
</linearGradient>
<linearGradient id="paint1_linear_6_5223" x1="69.4627" y1="24.9301" x2="63.9206" y2="30.994" gradientUnits="userSpaceOnUse">
<stop stop-color="#4338CA"/>
<stop offset="1" stop-color="#1F1A63"/>
</linearGradient>
<linearGradient id="paint2_linear_6_5223" x1="39.3456" y1="58.0293" x2="34.5252" y2="62.9026" gradientUnits="userSpaceOnUse">
<stop stop-color="#4338CA"/>
<stop offset="1" stop-color="#1F1A63"/>
</linearGradient>
<linearGradient id="paint3_linear_6_5223" x1="46.3231" y1="61.7297" x2="44.5249" y2="63.5486" gradientUnits="userSpaceOnUse">
<stop stop-color="#4338CA"/>
<stop offset="1" stop-color="#1F1A63"/>
</linearGradient>
<linearGradient id="paint4_linear_6_5223" x1="12.5418" y1="0.571841" x2="10.7425" y2="2.39078" gradientUnits="userSpaceOnUse">
<stop stop-color="#4338CA"/>
<stop offset="1" stop-color="#1F1A63"/>
</linearGradient>
<linearGradient id="paint5_linear_6_5223" x1="30.0224" y1="21.6435" x2="23.1233" y2="24.0163" gradientUnits="userSpaceOnUse">
<stop stop-color="#4338CA"/>
<stop offset="1" stop-color="#1F1A63"/>
</linearGradient>
</defs>
</svg>
