<svg width="53" height="68" viewBox="0 0 53 68" fill="none" xmlns="http://www.w3.org/2000/svg">
<path d="M0.993189 13.7983C1.54169 13.7983 1.98638 13.3538 1.98638 12.8051V7.84977C1.98638 4.61661 4.61674 1.98638 7.8499 1.98638H33.1838C36.4169 1.98638 39.0473 4.61661 39.0473 7.84977V14.3464C39.0473 14.8951 39.492 15.3396 40.0405 15.3396C40.589 15.3396 41.0337 14.8951 41.0337 14.3464V7.84977C41.0337 3.52145 37.5122 0 33.1838 0H7.8499C3.52145 0 0 3.52145 0 7.84977V12.8051C0 13.3538 0.444684 13.7983 0.993189 13.7983Z" fill="url(#paint0_linear_6_5275)"/>
<path d="M40.0405 46.9033C39.492 46.9033 39.0473 47.3479 39.0473 47.8965V60.1179C39.0473 63.3511 36.4169 65.9813 33.1838 65.9813H7.8499C4.61674 65.9813 1.98638 63.3511 1.98638 60.1179V17.0362C1.98638 16.4875 1.54169 16.043 0.993189 16.043C0.444684 16.043 0 16.4875 0 17.0362V60.1179C0 64.4464 3.52145 67.9677 7.8499 67.9677H33.1838C37.5122 67.9677 41.0337 64.4462 41.0337 60.1179V47.8965C41.0337 47.348 40.589 46.9033 40.0405 46.9033Z" fill="url(#paint1_linear_6_5275)"/>
<path d="M36.0696 15.8232C36.6181 15.8232 37.0628 15.3787 37.0628 14.83V7.85162C37.0628 5.71388 35.3235 3.97461 33.1858 3.97461H31.5461C30.7817 3.97461 30.0875 4.45545 29.819 5.17107L29.4287 6.21061C29.1455 6.9649 28.4138 7.47183 27.608 7.47183H13.4294C12.6236 7.47183 11.8919 6.96503 11.6087 6.21061L11.2184 5.17107C10.9497 4.45545 10.2557 3.97461 9.49131 3.97461H7.85175C5.71388 3.97461 3.97461 5.71388 3.97461 7.85162V60.1213C3.97461 62.2592 5.71388 63.9983 7.85175 63.9983H25.7139C26.2624 63.9983 26.7071 63.5538 26.7071 63.0051C26.7071 62.4565 26.2624 62.0119 25.7139 62.0119H7.85175C6.80917 62.0119 5.96099 61.1638 5.96099 60.1213V7.85162C5.96099 6.80917 6.80917 5.96099 7.85175 5.96099H9.39332L9.74914 6.90862C10.3216 8.43363 11.8005 9.4582 13.4295 9.4582H27.608C29.2368 9.4582 30.7159 8.43363 31.2884 6.90862L31.6441 5.96099H33.1858C34.2283 5.96099 35.0764 6.80917 35.0764 7.85162V14.8299C35.0764 15.3785 35.5211 15.8232 36.0696 15.8232Z" fill="url(#paint2_linear_6_5275)"/>
<path d="M33.1854 63.9967C35.3233 63.9967 37.0624 62.2574 37.0624 60.1197V47.919C37.0624 47.3703 36.6178 46.9258 36.0693 46.9258C35.5208 46.9258 35.0761 47.3703 35.0761 47.919V60.1197C35.0761 61.1623 34.2279 62.0103 33.1854 62.0103H29.9463C29.3978 62.0103 28.9531 62.4549 28.9531 63.0035C28.9531 63.5522 29.3978 63.9967 29.9463 63.9967H33.1854Z" fill="url(#paint3_linear_6_5275)"/>
<path d="M26.0533 5.58208C26.6018 5.58208 27.0465 5.13753 27.0465 4.58889C27.0465 4.04025 26.6018 3.5957 26.0533 3.5957H15.5498C15.0013 3.5957 14.5566 4.04025 14.5566 4.58889C14.5566 5.13753 15.0013 5.58208 15.5498 5.58208H26.0533Z" fill="url(#paint4_linear_6_5275)"/>
<path d="M49.5905 27.2928C49.5905 25.7578 49.2442 24.2765 48.5921 22.9354L49.5749 21.9525C50.8486 20.6787 50.8486 18.606 49.5748 17.3321C48.301 16.0587 46.2284 16.0584 44.9545 17.3322L43.963 18.3237C41.12 16.9567 37.7019 16.9712 34.8388 18.5334C34.3573 18.7962 34.1798 19.3995 34.4426 19.881C34.7053 20.3625 35.3085 20.54 35.7901 20.2772C38.8784 18.5918 42.7742 19.1536 45.2637 21.6431C46.7728 23.1522 47.6039 25.1585 47.6039 27.2927C47.6039 29.4269 46.7728 31.4335 45.2637 32.9425L41.0135 37.1927L36.3515 32.5307C35.9636 32.1429 35.3347 32.1429 34.947 32.5307C34.5591 32.9187 34.5591 33.5474 34.947 33.9353L39.8749 38.8631L38.4749 42.9978C38.4022 43.2123 38.2326 43.2815 38.1379 43.3036C38.0433 43.3256 37.8603 43.3388 37.7002 43.1787L23.728 29.2067C23.5679 29.0466 23.581 28.8637 23.6032 28.769C23.6253 28.6743 23.6944 28.5047 23.9089 28.432L28.6282 26.834C28.7728 26.7851 28.904 26.7036 29.0119 26.5956L32.7654 22.842C33.1533 22.454 33.1533 21.8253 32.7654 21.4374C32.3775 21.0497 31.7486 21.0497 31.3609 21.4374L27.7715 25.0269L23.2721 26.5505C22.4627 26.8245 21.8634 27.485 21.669 28.3172C21.4746 29.1493 21.7193 30.007 22.3235 30.6113L26.2928 34.5806C24.933 36.2643 25.0347 38.7446 26.5986 40.3086C27.4351 41.145 28.5339 41.5634 29.6327 41.5634C30.5882 41.5634 31.5435 41.2468 32.3265 40.6143L36.2958 44.5836C36.7636 45.0513 37.3831 45.3037 38.0252 45.3037C38.2126 45.3037 38.4019 45.2821 38.59 45.2383C39.4221 45.0439 40.0825 44.4447 40.3567 43.6353L41.8803 39.1358L46.6687 34.3474C48.5529 32.463 49.5905 29.9576 49.5905 27.2928ZM46.3591 18.7369C46.8583 18.2375 47.671 18.2375 48.1703 18.7367C48.6697 19.2361 48.6697 20.0487 48.1703 20.548L47.5148 21.2035C47.2547 20.8674 46.9739 20.5441 46.6684 20.2386C46.3629 19.933 46.0398 19.6516 45.7029 19.393L46.3591 18.7369ZM28.0031 38.904C27.2152 38.1161 27.1185 36.895 27.7124 36.0003L30.9068 39.1948C30.0123 39.7889 28.791 39.6922 28.0031 38.904Z" fill="url(#paint5_linear_6_5275)"/>
<path d="M31.8592 29.4453C31.4714 29.8333 31.4714 30.4621 31.8593 30.8498L32.3708 31.3612C32.5647 31.5552 32.819 31.6521 33.0731 31.6521C33.3272 31.6521 33.5815 31.5551 33.7755 31.3611C34.1632 30.9731 34.1632 30.3444 33.7753 29.9566L33.2638 29.4452C32.8759 29.0572 32.247 29.0574 31.8592 29.4453Z" fill="url(#paint6_linear_6_5275)"/>
<path d="M28.0646 13.9598C25.9597 13.7704 23.9215 14.4247 22.3265 15.7993C20.7315 17.174 19.7846 19.093 19.66 21.2028C19.6276 21.7505 20.0453 22.2206 20.5929 22.2529C20.6129 22.2541 20.6326 22.2546 20.6524 22.2546C21.1741 22.2546 21.6118 21.8476 21.6429 21.3198C21.7355 19.7511 22.4388 18.3249 23.6233 17.3042C24.8077 16.2832 26.322 15.7982 27.8875 15.9384C28.4334 15.9867 28.9165 15.584 28.9653 15.0376C29.0142 14.4912 28.6108 14.0087 28.0646 13.9598Z" fill="url(#paint7_linear_6_5275)"/>
<path d="M27.9892 17.9474C26.8853 17.7648 25.7663 18.0786 24.9201 18.808C24.0738 19.5374 23.5983 20.5975 23.6157 21.7165C23.624 22.2598 24.0671 22.6943 24.6085 22.6943C24.6138 22.6943 24.6191 22.6943 24.6242 22.6942C25.1727 22.6857 25.6104 22.2341 25.6019 21.6857C25.5937 21.1571 25.8179 20.6567 26.2171 20.3128C26.6161 19.9688 27.1439 19.8213 27.6657 19.9071C28.2067 19.9968 28.718 19.6305 28.8074 19.0891C28.8965 18.5479 28.5304 18.0368 27.9892 17.9474Z" fill="url(#paint8_linear_6_5275)"/>
<path d="M52.9511 38.8443C52.9023 38.2981 52.4198 37.894 51.8733 37.9436C51.3271 37.9924 50.9237 38.475 50.9726 39.0212C51.1127 40.5865 50.6276 42.101 49.6067 43.2855C48.586 44.47 47.1598 45.1733 45.5909 45.2659C45.0434 45.2982 44.6257 45.7683 44.658 46.316C44.6891 46.8436 45.1268 47.2507 45.6485 47.2507C45.6681 47.2507 45.688 47.2501 45.708 47.2489C47.8179 47.1245 49.7369 46.1774 51.1115 44.5823C52.4862 42.9871 53.1396 40.9495 52.9511 38.8443Z" fill="url(#paint9_linear_6_5275)"/>
<path d="M45.2517 43.2917C46.3489 43.2915 47.3846 42.8181 48.101 41.9867C48.8304 41.1403 49.1441 40.0217 48.9617 38.9175C48.8722 38.3763 48.3605 38.0095 47.82 38.0995C47.2788 38.1889 46.9125 38.7001 47.0019 39.2413C47.0881 39.7628 46.9401 40.2909 46.5962 40.6898C46.2523 41.089 45.7515 41.3103 45.2234 41.3049C44.6798 41.2997 44.2234 41.7339 44.215 42.2826C44.2065 42.8311 44.6442 43.2825 45.1927 43.291C45.2124 43.2914 45.232 43.2917 45.2517 43.2917Z" fill="url(#paint10_linear_6_5275)"/>
<defs>
<linearGradient id="paint0_linear_6_5275" x1="33.4449" y1="3.14083" x2="26.9706" y2="20.6498" gradientUnits="userSpaceOnUse">
<stop stop-color="#4338CA"/>
<stop offset="1" stop-color="#1F1A63"/>
</linearGradient>
<linearGradient id="paint1_linear_6_5275" x1="33.4449" y1="26.6747" x2="0.590387" y2="52.9231" gradientUnits="userSpaceOnUse">
<stop stop-color="#4338CA"/>
<stop offset="1" stop-color="#1F1A63"/>
</linearGradient>
<linearGradient id="paint2_linear_6_5275" x1="30.9434" y1="16.2647" x2="-2.1736" y2="34.7209" gradientUnits="userSpaceOnUse">
<stop stop-color="#4338CA"/>
<stop offset="1" stop-color="#1F1A63"/>
</linearGradient>
<linearGradient id="paint3_linear_6_5275" x1="35.5627" y1="50.4211" x2="26.919" y2="54.5722" gradientUnits="userSpaceOnUse">
<stop stop-color="#4338CA"/>
<stop offset="1" stop-color="#1F1A63"/>
</linearGradient>
<linearGradient id="paint4_linear_6_5275" x1="24.7366" y1="4.00242" x2="24.3409" y2="6.51748" gradientUnits="userSpaceOnUse">
<stop stop-color="#4338CA"/>
<stop offset="1" stop-color="#1F1A63"/>
</linearGradient>
<linearGradient id="paint5_linear_6_5275" x1="45.1804" y1="22.2998" x2="26.4155" y2="41.2706" gradientUnits="userSpaceOnUse">
<stop stop-color="#4338CA"/>
<stop offset="1" stop-color="#1F1A63"/>
</linearGradient>
<linearGradient id="paint6_linear_6_5275" x1="33.6043" y1="29.6657" x2="31.984" y2="31.3039" gradientUnits="userSpaceOnUse">
<stop stop-color="#4338CA"/>
<stop offset="1" stop-color="#1F1A63"/>
</linearGradient>
<linearGradient id="paint7_linear_6_5275" x1="27.2473" y1="15.6327" x2="21.8857" y2="21.6939" gradientUnits="userSpaceOnUse">
<stop stop-color="#4338CA"/>
<stop offset="1" stop-color="#1F1A63"/>
</linearGradient>
<linearGradient id="paint8_linear_6_5275" x1="27.8581" y1="18.8789" x2="24.7588" y2="22.2784" gradientUnits="userSpaceOnUse">
<stop stop-color="#4338CA"/>
<stop offset="1" stop-color="#1F1A63"/>
</linearGradient>
<linearGradient id="paint9_linear_6_5275" x1="51.443" y1="39.846" x2="45.433" y2="45.2795" gradientUnits="userSpaceOnUse">
<stop stop-color="#4338CA"/>
<stop offset="1" stop-color="#1F1A63"/>
</linearGradient>
<linearGradient id="paint10_linear_6_5275" x1="48.1252" y1="39.1518" x2="44.7565" y2="42.2906" gradientUnits="userSpaceOnUse">
<stop stop-color="#4338CA"/>
<stop offset="1" stop-color="#1F1A63"/>
</linearGradient>
</defs>
</svg>
