<svg width="60" height="57" viewBox="0 0 60 57" fill="none" xmlns="http://www.w3.org/2000/svg">
<path d="M56.7135 3.19965H54.5307V0.993663C54.5307 0.445671 54.0849 0 53.5371 0H50.5868C50.0388 0 49.5931 0.445787 49.5931 0.993663V3.19954H43.3324V0.993663C43.3324 0.445671 42.8866 0 42.3387 0H39.3883C38.8403 0 38.3947 0.445787 38.3947 0.993663V3.19954H32.1341V0.993663C32.1341 0.445671 31.6883 0 31.1404 0H28.1899C27.6419 0 27.1962 0.445787 27.1962 0.993663V3.19954H20.9356V0.993663C20.9356 0.445671 20.4899 0 19.942 0H16.9916C16.4436 0 15.9979 0.445787 15.9979 0.993663V3.19954H9.73709V0.993663C9.73709 0.445671 9.2913 0 8.74342 0H5.79314C5.24515 0 4.79948 0.445787 4.79948 0.993663V3.19954H2.61655C1.17374 3.19965 0 4.37328 0 5.8162V53.5141C0 54.9568 1.17374 56.1307 2.61655 56.1307H14.4112C14.8912 56.1307 15.2803 55.7416 15.2803 55.2616C15.2803 54.7815 14.8912 54.3925 14.4112 54.3925H11.3382V32.1336H19.1983V54.3925H18.4671C17.9871 54.3925 17.598 54.7815 17.598 55.2616C17.598 55.7416 17.9871 56.1307 18.4671 56.1307H56.7135C58.1563 56.1307 59.3301 54.9568 59.3301 53.5141V5.8162C59.3301 4.37328 58.1563 3.19965 56.7135 3.19965ZM51.3313 1.73819H52.7925V6.39919H51.3313V1.73819ZM40.1327 1.73819H41.5941V6.39919H40.1327V1.73819ZM28.9343 1.73819H30.3957V6.39919H28.9343V1.73819ZM17.736 1.73819H19.1973V6.39919H17.736V1.73819ZM6.53755 1.73819H7.9989V6.39919H6.53755V1.73819ZM2.61655 4.93784H4.79936V7.14371C4.79936 7.6917 5.24515 8.13737 5.79303 8.13737H8.74331C9.2913 8.13737 9.73697 7.69159 9.73697 7.14371V4.93784H15.9977V7.14371C15.9977 7.6917 16.4435 8.13737 16.9913 8.13737H19.9417C20.4897 8.13737 20.9354 7.69159 20.9354 7.14371V4.93784H27.196V7.14371C27.196 7.6917 27.6418 8.13737 28.1897 8.13737H31.1401C31.6881 8.13737 32.1337 7.69159 32.1337 7.14371V4.93784H38.3943V7.14371C38.3943 7.6917 38.8401 8.13737 39.388 8.13737H42.3384C42.8864 8.13737 43.332 7.69159 43.332 7.14371V4.93784H49.5928V7.14371C49.5928 7.6917 50.0385 8.13737 50.5864 8.13737H53.5367C54.0847 8.13737 54.5304 7.69159 54.5304 7.14371V4.93784H56.7132C57.1976 4.93784 57.5915 5.33183 57.5915 5.8162V11.1986H16.4391C15.9591 11.1986 15.57 11.5876 15.57 12.0676C15.57 12.5477 15.9591 12.9367 16.4391 12.9367H19.1983V20.7972H16.1367V16.9929C16.1367 16.4444 15.6905 15.998 15.1419 15.998H11.3382V12.9367H12.3832C12.8632 12.9367 13.2523 12.5477 13.2523 12.0676C13.2523 11.5876 12.8632 11.1986 12.3832 11.1986H1.73819V5.8162C1.73819 5.33183 2.13217 4.93784 2.61655 4.93784ZM46.5312 49.5919V46.531H52.7916V49.5919C51.4336 49.5919 53.3883 49.5919 46.5312 49.5919ZM52.7916 44.7928H43.3318V41.7319H52.7916V44.7928ZM42.5885 39.9937C42.04 39.9937 41.5936 40.4401 41.5936 40.9885V45.5361C41.5936 46.0846 42.04 46.531 42.5885 46.531H44.7929V50.3352C44.7929 50.8838 45.2393 51.3301 45.7879 51.3301H47.9929V54.3925H40.1329V36.9327H43.9366C44.485 36.9327 44.9314 36.4864 44.9314 35.9378V31.3902C44.9314 30.8418 44.485 30.3954 43.9366 30.3954H40.1329V12.9367H47.9929V39.9937H42.5885ZM11.3376 30.3954V27.3345H23.9968V30.3954H11.3376ZM14.3986 17.7362V20.7972H4.93877V17.7362H14.3986ZM8.13819 22.5353H19.1977V25.5963H8.13819V22.5353ZM28.7965 12.9367V30.3954H25.735V26.5911C25.735 26.0427 25.2887 25.5963 24.7402 25.5963H20.9364V12.9367H28.7965ZM36.3815 30.3954C35.9014 30.3954 35.5124 30.7844 35.5124 31.2645C35.5124 31.7446 35.9014 32.1336 36.3815 32.1336H43.1933V35.1946H25.735V32.1336H32.3257C32.8058 32.1336 33.1948 31.7446 33.1948 31.2645C33.1948 30.7844 32.8058 30.3954 32.3257 30.3954H30.5347V12.9367H38.3948V30.3954H36.3815ZM25.735 36.9327H33.5951V39.9937H25.735V36.9327ZM34.3384 41.7319C34.8869 41.7319 35.3333 41.2855 35.3333 40.7369V36.9327H38.3948V54.3925H30.5347V41.7319H34.3384ZM2.61655 54.3925C2.13217 54.3925 1.73819 53.9985 1.73819 53.5141V12.9367H9.6V15.998H4.1954C3.64683 15.998 3.20058 16.4444 3.20058 16.9929V21.5404C3.20058 22.089 3.64695 22.5353 4.1954 22.5353H6.4V26.3395C6.4 26.8881 6.84637 27.3345 7.39482 27.3345H9.59942C9.59942 32.0788 9.6 35.1827 9.6 54.3925H2.61655ZM20.9364 32.1336H23.9968V40.7369C23.9968 41.2855 24.4432 41.7319 24.9916 41.7319H28.7964V54.3925H20.9363V32.1336H20.9364ZM57.5919 53.5141C57.5919 53.9985 57.1979 54.3925 56.7135 54.3925H49.7312V51.3301H53.535C54.0834 51.3301 54.5298 50.8838 54.5298 50.3352V40.9885C54.5298 40.4401 54.0834 39.9937 53.535 39.9937H49.7312V12.9367H57.5919V53.5141Z" fill="url(#paint0_linear_6_5213)"/>
<defs>
<linearGradient id="paint0_linear_6_5213" x1="48.3575" y1="11.4929" x2="12.0232" y2="50.32" gradientUnits="userSpaceOnUse">
<stop stop-color="#4338CA"/>
<stop offset="1" stop-color="#1F1A63"/>
</linearGradient>
</defs>
</svg>
