<svg width="62" height="80" viewBox="0 0 62 80" fill="none" xmlns="http://www.w3.org/2000/svg">
<path d="M1.15637 16.0654C1.79499 16.0654 2.31274 15.5478 2.31274 14.909V9.13948C2.31274 5.37511 5.37526 2.31274 9.13963 2.31274H38.6358C42.4002 2.31274 45.4627 5.37511 45.4627 9.13948V16.7035C45.4627 17.3423 45.9805 17.8599 46.6191 17.8599C47.2577 17.8599 47.7754 17.3423 47.7754 16.7035V9.13948C47.7754 4.10002 43.6754 0 38.6358 0H9.13963C4.10002 0 0 4.10002 0 9.13948V14.909C0 15.5478 0.517745 16.0654 1.15637 16.0654Z" fill="url(#paint0_linear_6_5263)"/>
<path d="M46.6191 54.6104C45.9805 54.6104 45.4627 55.128 45.4627 55.7667V69.9961C45.4627 73.7605 42.4002 76.8228 38.6358 76.8228H9.13963C5.37526 76.8228 2.31274 73.7605 2.31274 69.9961V19.8361C2.31274 19.1973 1.79499 18.6797 1.15637 18.6797C0.517745 18.6797 0 19.1973 0 19.8361V69.9961C0 75.0357 4.10002 79.1356 9.13963 79.1356H38.6358C43.6754 79.1356 47.7754 75.0355 47.7754 69.9961V55.7667C47.7754 55.1281 47.2577 54.6104 46.6191 54.6104Z" fill="url(#paint1_linear_6_5263)"/>
<path d="M41.9951 18.4223C42.6337 18.4223 43.1515 17.9047 43.1515 17.2659V9.14095C43.1515 6.65199 41.1264 4.62695 38.6374 4.62695H36.7284C35.8384 4.62695 35.0302 5.18679 34.7175 6.01999L34.2631 7.23032C33.9333 8.10855 33.0815 8.69876 32.1433 8.69876H15.6351C14.6969 8.69876 13.8451 8.1087 13.5153 7.23032L13.0609 6.01999C12.7481 5.18679 11.94 4.62695 11.05 4.62695H9.14111C6.65199 4.62695 4.62695 6.65199 4.62695 9.14095V69.9985C4.62695 72.4876 6.65199 74.5125 9.14111 74.5125H29.938C30.5766 74.5125 31.0944 73.9949 31.0944 73.3561C31.0944 72.7173 30.5766 72.1997 29.938 72.1997H9.14111C7.92723 72.1997 6.93969 71.2122 6.93969 69.9985V9.14095C6.93969 7.92723 7.92723 6.93969 9.14111 6.93969H10.9359L11.3502 8.04302C12.0168 9.81859 13.7387 11.0115 15.6353 11.0115H32.1433C34.0397 11.0115 35.7618 9.81859 36.4283 8.04302L36.8425 6.93969H38.6374C39.8513 6.93969 40.8387 7.92723 40.8387 9.14095V17.2658C40.8387 17.9045 41.3565 18.4223 41.9951 18.4223Z" fill="url(#paint2_linear_6_5263)"/>
<path d="M38.6367 74.5124C41.1258 74.5124 43.1507 72.4874 43.1507 69.9984V55.7931C43.1507 55.1543 42.6329 54.6367 41.9943 54.6367C41.3557 54.6367 40.8379 55.1543 40.8379 55.7931V69.9984C40.8379 71.2123 39.8504 72.1996 38.6367 72.1996H34.8654C34.2267 72.1996 33.709 72.7172 33.709 73.356C33.709 73.9948 34.2267 74.5124 34.8654 74.5124H38.6367Z" fill="url(#paint3_linear_6_5263)"/>
<path d="M30.3328 6.50024C30.9714 6.50024 31.4891 5.98265 31.4891 5.34387C31.4891 4.70509 30.9714 4.1875 30.3328 4.1875H18.1036C17.465 4.1875 16.9473 4.70509 16.9473 5.34387C16.9473 5.98265 17.465 6.50024 18.1036 6.50024H30.3328Z" fill="url(#paint4_linear_6_5263)"/>
<path d="M57.7376 31.7777C57.7376 29.9904 57.3344 28.2657 56.5751 26.7043L57.7194 25.56C59.2023 24.0769 59.2023 21.6637 57.7192 20.1804C56.2362 18.6978 53.8231 18.6975 52.3398 20.1806L51.1855 21.3349C47.8753 19.7433 43.8957 19.7603 40.5621 21.5792C40.0015 21.8851 39.7949 22.5875 40.1008 23.1481C40.4067 23.7087 41.109 23.9153 41.6698 23.6094C45.2655 21.6472 49.8014 22.3012 52.6998 25.1997C54.4569 26.9567 55.4245 29.2928 55.4245 31.7776C55.4245 34.2624 54.4569 36.5987 52.6998 38.3556L47.7514 43.3041L42.3234 37.8761C41.8718 37.4246 41.1395 37.4246 40.6881 37.8761C40.2365 38.3278 40.2365 39.0599 40.6881 39.5115L46.4257 45.2489L44.7957 50.063C44.711 50.3128 44.5135 50.3932 44.4033 50.419C44.2932 50.4446 44.0801 50.46 43.8937 50.2736L27.6259 34.006C27.4395 33.8196 27.4548 33.6066 27.4805 33.4964C27.5063 33.3861 27.5868 33.1886 27.8365 33.104L33.3311 31.2435C33.4995 31.1866 33.6523 31.0916 33.7779 30.9659L38.1481 26.5956C38.5997 26.1439 38.5997 25.4118 38.1481 24.9602C37.6965 24.5088 36.9643 24.5088 36.5128 24.9602L32.3337 29.1395L27.0951 30.9134C26.1527 31.2324 25.4549 32.0014 25.2285 32.9703C25.0022 33.9392 25.2871 34.9378 25.9907 35.6414L30.6121 40.2628C29.0288 42.2231 29.1472 45.111 30.9681 46.932C31.9421 47.9058 33.2213 48.3929 34.5008 48.3929C35.6132 48.3929 36.7255 48.0242 37.6371 47.2879L42.2586 51.9093C42.8032 52.4539 43.5244 52.7478 44.2721 52.7478C44.4902 52.7478 44.7107 52.7226 44.9297 52.6716C45.8985 52.4453 46.6674 51.7476 46.9866 50.8052L48.7606 45.5664L54.3357 39.9913C56.5294 37.7973 57.7376 34.8803 57.7376 31.7777ZM53.9752 21.816C54.5565 21.2346 55.5027 21.2346 56.084 21.8158C56.6654 22.3973 56.6654 23.3433 56.084 23.9247L55.3208 24.6879C55.018 24.2966 54.6911 23.9201 54.3354 23.5644C53.9797 23.2087 53.6035 22.8811 53.2113 22.58L53.9752 21.816ZM32.6034 45.2966C31.686 44.3792 31.5734 42.9575 32.265 41.9158L35.9841 45.6352C34.9426 46.3268 33.5208 46.2143 32.6034 45.2966Z" fill="url(#paint5_linear_6_5263)"/>
<path d="M37.0925 34.2822C36.641 34.7339 36.641 35.466 37.0926 35.9175L37.6882 36.5129C37.914 36.7388 38.21 36.8515 38.5059 36.8515C38.8017 36.8515 39.0978 36.7386 39.3236 36.5128C39.7751 36.061 39.7751 35.3289 39.3235 34.8775L38.7279 34.282C38.2763 33.8303 37.5441 33.8306 37.0925 34.2822Z" fill="url(#paint6_linear_6_5263)"/>
<path d="M32.6762 16.2541C30.2255 16.0336 27.8525 16.7955 25.9953 18.3959C24.1384 19.9964 23.0358 22.2307 22.8907 24.6871C22.8531 25.3248 23.3394 25.8722 23.9769 25.9098C24.0002 25.9112 24.0232 25.9118 24.0462 25.9118C24.6536 25.9118 25.1632 25.4378 25.1994 24.8234C25.3072 22.997 26.1261 21.3364 27.5052 20.148C28.8843 18.9592 30.6473 18.3946 32.4701 18.5578C33.1056 18.614 33.6681 18.1452 33.725 17.509C33.7819 16.8729 33.3122 16.311 32.6762 16.2541Z" fill="url(#paint7_linear_6_5263)"/>
<path d="M32.5887 20.8971C31.3034 20.6845 30.0005 21.0499 29.0153 21.8992C28.0299 22.7484 27.4764 23.9826 27.4966 25.2855C27.5063 25.9181 28.0222 26.424 28.6525 26.424C28.6587 26.424 28.6649 26.424 28.6709 26.4238C29.3095 26.4139 29.8191 25.8882 29.8092 25.2497C29.7997 24.6342 30.0607 24.0516 30.5254 23.6512C30.9899 23.2507 31.6045 23.079 32.212 23.1789C32.842 23.2833 33.4373 22.8568 33.5413 22.2265C33.6451 21.5964 33.2188 21.0012 32.5887 20.8971Z" fill="url(#paint8_linear_6_5263)"/>
<path d="M61.6499 45.2254C61.593 44.5894 61.0313 44.119 60.395 44.1767C59.759 44.2336 59.2894 44.7954 59.3463 45.4314C59.5094 47.2538 58.9446 49.0172 57.756 50.3962C56.5676 51.7754 54.907 52.5943 53.0804 52.702C52.4429 52.7396 51.9566 53.287 51.9942 53.9247C52.0305 54.539 52.54 55.0129 53.1475 55.0129C53.1703 55.0129 53.1935 55.0123 53.2167 55.0109C55.6733 54.866 57.9076 53.7633 59.508 51.9061C61.1086 50.0489 61.8693 47.6764 61.6499 45.2254Z" fill="url(#paint9_linear_6_5263)"/>
<path d="M52.6858 50.4048C53.9632 50.4046 55.169 49.8534 56.0031 48.8855C56.8524 47.8999 57.2176 46.5975 57.0053 45.312C56.9011 44.6818 56.3053 44.2547 55.676 44.3596C55.0458 44.4637 54.6194 45.0588 54.7234 45.6889C54.8238 46.2961 54.6516 46.911 54.2512 47.3754C53.8508 47.8402 53.2676 48.0979 52.6528 48.0916C52.0198 48.0856 51.4885 48.5911 51.4787 49.2299C51.4688 49.8685 51.9784 50.3941 52.617 50.404C52.64 50.4045 52.6628 50.4048 52.6858 50.4048Z" fill="url(#paint10_linear_6_5263)"/>
<defs>
<linearGradient id="paint0_linear_6_5263" x1="38.9398" y1="3.65687" x2="31.4018" y2="24.0425" gradientUnits="userSpaceOnUse">
<stop stop-color="#4338CA"/>
<stop offset="1" stop-color="#1F1A63"/>
</linearGradient>
<linearGradient id="paint1_linear_6_5263" x1="38.9398" y1="31.0582" x2="0.687387" y2="61.6192" gradientUnits="userSpaceOnUse">
<stop stop-color="#4338CA"/>
<stop offset="1" stop-color="#1F1A63"/>
</linearGradient>
<linearGradient id="paint2_linear_6_5263" x1="36.0267" y1="18.9362" x2="-2.5314" y2="40.4248" gradientUnits="userSpaceOnUse">
<stop stop-color="#4338CA"/>
<stop offset="1" stop-color="#1F1A63"/>
</linearGradient>
<linearGradient id="paint3_linear_6_5263" x1="41.4045" y1="58.7063" x2="31.3407" y2="63.5395" gradientUnits="userSpaceOnUse">
<stop stop-color="#4338CA"/>
<stop offset="1" stop-color="#1F1A63"/>
</linearGradient>
<linearGradient id="paint4_linear_6_5263" x1="28.7998" y1="4.66104" x2="28.3391" y2="7.58932" gradientUnits="userSpaceOnUse">
<stop stop-color="#4338CA"/>
<stop offset="1" stop-color="#1F1A63"/>
</linearGradient>
<linearGradient id="paint5_linear_6_5263" x1="52.6029" y1="25.9643" x2="30.755" y2="48.0521" gradientUnits="userSpaceOnUse">
<stop stop-color="#4338CA"/>
<stop offset="1" stop-color="#1F1A63"/>
</linearGradient>
<linearGradient id="paint6_linear_6_5263" x1="39.1243" y1="34.5388" x2="37.2378" y2="36.4462" gradientUnits="userSpaceOnUse">
<stop stop-color="#4338CA"/>
<stop offset="1" stop-color="#1F1A63"/>
</linearGradient>
<linearGradient id="paint7_linear_6_5263" x1="31.7247" y1="18.2019" x2="25.4821" y2="25.259" gradientUnits="userSpaceOnUse">
<stop stop-color="#4338CA"/>
<stop offset="1" stop-color="#1F1A63"/>
</linearGradient>
<linearGradient id="paint8_linear_6_5263" x1="32.436" y1="21.9817" x2="28.8275" y2="25.9398" gradientUnits="userSpaceOnUse">
<stop stop-color="#4338CA"/>
<stop offset="1" stop-color="#1F1A63"/>
</linearGradient>
<linearGradient id="paint9_linear_6_5263" x1="59.894" y1="46.3916" x2="52.8966" y2="52.7179" gradientUnits="userSpaceOnUse">
<stop stop-color="#4338CA"/>
<stop offset="1" stop-color="#1F1A63"/>
</linearGradient>
<linearGradient id="paint10_linear_6_5263" x1="56.0314" y1="45.5848" x2="52.1092" y2="49.2392" gradientUnits="userSpaceOnUse">
<stop stop-color="#4338CA"/>
<stop offset="1" stop-color="#1F1A63"/>
</linearGradient>
</defs>
</svg>
