<svg width="69" height="58" viewBox="0 0 69 58" fill="none" xmlns="http://www.w3.org/2000/svg">
<path d="M67.9174 21.2711L60.5569 15.2534V4.09076C60.5569 1.83505 58.7218 0 56.4656 0H45.6943C44.9564 0 44.3582 0.598112 44.3582 1.3361C44.3582 2.07408 44.9564 2.6722 45.6943 2.6722H56.4656C57.2479 2.6722 57.8847 3.30893 57.8847 4.09076V27.8054L40.35 41.1372L22.8152 27.8054V15.8928C22.8152 15.8928 22.8152 15.8923 22.8152 15.8917V4.09076C22.8152 3.30893 23.452 2.6722 24.2343 2.6722H35.0056C35.7435 2.6722 36.3417 2.07408 36.3417 1.3361C36.3417 0.598112 35.7435 0 35.0056 0H24.2343C21.9781 0 20.143 1.83505 20.143 4.09076V15.2534L12.7825 21.2711C12.472 21.5247 12.2919 21.9047 12.2919 22.3055V37.1388H6.27946C5.54147 37.1388 4.94336 37.7369 4.94336 38.4749C4.94336 39.2124 5.54147 39.811 6.27946 39.811H12.2919V53.6287C12.2919 55.8844 14.1269 57.7194 16.3827 57.7194H64.3173C66.573 57.7194 68.408 55.8844 68.408 53.6287V22.3055C68.408 21.9047 68.2279 21.5247 67.9174 21.2711ZM65.7358 53.0212L49.9271 37.2124L65.7358 25.1933V53.0212ZM60.5569 18.7048L65.037 22.3676L60.5569 25.7736V18.7048ZM40.35 44.1518C40.6349 44.1518 40.9199 44.061 41.1589 43.8793L47.7804 38.845L63.9827 55.0472H16.7172L32.9195 38.845L39.5415 43.8793C39.78 44.061 40.065 44.1518 40.35 44.1518ZM14.9641 25.1933L30.7728 37.2124L14.9641 53.0212V25.1933ZM20.143 25.7736L15.6629 22.3676L20.143 18.7048V25.7736Z" fill="url(#paint0_linear_6_5287)"/>
<path d="M8.55103 45.6895H1.3361C0.598112 45.6895 0 46.2876 0 47.0256C0 47.763 0.598112 48.3616 1.3361 48.3616H8.55103C9.28901 48.3616 9.88712 47.763 9.88712 47.0256C9.88712 46.2876 9.28901 45.6895 8.55103 45.6895Z" fill="url(#paint1_linear_6_5287)"/>
<path d="M40.3498 2.6722C40.701 2.6722 41.046 2.52919 41.2944 2.28076C41.5429 2.03233 41.6859 1.68735 41.6859 1.3361C41.6859 0.98485 41.5429 0.639865 41.2944 0.391435C41.046 0.143004 40.701 0 40.3498 0C39.9985 0 39.6535 0.143004 39.4051 0.391435C39.1567 0.639865 39.0137 0.98485 39.0137 1.3361C39.0137 1.68735 39.1567 2.03233 39.4051 2.28076C39.6535 2.52919 39.9985 2.6722 40.3498 2.6722Z" fill="url(#paint2_linear_6_5287)"/>
<path d="M29.5098 19.3714C29.5098 25.3489 34.3724 30.212 40.3499 30.212C46.3274 30.212 51.19 25.3489 51.19 19.3714C51.19 13.3939 46.3274 8.53125 40.3499 8.53125C34.3724 8.53125 29.5098 13.3939 29.5098 19.3714ZM48.5178 19.3714C48.5178 23.8755 44.854 27.5399 40.3499 27.5399C35.8458 27.5399 32.182 23.8755 32.182 19.3714C32.182 14.8673 35.8458 11.2034 40.3499 11.2034C44.854 11.2034 48.5178 14.8678 48.5178 19.3714Z" fill="url(#paint3_linear_6_5287)"/>
<path d="M38.269 18.1385C37.7471 17.6166 36.9016 17.6166 36.3797 18.1385C35.8578 18.6599 35.8578 19.5059 36.3797 20.0278L38.7382 22.3863C38.9992 22.6473 39.3411 22.7778 39.6829 22.7778C40.0248 22.7778 40.3666 22.6473 40.6276 22.3863L44.7663 18.2476C45.2877 17.7262 45.2877 16.8801 44.7663 16.3582C44.2444 15.8363 43.3984 15.8363 42.8765 16.3582L39.6829 19.5518L38.269 18.1385Z" fill="url(#paint4_linear_6_5287)"/>
<defs>
<linearGradient id="paint0_linear_6_5287" x1="56.6708" y1="11.8182" x2="19.4344" y2="53.2106" gradientUnits="userSpaceOnUse">
<stop stop-color="#4338CA"/>
<stop offset="1" stop-color="#1F1A63"/>
</linearGradient>
<linearGradient id="paint1_linear_6_5287" x1="8.05859" y1="46.2366" x2="7.19353" y2="49.4725" gradientUnits="userSpaceOnUse">
<stop stop-color="#4338CA"/>
<stop offset="1" stop-color="#1F1A63"/>
</linearGradient>
<linearGradient id="paint2_linear_6_5287" x1="41.1917" y1="0.54714" x2="39.4582" y2="2.29964" gradientUnits="userSpaceOnUse">
<stop stop-color="#4338CA"/>
<stop offset="1" stop-color="#1F1A63"/>
</linearGradient>
<linearGradient id="paint3_linear_6_5287" x1="47.1805" y1="12.9705" x2="33.1161" y2="27.189" gradientUnits="userSpaceOnUse">
<stop stop-color="#4338CA"/>
<stop offset="1" stop-color="#1F1A63"/>
</linearGradient>
<linearGradient id="paint4_linear_6_5287" x1="43.4616" y1="17.3614" x2="39.245" y2="23.1003" gradientUnits="userSpaceOnUse">
<stop stop-color="#4338CA"/>
<stop offset="1" stop-color="#1F1A63"/>
</linearGradient>
</defs>
</svg>
