<svg width="64" height="64" viewBox="0 0 64 64" fill="none" xmlns="http://www.w3.org/2000/svg">
<path d="M0.775391 13.9173C0.775391 14.4552 1.21118 14.8911 1.74912 14.8911C2.28686 14.8911 2.72286 14.4552 2.72286 13.9173V2.44742H14.1926C14.7305 2.44742 15.1663 2.01162 15.1663 1.47374C15.1663 0.935849 14.7305 0.5 14.1926 0.5H1.74912C1.21118 0.5 0.775391 0.935849 0.775391 1.47374V13.9173Z" fill="url(#paint0_linear_6_4804)" stroke="url(#paint1_linear_6_4804)"/>
<path d="M60.5041 13.9173C60.5041 14.4552 60.94 14.8911 61.4779 14.8911C62.0157 14.8911 62.4514 14.4552 62.4514 13.9173V1.47374C62.4514 0.935849 62.0157 0.5 61.4779 0.5H49.0343C48.4963 0.5 48.0605 0.935849 48.0605 1.47374C48.0605 2.01162 48.4963 2.44742 49.0343 2.44742H60.5041V13.9173Z" fill="url(#paint2_linear_6_4804)" stroke="url(#paint3_linear_6_4804)"/>
<path d="M14.1926 62.1761H1.74912C1.21118 62.1761 0.775391 61.7403 0.775391 61.2024V48.7589C0.775391 48.221 1.21118 47.7852 1.74912 47.7852C2.28686 47.7852 2.72286 48.221 2.72286 48.7589V60.2288H14.1926C14.7305 60.2288 15.1663 60.6646 15.1663 61.2024C15.1663 61.7403 14.7284 62.1761 14.1926 62.1761Z" fill="url(#paint4_linear_6_4804)" stroke="url(#paint5_linear_6_4804)"/>
<path d="M49.0343 62.1761H61.4779C62.0157 62.1761 62.4514 61.7403 62.4514 61.2024V48.7589C62.4514 48.221 62.0157 47.7852 61.4779 47.7852C60.94 47.7852 60.5041 48.221 60.5041 48.7589V60.2288H49.0343C48.4963 60.2288 48.0605 60.6646 48.0605 61.2024C48.0605 61.7403 48.4963 62.1761 49.0343 62.1761Z" fill="url(#paint6_linear_6_4804)" stroke="url(#paint7_linear_6_4804)"/>
<path d="M11.2436 28.9485C11.1861 28.9485 11.1288 28.9443 11.0713 28.9336C10.5421 28.8401 10.1891 28.3341 10.2826 27.8048C11.0821 23.304 13.2505 19.2369 16.5543 16.0414C19.8667 12.8397 24.0168 10.8072 28.5557 10.1673C29.0872 10.0949 29.5806 10.4628 29.6549 10.9943C29.7294 11.5258 29.3594 12.019 28.8279 12.0934C20.3749 13.2883 13.6927 19.7386 12.1983 28.1428C12.1175 28.6169 11.7071 28.9485 11.2436 28.9485Z" fill="url(#paint8_linear_6_4804)" stroke="url(#paint9_linear_6_4804)"/>
<path d="M28.83 53.1013C28.8726 53.1077 28.9151 53.1099 28.9554 53.1099C29.4381 53.1099 29.8569 52.7526 29.9206 52.2594C29.9887 51.7258 29.6123 51.2368 29.0788 51.1687C20.6278 50.0845 13.6886 43.4683 12.2003 35.0811C12.1067 34.5517 11.6007 34.1989 11.0713 34.2924C10.5421 34.3859 10.1891 34.8919 10.2826 35.4213C11.0883 39.9688 13.2909 44.0699 16.6479 47.2781C20.0155 50.4969 24.2294 52.5103 28.83 53.1013Z" fill="url(#paint10_linear_6_4804)" stroke="url(#paint11_linear_6_4804)"/>
<path d="M34.8261 53.0308C34.3542 53.0308 33.9396 52.6864 33.8653 52.2059C33.7823 51.6744 34.1458 51.1769 34.6773 51.0939C43.09 49.7822 49.6766 43.2575 51.067 34.8576C51.1542 34.3261 51.6579 33.9689 52.1873 34.0561C52.7188 34.1433 53.0759 34.645 52.9889 35.1764C51.4602 44.4076 44.2232 51.5766 34.9771 53.018C34.926 53.0265 34.8752 53.0308 34.8261 53.0308Z" fill="url(#paint12_linear_6_4804)" stroke="url(#paint13_linear_6_4804)"/>
<path d="M51.005 28.0145C51.0922 28.4844 51.5004 28.8118 51.9618 28.8118C52.0192 28.8118 52.0786 28.8076 52.1403 28.7926C52.6677 28.6969 53.0185 28.1888 52.9207 27.6594C51.2602 18.6579 44.0699 11.6484 35.0302 10.2155C34.4966 10.1304 33.999 10.4939 33.9161 11.0254C33.8333 11.557 34.1947 12.0545 34.7262 12.1395C42.9517 13.4428 49.4935 19.823 51.005 28.0145Z" fill="url(#paint14_linear_6_4804)" stroke="url(#paint15_linear_6_4804)"/>
<path d="M29.549 36.6454C29.6349 36.6698 29.7246 36.6823 29.8153 36.6823C29.8388 36.6823 29.8623 36.6823 29.8856 36.6802C30.1513 36.6611 30.3979 36.5313 30.568 36.3251L37.2608 28.1357C37.6009 27.7212 37.5392 27.1067 37.1225 26.7666C36.7058 26.4263 36.0935 26.488 35.7535 26.9047L29.7113 34.2969L27.1642 31.969C26.7667 31.6054 26.1523 31.633 25.7887 32.0306C25.4252 32.4281 25.4529 33.0426 25.8504 33.4061L29.1584 36.4272C29.2716 36.5309 29.4053 36.6047 29.549 36.6454Z" fill="url(#paint16_linear_6_4804)" stroke="url(#paint17_linear_6_4804)"/>
<path fill-rule="evenodd" clip-rule="evenodd" d="M44.5448 32.5881C44.0702 38.9643 38.964 44.0712 32.588 44.5469V61.7549C32.588 62.2928 32.1522 62.7287 31.6143 62.7287C31.0763 62.7287 30.6405 62.2928 30.6405 61.7549V44.5469C24.2645 44.0712 19.1584 38.9643 18.6837 32.5881H1.47374C0.935794 32.5881 0.5 32.1522 0.5 31.6143C0.5 31.0764 0.935794 30.6406 1.47374 30.6406H18.684C19.1604 24.2663 24.266 19.1615 30.6405 18.686V1.47374C30.6405 0.935849 31.0763 0.5 31.6143 0.5C32.1522 0.5 32.588 0.935849 32.588 1.47374V18.686C38.9625 19.1615 44.0681 24.2663 44.5446 30.6406H61.7548C62.2927 30.6406 62.7285 31.0764 62.7285 31.6143C62.7285 32.1522 62.2927 32.5881 61.7548 32.5881H44.5448ZM31.6143 42.6335C25.538 42.6335 20.5951 37.6905 20.5951 31.6143C20.5951 25.5413 25.5327 20.6004 31.6045 20.5951H31.624C37.6959 20.6004 42.6334 25.5413 42.6334 31.6143C42.6334 37.6905 37.6905 42.6335 31.6143 42.6335Z" fill="url(#paint18_linear_6_4804)" stroke="url(#paint19_linear_6_4804)"/>
<defs>
<linearGradient id="paint0_linear_6_4804" x1="12.5048" y1="3.44663" x2="3.16924" y2="12.8846" gradientUnits="userSpaceOnUse">
<stop stop-color="#4338CA"/>
<stop offset="1" stop-color="#1F1A63"/>
</linearGradient>
<linearGradient id="paint1_linear_6_4804" x1="12.5048" y1="3.44663" x2="3.16924" y2="12.8846" gradientUnits="userSpaceOnUse">
<stop stop-color="#4338CA"/>
<stop offset="1" stop-color="#1F1A63"/>
</linearGradient>
<linearGradient id="paint2_linear_6_4804" x1="59.79" y1="3.44663" x2="50.4544" y2="12.8846" gradientUnits="userSpaceOnUse">
<stop stop-color="#4338CA"/>
<stop offset="1" stop-color="#1F1A63"/>
</linearGradient>
<linearGradient id="paint3_linear_6_4804" x1="59.79" y1="3.44663" x2="50.4544" y2="12.8846" gradientUnits="userSpaceOnUse">
<stop stop-color="#4338CA"/>
<stop offset="1" stop-color="#1F1A63"/>
</linearGradient>
<linearGradient id="paint4_linear_6_4804" x1="12.5048" y1="50.7318" x2="3.16934" y2="60.1697" gradientUnits="userSpaceOnUse">
<stop stop-color="#4338CA"/>
<stop offset="1" stop-color="#1F1A63"/>
</linearGradient>
<linearGradient id="paint5_linear_6_4804" x1="12.5048" y1="50.7318" x2="3.16934" y2="60.1697" gradientUnits="userSpaceOnUse">
<stop stop-color="#4338CA"/>
<stop offset="1" stop-color="#1F1A63"/>
</linearGradient>
<linearGradient id="paint6_linear_6_4804" x1="59.79" y1="50.7318" x2="50.4545" y2="60.1697" gradientUnits="userSpaceOnUse">
<stop stop-color="#4338CA"/>
<stop offset="1" stop-color="#1F1A63"/>
</linearGradient>
<linearGradient id="paint7_linear_6_4804" x1="59.79" y1="50.7318" x2="50.4545" y2="60.1697" gradientUnits="userSpaceOnUse">
<stop stop-color="#4338CA"/>
<stop offset="1" stop-color="#1F1A63"/>
</linearGradient>
<linearGradient id="paint8_linear_6_4804" x1="26.0771" y1="14.0056" x2="13.8982" y2="26.7157" gradientUnits="userSpaceOnUse">
<stop stop-color="#4338CA"/>
<stop offset="1" stop-color="#1F1A63"/>
</linearGradient>
<linearGradient id="paint9_linear_6_4804" x1="26.0771" y1="14.0056" x2="13.8982" y2="26.7157" gradientUnits="userSpaceOnUse">
<stop stop-color="#4338CA"/>
<stop offset="1" stop-color="#1F1A63"/>
</linearGradient>
<linearGradient id="paint10_linear_6_4804" x1="26.2925" y1="38.1334" x2="14.0928" y2="51.0096" gradientUnits="userSpaceOnUse">
<stop stop-color="#4338CA"/>
<stop offset="1" stop-color="#1F1A63"/>
</linearGradient>
<linearGradient id="paint11_linear_6_4804" x1="26.2925" y1="38.1334" x2="14.0928" y2="51.0096" gradientUnits="userSpaceOnUse">
<stop stop-color="#4338CA"/>
<stop offset="1" stop-color="#1F1A63"/>
</linearGradient>
<linearGradient id="paint12_linear_6_4804" x1="49.4606" y1="37.9308" x2="37.1447" y2="50.4873" gradientUnits="userSpaceOnUse">
<stop stop-color="#4338CA"/>
<stop offset="1" stop-color="#1F1A63"/>
</linearGradient>
<linearGradient id="paint13_linear_6_4804" x1="49.4606" y1="37.9308" x2="37.1447" y2="50.4873" gradientUnits="userSpaceOnUse">
<stop stop-color="#4338CA"/>
<stop offset="1" stop-color="#1F1A63"/>
</linearGradient>
<linearGradient id="paint14_linear_6_4804" x1="49.4171" y1="14.0133" x2="37.3516" y2="26.4893" gradientUnits="userSpaceOnUse">
<stop stop-color="#4338CA"/>
<stop offset="1" stop-color="#1F1A63"/>
</linearGradient>
<linearGradient id="paint15_linear_6_4804" x1="49.4171" y1="14.0133" x2="37.3516" y2="26.4893" gradientUnits="userSpaceOnUse">
<stop stop-color="#4338CA"/>
<stop offset="1" stop-color="#1F1A63"/>
</linearGradient>
<linearGradient id="paint16_linear_6_4804" x1="35.2709" y1="28.6221" x2="28.7954" y2="36.3389" gradientUnits="userSpaceOnUse">
<stop stop-color="#4338CA"/>
<stop offset="1" stop-color="#1F1A63"/>
</linearGradient>
<linearGradient id="paint17_linear_6_4804" x1="35.2709" y1="28.6221" x2="28.7954" y2="36.3389" gradientUnits="userSpaceOnUse">
<stop stop-color="#4338CA"/>
<stop offset="1" stop-color="#1F1A63"/>
</linearGradient>
<linearGradient id="paint18_linear_6_4804" x1="51.2199" y1="13.2415" x2="10.8519" y2="54.0526" gradientUnits="userSpaceOnUse">
<stop stop-color="#4338CA"/>
<stop offset="1" stop-color="#1F1A63"/>
</linearGradient>
<linearGradient id="paint19_linear_6_4804" x1="51.2199" y1="13.2415" x2="10.8519" y2="54.0526" gradientUnits="userSpaceOnUse">
<stop stop-color="#4338CA"/>
<stop offset="1" stop-color="#1F1A63"/>
</linearGradient>
</defs>
</svg>
