<svg width="68" height="68" viewBox="0 0 68 68" fill="none" xmlns="http://www.w3.org/2000/svg">
<path fill-rule="evenodd" clip-rule="evenodd" d="M39.5932 32.3396C39.5933 31.0187 39.2018 29.7275 38.468 28.6292C37.7343 27.5309 36.6914 26.6749 35.4711 26.1693C34.2508 25.6638 32.9081 25.5315 31.6126 25.7891C30.3171 26.0468 29.1272 26.6828 28.1932 27.6168C27.2592 28.5508 26.6232 29.7407 26.3655 31.0362C26.1079 32.3317 26.2402 33.6744 26.7457 34.8947C27.2513 36.115 28.1073 37.1579 29.2056 37.8916C30.3039 38.6254 31.5951 39.0169 32.916 39.0168C34.6863 39.015 36.3836 38.3109 37.6355 37.0591C38.8873 35.8073 39.5914 34.1099 39.5932 32.3396ZM42.7688 32.3396C42.7688 34.2884 42.1908 36.1936 41.1081 37.814C40.0253 39.4344 38.4864 40.6974 36.6858 41.4431C34.8853 42.1889 32.904 42.384 30.9926 42.0037C29.0812 41.6235 27.3254 40.6849 25.9474 39.3068C24.5694 37.9287 23.631 36.1729 23.2509 34.2614C22.8708 32.35 23.066 30.3687 23.8119 28.5682C24.5578 26.7678 25.8209 25.2289 27.4414 24.1463C29.0619 23.0636 30.9671 22.4859 32.916 22.486C35.5284 22.4886 38.0331 23.5276 39.8804 25.375C41.7276 27.2223 42.7664 29.7271 42.7688 32.3396ZM53.4317 34.684L49.9496 35.5317C49.6732 35.5991 49.42 35.7394 49.2163 35.9381C49.0126 36.1367 48.866 36.3864 48.7917 36.661C48.4265 38.0092 47.8899 39.3049 47.1949 40.5165C47.0537 40.7631 46.9812 41.043 46.9849 41.3272C46.9886 41.6113 47.0684 41.8893 47.216 42.1321L49.0801 45.1933L45.7674 48.5059L42.7078 46.6426C42.4648 46.4948 42.1866 46.4148 41.9022 46.411C41.6178 46.4071 41.3375 46.4796 41.0906 46.6208C39.8793 47.3157 38.5838 47.8524 37.2359 48.2176C36.9613 48.2919 36.7116 48.4385 36.513 48.6422C36.3143 48.8458 36.174 49.0991 36.1066 49.3755L35.2604 52.8553H30.5715L29.7253 49.3732C29.6582 49.0967 29.5179 48.8433 29.3192 48.6396C29.1205 48.4359 28.8707 48.2894 28.596 48.2153C27.248 47.8503 25.9525 47.3136 24.7413 46.6185C24.4945 46.4773 24.2145 46.4048 23.9302 46.4085C23.646 46.4123 23.3679 46.492 23.1249 46.6396L20.066 48.5037L16.7533 45.1911L18.6174 42.1299C18.7651 41.8871 18.845 41.6092 18.8489 41.325C18.8527 41.0409 18.7803 40.7609 18.6393 40.5142C17.9437 39.3028 17.4068 38.0071 17.0417 36.6588C16.9674 36.384 16.8206 36.1343 16.6168 35.9356C16.413 35.737 16.1596 35.5967 15.883 35.5295L12.3995 34.684V29.9944L15.8808 29.1489C16.1574 29.0819 16.411 28.9417 16.6148 28.743C16.8187 28.5443 16.9653 28.2944 17.0394 28.0196C17.4049 26.6712 17.9418 25.3752 18.637 24.1634C18.7781 23.9167 18.8505 23.6367 18.8466 23.3526C18.8428 23.0684 18.7629 22.7905 18.6152 22.5477L16.7511 19.4896L20.0637 16.177L23.1249 18.0411C23.3678 18.1889 23.6458 18.2689 23.9301 18.2727C24.2144 18.2766 24.4945 18.2041 24.7413 18.0629C25.953 17.3685 27.2483 16.8316 28.596 16.4653C28.8708 16.3913 29.1206 16.2448 29.3193 16.0411C29.518 15.8374 29.6582 15.5839 29.7253 15.3074L30.5715 11.8254H35.2604L36.1059 15.3074C36.1731 15.5839 36.3134 15.8372 36.512 16.0409C36.7107 16.2446 36.9605 16.3912 37.2352 16.4653C38.5828 16.8317 39.8781 17.3686 41.0899 18.0629C41.3367 18.2043 41.617 18.2769 41.9014 18.2731C42.1859 18.2692 42.4641 18.1891 42.707 18.0411L45.7667 16.177L49.0793 19.4896L47.2152 22.5507C47.0677 22.7936 46.9879 23.0716 46.9842 23.3557C46.9805 23.6398 47.053 23.9198 47.1941 24.1664C47.8887 25.3782 48.4254 26.6738 48.791 28.0219C48.865 28.2966 49.0116 28.5464 49.2153 28.7451C49.419 28.9438 49.6724 29.084 49.9489 29.1512L53.4309 29.9966V34.6863L53.4317 34.684ZM51.5864 38.4009C51.2679 39.3814 50.8726 40.3352 50.4044 41.2535L52.4416 44.6001C52.6273 44.9039 52.7052 45.2614 52.663 45.615C52.6208 45.9685 52.4609 46.2976 52.209 46.5492L47.1294 51.6326C46.8778 51.8845 46.5488 52.0446 46.1953 52.087C45.8418 52.1295 45.4843 52.0519 45.1802 51.8668L41.833 49.8272C40.9141 50.2962 39.9595 50.6915 38.9781 51.0092L38.052 54.818C37.9682 55.1641 37.7705 55.472 37.4905 55.6921C37.2106 55.9123 36.8648 56.0318 36.5087 56.0316H29.3233C28.9673 56.0317 28.6216 55.912 28.3418 55.6919C28.062 55.4718 27.8644 55.164 27.7806 54.818L26.8546 51.0092C25.8729 50.6916 24.918 50.2964 23.999 49.8272L20.6525 51.869C20.3482 52.0541 19.9906 52.1316 19.637 52.0892C19.2834 52.0467 18.9543 51.8867 18.7025 51.6349L13.6267 46.5515C13.3749 46.2998 13.215 45.9708 13.1727 45.6173C13.1303 45.2638 13.208 44.9063 13.3933 44.6023L15.4275 41.2535C14.9588 40.3346 14.5636 39.38 14.2455 38.3987L10.4368 37.4741C10.0908 37.3896 9.78316 37.1914 9.56314 36.9113C9.34311 36.6312 9.22339 36.2854 9.22314 35.9292V28.7469C9.22333 28.3909 9.34306 28.0452 9.56312 27.7654C9.78318 27.4855 10.0908 27.2876 10.4368 27.2035L14.2455 26.2782C14.5635 25.2971 14.9587 24.3427 15.4275 23.4241L13.3895 20.0761C13.2042 19.7719 13.1265 19.4143 13.1688 19.0607C13.2111 18.7071 13.3711 18.3779 13.6229 18.1261L18.7025 13.0458C18.9546 12.7943 19.2837 12.6346 19.6373 12.5925C19.9908 12.5503 20.3483 12.628 20.6525 12.8131L23.999 14.8511C24.9181 14.3823 25.873 13.9871 26.8546 13.6691L27.7806 9.85887C27.8645 9.51294 28.0622 9.20523 28.342 8.98514C28.6217 8.76505 28.9673 8.64534 29.3233 8.64524H36.5079C36.8639 8.6453 37.2097 8.76498 37.4895 8.98506C37.7694 9.20515 37.9673 9.51288 38.0513 9.85887L38.9773 13.6676C39.9586 13.9857 40.9132 14.3809 41.8322 14.8496L45.1795 12.8116C45.4834 12.6264 45.8408 12.5487 46.1943 12.5908C46.5477 12.633 46.8768 12.7927 47.1286 13.0443L52.209 18.1246C52.4609 18.3765 52.6207 18.7057 52.6629 19.0593C52.7051 19.413 52.6272 19.7705 52.4416 20.0746L50.4044 23.4241C50.8729 24.3429 51.2681 25.2972 51.5864 26.2782L55.3944 27.2035C55.7403 27.2877 56.0478 27.4856 56.2677 27.7654C56.4877 28.0453 56.6073 28.3909 56.6073 28.7469V35.9315C56.6072 36.2876 56.4876 36.6334 56.2677 36.9135C56.0478 37.1936 55.7403 37.3918 55.3944 37.4764L51.5864 38.4009ZM61.5642 14.3392C66.4662 21.2712 68.5867 29.7912 67.5061 38.2123C66.4255 46.6334 62.2224 54.3418 55.729 59.8116C49.2355 65.2813 40.9251 68.1136 32.4428 67.7478C23.9605 67.382 15.9247 63.8447 9.92632 57.8363C9.63797 57.5479 9.35564 57.252 9.07633 56.9524L9.0048 59.3932C8.99248 59.806 8.81992 60.1979 8.52367 60.4857C8.22743 60.7735 7.83078 60.9347 7.41775 60.9351C7.40194 60.9351 7.38689 60.9351 7.37032 60.9351C7.16185 60.929 6.95661 60.882 6.76636 60.7965C6.5761 60.7111 6.40456 60.5889 6.26156 60.4371C6.11856 60.2853 6.00689 60.1068 5.93296 59.9118C5.85903 59.7167 5.82428 59.5091 5.8307 59.3006L6.04678 51.9225C6.0544 51.6913 6.11235 51.4646 6.2166 51.2581C6.32085 51.0517 6.46889 50.8705 6.65038 50.7271C6.83188 50.5837 7.04246 50.4817 7.26745 50.4281C7.49243 50.3745 7.72641 50.3706 7.95304 50.4167L15.1806 51.8909C15.5889 51.9793 15.946 52.2251 16.1744 52.575C16.4027 52.9248 16.4841 53.3506 16.4009 53.76C16.3176 54.1694 16.0764 54.5295 15.7295 54.7624C15.3826 54.9952 14.9579 55.082 14.5474 55.004L10.9163 54.2594C11.3229 54.7149 11.7407 55.1628 12.1714 55.5905C17.6091 61.0285 24.8895 64.2281 32.5728 64.5566C40.2561 64.885 47.783 62.3184 53.665 57.3643C59.547 52.4102 63.3558 45.4292 64.3384 37.8019C65.321 30.1746 63.4057 22.4563 58.9713 16.1732C58.7281 15.8293 58.6314 15.403 58.7026 14.9879C58.7738 14.5728 59.0069 14.203 59.3507 13.9597C59.6946 13.7165 60.1209 13.6199 60.536 13.6911C60.9511 13.7622 61.321 13.9954 61.5642 14.3392ZM5.30896 45.1369C5.39286 45.3324 5.43661 45.5428 5.43764 45.7555C5.43867 45.9683 5.39695 46.1791 5.31496 46.3754C5.23297 46.5717 5.11237 46.7496 4.96032 46.8984C4.80828 47.0473 4.62789 47.164 4.42985 47.2418C4.23181 47.3196 4.02017 47.3568 3.80748 47.3512C3.59479 47.3456 3.38539 47.2974 3.1917 47.2094C2.99801 47.1213 2.82399 46.9952 2.67995 46.8387C2.53591 46.6821 2.42479 46.4981 2.3532 46.2978C-0.279536 39.6064 -0.715673 32.251 1.10786 25.2954C2.93139 18.3398 6.92006 12.1445 12.497 7.60539C18.074 3.06631 24.9502 0.41878 32.1312 0.0456692C39.3122 -0.327442 46.4258 1.59321 52.4431 5.52986L51.9478 3.09508C51.8733 2.68626 51.9619 2.26452 52.1948 1.92031C52.4276 1.5761 52.786 1.33682 53.1932 1.25379C53.6004 1.17076 54.0239 1.25058 54.3729 1.47615C54.7219 1.70172 54.9686 2.05506 55.0601 2.46041L56.5403 9.72937C56.5867 9.95596 56.583 10.19 56.5295 10.415C56.476 10.64 56.374 10.8506 56.2305 11.032C56.0871 11.2135 55.9057 11.3614 55.6991 11.4654C55.4925 11.5694 55.2657 11.627 55.0345 11.6341L47.6195 11.854H47.5721C47.151 11.8602 46.7446 11.6988 46.4425 11.4054C46.1403 11.112 45.9671 10.7106 45.9609 10.2895C45.9547 9.8684 46.1161 9.46207 46.4095 9.15992C46.7029 8.85778 47.1043 8.68456 47.5254 8.67836L51.2709 8.56769C45.85 4.84571 39.3776 2.96185 32.806 3.19328C26.2344 3.42471 19.9106 5.75921 14.7649 9.85331C9.61923 13.9474 5.92342 19.5849 4.22121 25.9365C2.51901 32.288 2.90029 39.0182 5.30896 45.1369Z" fill="url(#paint0_linear_6_4819)"/>
<defs>
<linearGradient id="paint0_linear_6_4819" x1="55.2462" y1="13.878" x2="11.2775" y2="58.3311" gradientUnits="userSpaceOnUse">
<stop stop-color="#4338CA"/>
<stop offset="1" stop-color="#1F1A63"/>
</linearGradient>
</defs>
</svg>
