<svg width="61" height="78" viewBox="0 0 61 78" fill="none" xmlns="http://www.w3.org/2000/svg">
<path d="M4.70517 16.6783L9.64294 17.7411C9.82445 17.7802 10.0061 17.799 10.1856 17.799C11.2637 17.799 12.2578 17.1187 12.6238 16.0641L13.282 14.1664C13.7085 12.9364 13.1487 11.5767 11.9797 11.0038L7.4445 8.78078C6.78139 8.45579 6.00935 8.4306 5.32633 8.71168C4.64346 8.99292 4.11297 9.55433 3.87096 10.2521L2.8103 13.31C2.56829 14.0078 2.63724 14.7771 2.99934 15.4209C3.3613 16.0646 3.98322 16.5229 4.70517 16.6783ZM4.94853 14.0518L6.0092 10.9939C6.04994 10.8765 6.13866 10.8249 6.18814 10.8045C6.2156 10.7932 6.2583 10.7802 6.31005 10.7802C6.35154 10.7802 6.39892 10.7885 6.44871 10.813L10.9839 13.036C11.1276 13.1064 11.1964 13.2736 11.144 13.4248L10.4859 15.3222C10.4334 15.4736 10.276 15.562 10.1194 15.5285L5.18164 14.4657C5.06003 14.4396 4.99802 14.3577 4.97177 14.3112C4.94552 14.2647 4.90765 14.1692 4.94853 14.0518Z" fill="url(#paint0_linear_6_5149)"/>
<path d="M13.787 10.0006C14.2772 10.4443 14.8977 10.667 15.5189 10.667C16.1205 10.667 16.7226 10.4581 17.2069 10.0388L18.7258 8.72447C19.7103 7.87262 19.9054 6.41529 19.1797 5.33455L16.3635 1.14182C15.9518 0.528648 15.2958 0.120826 14.5637 0.0227556C13.8313 -0.075164 13.0913 0.145872 12.5329 0.629133L10.0854 2.747C9.52681 3.23026 9.20181 3.93094 9.19352 4.66949C9.18537 5.40803 9.49467 6.1158 10.0422 6.61128L13.787 10.0006ZM11.5662 4.45841L14.0138 2.34054C14.0865 2.27762 14.1646 2.26314 14.2206 2.26314C14.2369 2.26314 14.2515 2.26434 14.2635 2.266C14.3164 2.2731 14.4154 2.3004 14.4848 2.40361L17.3008 6.5965C17.3901 6.72927 17.3661 6.90851 17.2451 7.01322L15.7262 8.32751C15.6049 8.43207 15.4245 8.43011 15.3059 8.32284L11.5611 4.93352C11.4691 4.85009 11.4562 4.74824 11.4568 4.69483C11.4574 4.64142 11.4722 4.53973 11.5662 4.45841Z" fill="url(#paint1_linear_6_5149)"/>
<path d="M10.4386 19.6486L5.39942 19.9909C4.66253 20.041 3.98147 20.4054 3.5305 20.9904C3.07983 21.5753 2.90104 22.3268 3.04045 23.0519L3.65075 26.2305C3.79001 26.9558 4.23419 27.5876 4.86954 27.9641C5.27178 28.2023 5.72698 28.3242 6.18519 28.3242C6.45104 28.3242 6.71779 28.2832 6.97579 28.2L11.7832 26.6517C13.0224 26.2527 13.7718 24.9877 13.5264 23.709L13.1476 21.7364C12.9023 20.4579 11.7376 19.56 10.4386 19.6486ZM11.0896 24.4977L6.28221 26.046C6.16347 26.0843 6.06917 26.0442 6.02315 26.017C5.97713 25.9898 5.89671 25.926 5.87333 25.804L5.26303 22.6253C5.23964 22.5032 5.29079 22.4142 5.32323 22.3719C5.35582 22.3297 5.42884 22.2576 5.55286 22.2491L10.592 21.9068C10.5993 21.9063 10.6065 21.906 10.6138 21.906C10.7645 21.906 10.8962 22.0133 10.925 22.1634L11.3039 24.1359C11.334 24.2929 11.242 24.4485 11.0896 24.4977Z" fill="url(#paint2_linear_6_5149)"/>
<path d="M47.5038 14.1665L48.162 16.0643C48.5279 17.1187 49.5219 17.7991 50.6002 17.7991C50.7795 17.7991 50.9614 17.7802 51.1429 17.7411L56.0806 16.6782C56.8025 16.5228 57.4244 16.0646 57.7865 15.4209C58.1486 14.7771 58.2176 14.0078 57.9756 13.31L56.9148 10.2522C56.6727 9.55435 56.1421 8.99293 55.4592 8.71184C54.7764 8.43061 54.0043 8.45565 53.3414 8.78095L48.806 11.0038C47.6368 11.5769 47.0772 12.9364 47.5038 14.1665ZM49.8019 13.036L54.3373 10.813C54.3869 10.7885 54.4343 10.7802 54.4757 10.7802C54.5274 10.7802 54.5701 10.7932 54.5976 10.8045C54.6469 10.8247 54.7358 10.8765 54.7765 10.9939L55.8373 14.0517C55.8782 14.1691 55.8404 14.2647 55.8143 14.3112C55.788 14.3577 55.726 14.4396 55.6044 14.4657L50.6668 15.5286C50.5098 15.562 50.3528 15.4737 50.3003 15.3225L49.642 13.425C49.5895 13.2736 49.6583 13.1065 49.8019 13.036Z" fill="url(#paint3_linear_6_5149)"/>
<path d="M53.8102 28.1998C54.0682 28.283 54.3349 28.324 54.6006 28.324C55.0587 28.324 55.514 28.2021 55.9161 27.9638C56.5516 27.5874 56.9958 26.9555 57.1351 26.2303L57.7454 23.0516C57.8846 22.3263 57.7058 21.5748 57.255 20.9898C56.8042 20.4049 56.123 20.0407 55.3861 19.9907L50.3471 19.6484C49.0485 19.5616 47.8838 20.4575 47.6382 21.7362L47.2594 23.7088C47.0137 24.9873 47.7631 26.2524 49.0025 26.6515L53.8102 28.1998ZM49.4818 24.1356L49.8606 22.1631C49.8908 22.006 50.0296 21.896 50.1936 21.9064L55.2328 22.2488C55.3567 22.2572 55.4298 22.3293 55.4623 22.3714C55.495 22.4137 55.5462 22.5028 55.5226 22.6249L54.9123 25.8036C54.8889 25.9256 54.8084 25.9895 54.7625 26.0166C54.7165 26.0438 54.6217 26.0838 54.5036 26.0456L49.6959 24.4973C49.5436 24.4482 49.4516 24.2928 49.4818 24.1356Z" fill="url(#paint4_linear_6_5149)"/>
<path d="M42.0611 8.72449L43.58 10.0388C44.0645 10.4581 44.6665 10.667 45.268 10.667C45.889 10.667 46.5096 10.4443 46.9999 10.0006L50.7446 6.6113C51.2921 6.11567 51.6014 5.4079 51.5931 4.66951C51.5848 3.93111 51.2598 3.23028 50.7013 2.74702L48.2539 0.629001C47.6952 0.145589 46.9547 -0.0751449 46.2229 0.0227747C45.4909 0.120845 44.8351 0.528667 44.4232 1.14168L41.6074 5.33457C40.8815 6.41531 41.0766 7.87264 42.0611 8.72449ZM43.4863 6.59636L46.3023 2.40332C46.3715 2.30012 46.4705 2.27296 46.5235 2.26587C46.5354 2.26421 46.5499 2.26301 46.5662 2.26301C46.6223 2.26301 46.7004 2.27749 46.7732 2.34041L49.2207 4.45828C49.3147 4.53975 49.3298 4.64129 49.3304 4.6947C49.331 4.74811 49.3183 4.84996 49.2261 4.93339L45.4815 8.32271C45.3629 8.42998 45.1825 8.43194 45.0612 8.32738L43.5423 7.01309C43.421 6.90838 43.397 6.72929 43.4863 6.59636Z" fill="url(#paint5_linear_6_5149)"/>
<path d="M60.7864 55.5825C60.7864 53.7105 59.8493 52.0533 58.4194 51.0554C59.8583 49.9407 60.7864 48.1964 60.7864 46.2395C60.7864 42.882 58.0549 40.1504 54.6974 40.1504H49.9914C49.3663 40.1504 48.8598 40.657 48.8598 41.282C48.8598 41.9069 49.3663 42.4136 49.9914 42.4136H54.6974C56.807 42.4136 58.5232 44.1298 58.5232 46.2395C58.5232 48.3492 56.807 50.0655 54.6974 50.0655C54.6198 50.0655 49.8886 50.0655 49.8886 50.0655C49.2635 50.0655 48.757 50.5721 48.757 51.1971C48.757 51.822 49.2635 52.3286 49.8886 52.3286H55.2697C57.0637 52.3286 58.5232 53.7882 58.5232 55.5825C58.5232 57.3767 57.0636 58.8363 55.2697 58.8363H48.9799C48.3548 58.8363 47.8483 59.3429 47.8483 59.9679C47.8483 60.5928 48.3548 61.0995 48.9799 61.0995H54.2242C55.8204 61.0995 57.119 62.3979 57.119 63.994C57.119 65.5902 55.8205 66.8886 54.2242 66.8886H47.1621C46.537 66.8886 46.0305 67.3953 46.0305 68.0202C46.0305 68.6451 46.537 69.1518 47.1621 69.1518H52.7144C54.3229 69.1518 55.6316 70.4604 55.6316 72.0689C55.6316 73.6774 54.3229 74.9861 52.7144 74.9861H34.7856C33.2705 74.9861 31.8177 74.428 30.6938 73.4136L29.3279 72.1847C29.1201 71.9978 28.8505 71.8944 28.571 71.8944H16.6041V56.7869C16.6041 56.162 16.0976 55.6553 15.4725 55.6553C14.8474 55.6553 14.3409 56.162 14.3409 56.7869V74.5057C14.3409 74.7703 14.1255 74.9858 13.8608 74.9858H1.13158C0.506496 74.9858 0 75.4924 0 76.1174C0 76.7423 0.506496 77.2489 1.13158 77.2489H13.8608C15.3734 77.2489 16.6041 76.0184 16.6041 74.5057V74.1576H28.1369L29.1785 75.0949C30.7178 76.4841 32.7091 77.2492 34.7854 77.2492H52.7141C55.5707 77.2492 57.8945 74.9254 57.8945 72.0689C57.8945 70.7334 57.3866 69.5145 56.5538 68.5949C58.2302 67.7424 59.3817 66.0001 59.3817 63.994C59.3817 62.6046 58.8292 61.3415 57.9327 60.4131C59.6327 59.4719 60.7864 57.6594 60.7864 55.5825Z" fill="url(#paint6_linear_6_5149)"/>
<path d="M40.1591 23.7299L44.9389 17.3967C45.3279 16.8888 45.4421 16.2227 45.2441 15.6148C45.0465 15.0074 44.5628 14.5364 43.9486 14.3544L36.4268 12.137L35.7689 11.1772C35.4157 10.6618 34.7112 10.5303 34.1957 10.8839C33.6803 11.2373 33.5489 11.9416 33.9024 12.4571L34.7879 13.7486C34.935 13.9632 35.1516 14.1205 35.401 14.1942L42.8565 16.392L38.047 22.6602C37.1847 22.3677 36.2701 22.2127 35.3318 22.2127C33.399 22.2127 31.6902 23.514 31.176 25.3771L30.3483 28.3768C30.2353 28.3813 30.1227 28.3999 30.0147 28.4382L22.6918 31.0413L22.9052 23.2726C22.9124 23.0124 22.8296 22.7577 22.6707 22.5514L17.9308 16.3919L25.3862 14.194C25.6358 14.1204 25.8524 13.963 25.9995 13.7483L30.3934 7.33738L30.8148 7.95281C31.168 8.46851 31.8725 8.60023 32.3879 8.24717C32.9036 7.89412 33.0353 7.18982 32.6822 6.67412L31.9932 5.66777C31.6312 5.14075 31.0331 4.82617 30.3936 4.82617C29.754 4.82617 29.1561 5.14075 28.7933 5.66882L24.3603 12.137L16.8372 14.3547C16.2243 14.5364 15.7406 15.0072 15.5431 15.6147C15.3452 16.2226 15.4594 16.8887 15.85 17.3987L20.6318 23.6129L20.4165 31.4523C20.3993 32.0931 20.6988 32.7001 21.2178 33.0759C21.5535 33.319 21.9522 33.4447 22.3548 33.4447C22.5737 33.4447 22.7938 33.4074 23.0054 33.3318L29.631 30.9766L29.3128 32.1299L22.2312 44.7976H16.6041V44.5701C16.6041 43.0574 15.3735 41.8268 13.8608 41.8268H1.13158C0.506496 41.8268 0 42.3335 0 42.9584C0 43.5833 0.506496 44.09 1.13158 44.09H13.8608C14.1255 44.09 14.3409 44.3053 14.3409 44.5701V51.3122C14.3409 51.9371 14.8474 52.4438 15.4725 52.4438C16.0976 52.4438 16.6041 51.9371 16.6041 51.3122V47.0608H22.8949C23.3049 47.0608 23.6827 46.8391 23.8827 46.4814L31.3548 33.1148C31.399 33.0356 31.4335 32.9513 31.4578 32.8636L33.3575 25.9791C33.6018 25.0939 34.4138 24.4757 35.3319 24.4757C37.2064 24.4757 38.9557 25.3134 40.1309 26.7737C41.3062 28.2342 41.7501 30.122 41.3492 31.9534L40.8391 34.2822C40.7914 34.5005 40.7223 34.7152 40.6336 34.9205L38.3771 40.151H34.0333C33.4082 40.151 32.9017 40.6577 32.9017 41.2826C32.9017 41.9075 33.4082 42.4142 34.0333 42.4142H44.5162C45.1412 42.4142 45.6477 41.9075 45.6477 41.2826C45.6477 40.6577 45.1412 40.151 44.5162 40.151H40.842L42.7117 35.8174C42.8576 35.4794 42.9716 35.1256 43.0501 34.766L43.56 32.4375C44.1085 29.9334 43.5012 27.3519 41.8942 25.355C41.3874 24.7254 40.8024 24.1809 40.1591 23.7299Z" fill="url(#paint7_linear_6_5149)"/>
<path d="M5.60619 70.5586C4.98111 70.5586 4.47461 71.0652 4.47461 71.6902C4.47461 72.3151 4.98111 72.8218 5.60619 72.8218H7.32695C7.95204 72.8218 8.45854 72.3151 8.45854 71.6902C8.45854 71.0652 7.95204 70.5586 7.32695 70.5586H5.60619Z" fill="url(#paint8_linear_6_5149)"/>
<defs>
<linearGradient id="paint0_linear_6_5149" x1="11.4351" y1="10.418" x2="5.48855" y2="17.3852" gradientUnits="userSpaceOnUse">
<stop stop-color="#4338CA"/>
<stop offset="1" stop-color="#1F1A63"/>
</linearGradient>
<linearGradient id="paint1_linear_6_5149" x1="17.6893" y1="2.18411" x2="10.7696" y2="9.02013" gradientUnits="userSpaceOnUse">
<stop stop-color="#4338CA"/>
<stop offset="1" stop-color="#1F1A63"/>
</linearGradient>
<linearGradient id="paint2_linear_6_5149" x1="11.6164" y1="21.4202" x2="6.10454" y2="28.2102" gradientUnits="userSpaceOnUse">
<stop stop-color="#4338CA"/>
<stop offset="1" stop-color="#1F1A63"/>
</linearGradient>
<linearGradient id="paint3_linear_6_5149" x1="56.1286" y1="10.418" x2="50.1821" y2="17.3852" gradientUnits="userSpaceOnUse">
<stop stop-color="#4338CA"/>
<stop offset="1" stop-color="#1F1A63"/>
</linearGradient>
<linearGradient id="paint4_linear_6_5149" x1="55.8352" y1="21.4201" x2="50.3235" y2="28.2101" gradientUnits="userSpaceOnUse">
<stop stop-color="#4338CA"/>
<stop offset="1" stop-color="#1F1A63"/>
</linearGradient>
<linearGradient id="paint5_linear_6_5149" x1="49.6656" y1="2.18411" x2="42.7459" y2="9.01991" gradientUnits="userSpaceOnUse">
<stop stop-color="#4338CA"/>
<stop offset="1" stop-color="#1F1A63"/>
</linearGradient>
<linearGradient id="paint6_linear_6_5149" x1="49.5445" y1="47.7465" x2="28.2473" y2="83.0249" gradientUnits="userSpaceOnUse">
<stop stop-color="#4338CA"/>
<stop offset="1" stop-color="#1F1A63"/>
</linearGradient>
<linearGradient id="paint7_linear_6_5149" x1="37.2056" y1="14.576" x2="6.3292" y2="44.5001" gradientUnits="userSpaceOnUse">
<stop stop-color="#4338CA"/>
<stop offset="1" stop-color="#1F1A63"/>
</linearGradient>
<linearGradient id="paint8_linear_6_5149" x1="7.72175" y1="71.022" x2="6.4677" y2="73.2538" gradientUnits="userSpaceOnUse">
<stop stop-color="#4338CA"/>
<stop offset="1" stop-color="#1F1A63"/>
</linearGradient>
</defs>
</svg>
