<svg width="59" height="59" viewBox="0 0 59 59" fill="none" xmlns="http://www.w3.org/2000/svg">
<path d="M58.5918 30.519V22.5631C58.5918 21.6216 57.8285 20.8583 56.887 20.8583H53.3637C53.3637 17.0109 51.2281 13.6534 48.0805 11.9072C49.2403 10.6841 49.954 9.0342 49.954 7.2197C49.954 3.45953 46.8949 0.400391 43.1347 0.400391C39.3745 0.400391 36.3154 3.45953 36.3154 7.2197C36.3154 9.0342 37.0292 10.6841 38.1889 11.9072C35.0413 13.6534 32.9057 17.0109 32.9057 20.8583H26.0864C26.0864 17.0109 23.9509 13.6534 20.8033 11.9072C21.963 10.6841 22.6768 9.0342 22.6768 7.2197C22.6768 3.45953 19.6176 0.400391 15.8575 0.400391C12.0973 0.400391 9.03818 3.45953 9.03818 7.2197C9.03818 9.0342 9.75193 10.6841 10.9117 11.9072C7.7641 13.6534 5.62852 17.0109 5.62852 20.8583H2.10522C1.1637 20.8583 0.400391 21.6216 0.400391 22.5631V30.519C0.400391 31.4605 1.1637 32.2238 2.10522 32.2238H9.17547C9.08557 32.6647 9.03818 33.1207 9.03818 33.5877C9.03818 35.4022 9.75193 37.0521 10.9117 38.2752C7.7641 40.0214 5.62852 43.3788 5.62852 47.2263H2.10522C1.1637 47.2263 0.400391 47.9896 0.400391 48.9311V56.887C0.400391 57.8285 1.1637 58.5918 2.10522 58.5918H56.887C57.8285 58.5918 58.5918 57.8285 58.5918 56.887V48.9311C58.5918 47.9896 57.8285 47.2263 56.887 47.2263H26.0864C26.0864 43.3788 23.9509 40.0214 20.8033 38.2752C21.963 37.0521 22.6768 35.4022 22.6768 33.5877C22.6768 33.1207 22.6294 32.6647 22.5395 32.2238H56.887C57.8285 32.2238 58.5918 31.4605 58.5918 30.519ZM43.1347 3.81004C45.0148 3.81004 46.5444 5.33961 46.5444 7.2197C46.5444 9.09978 45.0148 10.6293 43.1347 10.6293C41.2546 10.6293 39.7251 9.09978 39.7251 7.2197C39.7251 5.33961 41.2546 3.81004 43.1347 3.81004ZM43.1347 14.039C46.8949 14.039 49.954 17.0981 49.954 20.8583H36.3154C36.3154 17.0981 39.3745 14.039 43.1347 14.039ZM15.8575 3.81004C17.7376 3.81004 19.2671 5.33961 19.2671 7.2197C19.2671 9.09978 17.7376 10.6293 15.8575 10.6293C13.9774 10.6293 12.4478 9.09978 12.4478 7.2197C12.4478 5.33961 13.9774 3.81004 15.8575 3.81004ZM15.8575 14.039C19.6176 14.039 22.6768 17.0981 22.6768 20.8583H9.03818C9.03818 17.0981 12.0973 14.039 15.8575 14.039ZM55.1821 50.6359V55.1821H3.81004V50.6359H55.1821ZM22.6768 47.2263H9.03818C9.03818 43.4661 12.0973 40.407 15.8575 40.407C19.6176 40.407 22.6768 43.4661 22.6768 47.2263ZM12.4478 33.5877C12.4478 31.7076 13.9774 30.178 15.8575 30.178C17.7376 30.178 19.2671 31.7076 19.2671 33.5877C19.2671 35.4678 17.7376 36.9973 15.8575 36.9973C13.9774 36.9973 12.4478 35.4678 12.4478 33.5877ZM55.1821 28.8142H20.7212C19.4831 27.5527 17.7605 26.7684 15.8575 26.7684C13.9544 26.7684 12.2319 27.5527 10.9937 28.8142H3.81004V24.268H55.1821V28.8142Z" fill="url(#paint0_linear_6_5176)" stroke="#EDF6FF" stroke-width="0.8"/>
<path d="M41.543 37.3376V40.7473C41.543 41.6888 42.3063 42.4521 43.2478 42.4521C44.1893 42.4521 44.9526 41.6888 44.9526 40.7473V37.3376C44.9526 36.3961 44.1893 35.6328 43.2478 35.6328C42.3063 35.6328 41.543 36.3961 41.543 37.3376Z" fill="url(#paint1_linear_6_5176)" stroke="#EDF6FF" stroke-width="0.8"/>
<path d="M50.4541 37.8372L48.181 40.1103C47.5152 40.7761 47.5152 41.8555 48.181 42.5213C48.8468 43.187 49.9262 43.187 50.5919 42.5213L52.865 40.2482C53.5308 39.5824 53.5308 38.503 52.865 37.8372C52.1994 37.1715 51.1199 37.1714 50.4541 37.8372Z" fill="url(#paint2_linear_6_5176)" stroke="#EDF6FF" stroke-width="0.8"/>
<path d="M33.4056 37.8372C32.7398 38.503 32.7398 39.5824 33.4056 40.2482L35.6787 42.5213C36.3445 43.187 37.4239 43.187 38.0897 42.5213C38.7555 41.8555 38.7555 40.7761 38.0897 40.1103L35.8166 37.8372C35.1509 37.1714 34.0714 37.1715 33.4056 37.8372Z" fill="url(#paint3_linear_6_5176)" stroke="#EDF6FF" stroke-width="0.8"/>
<defs>
<linearGradient id="paint0_linear_6_5176" x1="47.8298" y1="12.3153" x2="10.0808" y2="50.4787" gradientUnits="userSpaceOnUse">
<stop stop-color="#4338CA"/>
<stop offset="1" stop-color="#1F1A63"/>
</linearGradient>
<linearGradient id="paint1_linear_6_5176" x1="44.322" y1="37.0291" x2="40.7597" y2="38.8298" gradientUnits="userSpaceOnUse">
<stop stop-color="#4338CA"/>
<stop offset="1" stop-color="#1F1A63"/>
</linearGradient>
<linearGradient id="paint2_linear_6_5176" x1="52.3134" y1="38.5014" x2="48.627" y2="42.2283" gradientUnits="userSpaceOnUse">
<stop stop-color="#4338CA"/>
<stop offset="1" stop-color="#1F1A63"/>
</linearGradient>
<linearGradient id="paint3_linear_6_5176" x1="37.538" y1="38.5014" x2="33.8516" y2="42.2283" gradientUnits="userSpaceOnUse">
<stop stop-color="#4338CA"/>
<stop offset="1" stop-color="#1F1A63"/>
</linearGradient>
</defs>
</svg>
