<svg width="61" height="65" viewBox="0 0 61 65" fill="none" xmlns="http://www.w3.org/2000/svg">
<path d="M43.5158 9.5289C43.56 9.42145 43.6249 9.32374 43.7068 9.24138C43.7888 9.15903 43.8862 9.09362 43.9934 9.04891C44.1006 9.0042 44.2156 8.98107 44.3318 8.98082C44.448 8.98058 44.5631 9.00323 44.6705 9.04749C45.9202 9.55881 47.0411 10.3407 47.9526 11.3369C48.864 12.333 49.5435 13.5188 49.942 14.8089C50.0115 15.0331 49.989 15.2757 49.8796 15.4833C49.7702 15.691 49.5828 15.8467 49.3587 15.9162C49.1345 15.9856 48.8919 15.9632 48.6842 15.8538C48.4766 15.7444 48.3209 15.557 48.2514 15.3328C47.9234 14.295 47.3728 13.3414 46.638 12.5385C45.9032 11.7355 45.002 11.1028 43.9972 10.6843C43.8897 10.6401 43.7919 10.5752 43.7095 10.4932C43.6271 10.4112 43.5616 10.3138 43.5169 10.2064C43.4722 10.0991 43.4491 9.98404 43.4489 9.86778C43.4487 9.75152 43.4715 9.63637 43.5158 9.5289ZM60.3038 18.5668V54.6156C60.3038 59.7462 55.7445 63.9197 50.1409 63.9197H10.4128C4.80929 63.9197 0.25 59.7462 0.25 54.6156V18.5668C0.25 13.4369 4.80929 9.26342 10.4128 9.26342H32.3696C33.8702 7.57504 35.8212 6.34976 37.9937 5.73138V3.43192C38.0063 2.58371 38.352 1.7745 38.9563 1.17912C39.5605 0.583744 40.3748 0.25 41.2231 0.25C42.0714 0.25 42.8856 0.583744 43.4899 1.17912C44.0941 1.7745 44.4399 2.58371 44.4525 3.43192V5.73138C46.624 6.35017 48.574 7.57544 50.0737 9.26342H50.1445C55.7445 9.26483 60.3038 13.4369 60.3038 18.5668ZM51.4648 31.8843H30.9339L30.0539 35.2301H52.153L51.4648 31.8843ZM39.8287 37C39.9581 37.2146 40.1408 37.3921 40.359 37.5154C40.5771 37.6386 40.8235 37.7033 41.0741 37.7033C41.3246 37.7033 41.571 37.6386 41.7891 37.5154C42.0073 37.3921 42.19 37.2146 42.3194 37H39.8287ZM39.7636 5.37103C40.7329 5.25115 41.7133 5.25115 42.6825 5.37103V3.43192C42.6741 3.05041 42.5167 2.68735 42.2439 2.42051C41.9711 2.15366 41.6047 2.00424 41.2231 2.00424C40.8415 2.00424 40.475 2.15366 40.2023 2.42051C39.9295 2.68735 39.772 3.05041 39.7636 3.43192V5.37103ZM31.1385 17.1353V30.1144H51.3034V17.1353C51.3034 14.4615 50.2413 11.8973 48.3506 10.0066C46.46 8.11601 43.8958 7.05386 41.222 7.05386C38.5483 7.05386 35.984 8.11601 34.0934 10.0066C32.2028 11.8973 31.1406 14.4615 31.1406 17.1353H31.1385ZM58.5367 18.5668C58.5367 14.8054 55.45 11.6797 51.4309 11.1218C52.5083 12.9425 53.0756 15.0197 53.0733 17.1353V30.9087L54.1084 35.9353C54.1346 36.0638 54.132 36.1966 54.1006 36.3239C54.0692 36.4513 54.0099 36.5701 53.927 36.6717C53.844 36.7734 53.7395 36.8553 53.621 36.9116C53.5025 36.9679 53.373 36.9971 53.2418 36.9972H44.2132C44.0433 37.7018 43.6414 38.3288 43.072 38.7773C42.5026 39.2257 41.7988 39.4696 41.0741 39.4696C40.3493 39.4696 39.6455 39.2257 39.0761 38.7773C38.5067 38.3288 38.1048 37.7018 37.9349 36.9972H28.9084C28.773 36.9973 28.6394 36.9664 28.5179 36.9067C28.3964 36.8471 28.2902 36.7603 28.2075 36.6531C28.1248 36.5459 28.0678 36.4212 28.0409 36.2885C28.014 36.1558 28.018 36.0187 28.0525 35.8878L29.3686 30.8825V17.1353C29.3673 14.9843 29.9549 12.8741 31.0677 11.0333H10.4128C5.78557 11.0333 2.01991 14.4124 2.01991 18.5668V54.6156C2.01991 58.7699 5.78557 62.1498 10.4128 62.1498H50.1409C54.7682 62.1498 58.5339 58.7699 58.5339 54.6156L58.5367 18.5668ZM18.8822 18.3268H27.4818C27.7165 18.3268 27.9416 18.2335 28.1076 18.0676C28.2736 17.9016 28.3668 17.6765 28.3668 17.4418C28.3668 17.2071 28.2736 16.982 28.1076 16.8161C27.9416 16.6501 27.7165 16.5569 27.4818 16.5569H18.8822C18.6475 16.5569 18.4224 16.6501 18.2564 16.8161C18.0905 16.982 17.9972 17.2071 17.9972 17.4418C17.9972 17.6765 18.0905 17.9016 18.2564 18.0676C18.4224 18.2335 18.6475 18.3268 18.8822 18.3268ZM18.8822 23.7979H27.4818C27.7165 23.7979 27.9416 23.7047 28.1076 23.5387C28.2736 23.3728 28.3668 23.1477 28.3668 22.913C28.3668 22.6783 28.2736 22.4532 28.1076 22.2872C27.9416 22.1212 27.7165 22.028 27.4818 22.028H18.8822C18.6475 22.028 18.4224 22.1212 18.2564 22.2872C18.0905 22.4532 17.9972 22.6783 17.9972 22.913C17.9972 23.1477 18.0905 23.3728 18.2564 23.5387C18.4224 23.7047 18.6475 23.7979 18.8822 23.7979ZM18.8822 34.7416H24.1516C24.3863 34.7416 24.6114 34.6484 24.7773 34.4824C24.9433 34.3165 25.0365 34.0914 25.0365 33.8567C25.0365 33.622 24.9433 33.3969 24.7773 33.2309C24.6114 33.065 24.3863 32.9717 24.1516 32.9717H18.8822C18.6475 32.9717 18.4224 33.065 18.2564 33.2309C18.0905 33.3969 17.9972 33.622 17.9972 33.8567C17.9972 34.0914 18.0905 34.3165 18.2564 34.4824C18.4224 34.6484 18.6475 34.7416 18.8822 34.7416ZM18.8822 40.2128H32.5962C32.8309 40.2128 33.056 40.1195 33.2219 39.9536C33.3879 39.7876 33.4811 39.5625 33.4811 39.3278C33.4811 39.0931 33.3879 38.868 33.2219 38.7021C33.056 38.5361 32.8309 38.4429 32.5962 38.4429H18.8822C18.6475 38.4429 18.4224 38.5361 18.2564 38.7021C18.0905 38.868 17.9972 39.0931 17.9972 39.3278C17.9972 39.5625 18.0905 39.7876 18.2564 39.9536C18.4224 40.1195 18.6475 40.2128 18.8822 40.2128ZM52.6981 49.3852H18.8822C18.6475 49.3852 18.4224 49.4784 18.2564 49.6444C18.0905 49.8103 17.9972 50.0354 17.9972 50.2701C17.9972 50.5048 18.0905 50.7299 18.2564 50.8959C18.4224 51.0618 18.6475 51.1551 18.8822 51.1551H52.6981C52.9328 51.1551 53.1579 51.0618 53.3239 50.8959C53.4898 50.7299 53.5831 50.5048 53.5831 50.2701C53.5831 50.0354 53.4898 49.8103 53.3239 49.6444C53.1579 49.4784 52.9328 49.3852 52.6981 49.3852ZM52.6981 54.8563H18.8822C18.6475 54.8563 18.4224 54.9496 18.2564 55.1155C18.0905 55.2815 17.9972 55.5066 17.9972 55.7413C17.9972 55.976 18.0905 56.2011 18.2564 56.367C18.4224 56.533 18.6475 56.6262 18.8822 56.6262H52.6981C52.9328 56.6262 53.1579 56.533 53.3239 56.367C53.4898 56.2011 53.5831 55.976 53.5831 55.7413C53.5831 55.5066 53.4898 55.2815 53.3239 55.1155C53.1579 54.9496 52.9328 54.8563 52.6981 54.8563ZM15.2957 20.3445C15.2958 21.0938 15.0737 21.8263 14.6576 22.4493C14.2414 23.0724 13.6498 23.5581 12.9576 23.8449C12.2653 24.1318 11.5036 24.2069 10.7687 24.0608C10.0338 23.9147 9.35872 23.554 8.82885 23.0242C8.29897 22.4944 7.9381 21.8194 7.79187 21.0845C7.64564 20.3496 7.72062 19.5879 8.00732 18.8956C8.29403 18.2034 8.77959 17.6117 9.40259 17.1954C10.0256 16.7791 10.7581 16.5569 11.5073 16.5569C12.5117 16.5578 13.4746 16.9571 14.1848 17.6672C14.895 18.3773 15.2945 19.3402 15.2957 20.3445ZM13.5257 20.3445C13.5259 19.9452 13.4076 19.5549 13.1859 19.2229C12.9642 18.8909 12.649 18.6321 12.2802 18.4792C11.9114 18.3263 11.5056 18.2863 11.114 18.3641C10.7224 18.4419 10.3627 18.634 10.0804 18.9163C9.79801 19.1985 9.60571 19.5582 9.52777 19.9497C9.44983 20.3413 9.48976 20.7472 9.64251 21.116C9.79526 21.4849 10.054 21.8001 10.3859 22.022C10.7178 22.2438 11.1081 22.3622 11.5073 22.3622C12.0424 22.3616 12.5553 22.1489 12.9337 21.7706C13.3121 21.3924 13.525 20.8795 13.5257 20.3445ZM15.2957 36.5915C15.2957 37.3408 15.0735 38.0732 14.6572 38.6962C14.2409 39.3192 13.6493 39.8048 12.9571 40.0915C12.2648 40.3782 11.5031 40.4532 10.7683 40.3071C10.0334 40.1609 9.3584 39.8001 8.8286 39.2703C8.29879 38.7405 7.93799 38.0655 7.79181 37.3306C7.64564 36.5957 7.72066 35.834 8.00739 35.1418C8.29412 34.4496 8.77968 33.8579 9.40266 33.4417C10.0256 33.0254 10.7581 32.8032 11.5073 32.8032C12.5118 32.8044 13.4749 33.2039 14.1851 33.9143C14.8953 34.6246 15.2947 35.5878 15.2957 36.5923V36.5915ZM13.5257 36.5915C13.5257 36.1923 13.4074 35.8021 13.1856 35.4702C12.9638 35.1383 12.6486 34.8796 12.2798 34.7268C11.9109 34.574 11.5051 34.534 11.1136 34.6119C10.722 34.6898 10.3624 34.882 10.0801 35.1643C9.79783 35.4466 9.6056 35.8062 9.52772 36.1978C9.44984 36.5893 9.48981 36.9951 9.64258 37.364C9.79534 37.7328 10.054 38.048 10.386 38.2698C10.7179 38.4916 11.1081 38.61 11.5073 38.61C12.0424 38.6094 12.5553 38.3967 12.9337 38.0184C13.3121 37.6402 13.525 37.1273 13.5257 36.5923V36.5915ZM15.2957 53.0057C15.2957 53.755 15.0735 54.4874 14.6572 55.1104C14.2409 55.7334 13.6493 56.2189 12.9571 56.5056C12.2648 56.7924 11.5031 56.8674 10.7683 56.7212C10.0334 56.575 9.3584 56.2142 8.8286 55.6844C8.29879 55.1546 7.93799 54.4796 7.79181 53.7448C7.64564 53.0099 7.72066 52.2482 8.00739 51.556C8.29412 50.8637 8.77968 50.2721 9.40266 49.8558C10.0256 49.4396 10.7581 49.2174 11.5073 49.2174C12.5118 49.2183 13.4748 49.6177 14.185 50.328C14.8953 51.0382 15.2947 52.0013 15.2957 53.0057ZM13.5257 53.0057C13.5257 52.6065 13.4074 52.2163 13.1856 51.8843C12.9638 51.5524 12.6486 51.2937 12.2798 51.1409C11.9109 50.9882 11.5051 50.9482 11.1136 51.0261C10.722 51.104 10.3624 51.2962 10.0801 51.5785C9.79783 51.8607 9.6056 52.2204 9.52772 52.6119C9.44984 53.0035 9.48981 53.4093 9.64258 53.7781C9.79534 54.1469 10.054 54.4622 10.386 54.6839C10.7179 54.9057 11.1081 55.0241 11.5073 55.0241C12.0425 55.0235 12.5555 54.8107 12.9339 54.4323C13.3123 54.0539 13.5252 53.5408 13.5257 53.0057Z" fill="url(#paint0_linear_6_5205)" stroke="url(#paint1_linear_6_5205)" stroke-width="0.5"/>
<defs>
<linearGradient id="paint0_linear_6_5205" x1="49.1974" y1="13.2866" x2="7.93881" y2="52.6293" gradientUnits="userSpaceOnUse">
<stop stop-color="#4338CA"/>
<stop offset="1" stop-color="#1F1A63"/>
</linearGradient>
<linearGradient id="paint1_linear_6_5205" x1="49.1974" y1="13.2866" x2="7.93881" y2="52.6293" gradientUnits="userSpaceOnUse">
<stop stop-color="#4338CA"/>
<stop offset="1" stop-color="#1F1A63"/>
</linearGradient>
</defs>
</svg>
