<svg width="65" height="65" viewBox="0 0 65 65" fill="none" xmlns="http://www.w3.org/2000/svg">
<path d="M46.928 0.0996094H3.9608C1.83171 0.0996094 0.0996094 1.83184 0.0996094 3.9608V60.4785C0.0996094 62.6076 1.83171 64.3398 3.9608 64.3398H46.928C49.0571 64.3398 50.7892 62.6076 50.7892 60.4787V3.9608C50.7892 1.83184 49.0571 0.0996094 46.928 0.0996094ZM48.2798 60.4787C48.2798 61.2241 47.6734 61.8305 46.928 61.8305H3.9608C3.21539 61.8305 2.60899 61.2241 2.60899 60.4787V3.9608C2.60899 3.21539 3.21539 2.60899 3.9608 2.60899H46.928C47.6734 2.60899 48.2798 3.21539 48.2798 3.9608V60.4787Z" fill="url(#paint0_linear_6_5181)" stroke="#EDF6FF" stroke-width="0.2"/>
<path d="M42.7597 17.916H24.1902C23.4973 17.916 22.9355 18.4779 22.9355 19.1707C22.9355 19.8635 23.4973 20.4254 24.1902 20.4254H42.7597C43.4526 20.4254 44.0144 19.8635 44.0144 19.1707C44.0144 18.4779 43.4526 17.916 42.7597 17.916Z" fill="url(#paint1_linear_6_5181)" stroke="#EDF6FF" stroke-width="0.2"/>
<path d="M24.1902 12.3961H32.4959C33.1889 12.3961 33.7506 11.8343 33.7506 11.1414C33.7506 10.4486 33.1889 9.88672 32.4959 9.88672H24.1902C23.4973 9.88672 22.9355 10.4486 22.9355 11.1414C22.9355 11.8343 23.4973 12.3961 24.1902 12.3961Z" fill="url(#paint2_linear_6_5181)" stroke="#EDF6FF" stroke-width="0.2"/>
<path d="M42.7591 9.88672H38.284C37.591 9.88672 37.0293 10.4486 37.0293 11.1414C37.0293 11.8343 37.591 12.3961 38.284 12.3961H42.7591C43.4521 12.3961 44.0138 11.8343 44.0138 11.1414C44.0138 10.4486 43.4521 9.88672 42.7591 9.88672Z" fill="url(#paint3_linear_6_5181)" stroke="#EDF6FF" stroke-width="0.2"/>
<path d="M42.7597 34.9805H24.1902C23.4973 34.9805 22.9355 35.5423 22.9355 36.2352C22.9355 36.928 23.4973 37.4899 24.1902 37.4899H42.7597C43.4526 37.4899 44.0144 36.928 44.0144 36.2352C44.0144 35.5423 43.4526 34.9805 42.7597 34.9805Z" fill="url(#paint4_linear_6_5181)" stroke="#EDF6FF" stroke-width="0.2"/>
<path d="M24.1902 29.4606H32.4959C33.1889 29.4606 33.7506 28.8987 33.7506 28.2059C33.7506 27.513 33.1889 26.9512 32.4959 26.9512H24.1902C23.4973 26.9512 22.9355 27.513 22.9355 28.2059C22.9355 28.8987 23.4973 29.4606 24.1902 29.4606Z" fill="url(#paint5_linear_6_5181)" stroke="#EDF6FF" stroke-width="0.2"/>
<path d="M42.7591 26.9512H38.284C37.591 26.9512 37.0293 27.513 37.0293 28.2059C37.0293 28.8987 37.591 29.4606 38.284 29.4606H42.7591C43.4521 29.4606 44.0138 28.8987 44.0138 28.2059C44.0138 27.513 43.4521 26.9512 42.7591 26.9512Z" fill="url(#paint6_linear_6_5181)" stroke="#EDF6FF" stroke-width="0.2"/>
<path d="M42.7597 52.043H24.1902C23.4973 52.043 22.9355 52.6048 22.9355 53.2977C22.9355 53.9905 23.4973 54.5524 24.1902 54.5524H42.7597C43.4526 54.5524 44.0144 53.9905 44.0144 53.2977C44.0144 52.6048 43.4526 52.043 42.7597 52.043Z" fill="url(#paint7_linear_6_5181)" stroke="#EDF6FF" stroke-width="0.2"/>
<path d="M24.1902 46.5231H32.4959C33.1889 46.5231 33.7506 45.9612 33.7506 45.2684C33.7506 44.5755 33.1889 44.0137 32.4959 44.0137H24.1902C23.4973 44.0137 22.9355 44.5755 22.9355 45.2684C22.9355 45.9612 23.4973 46.5231 24.1902 46.5231Z" fill="url(#paint8_linear_6_5181)" stroke="#EDF6FF" stroke-width="0.2"/>
<path d="M42.7591 44.0137H38.284C37.591 44.0137 37.0293 44.5755 37.0293 45.2684C37.0293 45.9612 37.591 46.5231 38.284 46.5231H42.7591C43.4521 46.5231 44.0138 45.9612 44.0138 45.2684C44.0138 44.5755 43.4521 44.0137 42.7591 44.0137Z" fill="url(#paint9_linear_6_5181)" stroke="#EDF6FF" stroke-width="0.2"/>
<path d="M15.2746 12.8792L10.7562 17.3976L9.01893 15.6603C8.52897 15.1705 7.7345 15.1705 7.24442 15.6603C6.75446 16.1503 6.75446 16.9448 7.24442 17.4348L9.86886 20.0593C10.1139 20.3042 10.435 20.4268 10.7561 20.4268C11.0771 20.4268 11.3983 20.3042 11.6432 20.0593L17.0488 14.6537C17.5388 14.1637 17.5388 13.3693 17.0488 12.8792C16.5591 12.3892 15.7645 12.3892 15.2746 12.8792Z" fill="url(#paint10_linear_6_5181)" stroke="#EDF6FF" stroke-width="0.2"/>
<path d="M17.047 27.3187C16.5571 26.8288 15.7626 26.8288 15.2725 27.3187L12.1448 30.4464L9.01698 27.3185C8.52702 26.8287 7.73255 26.8287 7.24247 27.3185C6.75251 27.8085 6.75251 28.603 7.24247 29.0931L10.3703 32.2209L7.24247 35.3487C6.75251 35.8387 6.75251 36.6331 7.24247 37.1232C7.48751 37.368 7.80871 37.4906 8.12979 37.4906C8.45086 37.4906 8.77206 37.368 9.01698 37.1231L12.1448 33.9954L15.2726 37.1232C15.5177 37.3681 15.8387 37.4907 16.1598 37.4907C16.4809 37.4907 16.8021 37.3681 17.047 37.1232C17.537 36.6333 17.537 35.8388 17.047 35.3487L13.9193 32.2209L17.0471 29.0931C17.537 28.6031 17.537 27.8086 17.047 27.3187Z" fill="url(#paint11_linear_6_5181)" stroke="#EDF6FF" stroke-width="0.2"/>
<path d="M17.047 44.3812C16.5571 43.8913 15.7626 43.8913 15.2725 44.3812L12.1448 47.5089L9.01698 44.381C8.52702 43.8912 7.73255 43.8912 7.24247 44.381C6.75251 44.871 6.75251 45.6655 7.24247 46.1556L10.3703 49.2834L7.24247 52.4112C6.75251 52.9012 6.75251 53.6956 7.24247 54.1857C7.48751 54.4305 7.80871 54.5531 8.12979 54.5531C8.45086 54.5531 8.77206 54.4305 9.01698 54.1856L12.1448 51.0579L15.2726 54.1857C15.5177 54.4306 15.8387 54.5532 16.1598 54.5532C16.4809 54.5532 16.8021 54.4306 17.047 54.1857C17.537 53.6958 17.537 52.9013 17.047 52.4112L13.9193 49.2834L17.0471 46.1556C17.537 45.6656 17.537 44.8711 17.047 44.3812Z" fill="url(#paint12_linear_6_5181)" stroke="#EDF6FF" stroke-width="0.2"/>
<path d="M59.5725 6.875C56.9436 6.875 54.8047 9.01387 54.8047 11.6428V29.9613C54.8047 30.6542 55.3664 31.216 56.0594 31.216C56.7523 31.216 57.3141 30.6542 57.3141 29.9613V15.6265H61.831V54.041H57.3141V41.2536C57.3141 40.5607 56.7523 39.9989 56.0594 39.9989C55.3664 39.9989 54.8047 40.5607 54.8047 41.2536V55.2957C54.8047 55.4736 54.8425 55.6494 54.9156 55.8115L58.4287 63.601C58.6316 64.0507 59.0792 64.3399 59.5725 64.3399C60.0659 64.3399 60.5134 64.0507 60.7163 63.601L64.2294 55.8115C64.3026 55.6494 64.3403 55.4736 64.3403 55.2957V11.6428C64.3403 9.01387 62.2015 6.875 59.5725 6.875ZM57.3141 13.1171V11.6428C57.3141 10.3975 58.3272 9.38438 59.5725 9.38438C60.8178 9.38438 61.831 10.3975 61.831 11.6428V13.1171H57.3141ZM59.5725 60.0334L58.0016 56.5504H61.1434L59.5725 60.0334Z" fill="url(#paint13_linear_6_5181)" stroke="#EDF6FF" stroke-width="0.2"/>
<path d="M56.0594 36.8629C56.3894 36.8629 56.7131 36.7286 56.9464 36.4951C57.1798 36.2619 57.3141 35.9382 57.3141 35.6082C57.3141 35.2768 57.1798 34.9545 56.9464 34.7211C56.7131 34.4878 56.3894 34.3535 56.0594 34.3535C55.7294 34.3535 55.4057 34.4876 55.1723 34.7211C54.9389 34.9545 54.8047 35.2782 54.8047 35.6082C54.8047 35.9382 54.9389 36.2619 55.1723 36.4951C55.4057 36.7286 55.7294 36.8629 56.0594 36.8629Z" fill="url(#paint14_linear_6_5181)" stroke="#EDF6FF" stroke-width="0.2"/>
<defs>
<linearGradient id="paint0_linear_6_5181" x1="41.4146" y1="13.253" x2="0.781255" y2="45.6673" gradientUnits="userSpaceOnUse">
<stop stop-color="#4338CA"/>
<stop offset="1" stop-color="#1F1A63"/>
</linearGradient>
<linearGradient id="paint1_linear_6_5181" x1="40.116" y1="18.4298" x2="39.7379" y2="21.6412" gradientUnits="userSpaceOnUse">
<stop stop-color="#4338CA"/>
<stop offset="1" stop-color="#1F1A63"/>
</linearGradient>
<linearGradient id="paint2_linear_6_5181" x1="31.7505" y1="10.4005" x2="31.0406" y2="13.4935" gradientUnits="userSpaceOnUse">
<stop stop-color="#4338CA"/>
<stop offset="1" stop-color="#1F1A63"/>
</linearGradient>
<linearGradient id="paint3_linear_6_5181" x1="42.7221" y1="10.4005" x2="41.6947" y2="13.2913" gradientUnits="userSpaceOnUse">
<stop stop-color="#4338CA"/>
<stop offset="1" stop-color="#1F1A63"/>
</linearGradient>
<linearGradient id="paint4_linear_6_5181" x1="40.116" y1="35.4943" x2="39.7379" y2="38.7056" gradientUnits="userSpaceOnUse">
<stop stop-color="#4338CA"/>
<stop offset="1" stop-color="#1F1A63"/>
</linearGradient>
<linearGradient id="paint5_linear_6_5181" x1="31.7505" y1="27.465" x2="31.0406" y2="30.5579" gradientUnits="userSpaceOnUse">
<stop stop-color="#4338CA"/>
<stop offset="1" stop-color="#1F1A63"/>
</linearGradient>
<linearGradient id="paint6_linear_6_5181" x1="42.7221" y1="27.465" x2="41.6947" y2="30.3558" gradientUnits="userSpaceOnUse">
<stop stop-color="#4338CA"/>
<stop offset="1" stop-color="#1F1A63"/>
</linearGradient>
<linearGradient id="paint7_linear_6_5181" x1="40.116" y1="52.5568" x2="39.7379" y2="55.7681" gradientUnits="userSpaceOnUse">
<stop stop-color="#4338CA"/>
<stop offset="1" stop-color="#1F1A63"/>
</linearGradient>
<linearGradient id="paint8_linear_6_5181" x1="31.7505" y1="44.5275" x2="31.0406" y2="47.6204" gradientUnits="userSpaceOnUse">
<stop stop-color="#4338CA"/>
<stop offset="1" stop-color="#1F1A63"/>
</linearGradient>
<linearGradient id="paint9_linear_6_5181" x1="42.7221" y1="44.5275" x2="41.6947" y2="47.4183" gradientUnits="userSpaceOnUse">
<stop stop-color="#4338CA"/>
<stop offset="1" stop-color="#1F1A63"/>
</linearGradient>
<linearGradient id="paint10_linear_6_5181" x1="15.4671" y1="14.1324" x2="10.5511" y2="20.7502" gradientUnits="userSpaceOnUse">
<stop stop-color="#4338CA"/>
<stop offset="1" stop-color="#1F1A63"/>
</linearGradient>
<linearGradient id="paint11_linear_6_5181" x1="15.4653" y1="29.1092" x2="8.62827" y2="36.0213" gradientUnits="userSpaceOnUse">
<stop stop-color="#4338CA"/>
<stop offset="1" stop-color="#1F1A63"/>
</linearGradient>
<linearGradient id="paint12_linear_6_5181" x1="15.4653" y1="46.1717" x2="8.62827" y2="53.0838" gradientUnits="userSpaceOnUse">
<stop stop-color="#4338CA"/>
<stop offset="1" stop-color="#1F1A63"/>
</linearGradient>
<linearGradient id="paint13_linear_6_5181" x1="62.5768" y1="18.6411" x2="50.411" y2="20.6821" gradientUnits="userSpaceOnUse">
<stop stop-color="#4338CA"/>
<stop offset="1" stop-color="#1F1A63"/>
</linearGradient>
<linearGradient id="paint14_linear_6_5181" x1="56.85" y1="34.8673" x2="55.2221" y2="36.513" gradientUnits="userSpaceOnUse">
<stop stop-color="#4338CA"/>
<stop offset="1" stop-color="#1F1A63"/>
</linearGradient>
</defs>
</svg>
