<svg width="53" height="68" viewBox="0 0 53 68" fill="none" xmlns="http://www.w3.org/2000/svg">
<path d="M34.8799 0.261719H47.1738C49.8965 0.261757 52.1116 2.47722 52.1113 5.19922V17.4941C52.1113 20.2163 49.896 22.4316 47.1738 22.4316H34.8799C32.1571 22.4316 29.9414 20.2163 29.9414 17.4941V5.19922C29.9416 2.47717 32.1572 0.261719 34.8799 0.261719ZM34.8799 3.71777C34.0625 3.71777 33.3986 4.38258 33.3984 5.19922V17.4941C33.3985 18.3109 34.0624 18.9756 34.8799 18.9756H47.1738C47.9911 18.9755 48.6552 18.311 48.6553 17.4941V5.19922C48.6551 4.38246 47.991 3.71781 47.1738 3.71777H34.8799Z" fill="url(#paint0_linear_6_5162)" stroke="white" stroke-width="0.524063"/>
<path d="M9.39941 0.261719H21.6934C24.416 0.261719 26.6316 2.47717 26.6318 5.19922V17.4932C26.6318 20.2159 24.4161 22.4316 21.6934 22.4316H20.959V24.8223L21.2998 24.7148C21.8099 24.5549 22.3523 24.4688 22.915 24.4688C24.7013 24.4688 26.2886 25.3388 27.2754 26.6787L27.4141 26.8662L27.6162 26.751C28.4038 26.3029 29.3138 26.0469 30.2832 26.0469C32.1595 26.0469 33.8161 27.0067 34.7881 28.4629L34.9199 28.6592L35.1289 28.5488C35.8825 28.1501 36.741 27.9238 37.6523 27.9238C40.6362 27.924 43.0644 30.3521 43.0645 33.3359V33.3369L43.0625 46.7832C43.0619 53.948 40.9799 60.8992 37.0439 66.8867C36.7239 67.3729 36.1822 67.6659 35.6006 67.666H13.2168C12.775 67.666 12.35 67.4969 12.0293 67.1934C11.7227 66.9032 4.49825 59.9688 3.02148 50.7236L3.01953 50.7139L3.01758 50.7051L0.402344 39.5127C0.0545929 38.0228 0.362819 36.5419 1.23438 35.4434C2.06417 34.3973 3.34722 33.7688 4.78906 33.7109H4.80859L4.82812 33.707C6.16856 33.4491 7.53468 33.7005 8.70117 34.4248C9.06348 34.65 9.39391 34.9129 9.6875 35.207L10.1348 35.6553V22.4316H9.39941C6.67728 22.4315 4.46195 20.2163 4.46191 17.4941V5.19922C4.46213 2.47721 6.67739 0.261823 9.39941 0.261719ZM15.5469 14.335C14.4678 14.335 13.5909 15.212 13.5908 16.291V47.9199C13.5907 48.4152 13.3774 48.8869 13.0059 49.2148C12.6806 49.5019 12.2613 49.6551 11.832 49.6475L11.6475 49.6338L11.4873 49.6143H11.4883C10.7711 49.5243 10.1854 48.9971 10.0205 48.293L7.75 38.5771C7.63106 38.0694 7.32135 37.6369 6.87793 37.3613C6.47918 37.1136 6.02232 37.063 5.60254 37.0732L5.4248 37.0811C5.32541 37.0871 5.25292 37.0967 5.18359 37.1064L4.96289 37.1338C4.55128 37.1732 4.17595 37.2965 3.94238 37.5908C3.70538 37.8891 3.66908 38.3076 3.7666 38.7266L6.39844 49.9893L6.39941 49.9912L6.42383 50.1162C7.47706 56.8566 12.2523 62.4155 13.8623 64.1279L13.9395 64.21H34.6533L34.7295 64.085C37.9223 58.8727 39.6059 52.9132 39.6064 46.7822L39.6084 33.3359C39.6084 32.2575 38.7314 31.38 37.6523 31.3799C36.5737 31.3799 35.6963 32.2578 35.6963 33.3369V36.5693C35.6963 37.5233 34.9222 38.2979 33.9678 38.2979C33.0133 38.2978 32.2402 37.5233 32.2402 36.5693V31.459C32.24 30.3806 31.3622 29.5029 30.2832 29.5029C29.2049 29.5031 28.3274 30.3807 28.3271 31.459V35.1797C28.327 36.1339 27.5539 36.9071 26.5996 36.9072C25.6452 36.9072 24.8713 36.134 24.8711 35.1797V29.8809C24.8709 28.8019 23.9934 27.9248 22.915 27.9248C21.8361 27.9248 20.9592 28.8019 20.959 29.8809V34.9531C20.9589 35.907 20.1848 36.6807 19.2305 36.6807C18.2763 36.6805 17.5031 35.9069 17.5029 34.9531V16.291C17.5028 15.212 16.6252 14.3351 15.5469 14.335ZM9.39941 3.71777C8.58275 3.71788 7.91818 4.38257 7.91797 5.19922V17.4941C7.91801 18.3109 8.58264 18.9755 9.39941 18.9756H10.1348V16.291C10.1348 13.3071 12.5629 10.8779 15.5469 10.8779C18.5307 10.8781 20.959 13.3072 20.959 16.291V18.9756H21.6934C22.5107 18.9756 23.1757 18.3111 23.1758 17.4941V5.19922C23.1756 4.38244 22.5106 3.71777 21.6934 3.71777H9.39941Z" fill="url(#paint1_linear_6_5162)" stroke="white" stroke-width="0.524063"/>
<defs>
<linearGradient id="paint0_linear_6_5162" x1="48.1764" y1="4.6466" x2="33.4549" y2="19.5297" gradientUnits="userSpaceOnUse">
<stop stop-color="#4338CA"/>
<stop offset="1" stop-color="#1F1A63"/>
</linearGradient>
<linearGradient id="paint1_linear_6_5162" x1="35.3136" y1="13.9085" x2="-4.82795" y2="39.7929" gradientUnits="userSpaceOnUse">
<stop stop-color="#4338CA"/>
<stop offset="1" stop-color="#1F1A63"/>
</linearGradient>
</defs>
</svg>
