<svg width="64" height="64" viewBox="0 0 64 64" fill="none" xmlns="http://www.w3.org/2000/svg">
<path d="M31.8913 27.5312C29.4872 27.5312 27.5312 29.4872 27.5312 31.8913C27.5312 34.2954 29.4872 36.2513 31.8913 36.2513C34.2954 36.2513 36.2513 34.2954 36.2513 31.8913C36.2513 29.4872 34.2954 27.5312 31.8913 27.5312ZM31.8913 33.7599C30.8609 33.7599 30.0227 32.9216 30.0227 31.8913C30.0227 30.8609 30.8609 30.0227 31.8913 30.0227C32.9216 30.0227 33.7599 30.8609 33.7599 31.8913C33.7599 32.9216 32.9216 33.7599 31.8913 33.7599Z" fill="url(#paint0_linear_6_5293)"/>
<path d="M57.802 11.2125C57.802 10.5245 57.2443 9.9668 56.5562 9.9668H44.0992C43.4112 9.9668 42.8535 10.5245 42.8535 11.2125C42.8535 11.9005 43.4112 12.4582 44.0992 12.4582H56.5562C57.2443 12.4582 57.802 11.9005 57.802 11.2125Z" fill="url(#paint1_linear_6_5293)"/>
<path d="M44.0992 7.47387H56.5565C57.2445 7.47387 57.8022 6.91616 57.8022 6.22815C57.8022 5.54013 57.2445 4.98242 56.5565 4.98242H44.0992C43.4112 4.98242 42.8535 5.54013 42.8535 6.22815C42.8535 6.91616 43.4112 7.47387 44.0992 7.47387Z" fill="url(#paint2_linear_6_5293)"/>
<path d="M42.8535 52.5699C42.8535 53.258 43.4112 53.8157 44.0992 53.8157H56.5562C57.2443 53.8157 57.802 53.258 57.802 52.5699C57.802 51.8819 57.2443 51.3242 56.5562 51.3242H44.0992C43.4112 51.3242 42.8535 51.8819 42.8535 52.5699Z" fill="url(#paint3_linear_6_5293)"/>
<path d="M56.5565 56.3066H44.0992C43.4112 56.3066 42.8535 56.8644 42.8535 57.5524C42.8535 58.2404 43.4112 58.7981 44.0992 58.7981H56.5565C57.2445 58.7981 57.8022 58.2404 57.8022 57.5524C57.8022 56.8644 57.2445 56.3066 56.5565 56.3066Z" fill="url(#paint4_linear_6_5293)"/>
<path d="M50.3272 29.6881C51.0152 29.6881 51.5729 29.1304 51.5729 28.4424V20.4476L54.5805 17.4401H60.0438C62.1045 17.4401 63.781 15.7636 63.781 13.7029V3.73716C63.781 1.67649 62.1045 0 60.0438 0H40.6106C38.5499 0 36.8734 1.67649 36.8734 3.73716V13.7029C36.8734 15.7636 38.5499 17.4401 40.6106 17.4401H46.0741L49.0815 20.4476V27.1967H43.5649L41.4331 23.5042C41.1157 22.9545 40.436 22.7317 39.8544 22.986L37.8178 23.8783C37.2103 23.4274 36.5574 23.0499 35.8654 22.7492L35.6201 20.5413C35.55 19.9105 35.0168 19.4331 34.382 19.4331H29.3991C28.7643 19.4331 28.2311 19.9105 28.161 20.5413L27.9157 22.7492C27.224 23.0499 26.571 23.4275 25.9634 23.8783L23.9268 22.986C23.3454 22.7314 22.6654 22.9546 22.3481 23.5042L20.2163 27.1967H14.6995V20.4476L17.707 17.4401H23.1704C25.2311 17.4401 26.9076 15.7636 26.9076 13.7029V3.73716C26.9076 1.67649 25.2311 0 23.1704 0H3.73716C1.67649 0 0 1.67649 0 3.73716V13.7029C0 15.7636 1.67649 17.4401 3.73716 17.4401H9.20064L12.2081 20.4476V28.4424C12.2081 29.1304 12.7658 29.6881 13.4538 29.6881H20.5265L21.9882 30.7636C21.946 31.1375 21.9247 31.5144 21.9247 31.8906C21.9247 32.2664 21.946 32.6432 21.9883 33.0174L20.5265 34.0929H13.4538C12.7658 34.0929 12.2081 34.6506 12.2081 35.3386V43.3334L9.20064 46.3409H3.73716C1.67649 46.3409 0 48.0174 0 50.0781V60.0438C0 62.1045 1.67649 63.781 3.73716 63.781H23.1704C25.2311 63.781 26.9076 62.1045 26.9076 60.0438V50.0781C26.9076 48.0174 25.2311 46.3409 23.1704 46.3409H17.7069L14.6995 43.3335V36.5844H20.2162L22.348 40.2769C22.6653 40.8266 23.345 41.0497 23.9267 40.7951L25.9632 39.9028C26.5707 40.3536 27.2236 40.7312 27.9157 41.0319L28.1611 43.2397C28.2313 43.8705 28.7644 44.3479 29.3992 44.3479H34.3819C35.0167 44.3479 35.5499 43.8706 35.62 43.2397L35.8654 41.0318C36.5573 40.7311 37.2102 40.3535 37.8178 39.9027L39.8544 40.795C40.436 41.0495 41.1157 40.8264 41.4331 40.2767L43.5649 36.5843H49.0815V43.3334L46.0741 46.3409H40.6106C38.5499 46.3409 36.8734 48.0174 36.8734 50.0781V60.0438C36.8734 62.1045 38.5499 63.781 40.6106 63.781H60.0438C62.1045 63.781 63.781 62.1045 63.781 60.0438V50.0781C63.781 48.0174 62.1045 46.3409 60.0438 46.3409H54.5805L51.5729 43.3334V35.3386C51.5729 34.6506 51.0152 34.0929 50.3272 34.0929H43.2546L41.7928 33.0174C41.835 32.6435 41.8563 32.2666 41.8563 31.8904C41.8563 31.5142 41.835 31.1374 41.7928 30.7634L43.2546 29.688L50.3272 29.6881ZM46.5901 14.9486H40.6106C39.9237 14.9486 39.3649 14.3898 39.3649 13.7029V3.73716C39.3649 3.05027 39.9237 2.49144 40.6106 2.49144H60.0438C60.7307 2.49144 61.2896 3.05027 61.2896 3.73716V13.7029C61.2896 14.3898 60.7307 14.9486 60.0438 14.9486H54.0644C53.734 14.9486 53.4171 15.0799 53.1835 15.3135L50.3272 18.1698L47.4709 15.3135C47.2373 15.0799 46.9205 14.9486 46.5901 14.9486ZM9.71662 14.9486H3.73716C3.05027 14.9486 2.49144 14.3898 2.49144 13.7029V3.73716C2.49144 3.05027 3.05027 2.49144 3.73716 2.49144H23.1704C23.8573 2.49144 24.4161 3.05027 24.4161 3.73716V13.7029C24.4161 14.3898 23.8573 14.9486 23.1704 14.9486H17.1909C16.8606 14.9486 16.5437 15.0799 16.3101 15.3135L13.4538 18.1698L10.5975 15.3135C10.3639 15.0799 10.0471 14.9486 9.71662 14.9486ZM17.1909 48.8325H23.1704C23.8573 48.8325 24.4161 49.3913 24.4161 50.0782V60.044C24.4161 60.7309 23.8573 61.2897 23.1704 61.2897H3.73716C3.05027 61.2897 2.49144 60.7309 2.49144 60.044V50.0782C2.49144 49.3913 3.05027 48.8325 3.73716 48.8325H9.71662C10.047 48.8325 10.3639 48.7012 10.5975 48.4676L13.4538 45.6113L16.3101 48.4677C16.5438 48.7012 16.8606 48.8325 17.1909 48.8325ZM39.2251 30.4458C39.3178 30.9195 39.3649 31.4057 39.3649 31.8906C39.3649 32.3754 39.3179 32.8615 39.2251 33.3353C39.1326 33.8083 39.3212 34.2924 39.7094 34.5781L41.2094 35.6815L39.833 38.0656L38.1259 37.3177C37.6838 37.124 37.1697 37.2032 36.8062 37.5207C36.069 38.165 35.2285 38.6511 34.308 38.9655C33.8513 39.1215 33.5258 39.5272 33.4725 40.0068L33.267 41.8566H30.514L30.3085 40.0068C30.2552 39.5272 29.9297 39.1216 29.4731 38.9656C28.5523 38.6511 27.7117 38.1649 26.9748 37.5208C26.6114 37.2033 26.0975 37.124 25.6551 37.3178L23.9481 38.0657L22.5717 35.6817L24.0718 34.5781C24.4601 34.2924 24.6487 33.8085 24.5561 33.3355C24.4633 32.8607 24.4162 32.3748 24.4162 31.8907C24.4162 31.4057 24.4632 30.9196 24.556 30.4459C24.6486 29.9729 24.46 29.4888 24.0717 29.2032L22.5717 28.0997L23.9481 25.7157L25.6552 26.4636C26.0975 26.6572 26.6114 26.5781 26.9748 26.2607C27.7123 25.6162 28.5528 25.1302 29.4731 24.8157C29.9298 24.6598 30.2553 24.254 30.3086 23.7744L30.5142 21.9247H33.2671L33.4726 23.7744C33.5259 24.254 33.8514 24.6597 34.308 24.8156C35.2287 25.1302 36.0692 25.6162 36.8062 26.2604C37.1695 26.5779 37.6835 26.657 38.1259 26.4635L39.833 25.7155L41.2094 28.0996L39.7094 29.203C39.3213 29.4888 39.1326 29.9728 39.2251 30.4458ZM54.0645 48.8324H60.044C60.7309 48.8324 61.2897 49.3912 61.2897 50.0781V60.0438C61.2897 60.7307 60.7309 61.2896 60.044 61.2896H40.6107C39.9238 61.2896 39.365 60.7307 39.365 60.0438V50.0781C39.365 49.3912 39.9238 48.8324 40.6107 48.8324H46.5902C46.9205 48.8324 47.2375 48.7011 47.471 48.4675L50.3273 45.611L53.1837 48.4674C53.4172 48.7012 53.7341 48.8324 54.0645 48.8324Z" fill="url(#paint5_linear_6_5293)"/>
<path d="M20.929 11.2125C20.929 10.5245 20.3713 9.9668 19.6833 9.9668H7.22619C6.53818 9.9668 5.98047 10.5245 5.98047 11.2125C5.98047 11.9005 6.53818 12.4582 7.22619 12.4582H19.6833C20.3712 12.4582 20.929 11.9005 20.929 11.2125Z" fill="url(#paint6_linear_6_5293)"/>
<path d="M7.22619 7.47387H19.6834C20.3715 7.47387 20.9292 6.91616 20.9292 6.22815C20.9292 5.54013 20.3715 4.98242 19.6834 4.98242H7.22619C6.53818 4.98242 5.98047 5.54013 5.98047 6.22815C5.98047 6.91616 6.53818 7.47387 7.22619 7.47387Z" fill="url(#paint7_linear_6_5293)"/>
<path d="M5.98047 52.5699C5.98047 53.258 6.53818 53.8157 7.22619 53.8157H14.0771C14.7651 53.8157 15.3228 53.258 15.3228 52.5699C15.3228 51.8819 14.7651 51.3242 14.0771 51.3242H7.22619C6.5383 51.3242 5.98047 51.8819 5.98047 52.5699Z" fill="url(#paint8_linear_6_5293)"/>
<path d="M5.98047 57.5524C5.98047 58.2404 6.53818 58.7981 7.22619 58.7981H19.6834C20.3715 58.7981 20.9292 58.2404 20.9292 57.5524C20.9292 56.8644 20.3715 56.3066 19.6834 56.3066H7.22619C6.53818 56.3066 5.98047 56.8644 5.98047 57.5524Z" fill="url(#paint9_linear_6_5293)"/>
<path d="M19.6816 53.8157C20.3697 53.8157 20.9274 53.258 20.9274 52.5699C20.9274 51.8819 20.3697 51.3242 19.6816 51.3242H19.6808C18.9928 51.3242 18.4355 51.8819 18.4355 52.5699C18.4355 53.258 18.9936 53.8157 19.6816 53.8157Z" fill="url(#paint10_linear_6_5293)"/>
<defs>
<linearGradient id="paint0_linear_6_5293" x1="34.6386" y1="29.3167" x2="28.9819" y2="35.0356" gradientUnits="userSpaceOnUse">
<stop stop-color="#4338CA"/>
<stop offset="1" stop-color="#1F1A63"/>
</linearGradient>
<linearGradient id="paint1_linear_6_5293" x1="55.0374" y1="10.4769" x2="54.5186" y2="13.624" gradientUnits="userSpaceOnUse">
<stop stop-color="#4338CA"/>
<stop offset="1" stop-color="#1F1A63"/>
</linearGradient>
<linearGradient id="paint2_linear_6_5293" x1="55.0376" y1="5.49255" x2="54.5188" y2="8.63964" gradientUnits="userSpaceOnUse">
<stop stop-color="#4338CA"/>
<stop offset="1" stop-color="#1F1A63"/>
</linearGradient>
<linearGradient id="paint3_linear_6_5293" x1="55.0374" y1="51.8344" x2="54.5186" y2="54.9814" gradientUnits="userSpaceOnUse">
<stop stop-color="#4338CA"/>
<stop offset="1" stop-color="#1F1A63"/>
</linearGradient>
<linearGradient id="paint4_linear_6_5293" x1="55.0376" y1="56.8168" x2="54.5188" y2="59.9639" gradientUnits="userSpaceOnUse">
<stop stop-color="#4338CA"/>
<stop offset="1" stop-color="#1F1A63"/>
</linearGradient>
<linearGradient id="paint5_linear_6_5293" x1="51.9853" y1="13.0594" x2="10.6103" y2="54.8886" gradientUnits="userSpaceOnUse">
<stop stop-color="#4338CA"/>
<stop offset="1" stop-color="#1F1A63"/>
</linearGradient>
<linearGradient id="paint6_linear_6_5293" x1="18.1644" y1="10.4769" x2="17.6456" y2="13.624" gradientUnits="userSpaceOnUse">
<stop stop-color="#4338CA"/>
<stop offset="1" stop-color="#1F1A63"/>
</linearGradient>
<linearGradient id="paint7_linear_6_5293" x1="18.1645" y1="5.49255" x2="17.6457" y2="8.63964" gradientUnits="userSpaceOnUse">
<stop stop-color="#4338CA"/>
<stop offset="1" stop-color="#1F1A63"/>
</linearGradient>
<linearGradient id="paint8_linear_6_5293" x1="13.595" y1="51.8344" x2="12.7978" y2="54.8567" gradientUnits="userSpaceOnUse">
<stop stop-color="#4338CA"/>
<stop offset="1" stop-color="#1F1A63"/>
</linearGradient>
<linearGradient id="paint9_linear_6_5293" x1="18.1645" y1="56.8168" x2="17.6457" y2="59.9639" gradientUnits="userSpaceOnUse">
<stop stop-color="#4338CA"/>
<stop offset="1" stop-color="#1F1A63"/>
</linearGradient>
<linearGradient id="paint10_linear_6_5293" x1="20.4665" y1="51.8344" x2="18.8503" y2="53.4686" gradientUnits="userSpaceOnUse">
<stop stop-color="#4338CA"/>
<stop offset="1" stop-color="#1F1A63"/>
</linearGradient>
</defs>
</svg>
